<svg width="299" height="230" viewBox="0 0 299 230" fill="none" xmlns="http://www.w3.org/2000/svg">
<g filter="url(#filter0_dddd_1679_1854)">
<path d="M80.8203 78.6732C80.8203 76.1413 82.8737 74.0889 85.4068 74.0889H213.827C216.36 74.0889 218.414 76.1413 218.414 78.6732V139.415C218.414 141.947 216.36 144 213.827 144H85.4068C82.8737 144 80.8203 141.947 80.8203 139.415V78.6732Z" fill="white"/>
</g>
<path fill-rule="evenodd" clip-rule="evenodd" d="M195.483 108.76H103.754V108.187H195.483V108.76Z" fill="#B4C1D5"/>
<g opacity="0.9">
<path d="M108.18 91.1439C109.15 91.1439 109.953 91.3808 110.587 91.8545C111.222 92.3206 111.669 92.9662 111.929 93.7914H111.08C110.866 93.2107 110.511 92.7484 110.014 92.4046C109.517 92.0608 108.902 91.8889 108.168 91.8889C107.61 91.8889 107.102 92.0264 106.643 92.3015C106.192 92.5765 105.837 92.97 105.577 93.4819C105.317 93.9938 105.187 94.5898 105.187 95.2698C105.187 95.9498 105.317 96.5458 105.577 97.0577C105.837 97.562 106.192 97.9516 106.643 98.2267C107.102 98.5017 107.61 98.6393 108.168 98.6393C108.902 98.6393 109.517 98.4674 110.014 98.1235C110.511 97.7797 110.866 97.3175 111.08 96.7368H111.929C111.669 97.562 111.222 98.2114 110.587 98.6851C109.953 99.1512 109.15 99.3842 108.18 99.3842C107.438 99.3842 106.777 99.2085 106.196 98.857C105.615 98.5056 105.164 98.0204 104.843 97.4015C104.522 96.775 104.361 96.0644 104.361 95.2698C104.361 94.4675 104.522 93.7532 104.843 93.1266C105.164 92.5001 105.615 92.0149 106.196 91.6711C106.777 91.3197 107.438 91.1439 108.18 91.1439Z" fill="#039F73"/>
<path d="M116.454 92.9662C117.05 92.9662 117.582 93.0961 118.048 93.3559C118.522 93.608 118.893 93.9786 119.16 94.4675C119.428 94.9489 119.561 95.5181 119.561 96.1752C119.561 96.8323 119.428 97.4015 119.16 97.8829C118.893 98.3642 118.522 98.7348 118.048 98.9945C117.582 99.2543 117.05 99.3842 116.454 99.3842C115.858 99.3842 115.323 99.2543 114.849 98.9945C114.375 98.7348 114 98.3642 113.725 97.8829C113.458 97.3939 113.324 96.8246 113.324 96.1752C113.324 95.5181 113.458 94.9489 113.725 94.4675C114 93.9786 114.375 93.608 114.849 93.3559C115.323 93.0961 115.858 92.9662 116.454 92.9662ZM116.454 93.6653C116.041 93.6653 115.659 93.757 115.307 93.9404C114.956 94.1237 114.673 94.4064 114.459 94.7884C114.245 95.1628 114.138 95.6251 114.138 96.1752C114.138 96.7253 114.245 97.1876 114.459 97.562C114.673 97.9363 114.956 98.2152 115.307 98.3986C115.659 98.582 116.041 98.6736 116.454 98.6736C116.859 98.6736 117.234 98.582 117.578 98.3986C117.929 98.2152 118.212 97.9363 118.426 97.562C118.64 97.1876 118.747 96.7253 118.747 96.1752C118.747 95.6251 118.64 95.1628 118.426 94.7884C118.212 94.4064 117.929 94.1237 117.578 93.9404C117.234 93.757 116.859 93.6653 116.454 93.6653Z" fill="#039F73"/>
<path d="M124.361 92.9318C125.087 92.9318 125.675 93.1648 126.126 93.6309C126.585 94.0893 126.814 94.7655 126.814 95.6595V99.304H126.023V95.7168C126.023 95.0368 125.851 94.5172 125.507 94.1581C125.163 93.7914 124.693 93.608 124.097 93.608C123.47 93.608 122.969 93.8105 122.595 94.2154C122.228 94.6127 122.044 95.201 122.044 95.9804V99.304H121.23V93.0464H122.044V94.5822C122.205 94.0473 122.495 93.6386 122.916 93.3559C123.336 93.0732 123.818 92.9318 124.361 92.9318Z" fill="#039F73"/>
<path d="M131.054 98.3986L133.152 93.0464H134.024L131.501 99.304H130.584L128.061 93.0464H128.933L131.054 98.3986Z" fill="#039F73"/>
<path d="M138.045 98.7195C138.611 98.7195 139.085 98.5781 139.467 98.2954C139.849 98.0127 140.078 97.6307 140.155 97.1494H141.003C140.889 97.8141 140.571 98.3527 140.052 98.7653C139.532 99.1779 138.874 99.3842 138.079 99.3842C137.483 99.3842 136.952 99.2581 136.486 99.006C136.027 98.7462 135.668 98.3757 135.408 97.8943C135.148 97.4053 135.018 96.8323 135.018 96.1752C135.018 95.5181 135.148 94.9489 135.408 94.4675C135.668 93.9786 136.027 93.608 136.486 93.3559C136.952 93.0961 137.483 92.9662 138.079 92.9662C138.691 92.9662 139.218 93.0961 139.662 93.3559C140.113 93.608 140.453 93.948 140.682 94.3759C140.919 94.8037 141.038 95.2698 141.038 95.7741C141.038 95.988 141.022 96.1828 140.992 96.3586H135.809C135.817 96.8858 135.924 97.3289 136.13 97.688C136.344 98.0395 136.619 98.2993 136.956 98.4674C137.292 98.6354 137.655 98.7195 138.045 98.7195ZM138.079 93.6194C137.674 93.6194 137.304 93.7035 136.967 93.8716C136.631 94.0397 136.356 94.2995 136.142 94.6509C135.935 94.9947 135.824 95.4264 135.809 95.946H140.235C140.266 95.4341 140.182 95.0024 139.983 94.6509C139.784 94.2995 139.517 94.0397 139.18 93.8716C138.844 93.7035 138.477 93.6194 138.079 93.6194Z" fill="#039F73"/>
<path d="M143.526 94.3415C143.709 93.8907 144.004 93.543 144.409 93.2985C144.814 93.0541 145.307 92.9318 145.888 92.9318V93.8028H145.624C145.02 93.8028 144.52 93.9671 144.122 94.2956C143.725 94.6165 143.526 95.1437 143.526 95.8772V99.304H142.712V93.0464H143.526V94.3415Z" fill="#039F73"/>
<path d="M150.029 98.5934V99.304H149.283C148.679 99.304 148.228 99.1626 147.93 98.8799C147.632 98.5896 147.483 98.1044 147.483 97.4244V93.7455H146.531V93.0464H147.483V91.4648H148.297V93.0464H150.017V93.7455H148.297V97.4359C148.297 97.879 148.377 98.1847 148.538 98.3527C148.698 98.5132 148.981 98.5934 149.386 98.5934H150.029Z" fill="#039F73"/>
<path d="M151.396 91.1898C151.396 91.0217 151.45 90.888 151.557 90.7886C151.671 90.6893 151.817 90.6396 151.992 90.6396C152.168 90.6396 152.31 90.6893 152.417 90.7886C152.524 90.888 152.577 91.0217 152.577 91.1898C152.577 91.3502 152.524 91.4801 152.417 91.5794C152.31 91.6788 152.168 91.7284 151.992 91.7284C151.817 91.7284 151.671 91.6788 151.557 91.5794C151.45 91.4801 151.396 91.3502 151.396 91.1898ZM152.394 93.0464V99.304H151.58V93.0464H152.394Z" fill="#039F73"/>
<path d="M157.194 92.9662C157.79 92.9662 158.322 93.0961 158.788 93.3559C159.262 93.608 159.633 93.9786 159.9 94.4675C160.168 94.9489 160.301 95.5181 160.301 96.1752C160.301 96.8323 160.168 97.4015 159.9 97.8829C159.633 98.3642 159.262 98.7348 158.788 98.9945C158.322 99.2543 157.79 99.3842 157.194 99.3842C156.598 99.3842 156.063 99.2543 155.589 98.9945C155.115 98.7348 154.74 98.3642 154.465 97.8829C154.198 97.3939 154.064 96.8246 154.064 96.1752C154.064 95.5181 154.198 94.9489 154.465 94.4675C154.74 93.9786 155.115 93.608 155.589 93.3559C156.063 93.0961 156.598 92.9662 157.194 92.9662ZM157.194 93.6653C156.781 93.6653 156.399 93.757 156.048 93.9404C155.696 94.1237 155.413 94.4064 155.199 94.7884C154.985 95.1628 154.878 95.6251 154.878 96.1752C154.878 96.7253 154.985 97.1876 155.199 97.562C155.413 97.9363 155.696 98.2152 156.048 98.3986C156.399 98.582 156.781 98.6736 157.194 98.6736C157.599 98.6736 157.974 98.582 158.318 98.3986C158.669 98.2152 158.952 97.9363 159.166 97.562C159.38 97.1876 159.487 96.7253 159.487 96.1752C159.487 95.6251 159.38 95.1628 159.166 94.7884C158.952 94.4064 158.669 94.1237 158.318 93.9404C157.974 93.757 157.599 93.6653 157.194 93.6653Z" fill="#039F73"/>
<path d="M165.101 92.9318C165.827 92.9318 166.415 93.1648 166.866 93.6309C167.325 94.0893 167.554 94.7655 167.554 95.6595V99.304H166.763V95.7168C166.763 95.0368 166.591 94.5172 166.247 94.1581C165.903 93.7914 165.433 93.608 164.837 93.608C164.21 93.608 163.709 93.8105 163.335 94.2154C162.968 94.6127 162.784 95.201 162.784 95.9804V99.304H161.97V93.0464H162.784V94.5822C162.945 94.0473 163.235 93.6386 163.656 93.3559C164.076 93.0732 164.558 92.9318 165.101 92.9318Z" fill="#039F73"/>
<path d="M171.37 92.9662C172.05 92.9662 172.597 93.1457 173.01 93.5048C173.422 93.8639 173.675 94.3491 173.766 94.9604H172.998C172.952 94.5554 172.784 94.223 172.494 93.9633C172.211 93.6959 171.829 93.5621 171.347 93.5621C170.934 93.5621 170.609 93.6653 170.372 93.8716C170.143 94.0702 170.028 94.3377 170.028 94.6738C170.028 94.926 170.101 95.1285 170.246 95.2813C170.399 95.4341 170.586 95.5525 170.808 95.6365C171.03 95.7129 171.328 95.7932 171.702 95.8772C172.161 95.9842 172.528 96.095 172.803 96.2096C173.086 96.3166 173.327 96.4885 173.526 96.7253C173.724 96.9622 173.824 97.2831 173.824 97.688C173.824 98.1847 173.636 98.5934 173.262 98.9143C172.895 99.2276 172.406 99.3842 171.794 99.3842C171.076 99.3842 170.487 99.2085 170.028 98.857C169.57 98.4979 169.298 98.0089 169.214 97.39H169.994C170.04 97.8026 170.219 98.1388 170.533 98.3986C170.846 98.6584 171.271 98.7883 171.806 98.7883C172.203 98.7883 172.513 98.6851 172.734 98.4788C172.956 98.2725 173.067 98.0051 173.067 97.6766C173.067 97.4091 172.99 97.1952 172.838 97.0348C172.685 96.8743 172.494 96.7559 172.264 96.6795C172.043 96.5954 171.737 96.5076 171.347 96.4159C170.896 96.3089 170.533 96.2019 170.258 96.095C169.99 95.988 169.761 95.8237 169.57 95.6022C169.379 95.3729 169.283 95.0635 169.283 94.6738C169.283 94.1619 169.47 93.7493 169.845 93.4361C170.219 93.1228 170.728 92.9662 171.37 92.9662Z" fill="#039F73"/>
</g>
<g opacity="0.9">
<path d="M141.134 117.942C141.776 117.942 142.326 118.057 142.785 118.286C143.243 118.506 143.587 118.813 143.817 119.208C144.055 119.602 144.174 120.042 144.174 120.528C144.174 121.142 144 121.656 143.652 122.068C143.312 122.472 142.831 122.715 142.207 122.797V122.866C142.876 123.058 143.399 123.347 143.775 123.732C144.161 124.108 144.353 124.631 144.353 125.3C144.353 126.116 144.083 126.781 143.542 127.294C143 127.799 142.225 128.051 141.216 128.051C140.18 128.051 139.345 127.79 138.712 127.267C138.079 126.735 137.717 125.951 137.625 124.915H139.18C139.235 125.465 139.432 125.905 139.771 126.235C140.111 126.556 140.569 126.717 141.147 126.717C141.689 126.717 142.101 126.575 142.386 126.29C142.679 126.006 142.826 125.639 142.826 125.19C142.826 124.649 142.615 124.237 142.193 123.952C141.78 123.668 141.179 123.526 140.391 123.526H140.019V122.233H140.391C141.886 122.252 142.633 121.743 142.633 120.707C142.633 120.257 142.496 119.904 142.221 119.648C141.945 119.391 141.569 119.263 141.092 119.263C140.615 119.263 140.216 119.409 139.895 119.703C139.574 119.987 139.382 120.404 139.317 120.954H137.776C137.841 120.001 138.162 119.263 138.74 118.74C139.317 118.208 140.115 117.942 141.134 117.942Z" fill="#424551"/>
<path d="M147.886 125.149C147.959 125.672 148.138 126.075 148.423 126.359C148.716 126.643 149.111 126.786 149.606 126.786C150.303 126.786 150.821 126.51 151.161 125.96C151.509 125.401 151.684 124.525 151.684 123.334L151.67 122.866C151.523 123.361 151.216 123.76 150.748 124.062C150.289 124.356 149.753 124.503 149.138 124.503C148.184 124.503 147.437 124.218 146.895 123.65C146.354 123.072 146.084 122.27 146.084 121.243C146.084 120.62 146.207 120.06 146.455 119.565C146.703 119.07 147.074 118.68 147.57 118.396C148.065 118.103 148.675 117.956 149.4 117.956C150.803 117.956 151.766 118.387 152.289 119.249C152.821 120.102 153.087 121.284 153.087 122.797C153.087 124.512 152.816 125.818 152.275 126.717C151.743 127.615 150.853 128.065 149.606 128.065C148.643 128.065 147.886 127.794 147.336 127.253C146.794 126.703 146.483 126.002 146.4 125.149H147.886ZM151.518 121.408C151.518 120.812 151.344 120.317 150.996 119.923C150.656 119.519 150.143 119.318 149.455 119.318C148.886 119.318 148.427 119.487 148.079 119.827C147.739 120.166 147.57 120.643 147.57 121.257C147.57 121.908 147.739 122.408 148.079 122.756C148.427 123.104 148.9 123.279 149.496 123.279C149.844 123.279 150.17 123.21 150.473 123.072C150.785 122.926 151.037 122.715 151.23 122.44C151.422 122.155 151.518 121.812 151.518 121.408Z" fill="#424551"/>
<path d="M158.198 117.942C158.84 117.942 159.39 118.057 159.849 118.286C160.308 118.506 160.652 118.813 160.881 119.208C161.119 119.602 161.239 120.042 161.239 120.528C161.239 121.142 161.064 121.656 160.716 122.068C160.376 122.472 159.895 122.715 159.271 122.797V122.866C159.941 123.058 160.464 123.347 160.84 123.732C161.225 124.108 161.418 124.631 161.418 125.3C161.418 126.116 161.147 126.781 160.606 127.294C160.065 127.799 159.289 128.051 158.28 128.051C157.244 128.051 156.409 127.79 155.776 127.267C155.143 126.735 154.781 125.951 154.689 124.915H156.244C156.299 125.465 156.496 125.905 156.836 126.235C157.175 126.556 157.634 126.717 158.212 126.717C158.753 126.717 159.166 126.575 159.45 126.29C159.744 126.006 159.89 125.639 159.89 125.19C159.89 124.649 159.679 124.237 159.257 123.952C158.845 123.668 158.244 123.526 157.455 123.526H157.083V122.233H157.455C158.95 122.252 159.698 121.743 159.698 120.707C159.698 120.257 159.56 119.904 159.285 119.648C159.01 119.391 158.634 119.263 158.157 119.263C157.68 119.263 157.281 119.409 156.96 119.703C156.638 119.987 156.446 120.404 156.382 120.954H154.841C154.905 120.001 155.226 119.263 155.804 118.74C156.382 118.208 157.18 117.942 158.198 117.942Z" fill="#424551"/>
</g>
<path fill-rule="evenodd" clip-rule="evenodd" d="M190.697 94.5175C190.809 94.4056 190.991 94.4056 191.103 94.5175L193.193 96.6071L195.284 94.5175C195.396 94.4056 195.577 94.4056 195.689 94.5175C195.801 94.6294 195.801 94.8108 195.689 94.9227L193.396 97.2149C193.284 97.3268 193.102 97.3268 192.99 97.2149L190.697 94.9227C190.585 94.8108 190.585 94.6294 190.697 94.5175Z" fill="#1E212C"/>
<defs>
<filter id="filter0_dddd_1679_1854" x="0.820312" y="0.0888672" width="297.594" height="229.911" filterUnits="userSpaceOnUse" color-interpolation-filters="sRGB">
<feFlood flood-opacity="0" result="BackgroundImageFix"/>
<feColorMatrix in="SourceAlpha" type="matrix" values="0 0 0 0 0 0 0 0 0 0 0 0 0 0 0 0 0 0 127 0" result="hardAlpha"/>
<feOffset dy="1"/>
<feGaussianBlur stdDeviation="10"/>
<feColorMatrix type="matrix" values="0 0 0 0 0.117647 0 0 0 0 0.129412 0 0 0 0 0.172549 0 0 0 0.02 0"/>
<feBlend mode="normal" in2="BackgroundImageFix" result="effect1_dropShadow_1679_1854"/>
<feColorMatrix in="SourceAlpha" type="matrix" values="0 0 0 0 0 0 0 0 0 0 0 0 0 0 0 0 0 0 127 0" result="hardAlpha"/>
<feOffset/>
<feGaussianBlur stdDeviation="22"/>
<feColorMatrix type="matrix" values="0 0 0 0 0.117647 0 0 0 0 0.129412 0 0 0 0 0.172549 0 0 0 0.02 0"/>
<feBlend mode="normal" in2="effect1_dropShadow_1679_1854" result="effect2_dropShadow_1679_1854"/>
<feColorMatrix in="SourceAlpha" type="matrix" values="0 0 0 0 0 0 0 0 0 0 0 0 0 0 0 0 0 0 127 0" result="hardAlpha"/>
<feOffset dy="8"/>
<feGaussianBlur stdDeviation="25"/>
<feColorMatrix type="matrix" values="0 0 0 0 0.117647 0 0 0 0 0.129412 0 0 0 0 0.172549 0 0 0 0.0422367 0"/>
<feBlend mode="normal" in2="effect2_dropShadow_1679_1854" result="effect3_dropShadow_1679_1854"/>
<feColorMatrix in="SourceAlpha" type="matrix" values="0 0 0 0 0 0 0 0 0 0 0 0 0 0 0 0 0 0 127 0" result="hardAlpha"/>
<feOffset dy="6"/>
<feGaussianBlur stdDeviation="40"/>
<feColorMatrix type="matrix" values="0 0 0 0 0.117647 0 0 0 0 0.129412 0 0 0 0 0.172549 0 0 0 0.04 0"/>
<feBlend mode="normal" in2="effect3_dropShadow_1679_1854" result="effect4_dropShadow_1679_1854"/>
<feBlend mode="normal" in="SourceGraphic" in2="effect4_dropShadow_1679_1854" result="shape"/>
</filter>
</defs>
</svg>
