<svg width="289" height="230" viewBox="0 0 289 230" fill="none" xmlns="http://www.w3.org/2000/svg">
<g filter="url(#filter0_dddd_1679_1846)">
<path d="M80.0547 78.6732C80.0547 76.1413 82.1081 74.0889 84.6411 74.0889H203.889C206.422 74.0889 208.475 76.1413 208.475 78.6732V139.415C208.475 141.947 206.422 144 203.889 144H84.6411C82.1081 144 80.0547 141.947 80.0547 139.415V78.6732Z" fill="white"/>
</g>
<path fill-rule="evenodd" clip-rule="evenodd" d="M190.125 108.761H98.3965V108.188H190.125V108.761Z" fill="#B4C1D5"/>
<g opacity="0.9">
<path d="M102.822 91.1439C103.793 91.1439 104.596 91.3808 105.23 91.8545C105.864 92.3206 106.312 92.9662 106.572 93.7914H105.723C105.509 93.2107 105.154 92.7484 104.657 92.4046C104.16 92.0608 103.544 91.8889 102.811 91.8889C102.253 91.8889 101.744 92.0264 101.286 92.3015C100.835 92.5765 100.479 92.97 100.219 93.4819C99.9594 93.9938 99.8295 94.5898 99.8295 95.2698C99.8295 95.9498 99.9594 96.5458 100.219 97.0577C100.479 97.562 100.835 97.9516 101.286 98.2267C101.744 98.5017 102.253 98.6393 102.811 98.6393C103.544 98.6393 104.16 98.4674 104.657 98.1235C105.154 97.7797 105.509 97.3175 105.723 96.7368H106.572C106.312 97.562 105.864 98.2114 105.23 98.6851C104.596 99.1512 103.793 99.3842 102.822 99.3842C102.081 99.3842 101.419 99.2085 100.838 98.857C100.258 98.5056 99.8065 98.0204 99.4855 97.4015C99.1644 96.775 99.0039 96.0644 99.0039 95.2698C99.0039 94.4675 99.1644 93.7532 99.4855 93.1266C99.8065 92.5001 100.258 92.0149 100.838 91.6711C101.419 91.3197 102.081 91.1439 102.822 91.1439Z" fill="#5A87FC"/>
<path d="M109.079 90.823V99.304H108.264V90.823H109.079Z" fill="#5A87FC"/>
<path d="M110.863 91.1898C110.863 91.0217 110.917 90.888 111.024 90.7886C111.139 90.6893 111.284 90.6396 111.46 90.6396C111.635 90.6396 111.777 90.6893 111.884 90.7886C111.991 90.888 112.044 91.0217 112.044 91.1898C112.044 91.3502 111.991 91.4801 111.884 91.5794C111.777 91.6788 111.635 91.7284 111.46 91.7284C111.284 91.7284 111.139 91.6788 111.024 91.5794C110.917 91.4801 110.863 91.3502 110.863 91.1898ZM111.861 93.0464V99.304H111.047V93.0464H111.861Z" fill="#5A87FC"/>
<path d="M116.592 92.9662C117.387 92.9662 118.045 93.1763 118.565 93.5965C119.092 94.0168 119.413 94.5745 119.528 95.2698H118.691C118.607 94.7732 118.374 94.3835 117.991 94.1008C117.609 93.8105 117.139 93.6653 116.581 93.6653C116.176 93.6653 115.801 93.757 115.457 93.9404C115.121 94.1237 114.85 94.4064 114.643 94.7884C114.444 95.1628 114.345 95.6251 114.345 96.1752C114.345 96.7253 114.444 97.1914 114.643 97.5734C114.85 97.9478 115.121 98.2267 115.457 98.4101C115.801 98.5934 116.176 98.6851 116.581 98.6851C117.139 98.6851 117.609 98.5438 117.991 98.2611C118.374 97.9707 118.607 97.5772 118.691 97.0806H119.528C119.413 97.7759 119.092 98.3336 118.565 98.7539C118.045 99.1741 117.387 99.3842 116.592 99.3842C115.996 99.3842 115.465 99.2581 114.999 99.006C114.54 98.7462 114.181 98.3757 113.921 97.8943C113.661 97.4053 113.531 96.8323 113.531 96.1752C113.531 95.5181 113.661 94.9489 113.921 94.4675C114.181 93.9786 114.54 93.608 114.999 93.3559C115.465 93.0961 115.996 92.9662 116.592 92.9662Z" fill="#5A87FC"/>
<path d="M124.55 99.304L122.016 96.4388V99.304H121.202V90.823H122.016V95.797L124.505 93.0464H125.502L122.624 96.1408L125.582 99.304H124.55Z" fill="#5A87FC"/>
<path d="M128.654 92.9662C129.334 92.9662 129.88 93.1457 130.293 93.5048C130.706 93.8639 130.958 94.3491 131.05 94.9604H130.282C130.236 94.5554 130.068 94.223 129.777 93.9633C129.494 93.6959 129.112 93.5621 128.631 93.5621C128.218 93.5621 127.893 93.6653 127.656 93.8716C127.427 94.0702 127.312 94.3377 127.312 94.6738C127.312 94.926 127.385 95.1285 127.53 95.2813C127.683 95.4341 127.87 95.5525 128.092 95.6365C128.313 95.7129 128.612 95.7932 128.986 95.8772C129.445 95.9842 129.812 96.095 130.087 96.2096C130.37 96.3166 130.61 96.4885 130.809 96.7253C131.008 96.9622 131.107 97.2831 131.107 97.688C131.107 98.1847 130.92 98.5934 130.545 98.9143C130.179 99.2276 129.689 99.3842 129.078 99.3842C128.359 99.3842 127.771 99.2085 127.312 98.857C126.853 98.4979 126.582 98.0089 126.498 97.39H127.278C127.323 97.8026 127.503 98.1388 127.817 98.3986C128.13 98.6584 128.554 98.7883 129.089 98.7883C129.487 98.7883 129.796 98.6851 130.018 98.4788C130.24 98.2725 130.351 98.0051 130.351 97.6766C130.351 97.4091 130.274 97.1952 130.121 97.0348C129.968 96.8743 129.777 96.7559 129.548 96.6795C129.326 96.5954 129.02 96.5076 128.631 96.4159C128.18 96.3089 127.817 96.2019 127.541 96.095C127.274 95.988 127.044 95.8237 126.853 95.6022C126.662 95.3729 126.567 95.0635 126.567 94.6738C126.567 94.1619 126.754 93.7493 127.129 93.4361C127.503 93.1228 128.011 92.9662 128.654 92.9662Z" fill="#5A87FC"/>
</g>
<g opacity="0.9">
<path d="M124.945 119.719V118.247H128.055V127.957H126.404V119.719H124.945Z" fill="#424551"/>
<path d="M130.224 120.503C130.224 120.026 130.352 119.59 130.609 119.196C130.866 118.802 131.247 118.486 131.751 118.247C132.265 118.009 132.879 117.89 133.595 117.89C134.31 117.89 134.92 118.009 135.425 118.247C135.939 118.486 136.324 118.802 136.581 119.196C136.847 119.59 136.98 120.026 136.98 120.503C136.98 121.034 136.838 121.493 136.553 121.878C136.278 122.263 135.865 122.543 135.315 122.717C135.929 122.909 136.402 123.221 136.732 123.652C137.062 124.074 137.227 124.592 137.227 125.206C137.227 126.151 136.893 126.889 136.223 127.42C135.553 127.943 134.677 128.204 133.595 128.204C132.513 128.204 131.637 127.943 130.967 127.42C130.307 126.889 129.976 126.151 129.976 125.206C129.976 124.592 130.141 124.074 130.472 123.652C130.802 123.221 131.274 122.909 131.889 122.717C131.338 122.543 130.921 122.263 130.637 121.878C130.362 121.493 130.224 121.034 130.224 120.503ZM131.779 120.75C131.779 121.245 131.939 121.63 132.26 121.906C132.591 122.171 133.035 122.304 133.595 122.304C134.155 122.304 134.599 122.171 134.93 121.906C135.26 121.63 135.425 121.245 135.425 120.75C135.425 120.255 135.255 119.87 134.916 119.595C134.586 119.32 134.145 119.182 133.595 119.182C133.045 119.182 132.604 119.32 132.274 119.595C131.944 119.87 131.779 120.255 131.779 120.75ZM131.504 125.124C131.504 125.683 131.692 126.123 132.068 126.444C132.444 126.756 132.953 126.912 133.595 126.912C134.237 126.912 134.746 126.756 135.122 126.444C135.498 126.123 135.686 125.683 135.686 125.124C135.686 124.555 135.489 124.129 135.095 123.845C134.709 123.551 134.21 123.405 133.595 123.405C132.99 123.405 132.49 123.551 132.095 123.845C131.701 124.138 131.504 124.564 131.504 125.124Z" fill="#424551"/>
<path d="M138.932 123.033C138.932 124.583 139.207 125.798 139.757 126.678C140.308 127.549 141.225 127.984 142.509 127.984C143.793 127.984 144.711 127.544 145.261 126.664C145.811 125.784 146.087 124.574 146.087 123.033C146.087 121.502 145.811 120.301 145.261 119.43C144.711 118.55 143.793 118.11 142.509 118.11C141.225 118.11 140.308 118.545 139.757 119.416C139.207 120.287 138.932 121.493 138.932 123.033ZM144.518 123.033C144.518 124.152 144.38 125.009 144.105 125.605C143.83 126.201 143.298 126.499 142.509 126.499C141.711 126.499 141.174 126.201 140.899 125.605C140.624 125.009 140.486 124.152 140.486 123.033C140.486 121.924 140.624 121.076 140.899 120.489C141.174 119.902 141.711 119.609 142.509 119.609C143.298 119.609 143.83 119.907 144.105 120.503C144.38 121.09 144.518 121.933 144.518 123.033Z" fill="#424551"/>
<path d="M153.104 120.86C152.939 119.778 152.375 119.237 151.412 119.237C150.715 119.237 150.192 119.517 149.843 120.076C149.495 120.626 149.321 121.493 149.321 122.676L149.334 123.143C149.472 122.648 149.77 122.254 150.229 121.961C150.687 121.667 151.229 121.52 151.852 121.52C152.806 121.52 153.554 121.805 154.095 122.373C154.636 122.942 154.907 123.744 154.907 124.78C154.907 125.403 154.783 125.963 154.535 126.458C154.288 126.944 153.916 127.333 153.421 127.627C152.926 127.911 152.316 128.053 151.591 128.053C150.187 128.053 149.224 127.618 148.701 126.747C148.179 125.876 147.917 124.679 147.917 123.157C147.917 121.415 148.197 120.113 148.756 119.251C149.316 118.389 150.233 117.958 151.508 117.958C152.462 117.958 153.192 118.229 153.696 118.77C154.21 119.311 154.508 120.008 154.59 120.86H153.104ZM149.472 124.601C149.472 125.197 149.646 125.697 149.995 126.1C150.343 126.494 150.857 126.692 151.536 126.692C152.114 126.692 152.572 126.522 152.912 126.183C153.26 125.843 153.435 125.371 153.435 124.766C153.435 124.115 153.26 123.615 152.912 123.267C152.563 122.919 152.091 122.744 151.495 122.744C150.953 122.744 150.481 122.905 150.077 123.226C149.674 123.547 149.472 124.005 149.472 124.601Z" fill="#424551"/>
<path d="M156.627 123.033C156.627 124.583 156.903 125.798 157.453 126.678C158.003 127.549 158.921 127.984 160.205 127.984C161.489 127.984 162.406 127.544 162.957 126.664C163.507 125.784 163.782 124.574 163.782 123.033C163.782 121.502 163.507 120.301 162.957 119.43C162.406 118.55 161.489 118.11 160.205 118.11C158.921 118.11 158.003 118.545 157.453 119.416C156.903 120.287 156.627 121.493 156.627 123.033ZM162.214 123.033C162.214 124.152 162.076 125.009 161.801 125.605C161.526 126.201 160.994 126.499 160.205 126.499C159.407 126.499 158.87 126.201 158.595 125.605C158.32 125.009 158.182 124.152 158.182 123.033C158.182 121.924 158.32 121.076 158.595 120.489C158.87 119.902 159.407 119.609 160.205 119.609C160.994 119.609 161.526 119.907 161.801 120.503C162.076 121.09 162.214 121.933 162.214 123.033Z" fill="#424551"/>
</g>
<path fill-rule="evenodd" clip-rule="evenodd" d="M185.336 94.5175C185.448 94.4056 185.629 94.4056 185.741 94.5175L187.832 96.6071L189.922 94.5175C190.034 94.4056 190.216 94.4056 190.328 94.5175C190.44 94.6294 190.44 94.8108 190.328 94.9227L188.035 97.2148C187.923 97.3267 187.741 97.3267 187.629 97.2148L185.336 94.9227C185.224 94.8108 185.224 94.6294 185.336 94.5175Z" fill="#1E212C"/>
<defs>
<filter id="filter0_dddd_1679_1846" x="0.0546875" y="0.0888672" width="288.42" height="229.911" filterUnits="userSpaceOnUse" color-interpolation-filters="sRGB">
<feFlood flood-opacity="0" result="BackgroundImageFix"/>
<feColorMatrix in="SourceAlpha" type="matrix" values="0 0 0 0 0 0 0 0 0 0 0 0 0 0 0 0 0 0 127 0" result="hardAlpha"/>
<feOffset dy="1"/>
<feGaussianBlur stdDeviation="10"/>
<feColorMatrix type="matrix" values="0 0 0 0 0.117647 0 0 0 0 0.129412 0 0 0 0 0.172549 0 0 0 0.02 0"/>
<feBlend mode="normal" in2="BackgroundImageFix" result="effect1_dropShadow_1679_1846"/>
<feColorMatrix in="SourceAlpha" type="matrix" values="0 0 0 0 0 0 0 0 0 0 0 0 0 0 0 0 0 0 127 0" result="hardAlpha"/>
<feOffset/>
<feGaussianBlur stdDeviation="22"/>
<feColorMatrix type="matrix" values="0 0 0 0 0.117647 0 0 0 0 0.129412 0 0 0 0 0.172549 0 0 0 0.02 0"/>
<feBlend mode="normal" in2="effect1_dropShadow_1679_1846" result="effect2_dropShadow_1679_1846"/>
<feColorMatrix in="SourceAlpha" type="matrix" values="0 0 0 0 0 0 0 0 0 0 0 0 0 0 0 0 0 0 127 0" result="hardAlpha"/>
<feOffset dy="8"/>
<feGaussianBlur stdDeviation="25"/>
<feColorMatrix type="matrix" values="0 0 0 0 0.117647 0 0 0 0 0.129412 0 0 0 0 0.172549 0 0 0 0.0422367 0"/>
<feBlend mode="normal" in2="effect2_dropShadow_1679_1846" result="effect3_dropShadow_1679_1846"/>
<feColorMatrix in="SourceAlpha" type="matrix" values="0 0 0 0 0 0 0 0 0 0 0 0 0 0 0 0 0 0 127 0" result="hardAlpha"/>
<feOffset dy="6"/>
<feGaussianBlur stdDeviation="40"/>
<feColorMatrix type="matrix" values="0 0 0 0 0.117647 0 0 0 0 0.129412 0 0 0 0 0.172549 0 0 0 0.04 0"/>
<feBlend mode="normal" in2="effect3_dropShadow_1679_1846" result="effect4_dropShadow_1679_1846"/>
<feBlend mode="normal" in="SourceGraphic" in2="effect4_dropShadow_1679_1846" result="shape"/>
</filter>
</defs>
</svg>
