<svg width="419" height="254" viewBox="0 0 419 254" fill="none" xmlns="http://www.w3.org/2000/svg">
<g filter="url(#filter0_dddd_1679_1833)">
<path d="M80.6855 79.517C80.6855 76.47 83.1573 74 86.2064 74H333.264C336.313 74 338.784 76.47 338.784 79.517V162.271C338.784 165.318 336.313 167.788 333.264 167.788H86.2064C83.1573 167.788 80.6855 165.318 80.6855 162.271V79.517Z" fill="white"/>
</g>
<g opacity="0.9">
<path d="M147.068 109.045V107.588H149.873V115.378H148.239V109.045H147.068Z" fill="#1E212C"/>
<path d="M151.32 111.417C151.32 114.058 152.314 115.378 154.302 115.378C155.354 115.378 156.112 115.025 156.576 114.319C157.04 113.613 157.272 112.645 157.272 111.417C157.272 110.196 157.04 109.232 156.576 108.526C156.112 107.82 155.354 107.467 154.302 107.467C152.314 107.467 151.32 108.783 151.32 111.417ZM155.737 111.417C155.737 112.219 155.638 112.837 155.439 113.271C155.247 113.697 154.868 113.91 154.302 113.91C153.727 113.91 153.341 113.697 153.142 113.271C152.951 112.837 152.855 112.219 152.855 111.417C152.855 110.622 152.951 110.012 153.142 109.585C153.341 109.151 153.727 108.934 154.302 108.934C154.868 108.934 155.247 109.151 155.439 109.585C155.638 110.012 155.737 110.622 155.737 111.417Z" fill="#1E212C"/>
<path d="M158.407 114.153C160.903 112.425 162.15 110.99 162.15 109.85C162.15 109.504 162.066 109.232 161.896 109.033C161.734 108.835 161.477 108.736 161.123 108.736C160.395 108.736 160.008 109.232 159.964 110.225H158.451C158.496 109.306 158.775 108.611 159.291 108.14C159.806 107.662 160.457 107.423 161.245 107.423C162.047 107.423 162.662 107.632 163.089 108.051C163.523 108.463 163.74 109.015 163.74 109.707C163.74 110.251 163.578 110.799 163.254 111.351C162.938 111.895 162.533 112.399 162.04 112.862C161.547 113.318 161.028 113.712 160.483 114.043H163.895V115.312H158.407V114.153Z" fill="#1E212C"/>
<path d="M167.452 110.942C167.452 109.537 167.725 108.276 168.269 107.158C168.814 106.04 169.532 105.135 170.423 104.443H171.935V104.598C169.948 106.238 168.954 108.353 168.954 110.942C168.954 113.532 169.948 115.646 171.935 117.287V117.43H170.423C169.532 116.739 168.814 115.838 168.269 114.727C167.725 113.609 167.452 112.347 167.452 110.942Z" fill="#1E212C"/>
<path d="M176.08 108.78C175.44 108.78 174.95 109.019 174.612 109.497C174.273 109.975 174.104 110.63 174.104 111.461C174.104 112.3 174.258 112.951 174.567 113.414C174.884 113.87 175.388 114.098 176.08 114.098C176.404 114.098 176.724 114.061 177.041 113.988C177.365 113.914 177.714 113.811 178.09 113.679V115.08C177.744 115.22 177.401 115.323 177.063 115.389C176.724 115.455 176.345 115.488 175.926 115.488C175.116 115.488 174.446 115.323 173.916 114.992C173.393 114.653 173.007 114.183 172.757 113.579C172.506 112.969 172.381 112.259 172.381 111.45C172.381 110.655 172.525 109.953 172.812 109.342C173.099 108.732 173.515 108.254 174.06 107.908C174.612 107.562 175.285 107.389 176.08 107.389C176.47 107.389 176.86 107.441 177.251 107.544C177.648 107.64 178.027 107.772 178.388 107.941L177.847 109.298C177.552 109.159 177.254 109.037 176.952 108.934C176.658 108.831 176.367 108.78 176.08 108.78Z" fill="#1E212C"/>
<path d="M183.762 115.378L181.94 112.344H181.256V115.378H179.699V107.588H182.669C183.574 107.588 184.263 107.809 184.734 108.25C185.212 108.691 185.451 109.273 185.451 109.993C185.451 110.582 185.286 111.075 184.955 111.472C184.631 111.869 184.16 112.134 183.541 112.266L185.485 115.378H183.762ZM181.256 111.273H182.536C183.427 111.273 183.872 110.88 183.872 110.093C183.872 109.718 183.762 109.427 183.541 109.221C183.328 109.008 182.993 108.901 182.536 108.901H181.256V111.273Z" fill="#1E212C"/>
<path d="M189.051 114.153C191.546 112.425 192.794 110.99 192.794 109.85C192.794 109.504 192.709 109.232 192.54 109.033C192.378 108.835 192.12 108.736 191.767 108.736C191.038 108.736 190.652 109.232 190.608 110.225H189.095C189.139 109.306 189.419 108.611 189.934 108.14C190.449 107.662 191.101 107.423 191.889 107.423C192.691 107.423 193.306 107.632 193.733 108.051C194.167 108.463 194.384 109.015 194.384 109.707C194.384 110.251 194.222 110.799 193.898 111.351C193.582 111.895 193.177 112.399 192.684 112.862C192.19 113.318 191.671 113.712 191.127 114.043H194.539V115.312H189.051V114.153Z" fill="#1E212C"/>
<path d="M197.116 113.756V115.378H195.437V113.756H197.116Z" fill="#1E212C"/>
<path d="M198.076 114.153C200.571 112.425 201.819 110.99 201.819 109.85C201.819 109.504 201.734 109.232 201.565 109.033C201.403 108.835 201.145 108.736 200.792 108.736C200.063 108.736 199.677 109.232 199.633 110.225H198.12C198.164 109.306 198.444 108.611 198.959 108.14C199.474 107.662 200.126 107.423 200.913 107.423C201.716 107.423 202.33 107.632 202.757 108.051C203.192 108.463 203.409 109.015 203.409 109.707C203.409 110.251 203.247 110.799 202.923 111.351C202.606 111.895 202.202 112.399 201.708 112.862C201.215 113.318 200.696 113.712 200.152 114.043H203.563V115.312H198.076V114.153Z" fill="#1E212C"/>
<path d="M204.573 113.811V112.52L208.305 107.5H209.972V112.465H210.988V113.811H209.972V115.378H208.404V113.811H204.573ZM208.526 109.32L206.163 112.465H208.526V109.32Z" fill="#1E212C"/>
<path d="M213.631 107.467C214.146 107.467 214.565 107.625 214.889 107.941C215.221 108.25 215.386 108.68 215.386 109.232C215.386 109.784 215.221 110.218 214.889 110.534C214.565 110.843 214.146 110.998 213.631 110.998C213.115 110.998 212.692 110.843 212.361 110.534C212.037 110.218 211.875 109.784 211.875 109.232C211.875 108.68 212.037 108.25 212.361 107.941C212.692 107.625 213.115 107.467 213.631 107.467ZM218.621 107.566L214.282 115.378H212.78L217.12 107.566H218.621ZM212.924 109.232C212.924 109.482 212.987 109.684 213.112 109.839C213.237 109.986 213.406 110.06 213.62 110.06C213.833 110.06 214.006 109.986 214.139 109.839C214.271 109.684 214.337 109.482 214.337 109.232C214.337 108.982 214.271 108.783 214.139 108.636C214.006 108.482 213.833 108.405 213.62 108.405C213.406 108.405 213.237 108.482 213.112 108.636C212.987 108.783 212.924 108.982 212.924 109.232ZM217.782 111.946C218.298 111.946 218.717 112.105 219.041 112.421C219.365 112.73 219.527 113.16 219.527 113.712C219.527 114.264 219.365 114.698 219.041 115.014C218.717 115.323 218.298 115.477 217.782 115.477C217.267 115.477 216.844 115.323 216.512 115.014C216.189 114.698 216.027 114.264 216.027 113.712C216.027 113.16 216.189 112.73 216.512 112.421C216.844 112.105 217.267 111.946 217.782 111.946ZM217.076 113.712C217.076 113.969 217.138 114.175 217.263 114.33C217.388 114.477 217.558 114.55 217.771 114.55C217.985 114.55 218.158 114.477 218.29 114.33C218.423 114.175 218.489 113.969 218.489 113.712C218.489 113.462 218.423 113.259 218.29 113.105C218.158 112.951 217.985 112.873 217.771 112.873C217.558 112.873 217.388 112.951 217.263 113.105C217.138 113.252 217.076 113.454 217.076 113.712Z" fill="#1E212C"/>
<path d="M224.143 110.931C224.143 112.344 223.87 113.609 223.325 114.727C222.781 115.845 222.063 116.746 221.172 117.43H219.66V117.287C221.647 115.646 222.641 113.532 222.641 110.942C222.641 108.353 221.647 106.238 219.66 104.598V104.443H221.172C222.063 105.135 222.781 106.04 223.325 107.158C223.87 108.268 224.143 109.526 224.143 110.931Z" fill="#1E212C"/>
</g>
<g opacity="0.9">
<path d="M148.692 126.907V131.575C148.692 132.34 148.862 132.906 149.2 133.274C149.539 133.634 150.006 133.815 150.603 133.815C151.191 133.815 151.651 133.631 151.983 133.263C152.314 132.895 152.48 132.332 152.48 131.575V126.907H153.484V131.575C153.484 132.634 153.219 133.432 152.689 133.969C152.167 134.499 151.464 134.764 150.58 134.764C149.704 134.764 149.001 134.499 148.471 133.969C147.949 133.432 147.688 132.634 147.688 131.575V126.907H148.692Z" fill="#787A80"/>
<path d="M158.455 128.529C159.161 128.529 159.732 128.757 160.166 129.214C160.6 129.662 160.818 130.313 160.818 131.167V134.686H159.813V131.255C159.813 130.652 159.658 130.188 159.349 129.865C159.04 129.541 158.62 129.379 158.09 129.379C157.538 129.379 157.096 129.559 156.765 129.92C156.434 130.273 156.268 130.791 156.268 131.475V134.686H155.264V128.629H156.268V130.063C156.423 129.57 156.695 129.191 157.085 128.927C157.483 128.662 157.939 128.529 158.455 128.529Z" fill="#787A80"/>
<path d="M165.064 128.551C165.653 128.551 166.15 128.699 166.555 128.993C166.967 129.287 167.254 129.681 167.416 130.173V126.521H168.421V134.686H167.416V133.142C167.254 133.634 166.967 134.028 166.555 134.322C166.15 134.616 165.653 134.764 165.064 134.764C164.527 134.764 164.048 134.639 163.628 134.388C163.209 134.138 162.878 133.782 162.635 133.318C162.399 132.847 162.281 132.296 162.281 131.663C162.281 131.03 162.399 130.479 162.635 130.008C162.878 129.537 163.209 129.177 163.628 128.927C164.048 128.677 164.527 128.551 165.064 128.551ZM165.351 129.445C164.733 129.445 164.236 129.644 163.86 130.041C163.492 130.431 163.308 130.972 163.308 131.663C163.308 132.355 163.492 132.899 163.86 133.296C164.236 133.686 164.733 133.881 165.351 133.881C165.748 133.881 166.102 133.789 166.411 133.605C166.728 133.421 166.974 133.164 167.151 132.833C167.327 132.494 167.416 132.104 167.416 131.663C167.416 131.222 167.327 130.832 167.151 130.493C166.974 130.155 166.728 129.898 166.411 129.721C166.102 129.537 165.748 129.445 165.351 129.445Z" fill="#787A80"/>
<path d="M175.817 131.321C175.817 131.534 175.802 131.718 175.772 131.873H170.925C170.947 132.564 171.142 133.083 171.51 133.428C171.886 133.774 172.342 133.947 172.879 133.947C173.365 133.947 173.77 133.826 174.094 133.583C174.425 133.333 174.628 133.002 174.701 132.59H175.772C175.699 133.009 175.533 133.384 175.276 133.715C175.025 134.046 174.698 134.304 174.293 134.488C173.888 134.672 173.432 134.764 172.924 134.764C172.342 134.764 171.827 134.639 171.378 134.388C170.929 134.138 170.575 133.782 170.318 133.318C170.068 132.847 169.942 132.296 169.942 131.663C169.942 131.03 170.068 130.479 170.318 130.008C170.575 129.537 170.929 129.177 171.378 128.927C171.827 128.677 172.342 128.551 172.924 128.551C173.513 128.551 174.024 128.677 174.458 128.927C174.9 129.177 175.235 129.511 175.463 129.931C175.699 130.35 175.817 130.813 175.817 131.321ZM174.801 131.387C174.823 130.939 174.749 130.563 174.58 130.262C174.411 129.96 174.179 129.736 173.884 129.589C173.59 129.442 173.27 129.368 172.924 129.368C172.372 129.368 171.908 129.541 171.532 129.887C171.157 130.225 170.955 130.725 170.925 131.387H174.801Z" fill="#787A80"/>
<path d="M178.356 129.853C178.555 129.434 178.846 129.111 179.229 128.883C179.611 128.647 180.068 128.529 180.598 128.529V129.622H180.289C179.722 129.622 179.258 129.769 178.897 130.063C178.537 130.35 178.356 130.828 178.356 131.498V134.686H177.352V128.629H178.356V129.853Z" fill="#787A80"/>
<path d="M185.156 128.551C185.693 128.551 186.172 128.677 186.591 128.927C187.011 129.177 187.338 129.537 187.574 130.008C187.817 130.479 187.938 131.03 187.938 131.663C187.938 132.296 187.817 132.847 187.574 133.318C187.338 133.782 187.011 134.138 186.591 134.388C186.172 134.639 185.693 134.764 185.156 134.764C184.567 134.764 184.066 134.616 183.654 134.322C183.249 134.021 182.97 133.627 182.815 133.142V137.555H181.81V128.629H182.815V130.173C182.97 129.688 183.249 129.298 183.654 129.004C184.066 128.702 184.567 128.551 185.156 128.551ZM184.869 129.445C184.479 129.445 184.125 129.537 183.809 129.721C183.492 129.898 183.246 130.155 183.069 130.493C182.892 130.832 182.804 131.222 182.804 131.663C182.804 132.104 182.892 132.494 183.069 132.833C183.246 133.164 183.492 133.421 183.809 133.605C184.125 133.789 184.479 133.881 184.869 133.881C185.494 133.881 185.991 133.686 186.359 133.296C186.735 132.899 186.922 132.355 186.922 131.663C186.922 130.972 186.735 130.431 186.359 130.041C185.991 129.644 185.494 129.445 184.869 129.445Z" fill="#787A80"/>
<path d="M195.047 131.321C195.047 131.534 195.032 131.718 195.003 131.873H190.156C190.178 132.564 190.373 133.083 190.741 133.428C191.116 133.774 191.573 133.947 192.11 133.947C192.596 133.947 193.001 133.826 193.325 133.583C193.656 133.333 193.858 133.002 193.932 132.59H195.003C194.929 133.009 194.764 133.384 194.506 133.715C194.256 134.046 193.928 134.304 193.523 134.488C193.119 134.672 192.662 134.764 192.154 134.764C191.573 134.764 191.057 134.639 190.608 134.388C190.159 134.138 189.806 133.782 189.548 133.318C189.298 132.847 189.173 132.296 189.173 131.663C189.173 131.03 189.298 130.479 189.548 130.008C189.806 129.537 190.159 129.177 190.608 128.927C191.057 128.677 191.573 128.551 192.154 128.551C192.743 128.551 193.255 128.677 193.689 128.927C194.131 129.177 194.466 129.511 194.694 129.931C194.929 130.35 195.047 130.813 195.047 131.321ZM194.031 131.387C194.053 130.939 193.98 130.563 193.811 130.262C193.641 129.96 193.409 129.736 193.115 129.589C192.82 129.442 192.5 129.368 192.154 129.368C191.602 129.368 191.138 129.541 190.763 129.887C190.388 130.225 190.185 130.725 190.156 131.387H194.031Z" fill="#787A80"/>
<path d="M197.587 129.853C197.786 129.434 198.077 129.111 198.459 128.883C198.842 128.647 199.299 128.529 199.829 128.529V129.622H199.519C198.953 129.622 198.489 129.769 198.128 130.063C197.767 130.35 197.587 130.828 197.587 131.498V134.686H196.582V128.629H197.587V129.853Z" fill="#787A80"/>
<path d="M203.724 127.194C203.187 127.187 202.811 127.279 202.598 127.47C202.392 127.661 202.288 127.992 202.288 128.463V128.629H203.724V129.511H202.288V134.686H201.284V129.511H200.411V128.629H201.284V128.386C201.284 126.937 202.097 126.245 203.724 126.312V127.194Z" fill="#787A80"/>
<path d="M207.785 128.551C208.367 128.551 208.885 128.677 209.342 128.927C209.806 129.177 210.166 129.537 210.424 130.008C210.689 130.479 210.821 131.03 210.821 131.663C210.821 132.296 210.689 132.847 210.424 133.318C210.166 133.782 209.806 134.138 209.342 134.388C208.885 134.639 208.367 134.764 207.785 134.764C207.203 134.764 206.681 134.639 206.217 134.388C205.761 134.138 205.4 133.782 205.135 133.318C204.87 132.847 204.737 132.296 204.737 131.663C204.737 131.03 204.87 130.479 205.135 130.008C205.4 129.537 205.761 129.177 206.217 128.927C206.681 128.677 207.203 128.551 207.785 128.551ZM207.785 129.434C207.424 129.434 207.089 129.515 206.78 129.677C206.478 129.839 206.232 130.089 206.04 130.427C205.856 130.758 205.764 131.17 205.764 131.663C205.764 132.149 205.856 132.56 206.04 132.899C206.232 133.23 206.478 133.476 206.78 133.638C207.089 133.8 207.424 133.881 207.785 133.881C208.146 133.881 208.477 133.8 208.779 133.638C209.088 133.476 209.334 133.23 209.519 132.899C209.71 132.56 209.806 132.149 209.806 131.663C209.806 131.17 209.71 130.758 209.519 130.427C209.334 130.089 209.088 129.839 208.779 129.677C208.477 129.515 208.146 129.434 207.785 129.434Z" fill="#787A80"/>
<path d="M213.356 129.853C213.555 129.434 213.846 129.111 214.229 128.883C214.611 128.647 215.068 128.529 215.598 128.529V129.622H215.289C214.722 129.622 214.258 129.769 213.897 130.063C213.537 130.35 213.356 130.828 213.356 131.498V134.686H212.352V128.629H213.356V129.853Z" fill="#787A80"/>
<path d="M224.263 128.529C224.97 128.529 225.537 128.757 225.964 129.214C226.398 129.662 226.615 130.313 226.615 131.167V134.686H225.61V131.255C225.61 130.659 225.463 130.203 225.169 129.887C224.882 129.57 224.484 129.412 223.976 129.412C223.446 129.412 223.019 129.589 222.695 129.942C222.379 130.288 222.22 130.799 222.22 131.475V134.686H221.216V131.255C221.216 130.659 221.068 130.203 220.774 129.887C220.48 129.57 220.082 129.412 219.582 129.412C219.044 129.412 218.614 129.589 218.29 129.942C217.973 130.288 217.815 130.799 217.815 131.475V134.686H216.81V128.629H217.815V130.008C217.962 129.53 218.223 129.166 218.599 128.916C218.982 128.658 219.42 128.529 219.913 128.529C220.428 128.529 220.873 128.662 221.249 128.927C221.632 129.184 221.904 129.567 222.066 130.074C222.235 129.581 222.519 129.202 222.916 128.938C223.314 128.666 223.763 128.529 224.263 128.529Z" fill="#787A80"/>
<path d="M228.219 126.852C228.219 126.668 228.282 126.521 228.407 126.411C228.532 126.293 228.698 126.234 228.904 126.234C229.11 126.234 229.276 126.293 229.401 126.411C229.526 126.521 229.589 126.668 229.589 126.852C229.589 127.036 229.526 127.187 229.401 127.305C229.276 127.415 229.11 127.47 228.904 127.47C228.698 127.47 228.532 127.415 228.407 127.305C228.282 127.187 228.219 127.036 228.219 126.852ZM229.401 128.629V134.686H228.396V128.629H229.401Z" fill="#787A80"/>
<path d="M234.428 128.529C235.135 128.529 235.705 128.757 236.14 129.214C236.574 129.662 236.791 130.313 236.791 131.167V134.686H235.786V131.255C235.786 130.652 235.632 130.188 235.323 129.865C235.013 129.541 234.594 129.379 234.064 129.379C233.512 129.379 233.07 129.559 232.739 129.92C232.408 130.273 232.242 130.791 232.242 131.475V134.686H231.237V128.629H232.242V130.063C232.397 129.57 232.669 129.191 233.059 128.927C233.457 128.662 233.913 128.529 234.428 128.529Z" fill="#787A80"/>
<path d="M241.037 128.551C241.626 128.551 242.123 128.699 242.528 128.993C242.94 129.287 243.227 129.681 243.389 130.173V128.629H244.394V134.786C244.394 135.345 244.276 135.841 244.041 136.275C243.805 136.709 243.474 137.048 243.047 137.29C242.62 137.533 242.123 137.654 241.556 137.654C240.739 137.654 240.073 137.456 239.558 137.059C239.043 136.669 238.715 136.139 238.575 135.47H239.569C239.687 135.874 239.908 136.191 240.231 136.419C240.563 136.654 240.986 136.772 241.501 136.772C242.046 136.772 242.495 136.595 242.848 136.242C243.209 135.896 243.389 135.411 243.389 134.786V133.142C243.227 133.634 242.94 134.028 242.528 134.322C242.123 134.616 241.626 134.764 241.037 134.764C240.5 134.764 240.022 134.639 239.602 134.388C239.182 134.138 238.851 133.782 238.608 133.318C238.373 132.847 238.255 132.296 238.255 131.663C238.255 131.03 238.373 130.479 238.608 130.008C238.851 129.537 239.182 129.177 239.602 128.927C240.022 128.677 240.5 128.551 241.037 128.551ZM241.325 129.445C240.706 129.445 240.209 129.644 239.834 130.041C239.466 130.431 239.282 130.972 239.282 131.663C239.282 132.355 239.466 132.899 239.834 133.296C240.209 133.686 240.706 133.881 241.325 133.881C241.722 133.881 242.075 133.789 242.385 133.605C242.701 133.421 242.948 133.164 243.124 132.833C243.301 132.494 243.389 132.104 243.389 131.663C243.389 131.222 243.301 130.832 243.124 130.493C242.948 130.155 242.701 129.898 242.385 129.721C242.075 129.537 241.722 129.445 241.325 129.445Z" fill="#787A80"/>
<path d="M251.846 128.551C252.619 128.551 253.259 128.757 253.767 129.169C254.275 129.581 254.588 130.133 254.706 130.824H253.646C253.572 130.39 253.37 130.052 253.039 129.809C252.715 129.559 252.31 129.434 251.824 129.434C251.471 129.434 251.147 129.515 250.852 129.677C250.565 129.839 250.333 130.089 250.157 130.427C249.98 130.758 249.892 131.17 249.892 131.663C249.892 132.156 249.98 132.572 250.157 132.91C250.333 133.241 250.565 133.487 250.852 133.649C251.147 133.811 251.471 133.892 251.824 133.892C252.31 133.892 252.715 133.767 253.039 133.517C253.37 133.267 253.572 132.925 253.646 132.491H254.706C254.588 133.189 254.275 133.745 253.767 134.157C253.259 134.561 252.619 134.764 251.846 134.764C251.265 134.764 250.749 134.639 250.3 134.388C249.851 134.138 249.498 133.782 249.24 133.318C248.99 132.847 248.865 132.296 248.865 131.663C248.865 131.03 248.99 130.479 249.24 130.008C249.498 129.537 249.851 129.177 250.3 128.927C250.749 128.677 251.265 128.551 251.846 128.551Z" fill="#787A80"/>
<path d="M258.726 128.551C259.315 128.551 259.812 128.699 260.217 128.993C260.629 129.287 260.916 129.681 261.078 130.173V128.629H262.083V134.686H261.078V133.142C260.916 133.634 260.629 134.028 260.217 134.322C259.812 134.616 259.315 134.764 258.726 134.764C258.189 134.764 257.71 134.639 257.291 134.388C256.871 134.138 256.54 133.782 256.297 133.318C256.061 132.847 255.944 132.296 255.944 131.663C255.944 131.03 256.061 130.479 256.297 130.008C256.54 129.537 256.871 129.177 257.291 128.927C257.71 128.677 258.189 128.551 258.726 128.551ZM259.013 129.445C258.395 129.445 257.898 129.644 257.523 130.041C257.155 130.431 256.971 130.972 256.971 131.663C256.971 132.355 257.155 132.899 257.523 133.296C257.898 133.686 258.395 133.881 259.013 133.881C259.411 133.881 259.764 133.789 260.073 133.605C260.39 133.421 260.636 133.164 260.813 132.833C260.99 132.494 261.078 132.104 261.078 131.663C261.078 131.222 260.99 130.832 260.813 130.493C260.636 130.155 260.39 129.898 260.073 129.721C259.764 129.537 259.411 129.445 259.013 129.445Z" fill="#787A80"/>
<path d="M271.356 128.529C272.063 128.529 272.629 128.757 273.056 129.214C273.491 129.662 273.708 130.313 273.708 131.167V134.686H272.703V131.255C272.703 130.659 272.556 130.203 272.261 129.887C271.974 129.57 271.577 129.412 271.069 129.412C270.539 129.412 270.112 129.589 269.788 129.942C269.471 130.288 269.313 130.799 269.313 131.475V134.686H268.308V131.255C268.308 130.659 268.161 130.203 267.867 129.887C267.572 129.57 267.175 129.412 266.674 129.412C266.137 129.412 265.706 129.589 265.382 129.942C265.066 130.288 264.908 130.799 264.908 131.475V134.686H263.903V128.629H264.908V130.008C265.055 129.53 265.316 129.166 265.692 128.916C266.074 128.658 266.512 128.529 267.006 128.529C267.521 128.529 267.966 128.662 268.342 128.927C268.724 129.184 268.997 129.567 269.159 130.074C269.328 129.581 269.611 129.202 270.009 128.938C270.406 128.666 270.855 128.529 271.356 128.529Z" fill="#787A80"/>
<path d="M278.834 128.551C279.372 128.551 279.85 128.677 280.27 128.927C280.689 129.177 281.017 129.537 281.253 130.008C281.495 130.479 281.617 131.03 281.617 131.663C281.617 132.296 281.495 132.847 281.253 133.318C281.017 133.782 280.689 134.138 280.27 134.388C279.85 134.639 279.372 134.764 278.834 134.764C278.246 134.764 277.745 134.616 277.333 134.322C276.928 134.021 276.648 133.627 276.494 133.142V137.555H275.489V128.629H276.494V130.173C276.648 129.688 276.928 129.298 277.333 129.004C277.745 128.702 278.246 128.551 278.834 128.551ZM278.547 129.445C278.157 129.445 277.804 129.537 277.487 129.721C277.171 129.898 276.924 130.155 276.748 130.493C276.571 130.832 276.483 131.222 276.483 131.663C276.483 132.104 276.571 132.494 276.748 132.833C276.924 133.164 277.171 133.421 277.487 133.605C277.804 133.789 278.157 133.881 278.547 133.881C279.173 133.881 279.67 133.686 280.038 133.296C280.413 132.899 280.601 132.355 280.601 131.663C280.601 130.972 280.413 130.431 280.038 130.041C279.67 129.644 279.173 129.445 278.547 129.445Z" fill="#787A80"/>
<path d="M285.634 128.551C286.223 128.551 286.72 128.699 287.125 128.993C287.537 129.287 287.824 129.681 287.986 130.173V128.629H288.991V134.686H287.986V133.142C287.824 133.634 287.537 134.028 287.125 134.322C286.72 134.616 286.223 134.764 285.634 134.764C285.097 134.764 284.618 134.639 284.199 134.388C283.779 134.138 283.448 133.782 283.205 133.318C282.969 132.847 282.852 132.296 282.852 131.663C282.852 131.03 282.969 130.479 283.205 130.008C283.448 129.537 283.779 129.177 284.199 128.927C284.618 128.677 285.097 128.551 285.634 128.551ZM285.921 129.445C285.303 129.445 284.806 129.644 284.431 130.041C284.063 130.431 283.879 130.972 283.879 131.663C283.879 132.355 284.063 132.899 284.431 133.296C284.806 133.686 285.303 133.881 285.921 133.881C286.319 133.881 286.672 133.789 286.981 133.605C287.298 133.421 287.544 133.164 287.721 132.833C287.898 132.494 287.986 132.104 287.986 131.663C287.986 131.222 287.898 130.832 287.721 130.493C287.544 130.155 287.298 129.898 286.981 129.721C286.672 129.537 286.319 129.445 285.921 129.445Z" fill="#787A80"/>
<path d="M290.634 126.852C290.634 126.668 290.697 126.521 290.822 126.411C290.947 126.293 291.113 126.234 291.319 126.234C291.525 126.234 291.69 126.293 291.816 126.411C291.941 126.521 292.003 126.668 292.003 126.852C292.003 127.036 291.941 127.187 291.816 127.305C291.69 127.415 291.525 127.47 291.319 127.47C291.113 127.47 290.947 127.415 290.822 127.305C290.697 127.187 290.634 127.036 290.634 126.852ZM291.816 128.629V134.686H290.811V128.629H291.816Z" fill="#787A80"/>
<path d="M296.136 128.551C296.725 128.551 297.222 128.699 297.627 128.993C298.039 129.287 298.326 129.681 298.488 130.173V128.629H299.493V134.786C299.493 135.345 299.375 135.841 299.14 136.275C298.904 136.709 298.573 137.048 298.146 137.29C297.719 137.533 297.222 137.654 296.655 137.654C295.838 137.654 295.172 137.456 294.657 137.059C294.141 136.669 293.814 136.139 293.674 135.47H294.668C294.786 135.874 295.006 136.191 295.33 136.419C295.661 136.654 296.085 136.772 296.6 136.772C297.145 136.772 297.594 136.595 297.947 136.242C298.308 135.896 298.488 135.411 298.488 134.786V133.142C298.326 133.634 298.039 134.028 297.627 134.322C297.222 134.616 296.725 134.764 296.136 134.764C295.599 134.764 295.12 134.639 294.701 134.388C294.281 134.138 293.95 133.782 293.707 133.318C293.472 132.847 293.354 132.296 293.354 131.663C293.354 131.03 293.472 130.479 293.707 130.008C293.95 129.537 294.281 129.177 294.701 128.927C295.12 128.677 295.599 128.551 296.136 128.551ZM296.423 129.445C295.805 129.445 295.308 129.644 294.933 130.041C294.565 130.431 294.381 130.972 294.381 131.663C294.381 132.355 294.565 132.899 294.933 133.296C295.308 133.686 295.805 133.881 296.423 133.881C296.821 133.881 297.174 133.789 297.483 133.605C297.8 133.421 298.046 133.164 298.223 132.833C298.4 132.494 298.488 132.104 298.488 131.663C298.488 131.222 298.4 130.832 298.223 130.493C298.046 130.155 297.8 129.898 297.483 129.721C297.174 129.537 296.821 129.445 296.423 129.445Z" fill="#787A80"/>
<path d="M304.504 128.529C305.211 128.529 305.781 128.757 306.215 129.214C306.65 129.662 306.867 130.313 306.867 131.167V134.686H305.862V131.255C305.862 130.652 305.708 130.188 305.398 129.865C305.089 129.541 304.67 129.379 304.14 129.379C303.588 129.379 303.146 129.559 302.815 129.92C302.483 130.273 302.318 130.791 302.318 131.475V134.686H301.313V128.629H302.318V130.063C302.472 129.57 302.745 129.191 303.135 128.927C303.532 128.662 303.989 128.529 304.504 128.529Z" fill="#787A80"/>
</g>
<g filter="url(#filter1_ddd_1679_1833)">
<path d="M135.896 120.902C135.896 131.571 127.245 140.219 116.573 140.219C105.901 140.219 97.25 131.571 97.25 120.902C97.25 110.234 105.901 101.585 116.573 101.585C127.245 101.585 135.896 110.234 135.896 120.902Z" fill="#FFDADA"/>
</g>
<path fill-rule="evenodd" clip-rule="evenodd" d="M109.305 115.848L114.444 120.983L117.87 117.559L125.423 125.108L124.212 126.318L117.87 119.98L114.444 123.404L108.094 117.058L109.305 115.848Z" fill="#FC5A5A"/>
<path fill-rule="evenodd" clip-rule="evenodd" d="M123.606 124.502C123.941 124.167 124.484 124.167 124.818 124.502L125.328 125.011C125.663 125.345 125.663 125.887 125.328 126.222C124.994 126.556 124.451 126.556 124.116 126.222L123.606 125.712C123.272 125.378 123.272 124.836 123.606 124.502Z" fill="#FC5A5A"/>
<path fill-rule="evenodd" clip-rule="evenodd" d="M125.577 122.193V126.474H121.295V124.761H123.864V122.193H125.577Z" fill="#FC5A5A"/>
<defs>
<filter id="filter0_dddd_1679_1833" x="0.685547" y="0" width="418.1" height="253.788" filterUnits="userSpaceOnUse" color-interpolation-filters="sRGB">
<feFlood flood-opacity="0" result="BackgroundImageFix"/>
<feColorMatrix in="SourceAlpha" type="matrix" values="0 0 0 0 0 0 0 0 0 0 0 0 0 0 0 0 0 0 127 0" result="hardAlpha"/>
<feOffset dy="1"/>
<feGaussianBlur stdDeviation="10"/>
<feColorMatrix type="matrix" values="0 0 0 0 0.117647 0 0 0 0 0.129412 0 0 0 0 0.172549 0 0 0 0.02 0"/>
<feBlend mode="normal" in2="BackgroundImageFix" result="effect1_dropShadow_1679_1833"/>
<feColorMatrix in="SourceAlpha" type="matrix" values="0 0 0 0 0 0 0 0 0 0 0 0 0 0 0 0 0 0 127 0" result="hardAlpha"/>
<feOffset/>
<feGaussianBlur stdDeviation="22"/>
<feColorMatrix type="matrix" values="0 0 0 0 0.117647 0 0 0 0 0.129412 0 0 0 0 0.172549 0 0 0 0.02 0"/>
<feBlend mode="normal" in2="effect1_dropShadow_1679_1833" result="effect2_dropShadow_1679_1833"/>
<feColorMatrix in="SourceAlpha" type="matrix" values="0 0 0 0 0 0 0 0 0 0 0 0 0 0 0 0 0 0 127 0" result="hardAlpha"/>
<feOffset dy="8"/>
<feGaussianBlur stdDeviation="25"/>
<feColorMatrix type="matrix" values="0 0 0 0 0.117647 0 0 0 0 0.129412 0 0 0 0 0.172549 0 0 0 0.0422367 0"/>
<feBlend mode="normal" in2="effect2_dropShadow_1679_1833" result="effect3_dropShadow_1679_1833"/>
<feColorMatrix in="SourceAlpha" type="matrix" values="0 0 0 0 0 0 0 0 0 0 0 0 0 0 0 0 0 0 127 0" result="hardAlpha"/>
<feOffset dy="6"/>
<feGaussianBlur stdDeviation="40"/>
<feColorMatrix type="matrix" values="0 0 0 0 0.117647 0 0 0 0 0.129412 0 0 0 0 0.172549 0 0 0 0.04 0"/>
<feBlend mode="normal" in2="effect3_dropShadow_1679_1833" result="effect4_dropShadow_1679_1833"/>
<feBlend mode="normal" in="SourceGraphic" in2="effect4_dropShadow_1679_1833" result="shape"/>
</filter>
<filter id="filter1_ddd_1679_1833" x="77.25" y="91.585" width="78.6465" height="78.6338" filterUnits="userSpaceOnUse" color-interpolation-filters="sRGB">
<feFlood flood-opacity="0" result="BackgroundImageFix"/>
<feColorMatrix in="SourceAlpha" type="matrix" values="0 0 0 0 0 0 0 0 0 0 0 0 0 0 0 0 0 0 127 0" result="hardAlpha"/>
<feOffset/>
<feGaussianBlur stdDeviation="0.5"/>
<feColorMatrix type="matrix" values="0 0 0 0 0 0 0 0 0 0 0 0 0 0 0 0 0 0 0.04 0"/>
<feBlend mode="normal" in2="BackgroundImageFix" result="effect1_dropShadow_1679_1833"/>
<feColorMatrix in="SourceAlpha" type="matrix" values="0 0 0 0 0 0 0 0 0 0 0 0 0 0 0 0 0 0 127 0" result="hardAlpha"/>
<feOffset dy="2"/>
<feGaussianBlur stdDeviation="3"/>
<feColorMatrix type="matrix" values="0 0 0 0 1 0 0 0 0 0.788235 0 0 0 0 0.839216 0 0 0 0.12 0"/>
<feBlend mode="normal" in2="effect1_dropShadow_1679_1833" result="effect2_dropShadow_1679_1833"/>
<feColorMatrix in="SourceAlpha" type="matrix" values="0 0 0 0 0 0 0 0 0 0 0 0 0 0 0 0 0 0 127 0" result="hardAlpha"/>
<feOffset dy="10"/>
<feGaussianBlur stdDeviation="10"/>
<feColorMatrix type="matrix" values="0 0 0 0 1 0 0 0 0 0.788235 0 0 0 0 0.839216 0 0 0 0.18 0"/>
<feBlend mode="normal" in2="effect2_dropShadow_1679_1833" result="effect3_dropShadow_1679_1833"/>
<feBlend mode="normal" in="SourceGraphic" in2="effect3_dropShadow_1679_1833" result="shape"/>
</filter>
</defs>
</svg>
