<svg width="520" height="311" viewBox="0 0 520 311" fill="none" xmlns="http://www.w3.org/2000/svg">
<g filter="url(#filter0_dddd_1679_2060)">
<path d="M80.0957 78.2081C80.0957 76.1159 81.7922 74.4199 83.8849 74.4199H435.33C437.422 74.4199 439.119 76.116 439.119 78.2081V221.212C439.119 223.304 437.422 225 435.33 225H83.8849C81.7922 225 80.0957 223.304 80.0957 221.212V78.2081Z" fill="white"/>
</g>
<path fill-rule="evenodd" clip-rule="evenodd" d="M112.54 100.464C112.802 100.464 113.014 100.676 113.014 100.937L113.014 128.402C113.014 128.663 112.802 128.875 112.54 128.875C112.278 128.875 112.066 128.663 112.066 128.402L112.066 100.937C112.066 100.676 112.278 100.464 112.54 100.464Z" fill="#03CEA4"/>
<path fill-rule="evenodd" clip-rule="evenodd" d="M118.771 108.162C118.573 108.333 118.274 108.311 118.103 108.113L112.541 101.663L106.979 108.113C106.809 108.311 106.51 108.333 106.311 108.162C106.113 107.991 106.091 107.692 106.262 107.494L112.183 100.628C112.273 100.524 112.404 100.464 112.541 100.464C112.679 100.464 112.81 100.524 112.9 100.628L118.821 107.494C118.991 107.692 118.969 107.991 118.771 108.162Z" fill="#03CEA4"/>
<g opacity="0.25">
<path opacity="0.25" d="M304.414 113.799C250.342 186.437 219.801 194.67 201.276 189.101C183.502 183.774 175.241 165.856 156.717 166.583C142.448 167.309 120.418 186.921 112.908 200.481H304.414V113.799Z" fill="url(#paint0_linear_1679_2060)"/>
</g>
<path d="M112.907 201.207H112.657C112.406 200.965 112.156 200.723 112.406 200.481C119.916 187.164 141.695 167.067 156.716 166.341C167.73 165.856 174.99 171.667 182.5 177.721C188.007 182.079 194.015 186.679 201.525 188.858C227.31 196.607 260.855 171.909 303.912 113.799C304.162 113.557 304.413 113.557 304.663 113.557C304.914 113.799 304.913 114.041 304.913 114.283C261.355 172.878 227.31 197.817 201.025 189.827C193.264 187.406 187.256 182.805 181.749 178.447C174.239 172.636 167.23 167.067 156.716 167.551C142.446 168.278 120.667 188.374 113.408 200.965C113.408 200.965 113.157 201.207 112.907 201.207Z" fill="#03CEA4"/>
<path d="M307.919 113.798C307.919 115.735 306.417 117.188 304.415 117.188C302.412 117.188 300.91 115.735 300.91 113.798C300.91 111.861 302.412 110.408 304.415 110.408C306.417 110.408 307.919 111.861 307.919 113.798Z" fill="#03CEA4"/>
<path d="M306.415 113.799C306.415 114.767 305.664 115.736 304.413 115.736C303.411 115.736 302.41 115.009 302.41 113.799C302.41 112.588 303.161 111.861 304.413 111.861C305.414 111.861 306.415 112.83 306.415 113.799Z" fill="white"/>
<g opacity="0.9">
<path d="M138.79 121.725V126.792C138.79 127.297 138.638 127.704 138.335 128.013C138.038 128.316 137.628 128.468 137.104 128.468C136.529 128.468 136.081 128.297 135.759 127.957C135.436 127.616 135.275 127.139 135.275 126.527H135.938C135.938 126.931 136.03 127.256 136.213 127.502C136.396 127.742 136.684 127.862 137.075 127.862C137.448 127.862 137.713 127.761 137.871 127.559C138.035 127.35 138.117 127.095 138.117 126.792V121.725H138.79Z" fill="#787A80"/>
<path d="M142.549 123.165C143.073 123.165 143.518 123.3 143.884 123.572C144.257 123.843 144.513 124.203 144.652 124.651V123.231H145.305V128.402H144.652V126.981C144.513 127.429 144.257 127.789 143.884 128.061C143.518 128.332 143.073 128.468 142.549 128.468C142.081 128.468 141.661 128.361 141.289 128.146C140.922 127.931 140.635 127.625 140.427 127.227C140.225 126.823 140.124 126.353 140.124 125.816C140.124 125.273 140.225 124.803 140.427 124.405C140.635 124.001 140.922 123.695 141.289 123.487C141.655 123.272 142.075 123.165 142.549 123.165ZM142.719 123.752C142.138 123.752 141.671 123.938 141.317 124.31C140.97 124.677 140.796 125.179 140.796 125.816C140.796 126.454 140.97 126.959 141.317 127.332C141.671 127.698 142.138 127.881 142.719 127.881C143.085 127.881 143.414 127.796 143.704 127.625C144.001 127.455 144.232 127.215 144.396 126.905C144.566 126.59 144.652 126.227 144.652 125.816C144.652 125.406 144.566 125.046 144.396 124.737C144.232 124.421 144.001 124.178 143.704 124.007C143.414 123.837 143.085 123.752 142.719 123.752Z" fill="#787A80"/>
<path d="M149.519 123.136C150.119 123.136 150.606 123.329 150.978 123.714C151.357 124.093 151.547 124.651 151.547 125.39V128.402H150.893V125.437C150.893 124.876 150.751 124.446 150.467 124.149C150.182 123.846 149.794 123.695 149.301 123.695C148.784 123.695 148.37 123.862 148.06 124.197C147.757 124.525 147.606 125.011 147.606 125.655V128.402H146.933V123.231H147.606V124.5C147.738 124.058 147.978 123.72 148.326 123.487C148.673 123.253 149.071 123.136 149.519 123.136Z" fill="#787A80"/>
<path d="M157.597 123.231V128.402H156.934V127.123C156.802 127.571 156.562 127.912 156.214 128.146C155.867 128.38 155.469 128.496 155.021 128.496C154.415 128.496 153.922 128.307 153.543 127.928C153.17 127.543 152.984 126.981 152.984 126.242V123.231H153.647V126.186C153.647 126.754 153.789 127.189 154.074 127.493C154.358 127.789 154.746 127.938 155.239 127.938C155.757 127.938 156.167 127.773 156.47 127.445C156.78 127.111 156.934 126.621 156.934 125.977V123.231H157.597Z" fill="#787A80"/>
<path d="M161.415 123.165C161.939 123.165 162.385 123.3 162.751 123.572C163.124 123.843 163.379 124.203 163.518 124.651V123.231H164.172V128.402H163.518V126.981C163.379 127.429 163.124 127.789 162.751 128.061C162.385 128.332 161.939 128.468 161.415 128.468C160.948 128.468 160.528 128.361 160.155 128.146C159.789 127.931 159.502 127.625 159.293 127.227C159.091 126.823 158.99 126.353 158.99 125.816C158.99 125.273 159.091 124.803 159.293 124.405C159.502 124.001 159.789 123.695 160.155 123.487C160.522 123.272 160.942 123.165 161.415 123.165ZM161.586 123.752C161.005 123.752 160.537 123.938 160.184 124.31C159.836 124.677 159.663 125.179 159.663 125.816C159.663 126.454 159.836 126.959 160.184 127.332C160.537 127.698 161.005 127.881 161.586 127.881C161.952 127.881 162.28 127.796 162.571 127.625C162.868 127.455 163.098 127.215 163.263 126.905C163.433 126.59 163.518 126.227 163.518 125.816C163.518 125.406 163.433 125.046 163.263 124.737C163.098 124.421 162.868 124.178 162.571 124.007C162.28 123.837 161.952 123.752 161.586 123.752Z" fill="#787A80"/>
<path d="M166.472 124.301C166.624 123.928 166.867 123.641 167.202 123.439C167.537 123.237 167.944 123.136 168.424 123.136V123.856H168.206C167.707 123.856 167.293 123.992 166.965 124.263C166.637 124.528 166.472 124.964 166.472 125.57V128.402H165.8V123.231H166.472V124.301Z" fill="#787A80"/>
<path d="M169.637 123.231L171.437 127.54L173.095 123.231H173.834L170.793 130.845H170.035L171.077 128.345L168.899 123.231H169.637Z" fill="#787A80"/>
<path d="M177.061 126.792V126.242L180.585 121.697H181.295V126.205H182.337V126.792H181.295V128.402H180.623V126.792H177.061ZM180.67 122.521L177.771 126.205H180.67V122.521Z" fill="#787A80"/>
<path d="M185.808 127.814V128.402H185.193C184.694 128.402 184.321 128.285 184.075 128.051C183.828 127.811 183.705 127.41 183.705 126.849V123.809H182.919V123.231H183.705V121.924H184.378V123.231H185.799V123.809H184.378V126.858C184.378 127.224 184.444 127.477 184.577 127.616C184.709 127.748 184.943 127.814 185.278 127.814H185.808Z" fill="#787A80"/>
<path d="M189.676 123.136C190.276 123.136 190.762 123.329 191.135 123.714C191.514 124.093 191.703 124.651 191.703 125.39V128.402H191.05V125.437C191.05 124.876 190.907 124.446 190.623 124.149C190.339 123.846 189.951 123.695 189.458 123.695C188.94 123.695 188.527 123.862 188.217 124.197C187.914 124.525 187.762 125.011 187.762 125.655V128.402H187.09V121.394H187.762V124.5C187.895 124.058 188.135 123.72 188.482 123.487C188.83 123.253 189.228 123.136 189.676 123.136Z" fill="#787A80"/>
</g>
<g opacity="0.9">
<path d="M140.094 99.5732C141.084 99.5732 141.978 99.8055 142.777 100.27C143.585 100.735 144.217 101.386 144.671 102.225C145.136 103.053 145.368 103.993 145.368 105.043C145.368 106.094 145.136 107.038 144.671 107.877C144.217 108.705 143.585 109.357 142.777 109.832C141.978 110.296 141.084 110.529 140.094 110.529C139.094 110.529 138.189 110.296 137.381 109.832C136.583 109.357 135.951 108.705 135.486 107.877C135.021 107.038 134.789 106.094 134.789 105.043C134.789 103.993 135.021 103.053 135.486 102.225C135.951 101.386 136.583 100.735 137.381 100.27C138.189 99.8055 139.094 99.5732 140.094 99.5732ZM140.094 101.179C139.407 101.179 138.795 101.336 138.26 101.649C137.724 101.962 137.305 102.412 137.002 102.998C136.709 103.584 136.562 104.265 136.562 105.043C136.562 105.821 136.709 106.503 137.002 107.089C137.305 107.675 137.724 108.124 138.26 108.438C138.795 108.751 139.407 108.907 140.094 108.907C140.771 108.907 141.372 108.751 141.898 108.438C142.433 108.124 142.847 107.675 143.14 107.089C143.444 106.503 143.595 105.821 143.595 105.043C143.595 104.265 143.444 103.584 143.14 102.998C142.847 102.412 142.433 101.962 141.898 101.649C141.372 101.336 140.771 101.179 140.094 101.179Z" fill="#03CEA4"/>
<path d="M150.841 108.619L153.205 102.058H155.054L151.871 110.407H149.78L146.597 102.058H148.446L150.841 108.619Z" fill="#03CEA4"/>
<path d="M164.389 105.831C164.389 106.114 164.369 106.362 164.328 106.574H157.902C157.932 107.432 158.17 108.069 158.614 108.483C159.059 108.897 159.61 109.104 160.266 109.104C160.842 109.104 161.327 108.958 161.721 108.665C162.126 108.372 162.373 107.983 162.464 107.498H164.313C164.202 108.084 163.97 108.604 163.616 109.059C163.262 109.513 162.803 109.872 162.237 110.135C161.671 110.387 161.039 110.513 160.342 110.513C159.534 110.513 158.816 110.342 158.19 109.998C157.574 109.655 157.088 109.16 156.735 108.513C156.381 107.867 156.204 107.104 156.204 106.225C156.204 105.356 156.381 104.599 156.735 103.952C157.088 103.306 157.574 102.811 158.19 102.467C158.816 102.124 159.534 101.952 160.342 101.952C161.161 101.952 161.873 102.124 162.479 102.467C163.096 102.801 163.565 103.265 163.889 103.861C164.222 104.447 164.389 105.104 164.389 105.831ZM162.646 105.786C162.666 105.24 162.57 104.786 162.358 104.422C162.156 104.048 161.873 103.776 161.509 103.604C161.156 103.422 160.767 103.331 160.342 103.331C159.665 103.331 159.099 103.538 158.645 103.952C158.19 104.366 157.942 104.978 157.902 105.786H162.646Z" fill="#03CEA4"/>
<path d="M168.088 103.695C168.371 103.149 168.775 102.72 169.301 102.407C169.826 102.083 170.432 101.922 171.12 101.922V103.801H170.604C169.846 103.801 169.235 103.988 168.77 104.361C168.316 104.725 168.088 105.331 168.088 106.18V110.407H166.36V102.058H168.088V103.695Z" fill="#03CEA4"/>
<path d="M176.067 101.952C176.825 101.952 177.471 102.139 178.007 102.513C178.542 102.887 178.921 103.382 179.144 103.998V102.058H180.872V110.407H179.144V108.468C178.921 109.084 178.542 109.579 178.007 109.953C177.471 110.327 176.825 110.513 176.067 110.513C175.339 110.513 174.688 110.342 174.112 109.998C173.546 109.655 173.101 109.16 172.778 108.513C172.455 107.867 172.293 107.104 172.293 106.225C172.293 105.356 172.455 104.599 172.778 103.952C173.101 103.306 173.546 102.811 174.112 102.467C174.688 102.124 175.339 101.952 176.067 101.952ZM176.597 103.467C175.829 103.467 175.213 103.715 174.748 104.21C174.294 104.695 174.066 105.367 174.066 106.225C174.066 107.084 174.294 107.761 174.748 108.256C175.213 108.741 175.829 108.983 176.597 108.983C177.082 108.983 177.517 108.872 177.901 108.65C178.285 108.417 178.588 108.094 178.81 107.68C179.033 107.266 179.144 106.781 179.144 106.225C179.144 105.68 179.033 105.2 178.81 104.786C178.588 104.361 178.285 104.038 177.901 103.816C177.517 103.584 177.082 103.467 176.597 103.467Z" fill="#03CEA4"/>
<path d="M184.976 99.1943V110.407H183.248V99.1943H184.976Z" fill="#03CEA4"/>
<path d="M189.098 99.1943V110.407H187.37V99.1943H189.098Z" fill="#03CEA4"/>
<path d="M197.075 103.695C197.358 103.149 197.762 102.72 198.288 102.407C198.813 102.083 199.42 101.922 200.107 101.922V103.801H199.591C198.834 103.801 198.222 103.988 197.757 104.361C197.303 104.725 197.075 105.331 197.075 106.18V110.407H195.347V102.058H197.075V103.695Z" fill="#03CEA4"/>
<path d="M209.465 105.831C209.465 106.114 209.444 106.362 209.404 106.574H202.978C203.008 107.432 203.245 108.069 203.69 108.483C204.134 108.897 204.685 109.104 205.342 109.104C205.918 109.104 206.403 108.958 206.797 108.665C207.201 108.372 207.449 107.983 207.54 107.498H209.389C209.278 108.084 209.045 108.604 208.692 109.059C208.338 109.513 207.878 109.872 207.312 110.135C206.747 110.387 206.115 110.513 205.418 110.513C204.609 110.513 203.892 110.342 203.266 109.998C202.649 109.655 202.164 109.16 201.81 108.513C201.457 107.867 201.28 107.104 201.28 106.225C201.28 105.356 201.457 104.599 201.81 103.952C202.164 103.306 202.649 102.811 203.266 102.467C203.892 102.124 204.609 101.952 205.418 101.952C206.236 101.952 206.949 102.124 207.555 102.467C208.171 102.801 208.641 103.265 208.964 103.861C209.298 104.447 209.465 105.104 209.465 105.831ZM207.722 105.786C207.742 105.24 207.646 104.786 207.434 104.422C207.232 104.048 206.949 103.776 206.585 103.604C206.231 103.422 205.842 103.331 205.418 103.331C204.741 103.331 204.175 103.538 203.72 103.952C203.266 104.366 203.018 104.978 202.978 105.786H207.722Z" fill="#03CEA4"/>
<path d="M214.861 108.619L217.226 102.058H219.075L215.892 110.407H213.8L210.618 102.058H212.467L214.861 108.619Z" fill="#03CEA4"/>
<path d="M228.41 105.831C228.41 106.114 228.39 106.362 228.349 106.574H221.923C221.953 107.432 222.191 108.069 222.635 108.483C223.08 108.897 223.63 109.104 224.287 109.104C224.863 109.104 225.348 108.958 225.742 108.665C226.146 108.372 226.394 107.983 226.485 107.498H228.334C228.223 108.084 227.99 108.604 227.637 109.059C227.283 109.513 226.823 109.872 226.258 110.135C225.692 110.387 225.06 110.513 224.363 110.513C223.555 110.513 222.837 110.342 222.211 109.998C221.594 109.655 221.109 109.16 220.756 108.513C220.402 107.867 220.225 107.104 220.225 106.225C220.225 105.356 220.402 104.599 220.756 103.952C221.109 103.306 221.594 102.811 222.211 102.467C222.837 102.124 223.555 101.952 224.363 101.952C225.181 101.952 225.894 102.124 226.5 102.467C227.116 102.801 227.586 103.265 227.91 103.861C228.243 104.447 228.41 105.104 228.41 105.831ZM226.667 105.786C226.687 105.24 226.591 104.786 226.379 104.422C226.177 104.048 225.894 103.776 225.53 103.604C225.176 103.422 224.787 103.331 224.363 103.331C223.686 103.331 223.12 103.538 222.665 103.952C222.211 104.366 221.963 104.978 221.923 105.786H226.667Z" fill="#03CEA4"/>
<path d="M235.049 101.922C236.02 101.922 236.798 102.235 237.384 102.861C237.97 103.488 238.263 104.382 238.263 105.543V110.407H236.535V105.725C236.535 104.978 236.343 104.402 235.959 103.998C235.575 103.584 235.049 103.376 234.383 103.376C233.696 103.376 233.145 103.599 232.731 104.043C232.316 104.478 232.109 105.119 232.109 105.968V110.407H230.381V102.058H232.109V103.892C232.331 103.265 232.705 102.78 233.231 102.437C233.756 102.094 234.362 101.922 235.049 101.922Z" fill="#03CEA4"/>
<path d="M248.286 102.058V110.407H246.543V108.589C246.331 109.205 245.962 109.685 245.437 110.029C244.911 110.362 244.3 110.529 243.603 110.529C242.633 110.529 241.855 110.215 241.269 109.589C240.683 108.963 240.39 108.069 240.39 106.907V102.058H242.117V106.725C242.117 107.483 242.309 108.069 242.693 108.483C243.077 108.887 243.603 109.089 244.27 109.089C244.957 109.089 245.507 108.867 245.922 108.422C246.336 107.978 246.543 107.331 246.543 106.483V102.058H248.286Z" fill="#03CEA4"/>
<path d="M258.419 105.831C258.419 106.114 258.399 106.362 258.358 106.574H251.932C251.962 107.432 252.2 108.069 252.644 108.483C253.089 108.897 253.639 109.104 254.296 109.104C254.872 109.104 255.357 108.958 255.751 108.665C256.155 108.372 256.403 107.983 256.494 107.498H258.343C258.232 108.084 257.999 108.604 257.646 109.059C257.292 109.513 256.832 109.872 256.267 110.135C255.701 110.387 255.069 110.513 254.372 110.513C253.564 110.513 252.846 110.342 252.22 109.998C251.603 109.655 251.118 109.16 250.765 108.513C250.411 107.867 250.234 107.104 250.234 106.225C250.234 105.356 250.411 104.599 250.765 103.952C251.118 103.306 251.603 102.811 252.22 102.467C252.846 102.124 253.564 101.952 254.372 101.952C255.19 101.952 255.903 102.124 256.509 102.467C257.125 102.801 257.595 103.265 257.919 103.861C258.252 104.447 258.419 105.104 258.419 105.831ZM256.676 105.786C256.696 105.24 256.6 104.786 256.388 104.422C256.186 104.048 255.903 103.776 255.539 103.604C255.185 103.422 254.796 103.331 254.372 103.331C253.695 103.331 253.129 103.538 252.674 103.952C252.22 104.366 251.972 104.978 251.932 105.786H256.676Z" fill="#03CEA4"/>
</g>
<path d="M397.953 100.938C398.684 100.938 399.414 101.648 399.414 102.358C399.414 103.069 398.684 103.779 397.953 103.779C397.223 103.779 396.492 103.069 396.492 102.358C396.492 101.648 397.04 100.938 397.953 100.938Z" fill="#787A80"/>
<path d="M404.164 100.938C404.895 100.938 405.625 101.648 405.625 102.358C405.625 103.069 404.895 103.779 404.164 103.779C403.434 103.779 402.703 103.069 402.703 102.358C402.703 101.648 403.434 100.938 404.164 100.938Z" fill="#787A80"/>
<path d="M410.555 100.938C411.285 100.938 412.016 101.648 412.016 102.358C412.016 103.069 411.285 103.779 410.555 103.779C409.824 103.779 409.094 103.069 409.094 102.358C409.094 101.648 409.642 100.938 410.555 100.938Z" fill="#787A80"/>
<g opacity="0.9">
<path d="M337.123 194.347C337.841 194.57 338.417 194.782 338.851 194.984C339.296 195.186 339.67 195.494 339.973 195.908C340.286 196.312 340.443 196.853 340.443 197.529C340.443 198.055 340.306 198.545 340.033 198.999C339.771 199.444 339.372 199.802 338.836 200.075C338.301 200.348 337.644 200.484 336.866 200.484H336.835V201.696H336.32V200.454C335.32 200.373 334.501 200.06 333.865 199.514C333.228 198.959 332.874 198.257 332.804 197.408H334.653C334.693 197.802 334.855 198.161 335.138 198.484C335.431 198.807 335.825 199.009 336.32 199.09V195.65C335.492 195.398 334.86 195.181 334.426 194.999C333.991 194.807 333.607 194.504 333.274 194.09C332.94 193.675 332.773 193.12 332.773 192.423C332.773 191.857 332.92 191.357 333.213 190.923C333.516 190.488 333.935 190.15 334.471 189.908C335.007 189.665 335.623 189.544 336.32 189.544V188.256H336.835V189.559C337.826 189.63 338.614 189.923 339.2 190.438C339.786 190.953 340.124 191.605 340.215 192.393H338.351C338.29 192.029 338.129 191.716 337.866 191.453C337.613 191.18 337.27 191.004 336.835 190.923V194.256L337.123 194.347ZM334.623 192.362C334.623 192.807 334.769 193.16 335.062 193.423C335.355 193.675 335.774 193.898 336.32 194.09V190.877C335.795 190.887 335.38 191.024 335.077 191.286C334.774 191.539 334.623 191.898 334.623 192.362ZM336.835 199.136C337.391 199.136 337.821 198.989 338.124 198.696C338.437 198.403 338.594 198.029 338.594 197.575C338.594 197.11 338.442 196.752 338.139 196.499C337.836 196.236 337.401 196.009 336.835 195.817V199.136Z" fill="#1E212C"/>
<path d="M341.62 191.302V189.68H345.045V200.378H343.227V191.302H341.62Z" fill="#1E212C"/>
<path d="M348.481 199.196C348.662 199.661 348.753 200.141 348.753 200.636C348.753 201.201 348.607 201.661 348.314 202.015C348.021 202.378 347.576 202.56 346.98 202.56V201.863C347.233 201.863 347.42 201.797 347.541 201.666C347.662 201.535 347.723 201.312 347.723 200.999V200.863H346.844V199.196H348.481Z" fill="#1E212C"/>
<path d="M350.396 194.953C350.396 196.661 350.699 197.999 351.305 198.969C351.911 199.929 352.922 200.408 354.337 200.408C355.751 200.408 356.762 199.923 357.368 198.954C357.974 197.984 358.277 196.65 358.277 194.953C358.277 193.266 357.974 191.943 357.368 190.983C356.762 190.014 355.751 189.529 354.337 189.529C352.922 189.529 351.911 190.009 351.305 190.968C350.699 191.928 350.396 193.256 350.396 194.953ZM356.549 194.953C356.549 196.186 356.398 197.13 356.095 197.787C355.792 198.444 355.205 198.772 354.337 198.772C353.457 198.772 352.866 198.444 352.563 197.787C352.26 197.13 352.108 196.186 352.108 194.953C352.108 193.731 352.26 192.797 352.563 192.15C352.866 191.504 353.457 191.18 354.337 191.18C355.205 191.18 355.792 191.509 356.095 192.165C356.398 192.812 356.549 193.741 356.549 194.953Z" fill="#1E212C"/>
<path d="M360.415 192.165C360.415 191.64 360.557 191.16 360.839 190.726C361.122 190.291 361.542 189.943 362.097 189.68C362.663 189.418 363.34 189.286 364.128 189.286C364.917 189.286 365.589 189.418 366.144 189.68C366.71 189.943 367.134 190.291 367.417 190.726C367.71 191.16 367.857 191.64 367.857 192.165C367.857 192.751 367.7 193.256 367.387 193.681C367.084 194.105 366.629 194.413 366.023 194.605C366.7 194.817 367.22 195.16 367.584 195.635C367.948 196.1 368.13 196.671 368.13 197.348C368.13 198.388 367.761 199.201 367.023 199.787C366.286 200.363 365.321 200.651 364.128 200.651C362.936 200.651 361.971 200.363 361.234 199.787C360.506 199.201 360.142 198.388 360.142 197.348C360.142 196.671 360.324 196.1 360.688 195.635C361.052 195.16 361.572 194.817 362.249 194.605C361.643 194.413 361.183 194.105 360.87 193.681C360.567 193.256 360.415 192.751 360.415 192.165ZM362.128 192.438C362.128 192.984 362.305 193.408 362.658 193.711C363.022 194.004 363.512 194.15 364.128 194.15C364.745 194.15 365.235 194.004 365.599 193.711C365.962 193.408 366.144 192.984 366.144 192.438C366.144 191.893 365.957 191.468 365.583 191.165C365.22 190.862 364.735 190.711 364.128 190.711C363.522 190.711 363.037 190.862 362.673 191.165C362.31 191.468 362.128 191.893 362.128 192.438ZM361.825 197.257C361.825 197.873 362.032 198.358 362.446 198.711C362.86 199.055 363.421 199.226 364.128 199.226C364.836 199.226 365.397 199.055 365.811 198.711C366.225 198.358 366.432 197.873 366.432 197.257C366.432 196.63 366.215 196.161 365.781 195.847C365.356 195.524 364.805 195.362 364.128 195.362C363.462 195.362 362.911 195.524 362.476 195.847C362.042 196.171 361.825 196.64 361.825 197.257Z" fill="#1E212C"/>
<path d="M370.007 194.953C370.007 196.661 370.31 197.999 370.916 198.969C371.523 199.929 372.533 200.408 373.948 200.408C375.362 200.408 376.373 199.923 376.979 198.954C377.585 197.984 377.889 196.65 377.889 194.953C377.889 193.266 377.585 191.943 376.979 190.983C376.373 190.014 375.362 189.529 373.948 189.529C372.533 189.529 371.523 190.009 370.916 190.968C370.31 191.928 370.007 193.256 370.007 194.953ZM376.161 194.953C376.161 196.186 376.009 197.13 375.706 197.787C375.403 198.444 374.817 198.772 373.948 198.772C373.069 198.772 372.478 198.444 372.174 197.787C371.871 197.13 371.72 196.186 371.72 194.953C371.72 193.731 371.871 192.797 372.174 192.15C372.478 191.504 373.069 191.18 373.948 191.18C374.817 191.18 375.403 191.509 375.706 192.165C376.009 192.812 376.161 193.741 376.161 194.953Z" fill="#1E212C"/>
<path d="M381.072 199.196C381.254 199.661 381.345 200.141 381.345 200.636C381.345 201.201 381.198 201.661 380.905 202.015C380.612 202.378 380.168 202.56 379.572 202.56V201.863C379.824 201.863 380.011 201.797 380.132 201.666C380.254 201.535 380.314 201.312 380.314 200.999V200.863H379.435V199.196H381.072Z" fill="#1E212C"/>
<path d="M388.853 192.559C388.671 191.367 388.05 190.771 386.989 190.771C386.221 190.771 385.645 191.079 385.261 191.696C384.877 192.302 384.685 193.256 384.685 194.559L384.7 195.075C384.852 194.529 385.18 194.095 385.685 193.771C386.19 193.448 386.787 193.287 387.474 193.287C388.525 193.287 389.348 193.6 389.944 194.226C390.54 194.852 390.838 195.736 390.838 196.878C390.838 197.565 390.702 198.181 390.429 198.726C390.156 199.262 389.747 199.691 389.202 200.014C388.656 200.328 387.984 200.484 387.186 200.484C385.64 200.484 384.579 200.004 384.003 199.045C383.427 198.085 383.139 196.767 383.139 195.09C383.139 193.17 383.447 191.736 384.063 190.786C384.68 189.837 385.69 189.362 387.095 189.362C388.146 189.362 388.949 189.66 389.505 190.256C390.071 190.852 390.399 191.62 390.49 192.559H388.853ZM384.852 196.681C384.852 197.337 385.044 197.888 385.428 198.332C385.812 198.767 386.377 198.984 387.125 198.984C387.762 198.984 388.267 198.797 388.641 198.423C389.025 198.05 389.217 197.529 389.217 196.863C389.217 196.145 389.025 195.595 388.641 195.211C388.257 194.827 387.736 194.635 387.08 194.635C386.483 194.635 385.963 194.812 385.519 195.166C385.074 195.519 384.852 196.024 384.852 196.681Z" fill="#1E212C"/>
<path d="M400.145 191.044H394.856V194.226C395.098 193.913 395.442 193.665 395.886 193.484C396.331 193.292 396.821 193.196 397.357 193.196C398.104 193.196 398.726 193.357 399.221 193.681C399.716 193.994 400.08 194.413 400.312 194.938C400.555 195.464 400.676 196.044 400.676 196.681C400.676 197.802 400.363 198.711 399.736 199.408C399.11 200.095 398.2 200.439 397.008 200.439C395.886 200.439 394.982 200.141 394.295 199.545C393.608 198.949 393.234 198.156 393.173 197.166H394.871C394.962 197.711 395.184 198.141 395.538 198.454C395.902 198.767 396.361 198.923 396.917 198.923C397.604 198.923 398.119 198.716 398.463 198.302C398.807 197.888 398.978 197.337 398.978 196.65C398.978 196.004 398.802 195.499 398.448 195.135C398.094 194.761 397.589 194.575 396.932 194.575C396.467 194.575 396.058 194.676 395.704 194.878C395.361 195.08 395.108 195.347 394.947 195.681H393.264V189.514H400.145V191.044Z" fill="#1E212C"/>
<path d="M402.495 194.953C402.495 196.661 402.798 197.999 403.404 198.969C404.011 199.929 405.021 200.408 406.436 200.408C407.85 200.408 408.861 199.923 409.467 198.954C410.073 197.984 410.376 196.65 410.376 194.953C410.376 193.266 410.073 191.943 409.467 190.983C408.861 190.014 407.85 189.529 406.436 189.529C405.021 189.529 404.011 190.009 403.404 190.968C402.798 191.928 402.495 193.256 402.495 194.953ZM408.649 194.953C408.649 196.186 408.497 197.13 408.194 197.787C407.891 198.444 407.305 198.772 406.436 198.772C405.557 198.772 404.966 198.444 404.662 197.787C404.359 197.13 404.208 196.186 404.208 194.953C404.208 193.731 404.359 192.797 404.662 192.15C404.966 191.504 405.557 191.18 406.436 191.18C407.305 191.18 407.891 191.509 408.194 192.165C408.497 192.812 408.649 193.741 408.649 194.953Z" fill="#1E212C"/>
</g>
<defs>
<filter id="filter0_dddd_1679_2060" x="0.0957031" y="0.419922" width="519.023" height="310.58" filterUnits="userSpaceOnUse" color-interpolation-filters="sRGB">
<feFlood flood-opacity="0" result="BackgroundImageFix"/>
<feColorMatrix in="SourceAlpha" type="matrix" values="0 0 0 0 0 0 0 0 0 0 0 0 0 0 0 0 0 0 127 0" result="hardAlpha"/>
<feOffset dy="1"/>
<feGaussianBlur stdDeviation="10"/>
<feColorMatrix type="matrix" values="0 0 0 0 0.117647 0 0 0 0 0.129412 0 0 0 0 0.172549 0 0 0 0.02 0"/>
<feBlend mode="normal" in2="BackgroundImageFix" result="effect1_dropShadow_1679_2060"/>
<feColorMatrix in="SourceAlpha" type="matrix" values="0 0 0 0 0 0 0 0 0 0 0 0 0 0 0 0 0 0 127 0" result="hardAlpha"/>
<feOffset/>
<feGaussianBlur stdDeviation="22"/>
<feColorMatrix type="matrix" values="0 0 0 0 0.117647 0 0 0 0 0.129412 0 0 0 0 0.172549 0 0 0 0.02 0"/>
<feBlend mode="normal" in2="effect1_dropShadow_1679_2060" result="effect2_dropShadow_1679_2060"/>
<feColorMatrix in="SourceAlpha" type="matrix" values="0 0 0 0 0 0 0 0 0 0 0 0 0 0 0 0 0 0 127 0" result="hardAlpha"/>
<feOffset dy="8"/>
<feGaussianBlur stdDeviation="25"/>
<feColorMatrix type="matrix" values="0 0 0 0 0.117647 0 0 0 0 0.129412 0 0 0 0 0.172549 0 0 0 0.0422367 0"/>
<feBlend mode="normal" in2="effect2_dropShadow_1679_2060" result="effect3_dropShadow_1679_2060"/>
<feColorMatrix in="SourceAlpha" type="matrix" values="0 0 0 0 0 0 0 0 0 0 0 0 0 0 0 0 0 0 127 0" result="hardAlpha"/>
<feOffset dy="6"/>
<feGaussianBlur stdDeviation="40"/>
<feColorMatrix type="matrix" values="0 0 0 0 0.117647 0 0 0 0 0.129412 0 0 0 0 0.172549 0 0 0 0.04 0"/>
<feBlend mode="normal" in2="effect3_dropShadow_1679_2060" result="effect4_dropShadow_1679_2060"/>
<feBlend mode="normal" in="SourceGraphic" in2="effect4_dropShadow_1679_2060" result="shape"/>
</filter>
<linearGradient id="paint0_linear_1679_2060" x1="208.661" y1="113.799" x2="208.661" y2="200.481" gradientUnits="userSpaceOnUse">
<stop offset="0.613314" stop-color="#45CEA7"/>
<stop offset="1" stop-color="#45CEA7" stop-opacity="0"/>
</linearGradient>
</defs>
</svg>
