<svg width="230" height="267" viewBox="0 0 230 267" fill="none" xmlns="http://www.w3.org/2000/svg">
<g opacity="0.3">
<path d="M194.204 266.999C185.278 266.999 176.351 263.652 169.57 256.871L-85.5289 1.77216C-99.0906 -11.7896 -99.0906 -33.849 -85.5289 -47.4107C-78.9196 -54.02 -70.1646 -57.625 -60.8945 -57.625C-51.6244 -57.625 -42.8693 -54.02 -36.2601 -47.4107L218.839 207.688C225.448 214.297 229.053 222.966 229.053 232.322C229.053 241.592 225.448 250.348 218.839 256.957C211.972 263.652 203.131 266.999 194.204 266.999ZM-60.8945 -55.9083C-69.7354 -55.9083 -78.0613 -52.475 -84.2414 -46.2091C-97.1165 -33.334 -97.1165 -12.3046 -84.2414 0.570488L170.857 255.669C183.733 268.544 204.762 268.544 217.637 255.669C223.903 249.403 227.336 241.077 227.336 232.322C227.336 223.482 223.903 215.156 217.637 208.976L-37.5476 -46.2091C-43.7277 -52.475 -52.0536 -55.9083 -60.8945 -55.9083Z" fill="#00F0B5"/>
<path d="M183.904 202.624C174.978 202.624 166.051 199.277 159.27 192.496L-95.8287 -62.6028C-109.39 -76.1646 -109.39 -98.224 -95.8287 -111.786C-89.2194 -118.395 -80.4644 -122 -71.1943 -122C-61.9242 -122 -53.1691 -118.395 -46.5599 -111.786L208.539 143.313C215.148 149.922 218.753 158.591 218.753 167.947C218.753 177.217 215.148 185.973 208.539 192.582C201.672 199.277 192.831 202.624 183.904 202.624ZM-71.1943 -120.283C-80.0352 -120.283 -88.3611 -116.85 -94.5412 -110.584C-107.416 -97.709 -107.416 -76.6796 -94.5412 -63.8045L160.558 191.294C173.433 204.169 194.462 204.169 207.337 191.294C213.603 185.028 217.036 176.702 217.036 167.947C217.036 159.107 213.603 150.781 207.337 144.601L-47.8474 -110.584C-54.0275 -116.85 -62.3534 -120.283 -71.1943 -120.283Z" fill="#00F0B5"/>
</g>
</svg>
