<svg width="372" height="366" viewBox="0 0 372 366" fill="none" xmlns="http://www.w3.org/2000/svg">
<path opacity="0.1" d="M282.89 490.36C273.028 500.216 256.955 500.216 247.093 490.36L56.7695 300.169C46.9076 290.314 46.9076 274.251 56.7695 264.396C66.6315 254.541 82.7052 254.541 92.5672 264.396L282.89 454.588C292.752 464.507 292.752 480.505 282.89 490.36Z" fill="url(#paint0_linear_1705_1110)"/>
<path opacity="0.1" d="M439.081 556.977C421.47 574.576 392.909 574.576 375.363 556.977L36.4053 218.255C18.7946 200.657 18.7946 172.115 36.4053 154.581C54.0159 136.982 82.5772 136.982 100.124 154.581L439.081 493.303C456.692 510.837 456.692 539.379 439.081 556.977Z" fill="url(#paint1_linear_1705_1110)"/>
<g opacity="0.4">
<path opacity="0.36" d="M418.398 554.035C406.679 554.035 394.96 549.555 386.059 540.66L47.1653 201.938C38.5201 193.299 33.7812 181.844 33.7812 169.621C33.7812 157.398 38.5201 145.943 47.1653 137.304C55.8106 128.664 67.2735 123.929 79.5049 123.929C91.7363 123.929 103.199 128.664 111.845 137.304L450.802 476.026C468.605 493.816 468.605 522.806 450.802 540.66C441.836 549.555 430.117 554.035 418.398 554.035ZM79.5049 125.209C67.6577 125.209 56.451 129.816 48.0619 138.199C39.6728 146.583 35.062 157.718 35.062 169.621C35.062 181.46 39.6728 192.659 48.0619 201.042L387.019 539.764C395.408 548.148 406.551 552.755 418.462 552.755C430.373 552.755 441.516 548.148 449.905 539.764C467.26 522.422 467.26 494.264 449.905 476.986L110.884 138.263C102.495 129.816 91.3521 125.209 79.5049 125.209Z" fill="#00F0B5"/>
</g>
<path opacity="0.1" d="M543.274 578.801C525.663 596.399 497.102 596.399 479.556 578.801L140.534 240.078C122.924 222.48 122.924 193.938 140.534 176.404C158.145 158.805 186.706 158.805 204.253 176.404L543.274 515.126C560.885 532.661 560.885 561.202 543.274 578.801Z" fill="url(#paint2_linear_1705_1110)"/>
<path opacity="0.1" d="M570.105 472.506C552.494 490.104 523.933 490.104 506.386 472.506L167.429 133.783C149.818 116.185 149.818 87.6435 167.429 70.109C185.039 52.5105 213.601 52.5105 231.147 70.109L570.105 408.831C587.715 426.366 587.715 454.907 570.105 472.506Z" fill="url(#paint3_linear_1705_1110)"/>
<path opacity="0.1" d="M584 537.397C569.335 552.052 545.577 552.052 530.912 537.397L248.565 255.246C233.9 240.591 233.9 216.849 248.565 202.194C263.23 187.539 286.988 187.539 301.653 202.194L584 484.345C598.665 499 598.665 522.742 584 537.397Z" fill="url(#paint4_linear_1705_1110)"/>
<path opacity="0.1" d="M473.279 328.07C463.417 337.926 447.343 337.926 437.481 328.07L247.158 137.879C237.296 128.024 237.296 111.961 247.158 102.106C257.02 92.2511 273.094 92.2511 282.956 102.106L473.279 292.298C483.141 302.217 483.141 318.215 473.279 328.07Z" fill="url(#paint5_linear_1705_1110)"/>
<g opacity="0.4">
<path opacity="0.36" d="M487.303 322.695C480.643 322.695 473.983 320.199 468.924 315.143L278.665 124.952C268.547 114.841 268.547 98.3944 278.665 88.2833C283.596 83.3557 290.064 80.668 297.044 80.668C304.024 80.668 310.492 83.3557 315.423 88.2833L505.746 278.475C510.677 283.402 513.367 289.866 513.367 296.841C513.367 303.752 510.677 310.28 505.746 315.207C500.623 320.135 493.963 322.695 487.303 322.695ZM296.98 81.9479C290.384 81.9479 284.172 84.5076 279.561 89.1792C269.955 98.7784 269.955 114.457 279.561 124.056L469.885 314.247C479.49 323.847 495.18 323.847 504.786 314.247C509.461 309.576 512.022 303.368 512.022 296.841C512.022 290.25 509.461 284.042 504.786 279.435L314.462 89.2432C309.788 84.5076 303.576 81.9479 296.98 81.9479Z" fill="#00F0B5"/>
</g>
<g opacity="0.4">
<path opacity="0.36" d="M216.291 492.791C209.375 492.791 202.843 490.104 197.912 485.176L7.5886 295.049C-2.52953 284.938 -2.52953 268.491 7.5886 258.38C12.5196 253.452 18.9875 250.765 25.9677 250.765C32.8839 250.765 39.4159 253.452 44.3469 258.38L234.606 448.571C244.724 458.682 244.724 475.129 234.606 485.24C229.739 490.104 223.207 492.791 216.291 492.791ZM25.9677 252.045C19.3717 252.045 13.16 254.604 8.54918 259.276C-1.05664 268.875 -1.05664 284.554 8.54918 294.153L198.872 484.344C203.547 489.016 209.759 491.576 216.291 491.576C222.887 491.576 229.099 489.016 233.71 484.344C243.315 474.745 243.315 459.066 233.71 449.467L43.3863 259.276C38.7755 254.604 32.5637 252.045 25.9677 252.045Z" fill="#00F0B5"/>
</g>
<g opacity="0.4">
<path opacity="0.36" d="M538.277 619.501C526.045 619.501 514.582 614.765 505.937 606.126L166.98 267.404C158.335 258.764 153.596 247.309 153.596 235.087C153.596 222.864 158.335 211.409 166.98 202.769C175.625 194.13 187.088 189.395 199.319 189.395C211.551 189.395 223.014 194.13 231.659 202.769L570.616 541.492C579.261 550.131 584 561.586 584 573.809C584 586.032 579.261 597.487 570.616 606.126L570.168 605.678L570.616 606.126C561.971 614.765 550.444 619.501 538.277 619.501ZM199.319 190.674C187.472 190.674 176.265 195.282 167.876 203.665C159.487 212.049 154.876 223.184 154.876 235.087C154.876 246.925 159.487 258.125 167.876 266.508L506.834 605.23C524.188 622.573 552.365 622.573 569.656 605.23C578.045 596.847 582.656 585.712 582.656 573.809C582.656 561.97 578.045 550.771 569.656 542.388L230.762 203.729C222.373 195.346 211.167 190.674 199.319 190.674Z" fill="#00F0B5"/>
</g>
<g opacity="0.4">
<path opacity="0.36" d="M522.587 430.333C510.868 430.333 499.149 425.854 490.248 416.958L151.29 78.3002C142.645 69.6609 137.906 58.2059 137.906 45.983C137.906 33.7601 142.645 22.3051 151.29 13.6658C159.936 5.0266 171.399 0.291016 183.63 0.291016C195.861 0.291016 207.324 5.0266 215.97 13.6658L554.927 352.388C572.73 370.179 572.73 399.168 554.927 417.023C546.025 425.854 534.306 430.333 522.587 430.333ZM183.63 1.5709C171.783 1.5709 160.576 6.1785 152.187 14.5618C143.798 22.945 139.187 34.0801 139.187 45.983C139.187 57.822 143.798 69.021 152.187 77.4043L491.144 416.127C508.499 433.469 536.676 433.469 553.966 416.127L554.414 416.575L553.966 416.127C571.321 398.784 571.321 370.627 553.966 353.348L215.073 14.5618C206.684 6.1785 195.477 1.5709 183.63 1.5709Z" fill="#00F0B5"/>
</g>
<defs>
<linearGradient id="paint0_linear_1705_1110" x1="279.891" y1="226.927" x2="169.496" y2="451.825" gradientUnits="userSpaceOnUse">
<stop stop-color="#F4F5F7" stop-opacity="0"/>
<stop offset="1" stop-color="#F4F5F7"/>
</linearGradient>
<linearGradient id="paint1_linear_1705_1110" x1="433.772" y1="87.8106" x2="237.148" y2="488.375" gradientUnits="userSpaceOnUse">
<stop stop-color="#F4F5F7" stop-opacity="0"/>
<stop offset="1" stop-color="#F4F5F7"/>
</linearGradient>
<linearGradient id="paint2_linear_1705_1110" x1="537.962" y1="109.634" x2="341.356" y2="510.222" gradientUnits="userSpaceOnUse">
<stop stop-color="#F4F5F7" stop-opacity="0"/>
<stop offset="1" stop-color="#F4F5F7"/>
</linearGradient>
<linearGradient id="paint3_linear_1705_1110" x1="564.796" y1="3.33891" x2="368.171" y2="403.904" gradientUnits="userSpaceOnUse">
<stop stop-color="#F4F5F7" stop-opacity="0"/>
<stop offset="1" stop-color="#F4F5F7"/>
</linearGradient>
<linearGradient id="paint4_linear_1705_1110" x1="579.574" y1="146.578" x2="415.787" y2="480.248" gradientUnits="userSpaceOnUse">
<stop stop-color="#F4F5F7" stop-opacity="0"/>
<stop offset="1" stop-color="#F4F5F7"/>
</linearGradient>
<linearGradient id="paint5_linear_1705_1110" x1="470.279" y1="64.6372" x2="359.884" y2="289.534" gradientUnits="userSpaceOnUse">
<stop stop-color="#F4F5F7" stop-opacity="0"/>
<stop offset="1" stop-color="#F4F5F7"/>
</linearGradient>
</defs>
</svg>
