<svg width="583" height="374" viewBox="0 0 583 374" fill="none" xmlns="http://www.w3.org/2000/svg">
<g filter="url(#filter0_dddd_1679_2087)">
<path d="M80 80.887C80 77.5106 81.4457 74.7734 83.2291 74.7734H498.972C500.756 74.7734 502.201 77.5106 502.201 80.887V281.105C502.201 284.482 500.756 287.219 498.972 287.219H83.2291C81.4457 287.219 80 284.482 80 281.105V80.887Z" fill="white"/>
</g>
<path d="M132.675 182.182H123.41V235.887H132.675V182.182Z" fill="#FC5A5A"/>
<path d="M148.558 158.562H139.293V236.018H148.558V158.562Z" fill="url(#paint0_linear_1679_2087)"/>
<path d="M164.835 128.872H155.57V235.887H164.835V128.872Z" fill="#5A87FC"/>
<path d="M191.042 208.837H181.777V235.887H191.042V208.837Z" fill="#FC5A5A"/>
<path d="M206.925 180.732H197.66V236.021H206.925V180.732Z" fill="url(#paint1_linear_1679_2087)"/>
<path d="M223.204 115.547H213.939V235.889H223.204V115.547Z" fill="#5A87FC"/>
<path d="M249.542 164.5H240.277V236.019H249.542V164.5Z" fill="#FC5A5A"/>
<path d="M265.292 185.216H256.027V236.018H265.292V185.216Z" fill="url(#paint2_linear_1679_2087)"/>
<path d="M281.571 142.199H272.307V236.018H281.571V142.199Z" fill="#5A87FC"/>
<path d="M307.909 164.501H298.645V236.02H307.909V164.501Z" fill="#FC5A5A"/>
<path d="M323.792 180.731H314.527V236.02H323.792V180.731Z" fill="url(#paint3_linear_1679_2087)"/>
<path d="M340.071 195.509H330.807V236.019H340.071V195.509Z" fill="#5A87FC"/>
<path d="M366.274 182.183H357.01V235.888H366.274V182.183Z" fill="#FC5A5A"/>
<path d="M382.157 109.739H372.893V236.019H382.157V109.739Z" fill="url(#paint4_linear_1679_2087)"/>
<path d="M398.436 151.042H389.172V235.888H398.436V151.042Z" fill="#5A87FC"/>
<path d="M424.776 208.839H415.512V235.889H424.776V208.839Z" fill="#FC5A5A"/>
<path d="M440.526 131.909H431.262V236.021H440.526V131.909Z" fill="url(#paint5_linear_1679_2087)"/>
<path d="M456.806 195.51H447.541V236.02H456.806V195.51Z" fill="#5A87FC"/>
<path d="M135.011 253.605C135.011 254.132 134.945 254.605 134.812 255.023C134.684 255.441 134.492 255.795 134.236 256.085C133.985 256.371 133.674 256.591 133.303 256.745C132.933 256.899 132.507 256.976 132.026 256.976C131.598 256.976 131.153 256.914 130.689 256.791C130.698 256.664 130.709 256.538 130.723 256.415C130.736 256.288 130.749 256.162 130.762 256.039C130.771 255.964 130.798 255.905 130.842 255.861C130.89 255.813 130.961 255.788 131.053 255.788C131.133 255.788 131.239 255.808 131.371 255.848C131.503 255.887 131.68 255.907 131.9 255.907C132.192 255.907 132.45 255.863 132.675 255.775C132.904 255.687 133.096 255.551 133.25 255.366C133.409 255.182 133.528 254.946 133.608 254.66C133.692 254.37 133.734 254.027 133.734 253.631V247.416H135.011V253.605Z" fill="#787A80"/>
<path d="M142.063 256.871H141.54C141.425 256.871 141.333 256.853 141.262 256.818C141.192 256.783 141.145 256.708 141.123 256.593L140.991 255.973C140.814 256.132 140.642 256.275 140.475 256.402C140.307 256.525 140.131 256.631 139.945 256.719C139.76 256.802 139.561 256.866 139.35 256.91C139.142 256.954 138.911 256.976 138.655 256.976C138.395 256.976 138.15 256.941 137.92 256.871C137.695 256.796 137.499 256.686 137.331 256.541C137.164 256.395 137.029 256.213 136.928 255.993C136.831 255.769 136.782 255.505 136.782 255.201C136.782 254.937 136.855 254.684 137 254.443C137.146 254.196 137.38 253.979 137.702 253.789C138.028 253.6 138.454 253.446 138.979 253.328C139.504 253.204 140.146 253.134 140.905 253.116V252.595C140.905 252.076 140.792 251.685 140.567 251.421C140.347 251.153 140.018 251.018 139.581 251.018C139.295 251.018 139.052 251.056 138.853 251.131C138.659 251.201 138.489 251.282 138.344 251.375C138.203 251.463 138.079 251.544 137.973 251.619C137.872 251.689 137.77 251.724 137.669 251.724C137.589 251.724 137.519 251.705 137.457 251.665C137.4 251.621 137.353 251.568 137.318 251.507L137.106 251.131C137.477 250.774 137.876 250.508 138.304 250.332C138.732 250.156 139.206 250.068 139.727 250.068C140.102 250.068 140.435 250.13 140.726 250.253C141.017 250.376 141.262 250.548 141.461 250.768C141.659 250.988 141.809 251.254 141.911 251.566C142.012 251.878 142.063 252.221 142.063 252.595V256.871ZM139.006 256.151C139.213 256.151 139.403 256.132 139.575 256.092C139.747 256.048 139.908 255.989 140.058 255.914C140.212 255.835 140.358 255.74 140.495 255.63C140.636 255.52 140.772 255.395 140.905 255.254V253.862C140.362 253.88 139.901 253.924 139.522 253.994C139.142 254.06 138.834 254.148 138.595 254.258C138.357 254.368 138.183 254.498 138.072 254.647C137.967 254.797 137.914 254.964 137.914 255.149C137.914 255.324 137.942 255.476 138 255.604C138.057 255.731 138.134 255.837 138.231 255.92C138.328 256 138.443 256.059 138.575 256.099C138.708 256.134 138.851 256.151 139.006 256.151Z" fill="#787A80"/>
<path d="M143.847 256.871V250.187H144.549C144.717 250.187 144.822 250.268 144.867 250.431L144.959 251.157C145.25 250.836 145.575 250.576 145.932 250.378C146.294 250.18 146.711 250.081 147.183 250.081C147.549 250.081 147.871 250.143 148.149 250.266C148.431 250.385 148.665 250.557 148.85 250.781C149.04 251.001 149.183 251.267 149.281 251.579C149.378 251.891 149.426 252.237 149.426 252.615V256.871H148.248V252.615C148.248 252.109 148.131 251.718 147.897 251.441C147.668 251.159 147.315 251.018 146.839 251.018C146.49 251.018 146.164 251.102 145.859 251.269C145.559 251.436 145.281 251.663 145.025 251.949V256.871H143.847Z" fill="#787A80"/>
<path d="M194.199 247.414V248.457H189.646V251.762H193.537V252.805H189.646V256.869H188.355V247.414H194.199Z" fill="#787A80"/>
<path d="M197.855 250.08C198.256 250.08 198.627 250.148 198.967 250.284C199.306 250.416 199.6 250.61 199.847 250.865C200.094 251.116 200.286 251.428 200.423 251.802C200.564 252.171 200.634 252.593 200.634 253.069C200.634 253.253 200.615 253.376 200.575 253.438C200.535 253.5 200.46 253.53 200.35 253.53H195.89C195.898 253.953 195.956 254.32 196.062 254.632C196.168 254.944 196.313 255.206 196.498 255.417C196.684 255.624 196.904 255.78 197.16 255.886C197.416 255.987 197.703 256.038 198.02 256.038C198.316 256.038 198.57 256.005 198.781 255.939C198.998 255.868 199.183 255.793 199.337 255.714C199.492 255.635 199.62 255.562 199.721 255.496C199.827 255.426 199.917 255.391 199.992 255.391C200.09 255.391 200.165 255.428 200.217 255.503L200.548 255.932C200.403 256.108 200.229 256.262 200.026 256.394C199.823 256.521 199.604 256.627 199.37 256.71C199.141 256.794 198.903 256.856 198.656 256.895C198.409 256.939 198.164 256.961 197.921 256.961C197.458 256.961 197.03 256.884 196.637 256.73C196.249 256.572 195.912 256.343 195.625 256.044C195.343 255.741 195.122 255.367 194.963 254.922C194.804 254.478 194.725 253.968 194.725 253.392C194.725 252.926 194.795 252.49 194.937 252.085C195.082 251.681 195.29 251.331 195.559 251.036C195.828 250.737 196.156 250.504 196.545 250.337C196.933 250.166 197.37 250.08 197.855 250.08ZM197.881 250.944C197.312 250.944 196.865 251.109 196.538 251.439C196.212 251.764 196.009 252.217 195.929 252.798H199.576C199.576 252.525 199.538 252.277 199.463 252.052C199.388 251.824 199.278 251.628 199.132 251.465C198.987 251.298 198.808 251.171 198.596 251.083C198.389 250.99 198.151 250.944 197.881 250.944Z" fill="#787A80"/>
<path d="M202.182 256.869V247.15H203.366V251.149C203.644 250.828 203.962 250.57 204.319 250.377C204.681 250.179 205.093 250.08 205.557 250.08C205.945 250.08 206.296 250.152 206.609 250.297C206.922 250.443 207.189 250.66 207.41 250.951C207.63 251.237 207.8 251.593 207.919 252.019C208.038 252.442 208.098 252.93 208.098 253.484C208.098 253.977 208.032 254.436 207.899 254.863C207.767 255.285 207.575 255.653 207.324 255.965C207.077 256.273 206.772 256.517 206.41 256.697C206.053 256.873 205.649 256.961 205.199 256.961C204.767 256.961 204.399 256.878 204.094 256.71C203.794 256.543 203.532 256.31 203.307 256.011L203.247 256.618C203.212 256.785 203.11 256.869 202.943 256.869H202.182ZM205.173 251.017C204.789 251.017 204.452 251.105 204.16 251.281C203.874 251.456 203.609 251.705 203.366 252.026V255.259C203.578 255.549 203.812 255.754 204.068 255.873C204.328 255.991 204.617 256.051 204.935 256.051C205.561 256.051 206.042 255.829 206.377 255.384C206.713 254.94 206.88 254.307 206.88 253.484C206.88 253.049 206.841 252.675 206.761 252.363C206.686 252.05 206.576 251.795 206.43 251.597C206.285 251.395 206.106 251.248 205.894 251.155C205.682 251.063 205.442 251.017 205.173 251.017Z" fill="#787A80"/>
<path d="M251.255 253.453C251.317 253.558 251.37 253.671 251.414 253.789C251.463 253.904 251.509 254.02 251.553 254.139C251.597 254.016 251.643 253.899 251.692 253.789C251.741 253.675 251.796 253.561 251.857 253.446L255.067 247.634C255.124 247.533 255.184 247.471 255.246 247.449C255.307 247.427 255.396 247.416 255.51 247.416H256.457V256.871H255.332V249.923C255.332 249.831 255.334 249.732 255.338 249.626C255.343 249.521 255.349 249.413 255.358 249.303L252.109 255.214C251.999 255.412 251.844 255.511 251.646 255.511H251.46C251.262 255.511 251.107 255.412 250.997 255.214L247.675 249.283C247.688 249.398 247.697 249.51 247.702 249.62C247.71 249.73 247.715 249.831 247.715 249.923V256.871H246.59V247.416H247.536C247.651 247.416 247.739 247.427 247.801 247.449C247.863 247.471 247.922 247.533 247.98 247.634L251.255 253.453Z" fill="#787A80"/>
<path d="M263.503 256.871H262.981C262.866 256.871 262.773 256.853 262.703 256.818C262.632 256.783 262.586 256.708 262.564 256.593L262.431 255.973C262.255 256.132 262.083 256.275 261.915 256.402C261.747 256.525 261.571 256.631 261.386 256.719C261.2 256.802 261.002 256.866 260.79 256.91C260.583 256.954 260.351 256.976 260.095 256.976C259.835 256.976 259.59 256.941 259.361 256.871C259.136 256.796 258.939 256.686 258.772 256.541C258.604 256.395 258.47 256.213 258.368 255.993C258.271 255.769 258.223 255.505 258.223 255.201C258.223 254.937 258.295 254.684 258.441 254.443C258.586 254.196 258.82 253.979 259.142 253.789C259.469 253.6 259.895 253.446 260.42 253.328C260.945 253.204 261.586 253.134 262.345 253.116V252.595C262.345 252.076 262.233 251.685 262.008 251.421C261.787 251.153 261.459 251.018 261.022 251.018C260.735 251.018 260.492 251.056 260.294 251.131C260.1 251.201 259.93 251.282 259.784 251.375C259.643 251.463 259.52 251.544 259.414 251.619C259.312 251.689 259.211 251.724 259.109 251.724C259.03 251.724 258.959 251.705 258.898 251.665C258.84 251.621 258.794 251.568 258.759 251.507L258.547 251.131C258.917 250.774 259.317 250.508 259.745 250.332C260.172 250.156 260.647 250.068 261.167 250.068C261.542 250.068 261.875 250.13 262.167 250.253C262.458 250.376 262.703 250.548 262.901 250.768C263.1 250.988 263.25 251.254 263.351 251.566C263.453 251.878 263.503 252.221 263.503 252.595V256.871ZM260.446 256.151C260.653 256.151 260.843 256.132 261.015 256.092C261.187 256.048 261.348 255.989 261.498 255.914C261.653 255.835 261.798 255.74 261.935 255.63C262.076 255.52 262.213 255.395 262.345 255.254V253.862C261.803 253.88 261.342 253.924 260.962 253.994C260.583 254.06 260.274 254.148 260.036 254.258C259.797 254.368 259.623 254.498 259.513 254.647C259.407 254.797 259.354 254.964 259.354 255.149C259.354 255.324 259.383 255.476 259.44 255.604C259.497 255.731 259.575 255.837 259.672 255.92C259.769 256 259.884 256.059 260.016 256.099C260.148 256.134 260.292 256.151 260.446 256.151Z" fill="#787A80"/>
<path d="M265.288 256.871V250.187H265.963C266.091 250.187 266.179 250.211 266.228 250.26C266.276 250.308 266.309 250.392 266.327 250.51L266.406 251.553C266.636 251.087 266.918 250.724 267.253 250.464C267.593 250.2 267.99 250.068 268.444 250.068C268.63 250.068 268.797 250.09 268.947 250.134C269.097 250.174 269.236 250.231 269.364 250.306L269.212 251.183C269.181 251.293 269.113 251.348 269.007 251.348C268.945 251.348 268.85 251.328 268.722 251.289C268.594 251.245 268.416 251.223 268.186 251.223C267.776 251.223 267.432 251.342 267.154 251.579C266.881 251.817 266.651 252.162 266.466 252.615V256.871H265.288Z" fill="#787A80"/>
<path d="M315.272 256.871H314.28C314.165 256.871 314.072 256.842 314.002 256.785C313.931 256.728 313.878 256.655 313.843 256.567L312.956 254.284H308.701L307.814 256.567C307.783 256.646 307.73 256.717 307.655 256.778C307.58 256.84 307.488 256.871 307.377 256.871H306.385L310.177 247.416H311.48L315.272 256.871ZM309.058 253.361H312.599L311.11 249.514C311.013 249.277 310.918 248.98 310.825 248.623C310.777 248.804 310.728 248.971 310.68 249.125C310.635 249.274 310.591 249.406 310.547 249.521L309.058 253.361Z" fill="#787A80"/>
<path d="M316.281 259.134V250.187H316.982C317.15 250.187 317.256 250.268 317.3 250.431L317.399 251.223C317.686 250.875 318.012 250.596 318.378 250.385C318.749 250.174 319.175 250.068 319.655 250.068C320.039 250.068 320.388 250.143 320.701 250.293C321.014 250.438 321.281 250.655 321.502 250.946C321.722 251.232 321.892 251.588 322.011 252.015C322.13 252.441 322.19 252.932 322.19 253.486C322.19 253.979 322.124 254.438 321.992 254.865C321.859 255.287 321.669 255.654 321.422 255.967C321.175 256.275 320.871 256.519 320.509 256.699C320.152 256.875 319.748 256.963 319.298 256.963C318.883 256.963 318.528 256.895 318.233 256.758C317.942 256.622 317.683 256.428 317.458 256.178V259.134H316.281ZM319.265 251.018C318.881 251.018 318.544 251.106 318.253 251.282C317.966 251.458 317.701 251.707 317.458 252.028V255.261C317.675 255.551 317.911 255.755 318.167 255.874C318.427 255.993 318.716 256.052 319.033 256.052C319.655 256.052 320.134 255.83 320.469 255.386C320.805 254.942 320.972 254.308 320.972 253.486C320.972 253.05 320.933 252.677 320.853 252.364C320.778 252.052 320.668 251.797 320.522 251.599C320.377 251.397 320.198 251.249 319.986 251.157C319.775 251.065 319.534 251.018 319.265 251.018Z" fill="#787A80"/>
<path d="M323.583 256.871V250.187H324.258C324.386 250.187 324.474 250.211 324.523 250.26C324.571 250.308 324.604 250.392 324.622 250.51L324.702 251.553C324.931 251.087 325.213 250.724 325.549 250.464C325.888 250.2 326.285 250.068 326.74 250.068C326.925 250.068 327.093 250.09 327.243 250.134C327.393 250.174 327.532 250.231 327.66 250.306L327.507 251.183C327.476 251.293 327.408 251.348 327.302 251.348C327.24 251.348 327.146 251.328 327.018 251.289C326.89 251.245 326.711 251.223 326.482 251.223C326.071 251.223 325.727 251.342 325.449 251.579C325.176 251.817 324.946 252.162 324.761 252.615V256.871H323.583Z" fill="#787A80"/>
<path d="M370.37 253.453C370.432 253.558 370.485 253.671 370.529 253.789C370.578 253.904 370.624 254.02 370.668 254.139C370.712 254.016 370.759 253.899 370.807 253.789C370.856 253.675 370.911 253.561 370.973 253.446L374.182 247.634C374.24 247.533 374.299 247.471 374.361 247.449C374.423 247.427 374.511 247.416 374.626 247.416H375.572V256.871H374.447V249.923C374.447 249.831 374.449 249.732 374.454 249.626C374.458 249.521 374.465 249.413 374.473 249.303L371.224 255.214C371.114 255.412 370.959 255.511 370.761 255.511H370.576C370.377 255.511 370.223 255.412 370.112 255.214L366.79 249.283C366.804 249.398 366.812 249.51 366.817 249.62C366.826 249.73 366.83 249.831 366.83 249.923V256.871H365.705V247.416H366.651C366.766 247.416 366.854 247.427 366.916 247.449C366.978 247.471 367.037 247.533 367.095 247.634L370.37 253.453Z" fill="#787A80"/>
<path d="M382.619 256.871H382.096C381.981 256.871 381.888 256.853 381.818 256.818C381.747 256.783 381.701 256.708 381.679 256.593L381.547 255.973C381.37 256.132 381.198 256.275 381.03 256.402C380.863 256.525 380.686 256.631 380.501 256.719C380.316 256.802 380.117 256.866 379.905 256.91C379.698 256.954 379.466 256.976 379.211 256.976C378.95 256.976 378.705 256.941 378.476 256.871C378.251 256.796 378.055 256.686 377.887 256.541C377.719 256.395 377.585 256.213 377.483 255.993C377.386 255.769 377.338 255.505 377.338 255.201C377.338 254.937 377.411 254.684 377.556 254.443C377.702 254.196 377.936 253.979 378.258 253.789C378.584 253.6 379.01 253.446 379.535 253.328C380.06 253.204 380.702 253.134 381.46 253.116V252.595C381.46 252.076 381.348 251.685 381.123 251.421C380.902 251.153 380.574 251.018 380.137 251.018C379.85 251.018 379.608 251.056 379.409 251.131C379.215 251.201 379.045 251.282 378.899 251.375C378.758 251.463 378.635 251.544 378.529 251.619C378.427 251.689 378.326 251.724 378.224 251.724C378.145 251.724 378.074 251.705 378.013 251.665C377.955 251.621 377.909 251.568 377.874 251.507L377.662 251.131C378.033 250.774 378.432 250.508 378.86 250.332C379.288 250.156 379.762 250.068 380.283 250.068C380.658 250.068 380.991 250.13 381.282 250.253C381.573 250.376 381.818 250.548 382.016 250.768C382.215 250.988 382.365 251.254 382.466 251.566C382.568 251.878 382.619 252.221 382.619 252.595V256.871ZM379.561 256.151C379.769 256.151 379.958 256.132 380.13 256.092C380.302 256.048 380.463 255.989 380.613 255.914C380.768 255.835 380.913 255.74 381.05 255.63C381.191 255.52 381.328 255.395 381.46 255.254V253.862C380.918 253.88 380.457 253.924 380.077 253.994C379.698 254.06 379.389 254.148 379.151 254.258C378.913 254.368 378.738 254.498 378.628 254.647C378.522 254.797 378.469 254.964 378.469 255.149C378.469 255.324 378.498 255.476 378.555 255.604C378.613 255.731 378.69 255.837 378.787 255.92C378.884 256 378.999 256.059 379.131 256.099C379.263 256.134 379.407 256.151 379.561 256.151Z" fill="#787A80"/>
<path d="M386.162 258.843C386.122 258.931 386.071 259.002 386.01 259.054C385.952 259.107 385.862 259.134 385.738 259.134H384.865L386.089 256.481L383.323 250.187H384.342C384.443 250.187 384.523 250.213 384.58 250.266C384.637 250.315 384.679 250.37 384.706 250.431L386.499 254.64C386.539 254.737 386.572 254.834 386.598 254.931C386.629 255.028 386.656 255.127 386.678 255.228C386.709 255.127 386.74 255.028 386.771 254.931C386.801 254.834 386.837 254.735 386.876 254.634L388.617 250.431C388.643 250.361 388.687 250.304 388.749 250.26C388.815 250.211 388.886 250.187 388.961 250.187H389.901L386.162 258.843Z" fill="#787A80"/>
<path d="M431.478 253.605C431.478 254.132 431.411 254.605 431.279 255.023C431.151 255.441 430.959 255.795 430.703 256.085C430.452 256.371 430.141 256.591 429.77 256.745C429.4 256.899 428.974 256.976 428.493 256.976C428.065 256.976 427.619 256.914 427.156 256.791C427.165 256.664 427.176 256.538 427.189 256.415C427.203 256.288 427.216 256.162 427.229 256.039C427.238 255.964 427.264 255.905 427.308 255.861C427.357 255.813 427.428 255.788 427.52 255.788C427.6 255.788 427.706 255.808 427.838 255.848C427.97 255.887 428.147 255.907 428.367 255.907C428.658 255.907 428.917 255.863 429.142 255.775C429.371 255.687 429.563 255.551 429.717 255.366C429.876 255.182 429.995 254.946 430.075 254.66C430.158 254.37 430.2 254.027 430.2 253.631V247.416H431.478V253.605Z" fill="#787A80"/>
<path d="M434.625 250.187V254.449C434.625 254.955 434.742 255.346 434.976 255.624C435.21 255.901 435.563 256.039 436.035 256.039C436.379 256.039 436.703 255.958 437.008 255.795C437.312 255.632 437.592 255.406 437.848 255.116V250.187H439.026V256.871H438.325C438.157 256.871 438.051 256.789 438.007 256.626L437.914 255.907C437.623 256.228 437.297 256.488 436.935 256.686C436.573 256.879 436.158 256.976 435.691 256.976C435.325 256.976 435 256.917 434.718 256.798C434.44 256.675 434.206 256.503 434.016 256.283C433.827 256.063 433.683 255.797 433.586 255.485C433.494 255.173 433.447 254.827 433.447 254.449V250.187H434.625Z" fill="#787A80"/>
<path d="M440.96 256.871V250.187H441.662C441.83 250.187 441.935 250.268 441.98 250.431L442.072 251.157C442.363 250.836 442.688 250.576 443.045 250.378C443.407 250.18 443.824 250.081 444.296 250.081C444.662 250.081 444.984 250.143 445.262 250.266C445.544 250.385 445.778 250.557 445.963 250.781C446.153 251.001 446.296 251.267 446.394 251.579C446.491 251.891 446.539 252.237 446.539 252.615V256.871H445.361V252.615C445.361 252.109 445.244 251.718 445.01 251.441C444.781 251.159 444.428 251.018 443.952 251.018C443.603 251.018 443.277 251.102 442.972 251.269C442.672 251.436 442.394 251.663 442.138 251.949V256.871H440.96Z" fill="#787A80"/>
<path d="M111.896 236.153H469.907" stroke="#9A9CA5" stroke-width="0.3364" stroke-miterlimit="10"/>
<defs>
<filter id="filter0_dddd_1679_2087" x="0" y="0.773438" width="582.201" height="372.445" filterUnits="userSpaceOnUse" color-interpolation-filters="sRGB">
<feFlood flood-opacity="0" result="BackgroundImageFix"/>
<feColorMatrix in="SourceAlpha" type="matrix" values="0 0 0 0 0 0 0 0 0 0 0 0 0 0 0 0 0 0 127 0" result="hardAlpha"/>
<feOffset dy="1"/>
<feGaussianBlur stdDeviation="10"/>
<feColorMatrix type="matrix" values="0 0 0 0 0.117647 0 0 0 0 0.129412 0 0 0 0 0.172549 0 0 0 0.02 0"/>
<feBlend mode="normal" in2="BackgroundImageFix" result="effect1_dropShadow_1679_2087"/>
<feColorMatrix in="SourceAlpha" type="matrix" values="0 0 0 0 0 0 0 0 0 0 0 0 0 0 0 0 0 0 127 0" result="hardAlpha"/>
<feOffset/>
<feGaussianBlur stdDeviation="22"/>
<feColorMatrix type="matrix" values="0 0 0 0 0.117647 0 0 0 0 0.129412 0 0 0 0 0.172549 0 0 0 0.02 0"/>
<feBlend mode="normal" in2="effect1_dropShadow_1679_2087" result="effect2_dropShadow_1679_2087"/>
<feColorMatrix in="SourceAlpha" type="matrix" values="0 0 0 0 0 0 0 0 0 0 0 0 0 0 0 0 0 0 127 0" result="hardAlpha"/>
<feOffset dy="8"/>
<feGaussianBlur stdDeviation="25"/>
<feColorMatrix type="matrix" values="0 0 0 0 0.117647 0 0 0 0 0.129412 0 0 0 0 0.172549 0 0 0 0.0422367 0"/>
<feBlend mode="normal" in2="effect2_dropShadow_1679_2087" result="effect3_dropShadow_1679_2087"/>
<feColorMatrix in="SourceAlpha" type="matrix" values="0 0 0 0 0 0 0 0 0 0 0 0 0 0 0 0 0 0 127 0" result="hardAlpha"/>
<feOffset dy="6"/>
<feGaussianBlur stdDeviation="40"/>
<feColorMatrix type="matrix" values="0 0 0 0 0.117647 0 0 0 0 0.129412 0 0 0 0 0.172549 0 0 0 0.04 0"/>
<feBlend mode="normal" in2="effect3_dropShadow_1679_2087" result="effect4_dropShadow_1679_2087"/>
<feBlend mode="normal" in="SourceGraphic" in2="effect4_dropShadow_1679_2087" result="shape"/>
</filter>
<linearGradient id="paint0_linear_1679_2087" x1="143.925" y1="158.562" x2="143.925" y2="236.018" gradientUnits="userSpaceOnUse">
<stop stop-color="#5A87FC"/>
<stop offset="0.515679" stop-color="#885BFF"/>
<stop offset="1" stop-color="#5A87FC"/>
</linearGradient>
<linearGradient id="paint1_linear_1679_2087" x1="202.292" y1="180.732" x2="202.292" y2="236.021" gradientUnits="userSpaceOnUse">
<stop stop-color="#5A87FC"/>
<stop offset="0.515679" stop-color="#885BFF"/>
<stop offset="1" stop-color="#5A87FC"/>
</linearGradient>
<linearGradient id="paint2_linear_1679_2087" x1="260.66" y1="185.216" x2="260.66" y2="236.018" gradientUnits="userSpaceOnUse">
<stop stop-color="#5A87FC"/>
<stop offset="0.515679" stop-color="#885BFF"/>
<stop offset="1" stop-color="#5A87FC"/>
</linearGradient>
<linearGradient id="paint3_linear_1679_2087" x1="319.16" y1="180.731" x2="319.16" y2="236.02" gradientUnits="userSpaceOnUse">
<stop stop-color="#5A87FC"/>
<stop offset="0.515679" stop-color="#885BFF"/>
<stop offset="1" stop-color="#5A87FC"/>
</linearGradient>
<linearGradient id="paint4_linear_1679_2087" x1="377.525" y1="109.739" x2="377.525" y2="236.019" gradientUnits="userSpaceOnUse">
<stop stop-color="#5A87FC"/>
<stop offset="0.515679" stop-color="#885BFF"/>
<stop offset="1" stop-color="#5A87FC"/>
</linearGradient>
<linearGradient id="paint5_linear_1679_2087" x1="435.894" y1="131.909" x2="435.894" y2="236.021" gradientUnits="userSpaceOnUse">
<stop stop-color="#5A87FC"/>
<stop offset="0.515679" stop-color="#885BFF"/>
<stop offset="1" stop-color="#5A87FC"/>
</linearGradient>
</defs>
</svg>
