<svg width="617" height="342" viewBox="0 0 617 342" fill="none" xmlns="http://www.w3.org/2000/svg">
<g filter="url(#filter0_dddd_1679_2123)">
<path d="M80.8418 79.2685C80.8418 76.3809 82.4038 74.04 84.3306 74.04H533.512C535.438 74.04 537 76.3809 537 79.2685V250.501C537 253.388 535.438 255.729 533.512 255.729H84.3306C82.4038 255.729 80.8418 253.388 80.8418 250.501V79.2685Z" fill="white"/>
</g>
<path d="M163.134 217.67L165.424 223.367L167.713 217.67H168.911V224.652H167.988V221.933L168.074 218.998L165.775 224.652H165.068L162.774 219.013L162.865 221.933V224.652H161.941V217.67H163.134Z" fill="#1E212C"/>
<path d="M170.166 222.01C170.166 221.502 170.266 221.044 170.465 220.638C170.667 220.232 170.946 219.919 171.302 219.698C171.661 219.478 172.07 219.368 172.528 219.368C173.237 219.368 173.809 219.612 174.245 220.101C174.685 220.59 174.904 221.241 174.904 222.053V222.115C174.904 222.621 174.807 223.074 174.611 223.477C174.419 223.877 174.141 224.189 173.779 224.412C173.42 224.636 173.006 224.748 172.538 224.748C171.832 224.748 171.26 224.504 170.821 224.014C170.385 223.525 170.166 222.878 170.166 222.072V222.01ZM171.061 222.115C171.061 222.691 171.194 223.153 171.46 223.501C171.73 223.85 172.089 224.024 172.538 224.024C172.99 224.024 173.349 223.848 173.615 223.496C173.881 223.142 174.014 222.646 174.014 222.01C174.014 221.441 173.878 220.98 173.606 220.629C173.336 220.274 172.977 220.096 172.528 220.096C172.089 220.096 171.735 220.271 171.465 220.619C171.196 220.968 171.061 221.466 171.061 222.115Z" fill="#1E212C"/>
<path d="M176.862 219.463L176.891 220.116C177.288 219.617 177.808 219.368 178.449 219.368C179.549 219.368 180.104 219.986 180.114 221.223V224.652H179.224V221.219C179.22 220.845 179.134 220.568 178.964 220.389C178.797 220.21 178.536 220.12 178.18 220.12C177.891 220.12 177.638 220.197 177.42 220.351C177.202 220.504 177.032 220.705 176.91 220.955V224.652H176.02V219.463H176.862Z" fill="#1E212C"/>
<path d="M223.434 218.428H221.183V224.652H220.264V218.428H218.018V217.67H223.434V218.428Z" fill="#1E212C"/>
<path d="M227.084 224.139C226.738 224.545 226.23 224.748 225.56 224.748C225.005 224.748 224.582 224.588 224.29 224.269C224.001 223.946 223.855 223.469 223.852 222.84V219.463H224.742V222.816C224.742 223.602 225.063 223.995 225.704 223.995C226.384 223.995 226.836 223.743 227.06 223.238V219.463H227.95V224.652H227.104L227.084 224.139Z" fill="#1E212C"/>
<path d="M231.466 224.748C230.761 224.748 230.187 224.518 229.744 224.058C229.302 223.594 229.081 222.975 229.081 222.202V222.039C229.081 221.524 229.178 221.065 229.374 220.662C229.573 220.256 229.849 219.94 230.201 219.713C230.557 219.483 230.942 219.368 231.356 219.368C232.032 219.368 232.558 219.59 232.933 220.034C233.309 220.479 233.496 221.115 233.496 221.943V222.312H229.97C229.983 222.824 230.132 223.238 230.418 223.554C230.706 223.867 231.072 224.024 231.514 224.024C231.829 224.024 232.095 223.96 232.313 223.832C232.531 223.704 232.722 223.535 232.885 223.324L233.429 223.746C232.993 224.414 232.339 224.748 231.466 224.748ZM231.356 220.096C230.997 220.096 230.695 220.228 230.451 220.49C230.208 220.749 230.057 221.113 229.999 221.583H232.606V221.516C232.581 221.065 232.459 220.717 232.241 220.471C232.023 220.221 231.728 220.096 231.356 220.096Z" fill="#1E212C"/>
<path d="M273.092 222.451L273.227 223.372L273.424 222.542L274.809 217.67H275.589L276.94 222.542L277.133 223.386L277.282 222.446L278.369 217.67H279.297L277.599 224.652H276.758L275.315 219.564L275.204 219.032L275.093 219.564L273.597 224.652H272.756L271.062 217.67H271.986L273.092 222.451Z" fill="#1E212C"/>
<path d="M282.193 224.748C281.487 224.748 280.913 224.518 280.471 224.057C280.028 223.594 279.807 222.975 279.807 222.202V222.039C279.807 221.524 279.905 221.065 280.1 220.662C280.299 220.256 280.575 219.94 280.928 219.713C281.284 219.482 281.669 219.367 282.082 219.367C282.759 219.367 283.285 219.59 283.66 220.034C284.035 220.478 284.223 221.115 284.223 221.943V222.312H280.697C280.71 222.823 280.859 223.237 281.144 223.554C281.433 223.867 281.798 224.024 282.241 224.024C282.555 224.024 282.821 223.96 283.039 223.832C283.257 223.704 283.448 223.535 283.612 223.324L284.155 223.746C283.719 224.414 283.065 224.748 282.193 224.748ZM282.082 220.096C281.723 220.096 281.422 220.227 281.178 220.49C280.934 220.749 280.784 221.113 280.726 221.583H283.333V221.516C283.307 221.065 283.185 220.717 282.967 220.47C282.749 220.221 282.454 220.096 282.082 220.096Z" fill="#1E212C"/>
<path d="M285.04 222.015C285.04 221.218 285.23 220.579 285.608 220.096C285.986 219.61 286.482 219.367 287.094 219.367C287.703 219.367 288.186 219.575 288.542 219.991V217.286H289.432V224.652H288.614L288.571 224.096C288.215 224.531 287.72 224.748 287.085 224.748C286.482 224.748 285.99 224.502 285.608 224.009C285.23 223.517 285.04 222.875 285.04 222.082V222.015ZM285.93 222.115C285.93 222.703 286.052 223.164 286.296 223.496C286.539 223.829 286.876 223.995 287.306 223.995C287.87 223.995 288.282 223.743 288.542 223.237V220.854C288.276 220.365 287.867 220.12 287.315 220.12C286.879 220.12 286.539 220.288 286.296 220.624C286.052 220.96 285.93 221.457 285.93 222.115Z" fill="#1E212C"/>
<path d="M330.752 218.427H328.501V224.652H327.582V218.427H325.336V217.67H330.752V218.427Z" fill="#1E212C"/>
<path d="M332.541 220.092C332.936 219.609 333.449 219.367 334.081 219.367C335.18 219.367 335.735 219.986 335.745 221.223V224.652H334.855V221.218C334.852 220.844 334.765 220.568 334.595 220.389C334.428 220.21 334.167 220.12 333.811 220.12C333.523 220.12 333.269 220.197 333.051 220.35C332.833 220.504 332.663 220.705 332.541 220.955V224.652H331.651V217.286H332.541V220.092Z" fill="#1E212C"/>
<path d="M340.29 224.139C339.944 224.545 339.436 224.748 338.765 224.748C338.211 224.748 337.787 224.588 337.496 224.268C337.207 223.946 337.061 223.469 337.058 222.839V219.463H337.948V222.815C337.948 223.602 338.268 223.995 338.91 223.995C339.59 223.995 340.042 223.743 340.266 223.237V219.463H341.156V224.652H340.309L340.29 224.139Z" fill="#1E212C"/>
<path d="M382.556 221.569H379.617V224.652H378.693V217.67H383.032V218.428H379.617V220.816H382.556V221.569Z" fill="#1E212C"/>
<path d="M386.389 220.26C386.255 220.237 386.109 220.226 385.952 220.226C385.368 220.226 384.972 220.474 384.764 220.969V224.652H383.874V219.464H384.74L384.754 220.063C385.046 219.6 385.459 219.368 385.995 219.368C386.168 219.368 386.3 219.39 386.389 219.435V220.26Z" fill="#1E212C"/>
<path d="M388.179 224.652H387.289V219.464H388.179V224.652ZM387.217 218.087C387.217 217.943 387.26 217.822 387.347 217.723C387.436 217.624 387.568 217.574 387.741 217.574C387.914 217.574 388.046 217.624 388.135 217.723C388.225 217.822 388.27 217.943 388.27 218.087C388.27 218.231 388.225 218.351 388.135 218.447C388.046 218.543 387.914 218.591 387.741 218.591C387.568 218.591 387.436 218.543 387.347 218.447C387.26 218.351 387.217 218.231 387.217 218.087Z" fill="#1E212C"/>
<path d="M429.732 221.54C428.94 221.313 428.363 221.035 428 220.706C427.641 220.373 427.461 219.964 427.461 219.478C427.461 218.928 427.681 218.474 428.12 218.116C428.563 217.755 429.137 217.574 429.842 217.574C430.323 217.574 430.752 217.667 431.127 217.852C431.505 218.038 431.797 218.294 432.002 218.62C432.211 218.946 432.315 219.302 432.315 219.689H431.386C431.386 219.267 431.252 218.936 430.982 218.696C430.713 218.453 430.333 218.332 429.842 218.332C429.387 218.332 429.031 218.433 428.775 218.634C428.521 218.832 428.395 219.109 428.395 219.464C428.395 219.748 428.515 219.99 428.755 220.188C428.999 220.383 429.411 220.562 429.992 220.725C430.575 220.888 431.031 221.069 431.358 221.267C431.688 221.462 431.932 221.69 432.089 221.953C432.249 222.215 432.329 222.523 432.329 222.878C432.329 223.444 432.108 223.898 431.665 224.24C431.223 224.579 430.631 224.748 429.891 224.748C429.41 224.748 428.961 224.657 428.544 224.475C428.127 224.29 427.805 224.037 427.577 223.717C427.352 223.398 427.24 223.035 427.24 222.629H428.169C428.169 223.051 428.324 223.385 428.635 223.631C428.949 223.874 429.368 223.995 429.891 223.995C430.378 223.995 430.752 223.896 431.011 223.698C431.271 223.5 431.401 223.23 431.401 222.888C431.401 222.546 431.281 222.282 431.04 222.096C430.8 221.908 430.364 221.722 429.732 221.54Z" fill="#1E212C"/>
<path d="M436.591 224.652C436.54 224.55 436.498 224.368 436.466 224.106C436.052 224.534 435.558 224.748 434.984 224.748C434.471 224.748 434.05 224.604 433.719 224.317C433.392 224.026 433.229 223.658 433.229 223.214C433.229 222.673 433.434 222.255 433.844 221.957C434.258 221.657 434.838 221.507 435.586 221.507H436.451V221.099C436.451 220.789 436.358 220.543 436.172 220.36C435.986 220.175 435.712 220.082 435.35 220.082C435.032 220.082 434.766 220.162 434.551 220.322C434.337 220.482 434.229 220.675 434.229 220.902H433.335C433.335 220.643 433.426 220.394 433.609 220.154C433.795 219.911 434.045 219.719 434.359 219.579C434.677 219.438 435.024 219.368 435.403 219.368C436.003 219.368 436.472 219.518 436.812 219.819C437.152 220.116 437.328 220.527 437.341 221.051V223.439C437.341 223.916 437.402 224.294 437.524 224.576V224.652H436.591ZM435.114 223.976C435.393 223.976 435.658 223.904 435.908 223.76C436.158 223.617 436.339 223.43 436.451 223.199V222.135H435.754C434.664 222.135 434.119 222.453 434.119 223.089C434.119 223.367 434.212 223.585 434.398 223.741C434.584 223.898 434.822 223.976 435.114 223.976Z" fill="#1E212C"/>
<path d="M439.944 218.207V219.464H440.915V220.149H439.944V223.367C439.944 223.575 439.987 223.732 440.073 223.837C440.16 223.94 440.307 223.991 440.516 223.991C440.619 223.991 440.76 223.971 440.939 223.933V224.652C440.705 224.716 440.477 224.748 440.256 224.748C439.859 224.748 439.559 224.628 439.357 224.389C439.155 224.149 439.054 223.808 439.054 223.367V220.149H438.106V219.464H439.054V218.207H439.944Z" fill="#1E212C"/>
<path d="M489.279 221.54C488.487 221.313 487.909 221.035 487.547 220.706C487.188 220.373 487.008 219.964 487.008 219.478C487.008 218.928 487.228 218.474 487.667 218.116C488.11 217.755 488.684 217.574 489.389 217.574C489.87 217.574 490.298 217.667 490.674 217.852C491.052 218.038 491.344 218.294 491.549 218.62C491.757 218.946 491.862 219.302 491.862 219.689H490.933C490.933 219.267 490.799 218.936 490.529 218.696C490.26 218.453 489.88 218.332 489.389 218.332C488.934 218.332 488.578 218.433 488.321 218.634C488.068 218.832 487.942 219.109 487.942 219.464C487.942 219.748 488.062 219.99 488.302 220.188C488.546 220.383 488.958 220.562 489.538 220.725C490.122 220.888 490.577 221.069 490.904 221.267C491.235 221.462 491.478 221.69 491.636 221.953C491.796 222.215 491.876 222.523 491.876 222.878C491.876 223.444 491.655 223.898 491.212 224.24C490.77 224.579 490.178 224.748 489.437 224.748C488.956 224.748 488.507 224.657 488.091 224.475C487.674 224.29 487.351 224.037 487.124 223.717C486.899 223.398 486.787 223.035 486.787 222.629H487.715C487.715 223.051 487.871 223.385 488.182 223.631C488.496 223.874 488.915 223.995 489.437 223.995C489.925 223.995 490.298 223.896 490.558 223.698C490.818 223.5 490.948 223.23 490.948 222.888C490.948 222.546 490.828 222.282 490.587 222.096C490.347 221.908 489.91 221.722 489.279 221.54Z" fill="#1E212C"/>
<path d="M496.138 224.139C495.791 224.545 495.283 224.748 494.613 224.748C494.058 224.748 493.635 224.589 493.343 224.269C493.055 223.946 492.909 223.47 492.905 222.84V219.464H493.795V222.816C493.795 223.602 494.116 223.995 494.757 223.995C495.437 223.995 495.889 223.743 496.114 223.238V219.464H497.004V224.652H496.157L496.138 224.139Z" fill="#1E212C"/>
<path d="M499.202 219.464L499.231 220.116C499.628 219.617 500.148 219.368 500.789 219.368C501.889 219.368 502.444 219.986 502.453 221.224V224.652H501.563V221.219C501.56 220.845 501.474 220.568 501.304 220.389C501.137 220.21 500.876 220.121 500.52 220.121C500.231 220.121 499.978 220.197 499.76 220.351C499.542 220.504 499.372 220.706 499.25 220.955V224.652H498.36V219.464H499.202Z" fill="#1E212C"/>
<path d="M109.441 188.675C109.441 189.024 109.348 189.334 109.162 189.605C108.979 189.877 108.731 190.09 108.416 190.243C108.782 190.4 109.071 190.628 109.282 190.929C109.497 191.229 109.604 191.57 109.604 191.95C109.604 192.555 109.399 193.036 108.989 193.394C108.582 193.752 108.044 193.931 107.377 193.931C106.704 193.931 106.164 193.752 105.756 193.394C105.352 193.033 105.15 192.551 105.15 191.95C105.15 191.573 105.253 191.233 105.458 190.929C105.667 190.625 105.954 190.395 106.319 190.238C106.008 190.085 105.763 189.872 105.583 189.601C105.404 189.329 105.314 189.02 105.314 188.675C105.314 188.087 105.503 187.62 105.882 187.275C106.26 186.929 106.759 186.757 107.377 186.757C107.993 186.757 108.49 186.929 108.869 187.275C109.25 187.62 109.441 188.087 109.441 188.675ZM108.715 191.931C108.715 191.541 108.59 191.223 108.339 190.977C108.093 190.731 107.769 190.608 107.368 190.608C106.967 190.608 106.645 190.729 106.401 190.972C106.16 191.215 106.04 191.535 106.04 191.931C106.04 192.328 106.157 192.639 106.391 192.866C106.629 193.093 106.957 193.207 107.377 193.207C107.794 193.207 108.121 193.093 108.359 192.866C108.596 192.636 108.715 192.324 108.715 191.931ZM107.377 187.486C107.028 187.486 106.744 187.594 106.526 187.812C106.311 188.026 106.204 188.319 106.204 188.689C106.204 189.044 106.31 189.332 106.521 189.553C106.736 189.77 107.021 189.879 107.377 189.879C107.733 189.879 108.017 189.77 108.229 189.553C108.444 189.332 108.551 189.044 108.551 188.689C108.551 188.335 108.44 188.045 108.219 187.821C107.998 187.598 107.717 187.486 107.377 187.486Z" fill="#1E212C"/>
<path d="M110.788 193.37C110.788 193.216 110.833 193.089 110.922 192.986C111.015 192.884 111.153 192.833 111.336 192.833C111.519 192.833 111.657 192.884 111.75 192.986C111.846 193.089 111.894 193.216 111.894 193.37C111.894 193.517 111.846 193.64 111.75 193.739C111.657 193.838 111.519 193.888 111.336 193.888C111.153 193.888 111.015 193.838 110.922 193.739C110.833 193.64 110.788 193.517 110.788 193.37ZM110.793 189.135C110.793 188.982 110.837 188.854 110.927 188.752C111.02 188.649 111.158 188.598 111.341 188.598C111.524 188.598 111.662 188.649 111.755 188.752C111.851 188.854 111.899 188.982 111.899 189.135C111.899 189.282 111.851 189.406 111.755 189.505C111.662 189.604 111.524 189.653 111.341 189.653C111.158 189.653 111.02 189.604 110.927 189.505C110.837 189.406 110.793 189.282 110.793 189.135Z" fill="#1E212C"/>
<path d="M117.502 190.857C117.502 191.896 117.325 192.668 116.969 193.173C116.613 193.678 116.056 193.931 115.299 193.931C114.552 193.931 113.999 193.685 113.64 193.192C113.281 192.697 113.095 191.958 113.082 190.977V189.792C113.082 188.766 113.26 188.004 113.616 187.505C113.972 187.006 114.53 186.757 115.29 186.757C116.043 186.757 116.598 186.998 116.954 187.481C117.31 187.961 117.493 188.702 117.502 189.706V190.857ZM116.613 189.644C116.613 188.892 116.507 188.346 116.295 188.004C116.084 187.658 115.748 187.486 115.29 187.486C114.835 187.486 114.503 187.657 114.294 187.999C114.086 188.341 113.978 188.867 113.972 189.577V190.996C113.972 191.751 114.081 192.308 114.299 192.67C114.52 193.028 114.854 193.207 115.299 193.207C115.739 193.207 116.064 193.037 116.276 192.699C116.491 192.36 116.603 191.826 116.613 191.097V189.644Z" fill="#1E212C"/>
<path d="M123.034 190.857C123.034 191.896 122.856 192.668 122.5 193.173C122.144 193.678 121.588 193.931 120.831 193.931C120.084 193.931 119.531 193.685 119.172 193.192C118.812 192.697 118.626 191.958 118.614 190.977V189.792C118.614 188.766 118.792 188.004 119.148 187.505C119.503 187.006 120.061 186.757 120.821 186.757C121.575 186.757 122.13 186.998 122.486 187.481C122.842 187.961 123.024 188.702 123.034 189.706V190.857ZM122.144 189.644C122.144 188.892 122.038 188.346 121.827 188.004C121.615 187.658 121.28 187.486 120.821 187.486C120.366 187.486 120.034 187.657 119.826 187.999C119.617 188.341 119.51 188.867 119.503 189.577V190.996C119.503 191.751 119.612 192.308 119.831 192.67C120.052 193.028 120.385 193.207 120.831 193.207C121.27 193.207 121.596 193.037 121.807 192.699C122.022 192.36 122.135 191.826 122.144 191.097V189.644Z" fill="#1E212C"/>
<path d="M108.118 166.467H107.224V160.554L105.43 161.211V160.405L107.979 159.451H108.118V166.467Z" fill="#1E212C"/>
<path d="M115.314 166.467H110.725V165.829L113.15 163.144C113.509 162.738 113.756 162.408 113.89 162.156C114.028 161.9 114.097 161.636 114.097 161.364C114.097 161 113.987 160.701 113.765 160.468C113.544 160.234 113.249 160.118 112.88 160.118C112.438 160.118 112.093 160.244 111.846 160.496C111.603 160.746 111.481 161.094 111.481 161.542H110.591C110.591 160.899 110.798 160.38 111.211 159.983C111.628 159.587 112.185 159.389 112.88 159.389C113.531 159.389 114.046 159.56 114.424 159.902C114.803 160.241 114.992 160.693 114.992 161.259C114.992 161.946 114.553 162.765 113.674 163.714L111.798 165.743H115.314V166.467Z" fill="#1E212C"/>
<path d="M116.32 166.002C116.32 165.848 116.364 165.72 116.454 165.618C116.547 165.516 116.685 165.465 116.868 165.465C117.051 165.465 117.189 165.516 117.282 165.618C117.378 165.72 117.426 165.848 117.426 166.002C117.426 166.149 117.378 166.272 117.282 166.371C117.189 166.47 117.051 166.52 116.868 166.52C116.685 166.52 116.547 166.47 116.454 166.371C116.364 166.272 116.32 166.149 116.32 166.002ZM116.324 161.767C116.324 161.614 116.369 161.486 116.459 161.384C116.552 161.281 116.69 161.23 116.873 161.23C117.055 161.23 117.193 161.281 117.286 161.384C117.383 161.486 117.431 161.614 117.431 161.767C117.431 161.914 117.383 162.037 117.286 162.137C117.193 162.236 117.055 162.285 116.873 162.285C116.69 162.285 116.552 162.236 116.459 162.137C116.369 162.037 116.324 161.914 116.324 161.767Z" fill="#1E212C"/>
<path d="M123.034 163.489C123.034 164.528 122.856 165.3 122.5 165.805C122.144 166.31 121.588 166.563 120.831 166.563C120.084 166.563 119.531 166.317 119.172 165.824C118.813 165.329 118.627 164.59 118.614 163.609V162.424C118.614 161.398 118.792 160.636 119.148 160.137C119.504 159.638 120.062 159.389 120.822 159.389C121.575 159.389 122.13 159.63 122.486 160.113C122.842 160.592 123.025 161.334 123.034 162.338V163.489ZM122.144 162.276C122.144 161.524 122.039 160.978 121.827 160.636C121.615 160.29 121.28 160.118 120.822 160.118C120.366 160.118 120.034 160.289 119.826 160.631C119.618 160.973 119.51 161.499 119.504 162.208V163.628C119.504 164.382 119.613 164.94 119.831 165.302C120.052 165.66 120.386 165.839 120.831 165.839C121.271 165.839 121.596 165.669 121.808 165.33C122.023 164.991 122.135 164.458 122.144 163.729V162.276Z" fill="#1E212C"/>
<path d="M128.566 163.489C128.566 164.528 128.388 165.3 128.032 165.805C127.676 166.31 127.12 166.563 126.363 166.563C125.616 166.563 125.062 166.317 124.703 165.824C124.344 165.329 124.158 164.59 124.145 163.609V162.424C124.145 161.398 124.323 160.636 124.679 160.137C125.035 159.638 125.593 159.389 126.353 159.389C127.107 159.389 127.661 159.63 128.017 160.113C128.373 160.592 128.556 161.334 128.566 162.338V163.489ZM127.676 162.276C127.676 161.524 127.57 160.978 127.358 160.636C127.147 160.29 126.812 160.118 126.353 160.118C125.898 160.118 125.566 160.289 125.357 160.631C125.149 160.973 125.042 161.499 125.035 162.208V163.628C125.035 164.382 125.144 164.94 125.362 165.302C125.584 165.66 125.917 165.839 126.363 165.839C126.802 165.839 127.128 165.669 127.339 165.33C127.554 164.991 127.666 164.458 127.676 163.729V162.276Z" fill="#1E212C"/>
<path d="M108.118 139.921H107.224V134.008L105.43 134.665V133.859L107.979 132.905H108.118V139.921Z" fill="#1E212C"/>
<path d="M114.218 132.934V133.687H114.054C113.361 133.7 112.81 133.904 112.399 134.301C111.989 134.697 111.752 135.255 111.687 135.974C112.056 135.552 112.56 135.341 113.198 135.341C113.807 135.341 114.293 135.555 114.655 135.984C115.021 136.412 115.204 136.965 115.204 137.643C115.204 138.362 115.006 138.938 114.612 139.37C114.221 139.801 113.695 140.017 113.034 140.017C112.364 140.017 111.821 139.761 111.404 139.25C110.987 138.735 110.778 138.073 110.778 137.264V136.924C110.778 135.639 111.053 134.657 111.601 133.979C112.152 133.298 112.972 132.95 114.059 132.934H114.218ZM113.049 136.08C112.744 136.08 112.463 136.171 112.207 136.353C111.95 136.535 111.772 136.764 111.673 137.039V137.365C111.673 137.94 111.803 138.404 112.063 138.756C112.322 139.107 112.646 139.283 113.034 139.283C113.435 139.283 113.749 139.136 113.977 138.842C114.208 138.548 114.323 138.163 114.323 137.686C114.323 137.207 114.206 136.82 113.972 136.526C113.741 136.228 113.434 136.08 113.049 136.08Z" fill="#1E212C"/>
<path d="M116.32 139.456C116.32 139.302 116.364 139.174 116.454 139.072C116.547 138.97 116.685 138.919 116.868 138.919C117.051 138.919 117.189 138.97 117.282 139.072C117.378 139.174 117.426 139.302 117.426 139.456C117.426 139.603 117.378 139.726 117.282 139.825C117.189 139.924 117.051 139.974 116.868 139.974C116.685 139.974 116.547 139.924 116.454 139.825C116.364 139.726 116.32 139.603 116.32 139.456ZM116.324 135.221C116.324 135.068 116.369 134.94 116.459 134.838C116.552 134.735 116.69 134.684 116.873 134.684C117.055 134.684 117.193 134.735 117.286 134.838C117.383 134.94 117.431 135.068 117.431 135.221C117.431 135.368 117.383 135.492 117.286 135.591C117.193 135.69 117.055 135.739 116.873 135.739C116.69 135.739 116.552 135.69 116.459 135.591C116.369 135.492 116.324 135.368 116.324 135.221Z" fill="#1E212C"/>
<path d="M123.034 136.943C123.034 137.982 122.856 138.754 122.5 139.259C122.144 139.764 121.588 140.017 120.831 140.017C120.084 140.017 119.531 139.771 119.172 139.278C118.813 138.783 118.627 138.044 118.614 137.063V135.878C118.614 134.852 118.792 134.09 119.148 133.591C119.504 133.092 120.062 132.843 120.822 132.843C121.575 132.843 122.13 133.084 122.486 133.567C122.842 134.046 123.025 134.788 123.034 135.792V136.943ZM122.144 135.73C122.144 134.978 122.039 134.432 121.827 134.09C121.615 133.744 121.28 133.572 120.822 133.572C120.366 133.572 120.034 133.743 119.826 134.085C119.618 134.427 119.51 134.953 119.504 135.663V137.082C119.504 137.837 119.613 138.394 119.831 138.756C120.052 139.114 120.386 139.293 120.831 139.293C121.271 139.293 121.596 139.123 121.808 138.784C122.023 138.446 122.135 137.912 122.144 137.183V135.73Z" fill="#1E212C"/>
<path d="M128.566 136.943C128.566 137.982 128.388 138.754 128.032 139.259C127.676 139.764 127.12 140.017 126.363 140.017C125.616 140.017 125.062 139.771 124.703 139.278C124.344 138.783 124.158 138.044 124.145 137.063V135.878C124.145 134.852 124.323 134.09 124.679 133.591C125.035 133.092 125.593 132.843 126.353 132.843C127.107 132.843 127.661 133.084 128.017 133.567C128.373 134.046 128.556 134.788 128.566 135.792V136.943ZM127.676 135.73C127.676 134.978 127.57 134.432 127.358 134.09C127.147 133.744 126.812 133.572 126.353 133.572C125.898 133.572 125.566 133.743 125.357 134.085C125.149 134.427 125.042 134.953 125.035 135.663V137.082C125.035 137.837 125.144 138.394 125.362 138.756C125.584 139.114 125.917 139.293 126.363 139.293C126.802 139.293 127.128 139.123 127.339 138.784C127.554 138.446 127.666 137.912 127.676 137.183V135.73Z" fill="#1E212C"/>
<path d="M109.782 114.615H105.193V113.978L107.618 111.292C107.977 110.886 108.224 110.557 108.358 110.304C108.496 110.048 108.565 109.785 108.565 109.513C108.565 109.148 108.454 108.849 108.233 108.616C108.012 108.383 107.717 108.266 107.348 108.266C106.906 108.266 106.561 108.392 106.314 108.645C106.07 108.894 105.948 109.243 105.948 109.69H105.059C105.059 109.048 105.265 108.528 105.679 108.132C106.096 107.735 106.652 107.537 107.348 107.537C107.999 107.537 108.514 107.708 108.892 108.05C109.271 108.389 109.46 108.841 109.46 109.407C109.46 110.095 109.02 110.913 108.142 111.863L106.266 113.891H109.782V114.615Z" fill="#1E212C"/>
<path d="M115.116 111.637C115.116 112.676 114.938 113.448 114.582 113.954C114.226 114.459 113.67 114.711 112.913 114.711C112.166 114.711 111.613 114.465 111.254 113.973C110.895 113.477 110.709 112.739 110.696 111.757V110.573C110.696 109.546 110.874 108.784 111.23 108.285C111.586 107.786 112.144 107.537 112.904 107.537C113.657 107.537 114.212 107.778 114.568 108.261C114.924 108.741 115.107 109.482 115.116 110.486V111.637ZM114.226 110.424C114.226 109.673 114.121 109.126 113.909 108.784C113.697 108.439 113.362 108.266 112.904 108.266C112.448 108.266 112.116 108.437 111.908 108.779C111.7 109.121 111.592 109.647 111.586 110.357V111.776C111.586 112.531 111.695 113.089 111.913 113.45C112.134 113.808 112.468 113.987 112.913 113.987C113.353 113.987 113.678 113.818 113.89 113.479C114.105 113.14 114.217 112.606 114.226 111.877V110.424Z" fill="#1E212C"/>
<path d="M116.319 114.15C116.319 113.997 116.364 113.869 116.453 113.767C116.546 113.664 116.684 113.613 116.867 113.613C117.05 113.613 117.188 113.664 117.281 113.767C117.377 113.869 117.425 113.997 117.425 114.15C117.425 114.297 117.377 114.42 117.281 114.519C117.188 114.619 117.05 114.668 116.867 114.668C116.684 114.668 116.546 114.619 116.453 114.519C116.364 114.42 116.319 114.297 116.319 114.15ZM116.324 109.916C116.324 109.762 116.369 109.634 116.458 109.532C116.551 109.43 116.689 109.379 116.872 109.379C117.055 109.379 117.193 109.43 117.286 109.532C117.382 109.634 117.43 109.762 117.43 109.916C117.43 110.063 117.382 110.186 117.286 110.285C117.193 110.384 117.055 110.434 116.872 110.434C116.689 110.434 116.551 110.384 116.458 110.285C116.369 110.186 116.324 110.063 116.324 109.916Z" fill="#1E212C"/>
<path d="M123.034 111.637C123.034 112.676 122.856 113.448 122.5 113.954C122.144 114.459 121.587 114.711 120.831 114.711C120.083 114.711 119.53 114.465 119.171 113.973C118.812 113.477 118.626 112.739 118.613 111.757V110.573C118.613 109.546 118.791 108.784 119.147 108.285C119.503 107.786 120.061 107.537 120.821 107.537C121.575 107.537 122.129 107.778 122.485 108.261C122.841 108.741 123.024 109.482 123.034 110.486V111.637ZM122.144 110.424C122.144 109.673 122.038 109.126 121.826 108.784C121.615 108.439 121.28 108.266 120.821 108.266C120.366 108.266 120.034 108.437 119.825 108.779C119.617 109.121 119.509 109.647 119.503 110.357V111.776C119.503 112.531 119.612 113.089 119.83 113.45C120.051 113.808 120.385 113.987 120.831 113.987C121.27 113.987 121.595 113.818 121.807 113.479C122.022 113.14 122.134 112.606 122.144 111.877V110.424Z" fill="#1E212C"/>
<path d="M128.565 111.637C128.565 112.676 128.387 113.448 128.031 113.954C127.675 114.459 127.119 114.711 126.362 114.711C125.615 114.711 125.062 114.465 124.703 113.973C124.343 113.477 124.158 112.739 124.145 111.757V110.573C124.145 109.546 124.323 108.784 124.679 108.285C125.035 107.786 125.592 107.537 126.352 107.537C127.106 107.537 127.661 107.778 128.017 108.261C128.373 108.741 128.555 109.482 128.565 110.486V111.637ZM127.675 110.424C127.675 109.673 127.569 109.126 127.358 108.784C127.146 108.439 126.811 108.266 126.352 108.266C125.897 108.266 125.565 108.437 125.357 108.779C125.148 109.121 125.041 109.647 125.035 110.357V111.776C125.035 112.531 125.144 113.089 125.362 113.45C125.583 113.808 125.916 113.987 126.362 113.987C126.801 113.987 127.127 113.818 127.339 113.479C127.553 113.14 127.666 112.606 127.675 111.877V110.424Z" fill="#1E212C"/>
<path d="M508.363 212.057H141.738V106.091" stroke="#787A80" stroke-width="0.3364" stroke-miterlimit="10"/>
<path d="M140.832 191.631H143.096" stroke="#787A80" stroke-width="0.3364" stroke-miterlimit="10"/>
<path d="M147.736 191.631H503.834" stroke="#787A80" stroke-width="0.3364" stroke-miterlimit="10" stroke-dasharray="4.06 4.06"/>
<path d="M506.098 191.631H508.361" stroke="#787A80" stroke-width="0.3364" stroke-miterlimit="10"/>
<path d="M140.832 166.353H143.096" stroke="#787A80" stroke-width="0.3364" stroke-miterlimit="10"/>
<path d="M147.736 166.353H503.834" stroke="#787A80" stroke-width="0.3364" stroke-miterlimit="10" stroke-dasharray="4.06 4.06"/>
<path d="M506.098 166.353H508.361" stroke="#787A80" stroke-width="0.3364" stroke-miterlimit="10"/>
<path d="M140.832 137.463H143.096" stroke="#787A80" stroke-width="0.3364" stroke-miterlimit="10"/>
<path d="M147.736 137.463H503.834" stroke="#787A80" stroke-width="0.3364" stroke-miterlimit="10" stroke-dasharray="4.06 4.06"/>
<path d="M506.098 137.463H508.361" stroke="#787A80" stroke-width="0.3364" stroke-miterlimit="10"/>
<path d="M140.832 112.185H143.096" stroke="#787A80" stroke-width="0.3364" stroke-miterlimit="10"/>
<path d="M147.736 112.185H503.834" stroke="#787A80" stroke-width="0.3364" stroke-miterlimit="10" stroke-dasharray="4.06 4.06"/>
<path d="M506.098 112.185H508.361" stroke="#787A80" stroke-width="0.3364" stroke-miterlimit="10"/>
<path d="M140.945 202.579H158.603C167.092 202.579 175.016 198.291 179.543 191.068L191.202 172.674C195.73 165.564 203.653 161.163 212.142 161.163C219.5 161.163 226.404 157.89 231.045 152.361L240.214 141.527C244.968 135.997 251.872 132.725 259.116 132.725H265.682C273.492 132.725 280.849 136.336 285.49 142.655L323.975 193.89C335.973 211.72 357.253 207.996 357.253 207.996C365.176 207.996 378.306 200.096 382.947 193.777L386.003 189.601C390.644 183.282 398.115 179.558 405.925 179.558H415.772C424.149 179.558 431.959 175.269 436.486 168.273L455.389 139.157C459.917 132.16 467.727 127.872 476.103 127.872H496.251" stroke="#5A87FC" stroke-width="2.0183" stroke-miterlimit="10"/>
<path d="M204.325 172.606C208.544 170.872 210.555 166.057 208.817 161.85C207.078 157.644 202.248 155.639 198.029 157.372C193.809 159.105 191.798 163.921 193.537 168.128C195.276 172.334 200.106 174.339 204.325 172.606Z" fill="#E2EBF5"/>
<path d="M206.371 165C206.371 167.821 203.994 170.191 201.164 170.191C198.334 170.191 195.957 167.821 195.957 165C195.957 162.178 198.334 159.809 201.164 159.809C203.994 159.809 206.371 162.066 206.371 165Z" fill="#5A87FC"/>
<path d="M261.154 143.67C265.717 143.67 269.417 139.982 269.417 135.432C269.417 130.883 265.717 127.194 261.154 127.194C256.59 127.194 252.891 130.883 252.891 135.432C252.891 139.982 256.59 143.67 261.154 143.67Z" fill="#E2EBF5"/>
<path d="M261.154 140.623C264.03 140.623 266.361 138.299 266.361 135.432C266.361 132.565 264.03 130.241 261.154 130.241C258.278 130.241 255.947 132.565 255.947 135.432C255.947 138.299 258.278 140.623 261.154 140.623Z" fill="#5A87FC"/>
<path d="M476.833 130.847C477.882 126.419 475.132 121.982 470.691 120.937C466.249 119.891 461.799 122.633 460.75 127.061C459.702 131.489 462.452 135.926 466.893 136.971C471.334 138.017 475.785 135.275 476.833 130.847Z" fill="#E2EBF5"/>
<path d="M468.746 134.079C471.621 134.079 473.953 131.754 473.953 128.887C473.953 126.02 471.621 123.696 468.746 123.696C465.87 123.696 463.539 126.02 463.539 128.887C463.539 131.754 465.87 134.079 468.746 134.079Z" fill="#5A87FC"/>
<path d="M408.188 179.783C408.188 184.297 404.453 188.021 399.925 188.021C395.397 188.021 391.662 184.297 391.662 179.783C391.662 175.269 395.397 171.545 399.925 171.545C404.453 171.545 408.188 175.156 408.188 179.783Z" fill="#E2EBF5"/>
<path d="M399.926 184.974C402.801 184.974 405.132 182.65 405.132 179.783C405.132 176.916 402.801 174.592 399.926 174.592C397.05 174.592 394.719 176.916 394.719 179.783C394.719 182.65 397.05 184.974 399.926 184.974Z" fill="#5A87FC"/>
<path d="M254.201 109.15C254.545 109.15 254.866 109.201 255.164 109.303C255.462 109.404 255.718 109.553 255.933 109.748C256.152 109.94 256.324 110.175 256.448 110.454C256.573 110.732 256.635 111.048 256.635 111.402C256.635 111.703 256.59 111.981 256.499 112.237C256.409 112.493 256.286 112.739 256.131 112.976C255.977 113.209 255.797 113.437 255.594 113.659C255.394 113.877 255.181 114.101 254.954 114.33L252.821 116.508C252.971 116.467 253.124 116.435 253.279 116.412C253.434 116.386 253.583 116.373 253.726 116.373H256.443C256.552 116.373 256.639 116.405 256.703 116.469C256.767 116.533 256.799 116.615 256.799 116.717V117.326H251.389V116.982C251.389 116.911 251.402 116.837 251.428 116.762C251.458 116.687 251.506 116.617 251.57 116.553L254.168 113.952C254.383 113.734 254.579 113.525 254.756 113.326C254.933 113.123 255.084 112.92 255.209 112.716C255.337 112.513 255.435 112.308 255.503 112.101C255.571 111.891 255.605 111.667 255.605 111.43C255.605 111.193 255.567 110.986 255.492 110.809C255.416 110.629 255.313 110.48 255.181 110.364C255.049 110.247 254.894 110.16 254.716 110.104C254.539 110.044 254.349 110.014 254.145 110.014C253.941 110.014 253.752 110.044 253.579 110.104C253.405 110.164 253.251 110.249 253.115 110.358C252.983 110.463 252.87 110.589 252.775 110.736C252.685 110.883 252.621 111.044 252.583 111.221C252.553 111.33 252.507 111.409 252.447 111.458C252.387 111.507 252.307 111.532 252.209 111.532C252.19 111.532 252.17 111.532 252.147 111.532C252.128 111.528 252.106 111.524 252.079 111.52L251.553 111.43C251.606 111.061 251.707 110.736 251.858 110.454C252.009 110.168 252.2 109.929 252.43 109.737C252.664 109.545 252.93 109.401 253.228 109.303C253.53 109.201 253.854 109.15 254.201 109.15Z" fill="#787A80"/>
<path d="M262.901 109.681C262.901 109.824 262.856 109.942 262.765 110.036C262.675 110.127 262.522 110.172 262.307 110.172H259.76L259.386 112.293C259.809 112.203 260.2 112.158 260.558 112.158C260.981 112.158 261.352 112.22 261.673 112.344C261.997 112.468 262.269 112.639 262.488 112.858C262.707 113.076 262.871 113.333 262.98 113.631C263.093 113.928 263.15 114.251 263.15 114.601C263.15 115.03 263.075 115.417 262.924 115.763C262.773 116.109 262.565 116.407 262.301 116.655C262.041 116.899 261.733 117.088 261.379 117.219C261.024 117.351 260.641 117.417 260.23 117.417C259.992 117.417 259.764 117.392 259.545 117.343C259.326 117.298 259.122 117.236 258.934 117.157C258.745 117.078 258.57 116.988 258.407 116.886C258.245 116.785 258.102 116.678 257.977 116.565L258.283 116.136C258.351 116.038 258.441 115.989 258.555 115.989C258.626 115.989 258.709 116.019 258.804 116.079C258.902 116.136 259.019 116.2 259.154 116.271C259.29 116.343 259.449 116.409 259.63 116.469C259.815 116.525 260.034 116.553 260.286 116.553C260.569 116.553 260.824 116.508 261.05 116.418C261.277 116.328 261.469 116.2 261.628 116.034C261.79 115.865 261.914 115.664 262.001 115.431C262.088 115.197 262.131 114.936 262.131 114.646C262.131 114.394 262.094 114.167 262.018 113.963C261.946 113.76 261.835 113.587 261.684 113.444C261.537 113.301 261.352 113.19 261.13 113.111C260.907 113.032 260.647 112.993 260.349 112.993C260.145 112.993 259.934 113.01 259.715 113.044C259.496 113.078 259.27 113.132 259.036 113.207L258.402 113.021L259.058 109.241H262.901V109.681Z" fill="#787A80"/>
<path d="M265.556 116.559H267.299V111.046C267.299 110.881 267.305 110.713 267.316 110.544L265.868 111.78C265.83 111.81 265.792 111.832 265.754 111.848C265.717 111.859 265.681 111.864 265.647 111.864C265.59 111.864 265.539 111.853 265.494 111.831C265.449 111.804 265.415 111.774 265.392 111.74L265.075 111.306L267.486 109.224H268.307V116.559H269.903V117.326H265.556V116.559Z" fill="#787A80"/>
<path d="M275.608 114.409H276.837V114.985C276.837 115.045 276.818 115.096 276.78 115.137C276.746 115.178 276.691 115.199 276.616 115.199H275.608V117.326H274.72V115.199H271.126C271.051 115.199 270.985 115.178 270.928 115.137C270.875 115.092 270.841 115.037 270.826 114.973L270.724 114.46L274.669 109.241H275.608V114.409ZM274.72 111.074C274.72 110.977 274.722 110.871 274.726 110.759C274.733 110.646 274.746 110.529 274.765 110.409L271.817 114.409H274.72V111.074Z" fill="#787A80"/>
<path d="M398.001 153.277V153.728C398.001 153.856 397.986 153.961 397.955 154.044C397.929 154.127 397.901 154.197 397.87 154.253L394.514 161.007C394.465 161.105 394.397 161.19 394.311 161.261C394.224 161.329 394.107 161.363 393.96 161.363H393.241L396.648 154.693C396.697 154.599 396.746 154.513 396.795 154.434C396.848 154.355 396.906 154.279 396.971 154.208H392.737C392.673 154.208 392.615 154.183 392.562 154.134C392.513 154.082 392.488 154.023 392.488 153.96V153.277H398.001Z" fill="#787A80"/>
<path d="M401.709 161.453C401.305 161.453 400.935 161.4 400.599 161.295C400.263 161.186 399.975 161.032 399.733 160.832C399.492 160.633 399.305 160.392 399.173 160.11C399.041 159.824 398.975 159.504 398.975 159.151C398.975 158.632 399.111 158.205 399.382 157.87C399.654 157.531 400.043 157.291 400.548 157.148C400.122 156.99 399.799 156.754 399.581 156.442C399.365 156.126 399.258 155.75 399.258 155.314C399.258 155.017 399.316 154.738 399.433 154.479C399.55 154.219 399.716 153.993 399.931 153.802C400.146 153.61 400.403 153.459 400.701 153.35C401.003 153.241 401.339 153.187 401.709 153.187C402.075 153.187 402.408 153.241 402.71 153.35C403.012 153.459 403.271 153.61 403.486 153.802C403.701 153.993 403.867 154.219 403.984 154.479C404.101 154.738 404.159 155.017 404.159 155.314C404.159 155.75 404.05 156.126 403.831 156.442C403.612 156.754 403.291 156.99 402.869 157.148C403.374 157.291 403.763 157.531 404.035 157.87C404.306 158.205 404.442 158.632 404.442 159.151C404.442 159.504 404.374 159.824 404.238 160.11C404.106 160.392 403.92 160.633 403.678 160.832C403.44 161.032 403.154 161.186 402.818 161.295C402.482 161.4 402.112 161.453 401.709 161.453ZM401.709 160.652C401.973 160.652 402.208 160.616 402.416 160.544C402.627 160.469 402.805 160.366 402.948 160.234C403.095 160.099 403.206 159.939 403.282 159.754C403.361 159.566 403.401 159.359 403.401 159.134C403.401 158.855 403.354 158.618 403.259 158.423C403.169 158.223 403.044 158.062 402.886 157.938C402.731 157.813 402.552 157.723 402.348 157.667C402.144 157.607 401.931 157.576 401.709 157.576C401.486 157.576 401.273 157.607 401.069 157.667C400.865 157.723 400.684 157.813 400.526 157.938C400.371 158.062 400.246 158.223 400.152 158.423C400.062 158.618 400.016 158.855 400.016 159.134C400.016 159.359 400.054 159.566 400.13 159.754C400.209 159.939 400.32 160.099 400.463 160.234C400.611 160.366 400.788 160.469 400.995 160.544C401.207 160.616 401.444 160.652 401.709 160.652ZM401.709 156.77C401.973 156.77 402.197 156.73 402.382 156.651C402.571 156.568 402.723 156.461 402.84 156.329C402.957 156.194 403.042 156.04 403.095 155.867C403.148 155.694 403.174 155.515 403.174 155.331C403.174 155.143 403.142 154.966 403.078 154.8C403.018 154.635 402.925 154.49 402.801 154.366C402.68 154.242 402.527 154.144 402.342 154.072C402.161 154.001 401.95 153.965 401.709 153.965C401.467 153.965 401.254 154.001 401.069 154.072C400.888 154.144 400.735 154.242 400.611 154.366C400.49 154.49 400.397 154.635 400.333 154.8C400.273 154.966 400.243 155.143 400.243 155.331C400.243 155.515 400.269 155.694 400.322 155.867C400.375 156.04 400.46 156.194 400.577 156.329C400.694 156.461 400.844 156.568 401.029 156.651C401.218 156.73 401.444 156.77 401.709 156.77Z" fill="#787A80"/>
<path d="M408.105 158.045C407.799 158.045 407.509 157.994 407.233 157.892C406.961 157.791 406.722 157.642 406.514 157.447C406.307 157.247 406.141 157.005 406.016 156.719C405.896 156.429 405.835 156.098 405.835 155.726C405.835 155.372 405.901 155.041 406.033 154.733C406.165 154.424 406.35 154.155 406.588 153.926C406.826 153.696 407.109 153.516 407.437 153.384C407.765 153.252 408.125 153.187 408.518 153.187C408.906 153.187 409.259 153.25 409.576 153.378C409.893 153.506 410.165 153.685 410.391 153.914C410.617 154.144 410.791 154.418 410.912 154.738C411.036 155.058 411.099 155.412 411.099 155.799C411.099 156.032 411.076 156.254 411.031 156.465C410.989 156.672 410.927 156.875 410.844 157.074C410.761 157.274 410.661 157.473 410.544 157.672C410.431 157.868 410.301 158.071 410.153 158.282L408.178 161.126C408.129 161.197 408.059 161.255 407.969 161.3C407.878 161.342 407.775 161.363 407.658 161.363H406.729L409.197 158.141C409.28 158.032 409.357 157.928 409.429 157.83C409.501 157.733 409.569 157.635 409.633 157.537C409.425 157.702 409.191 157.828 408.931 157.915C408.671 158.001 408.395 158.045 408.105 158.045ZM410.131 155.681C410.131 155.428 410.089 155.201 410.006 154.998C409.927 154.791 409.816 154.616 409.672 154.473C409.529 154.33 409.357 154.221 409.157 154.146C408.961 154.067 408.744 154.027 408.506 154.027C408.257 154.027 408.029 154.069 407.822 154.151C407.618 154.23 407.442 154.341 407.295 154.484C407.152 154.627 407.041 154.798 406.961 154.998C406.882 155.197 406.843 155.415 406.843 155.652C406.843 155.908 406.878 156.138 406.95 156.341C407.026 156.54 407.131 156.709 407.267 156.849C407.407 156.988 407.575 157.093 407.771 157.165C407.971 157.236 408.193 157.272 408.439 157.272C408.71 157.272 408.95 157.228 409.157 157.142C409.369 157.052 409.546 156.933 409.689 156.786C409.833 156.64 409.942 156.47 410.018 156.279C410.093 156.087 410.131 155.887 410.131 155.681Z" fill="#787A80"/>
<path d="M196.427 147.026C196.023 147.026 195.653 146.973 195.318 146.868C194.982 146.759 194.693 146.605 194.452 146.405C194.21 146.206 194.023 145.965 193.891 145.683C193.759 145.397 193.693 145.078 193.693 144.724C193.693 144.205 193.829 143.778 194.101 143.443C194.373 143.105 194.761 142.864 195.267 142.721C194.84 142.563 194.518 142.328 194.299 142.016C194.084 141.7 193.976 141.323 193.976 140.887C193.976 140.59 194.035 140.311 194.152 140.052C194.269 139.792 194.435 139.567 194.65 139.375C194.865 139.183 195.121 139.032 195.42 138.923C195.721 138.814 196.057 138.76 196.427 138.76C196.793 138.76 197.127 138.814 197.429 138.923C197.73 139.032 197.989 139.183 198.204 139.375C198.419 139.567 198.585 139.792 198.702 140.052C198.819 140.311 198.877 140.59 198.877 140.887C198.877 141.323 198.768 141.7 198.549 142.016C198.33 142.328 198.01 142.563 197.587 142.721C198.093 142.864 198.481 143.105 198.753 143.443C199.025 143.778 199.16 144.205 199.16 144.724C199.16 145.078 199.093 145.397 198.957 145.683C198.825 145.965 198.638 146.206 198.396 146.405C198.159 146.605 197.872 146.759 197.536 146.868C197.2 146.973 196.831 147.026 196.427 147.026ZM196.427 146.225C196.691 146.225 196.927 146.189 197.134 146.118C197.346 146.042 197.523 145.939 197.666 145.807C197.814 145.672 197.925 145.512 198 145.328C198.079 145.14 198.119 144.933 198.119 144.707C198.119 144.429 198.072 144.192 197.978 143.996C197.887 143.797 197.763 143.635 197.604 143.511C197.449 143.387 197.27 143.296 197.066 143.24C196.863 143.18 196.65 143.15 196.427 143.15C196.204 143.15 195.991 143.18 195.787 143.24C195.584 143.296 195.403 143.387 195.244 143.511C195.089 143.635 194.965 143.797 194.871 143.996C194.78 144.192 194.735 144.429 194.735 144.707C194.735 144.933 194.772 145.14 194.848 145.328C194.927 145.512 195.038 145.672 195.182 145.807C195.329 145.939 195.506 146.042 195.714 146.118C195.925 146.189 196.163 146.225 196.427 146.225ZM196.427 142.343C196.691 142.343 196.916 142.303 197.1 142.224C197.289 142.142 197.442 142.034 197.559 141.903C197.676 141.767 197.761 141.613 197.814 141.44C197.866 141.267 197.893 141.088 197.893 140.904C197.893 140.716 197.861 140.539 197.797 140.374C197.736 140.208 197.644 140.063 197.519 139.939C197.398 139.815 197.246 139.717 197.061 139.646C196.88 139.574 196.668 139.538 196.427 139.538C196.185 139.538 195.972 139.574 195.787 139.646C195.606 139.717 195.453 139.815 195.329 139.939C195.208 140.063 195.116 140.208 195.052 140.374C194.991 140.539 194.961 140.716 194.961 140.904C194.961 141.088 194.988 141.267 195.04 141.44C195.093 141.613 195.178 141.767 195.295 141.903C195.412 142.034 195.563 142.142 195.748 142.224C195.936 142.303 196.163 142.343 196.427 142.343Z" fill="#787A80"/>
<path d="M203.117 138.76C203.461 138.76 203.781 138.811 204.079 138.912C204.378 139.014 204.634 139.162 204.849 139.358C205.068 139.55 205.24 139.785 205.364 140.063C205.489 140.342 205.551 140.658 205.551 141.011C205.551 141.312 205.506 141.59 205.415 141.846C205.325 142.102 205.202 142.348 205.047 142.585C204.893 142.819 204.713 143.046 204.51 143.268C204.31 143.486 204.096 143.71 203.87 143.94L201.736 146.118C201.887 146.076 202.04 146.044 202.195 146.022C202.35 145.995 202.499 145.982 202.642 145.982H205.359C205.468 145.982 205.555 146.014 205.619 146.078C205.683 146.142 205.715 146.225 205.715 146.326V146.936H200.305V146.592C200.305 146.52 200.318 146.447 200.344 146.372C200.374 146.296 200.422 146.227 200.486 146.163L203.083 143.562C203.298 143.343 203.495 143.135 203.672 142.935C203.849 142.732 204 142.529 204.125 142.326C204.253 142.123 204.351 141.918 204.419 141.711C204.487 141.5 204.521 141.276 204.521 141.039C204.521 140.802 204.483 140.595 204.408 140.419C204.332 140.238 204.229 140.09 204.096 139.973C203.964 139.856 203.81 139.77 203.632 139.713C203.455 139.653 203.265 139.623 203.061 139.623C202.857 139.623 202.668 139.653 202.495 139.713C202.321 139.774 202.167 139.858 202.031 139.967C201.899 140.073 201.785 140.199 201.691 140.345C201.601 140.492 201.536 140.654 201.499 140.831C201.469 140.94 201.423 141.019 201.363 141.068C201.303 141.116 201.223 141.141 201.125 141.141C201.106 141.141 201.086 141.141 201.063 141.141C201.044 141.137 201.021 141.133 200.995 141.13L200.469 141.039C200.522 140.671 200.623 140.345 200.774 140.063C200.925 139.777 201.116 139.538 201.346 139.347C201.58 139.155 201.846 139.01 202.144 138.912C202.446 138.811 202.77 138.76 203.117 138.76Z" fill="#787A80"/>
<path d="M211.817 139.29C211.817 139.433 211.772 139.552 211.681 139.646C211.591 139.736 211.438 139.781 211.223 139.781H208.676L208.302 141.903C208.725 141.812 209.115 141.767 209.474 141.767C209.896 141.767 210.268 141.829 210.589 141.953C210.913 142.078 211.185 142.249 211.404 142.467C211.623 142.685 211.787 142.943 211.896 143.24C212.009 143.537 212.066 143.861 212.066 144.21C212.066 144.639 211.991 145.027 211.84 145.373C211.689 145.719 211.481 146.016 211.217 146.264C210.957 146.509 210.649 146.697 210.295 146.829C209.94 146.96 209.557 147.026 209.146 147.026C208.908 147.026 208.68 147.002 208.461 146.953C208.242 146.908 208.038 146.846 207.85 146.767C207.661 146.688 207.486 146.597 207.323 146.496C207.161 146.394 207.018 146.287 206.893 146.174L207.199 145.745C207.267 145.647 207.357 145.599 207.47 145.599C207.542 145.599 207.625 145.629 207.719 145.689C207.818 145.745 207.935 145.809 208.07 145.881C208.206 145.952 208.365 146.018 208.546 146.078C208.731 146.135 208.949 146.163 209.202 146.163C209.485 146.163 209.74 146.118 209.966 146.027C210.193 145.937 210.385 145.809 210.544 145.644C210.706 145.474 210.83 145.273 210.917 145.04C211.004 144.807 211.047 144.545 211.047 144.256C211.047 144.004 211.01 143.776 210.934 143.573C210.862 143.37 210.751 143.197 210.6 143.054C210.453 142.911 210.268 142.8 210.046 142.721C209.823 142.642 209.563 142.602 209.265 142.602C209.061 142.602 208.849 142.619 208.631 142.653C208.412 142.687 208.185 142.742 207.951 142.817L207.318 142.631L207.974 138.85H211.817V139.29Z" fill="#787A80"/>
<path d="M461.479 106.872C461.822 106.872 462.143 106.923 462.441 107.024C462.739 107.126 462.996 107.275 463.211 107.47C463.429 107.662 463.601 107.897 463.726 108.175C463.85 108.454 463.912 108.77 463.912 109.123C463.912 109.424 463.867 109.703 463.777 109.959C463.686 110.214 463.563 110.461 463.409 110.698C463.254 110.931 463.075 111.159 462.871 111.38C462.671 111.599 462.458 111.822 462.232 112.052L460.098 114.23C460.249 114.189 460.402 114.157 460.556 114.134C460.711 114.108 460.86 114.095 461.003 114.095H463.72C463.829 114.095 463.916 114.126 463.98 114.19C464.044 114.254 464.077 114.337 464.077 114.439V115.048H458.666V114.704C458.666 114.632 458.679 114.559 458.706 114.484C458.736 114.409 458.783 114.339 458.847 114.275L461.445 111.674C461.66 111.456 461.856 111.247 462.033 111.048C462.211 110.844 462.362 110.641 462.486 110.438C462.614 110.235 462.713 110.03 462.78 109.823C462.848 109.612 462.882 109.389 462.882 109.152C462.882 108.915 462.845 108.708 462.769 108.531C462.694 108.35 462.59 108.202 462.458 108.085C462.326 107.969 462.171 107.882 461.994 107.826C461.816 107.765 461.626 107.735 461.422 107.735C461.218 107.735 461.03 107.765 460.856 107.826C460.683 107.886 460.528 107.97 460.392 108.08C460.26 108.185 460.147 108.311 460.053 108.458C459.962 108.604 459.898 108.766 459.86 108.943C459.83 109.052 459.785 109.131 459.724 109.18C459.664 109.229 459.585 109.253 459.487 109.253C459.468 109.253 459.447 109.253 459.424 109.253C459.406 109.249 459.383 109.246 459.356 109.242L458.83 109.152C458.883 108.783 458.985 108.458 459.136 108.175C459.287 107.89 459.477 107.651 459.707 107.459C459.941 107.267 460.207 107.122 460.505 107.024C460.807 106.923 461.132 106.872 461.479 106.872Z" fill="#787A80"/>
<path d="M467.75 111.73C467.445 111.73 467.154 111.68 466.879 111.578C466.607 111.476 466.368 111.328 466.16 111.132C465.953 110.933 465.787 110.69 465.662 110.404C465.541 110.115 465.481 109.784 465.481 109.411C465.481 109.058 465.547 108.727 465.679 108.418C465.811 108.11 465.996 107.841 466.234 107.611C466.471 107.382 466.754 107.201 467.083 107.07C467.411 106.938 467.771 106.872 468.164 106.872C468.552 106.872 468.905 106.936 469.222 107.064C469.539 107.192 469.81 107.37 470.037 107.6C470.263 107.829 470.437 108.104 470.558 108.424C470.682 108.744 470.744 109.097 470.744 109.485C470.744 109.718 470.722 109.94 470.676 110.15C470.635 110.357 470.573 110.56 470.49 110.76C470.407 110.959 470.307 111.159 470.19 111.358C470.076 111.553 469.946 111.757 469.799 111.967L467.824 114.811C467.775 114.883 467.705 114.941 467.615 114.986C467.524 115.027 467.42 115.048 467.303 115.048H466.375L468.843 111.826C468.926 111.717 469.003 111.614 469.075 111.516C469.146 111.418 469.214 111.32 469.278 111.222C469.071 111.388 468.837 111.514 468.577 111.601C468.316 111.687 468.041 111.73 467.75 111.73ZM469.777 109.366C469.777 109.114 469.735 108.886 469.652 108.683C469.573 108.476 469.461 108.302 469.318 108.159C469.175 108.016 469.003 107.907 468.803 107.831C468.607 107.752 468.39 107.713 468.152 107.713C467.903 107.713 467.675 107.754 467.467 107.837C467.264 107.916 467.088 108.027 466.941 108.17C466.798 108.313 466.686 108.484 466.607 108.683C466.528 108.883 466.488 109.101 466.488 109.338C466.488 109.594 466.524 109.823 466.596 110.026C466.671 110.226 466.777 110.395 466.913 110.534C467.052 110.673 467.22 110.779 467.417 110.85C467.616 110.922 467.839 110.957 468.084 110.957C468.356 110.957 468.596 110.914 468.803 110.827C469.014 110.737 469.192 110.619 469.335 110.472C469.478 110.325 469.588 110.156 469.663 109.964C469.739 109.772 469.777 109.573 469.777 109.366Z" fill="#787A80"/>
<path d="M476.744 107.402C476.744 107.545 476.699 107.664 476.608 107.758C476.518 107.848 476.365 107.893 476.15 107.893H473.603L473.23 110.015C473.652 109.925 474.043 109.88 474.401 109.88C474.824 109.88 475.195 109.942 475.516 110.066C475.841 110.19 476.112 110.361 476.331 110.579C476.55 110.797 476.714 111.055 476.823 111.352C476.937 111.649 476.993 111.973 476.993 112.323C476.993 112.752 476.918 113.139 476.767 113.485C476.616 113.831 476.408 114.128 476.144 114.377C475.884 114.621 475.577 114.809 475.222 114.941C474.867 115.073 474.484 115.138 474.073 115.138C473.835 115.138 473.607 115.114 473.388 115.065C473.169 115.02 472.966 114.958 472.777 114.879C472.588 114.8 472.413 114.71 472.251 114.608C472.088 114.506 471.945 114.399 471.82 114.286L472.126 113.858C472.194 113.76 472.285 113.711 472.398 113.711C472.469 113.711 472.552 113.741 472.647 113.801C472.745 113.858 472.862 113.921 472.998 113.993C473.133 114.064 473.292 114.13 473.473 114.19C473.658 114.247 473.877 114.275 474.13 114.275C474.413 114.275 474.667 114.23 474.894 114.14C475.12 114.049 475.312 113.921 475.471 113.756C475.633 113.587 475.758 113.385 475.844 113.152C475.931 112.919 475.975 112.658 475.975 112.368C475.975 112.116 475.937 111.888 475.861 111.685C475.79 111.482 475.678 111.309 475.527 111.166C475.38 111.023 475.195 110.912 474.973 110.833C474.75 110.754 474.49 110.715 474.192 110.715C473.988 110.715 473.777 110.732 473.558 110.765C473.339 110.799 473.113 110.854 472.879 110.929L472.245 110.743L472.901 106.962H476.744V107.402Z" fill="#787A80"/>
<path d="M482.886 112.131H484.114V112.706C484.114 112.767 484.095 112.817 484.057 112.859C484.023 112.9 483.969 112.921 483.893 112.921H482.886V115.048H481.997V112.921H478.403C478.328 112.921 478.262 112.9 478.205 112.859C478.152 112.814 478.119 112.759 478.103 112.695L478.002 112.182L481.946 106.962H482.886V112.131ZM481.997 108.796C481.997 108.698 481.999 108.593 482.003 108.48C482.01 108.367 482.024 108.251 482.042 108.13L479.094 112.131H481.997V108.796Z" fill="#787A80"/>
<defs>
<filter id="filter0_dddd_1679_2123" x="0.841797" y="0.0400391" width="616.158" height="341.689" filterUnits="userSpaceOnUse" color-interpolation-filters="sRGB">
<feFlood flood-opacity="0" result="BackgroundImageFix"/>
<feColorMatrix in="SourceAlpha" type="matrix" values="0 0 0 0 0 0 0 0 0 0 0 0 0 0 0 0 0 0 127 0" result="hardAlpha"/>
<feOffset dy="1"/>
<feGaussianBlur stdDeviation="10"/>
<feColorMatrix type="matrix" values="0 0 0 0 0.117647 0 0 0 0 0.129412 0 0 0 0 0.172549 0 0 0 0.02 0"/>
<feBlend mode="normal" in2="BackgroundImageFix" result="effect1_dropShadow_1679_2123"/>
<feColorMatrix in="SourceAlpha" type="matrix" values="0 0 0 0 0 0 0 0 0 0 0 0 0 0 0 0 0 0 127 0" result="hardAlpha"/>
<feOffset/>
<feGaussianBlur stdDeviation="22"/>
<feColorMatrix type="matrix" values="0 0 0 0 0.117647 0 0 0 0 0.129412 0 0 0 0 0.172549 0 0 0 0.02 0"/>
<feBlend mode="normal" in2="effect1_dropShadow_1679_2123" result="effect2_dropShadow_1679_2123"/>
<feColorMatrix in="SourceAlpha" type="matrix" values="0 0 0 0 0 0 0 0 0 0 0 0 0 0 0 0 0 0 127 0" result="hardAlpha"/>
<feOffset dy="8"/>
<feGaussianBlur stdDeviation="25"/>
<feColorMatrix type="matrix" values="0 0 0 0 0.117647 0 0 0 0 0.129412 0 0 0 0 0.172549 0 0 0 0.0422367 0"/>
<feBlend mode="normal" in2="effect2_dropShadow_1679_2123" result="effect3_dropShadow_1679_2123"/>
<feColorMatrix in="SourceAlpha" type="matrix" values="0 0 0 0 0 0 0 0 0 0 0 0 0 0 0 0 0 0 127 0" result="hardAlpha"/>
<feOffset dy="6"/>
<feGaussianBlur stdDeviation="40"/>
<feColorMatrix type="matrix" values="0 0 0 0 0.117647 0 0 0 0 0.129412 0 0 0 0 0.172549 0 0 0 0.04 0"/>
<feBlend mode="normal" in2="effect3_dropShadow_1679_2123" result="effect4_dropShadow_1679_2123"/>
<feBlend mode="normal" in="SourceGraphic" in2="effect4_dropShadow_1679_2123" result="shape"/>
</filter>
</defs>
</svg>
