<svg width="288" height="229" viewBox="0 0 288 229" fill="none" xmlns="http://www.w3.org/2000/svg">
<g filter="url(#filter0_dddd_1679_2195)">
<path d="M80.6445 78.514C80.6445 76.021 82.6716 74 85.1722 74H202.891C205.391 74 207.418 76.021 207.418 78.514V138.325C207.418 140.818 205.391 142.839 202.891 142.839H85.1722C82.6716 142.839 80.6445 140.818 80.6445 138.325V78.514Z" fill="white"/>
</g>
<path fill-rule="evenodd" clip-rule="evenodd" d="M189.308 108.137H98.7559V107.573H189.308V108.137Z" fill="#9B9EB0" fill-opacity="0.2"/>
<g opacity="0.9">
<path d="M103.157 90.8706V91.5138H100.882V98.8265H100.09V91.5138H97.8262V90.8706H103.157Z" fill="#787A80"/>
<path d="M107.14 98.251C107.698 98.251 108.166 98.1118 108.543 97.8334C108.921 97.5551 109.147 97.1789 109.223 96.7049H110.06C109.947 97.3595 109.634 97.8899 109.121 98.2961C108.608 98.7024 107.959 98.9055 107.174 98.9055C106.585 98.9055 106.061 98.7814 105.601 98.5331C105.148 98.2773 104.793 97.9124 104.537 97.4385C104.28 96.957 104.152 96.3927 104.152 95.7457C104.152 95.0987 104.28 94.5382 104.537 94.0642C104.793 93.5827 105.148 93.2179 105.601 92.9696C106.061 92.7138 106.585 92.5859 107.174 92.5859C107.778 92.5859 108.298 92.7138 108.736 92.9696C109.181 93.2179 109.517 93.5526 109.743 93.9739C109.977 94.3953 110.094 94.8542 110.094 95.3507C110.094 95.5614 110.079 95.7532 110.049 95.9263H104.933C104.94 96.4454 105.046 96.8817 105.25 97.2353C105.461 97.5814 105.733 97.8372 106.065 98.0027C106.397 98.1682 106.755 98.251 107.14 98.251ZM107.174 93.2291C106.774 93.2291 106.408 93.3119 106.076 93.4774C105.744 93.6429 105.472 93.8987 105.261 94.2448C105.057 94.5833 104.948 95.0084 104.933 95.52H109.302C109.332 95.0159 109.249 94.5909 109.053 94.2448C108.857 93.8987 108.593 93.6429 108.261 93.4774C107.928 93.3119 107.566 93.2291 107.174 93.2291Z" fill="#787A80"/>
<path d="M114.35 92.5859C114.976 92.5859 115.508 92.7476 115.946 93.0711C116.391 93.3947 116.697 93.8235 116.863 94.3576V92.6649H117.644V98.8265H116.863V97.1338C116.697 97.6679 116.391 98.0968 115.946 98.4203C115.508 98.7438 114.976 98.9055 114.35 98.9055C113.792 98.9055 113.29 98.7776 112.845 98.5218C112.407 98.266 112.064 97.9011 111.815 97.4272C111.573 96.9457 111.452 96.3852 111.452 95.7457C111.452 95.0987 111.573 94.5382 111.815 94.0642C112.064 93.5827 112.407 93.2179 112.845 92.9696C113.282 92.7138 113.784 92.5859 114.35 92.5859ZM114.554 93.2856C113.86 93.2856 113.301 93.5075 112.879 93.9514C112.464 94.3877 112.256 94.9858 112.256 95.7457C112.256 96.5056 112.464 97.1074 112.879 97.5513C113.301 97.9877 113.86 98.2058 114.554 98.2058C114.992 98.2058 115.384 98.1043 115.731 97.9011C116.086 97.698 116.361 97.4121 116.557 97.0435C116.761 96.6673 116.863 96.2347 116.863 95.7457C116.863 95.2567 116.761 94.8279 116.557 94.4592C116.361 94.083 116.086 93.7934 115.731 93.5903C115.384 93.3871 114.992 93.2856 114.554 93.2856Z" fill="#787A80"/>
<path d="M127.094 92.552C127.803 92.552 128.377 92.7815 128.814 93.2404C129.259 93.6918 129.482 94.3576 129.482 95.2379V98.8265H128.69V95.2943C128.69 94.6322 128.528 94.1244 128.203 93.7708C127.886 93.4172 127.448 93.2404 126.89 93.2404C126.294 93.2404 125.818 93.436 125.464 93.8272C125.109 94.2185 124.932 94.794 124.932 95.5539V98.8265H124.151V95.2943C124.151 94.6322 123.989 94.1244 123.664 93.7708C123.347 93.4172 122.909 93.2404 122.351 93.2404C121.755 93.2404 121.28 93.436 120.925 93.8272C120.57 94.2185 120.393 94.794 120.393 95.5539V98.8265H119.589V92.6649H120.393V94.1319C120.544 93.6128 120.815 93.2216 121.208 92.9583C121.608 92.6875 122.068 92.552 122.589 92.552C123.132 92.552 123.6 92.695 123.992 92.9809C124.385 93.2668 124.656 93.6881 124.807 94.2448C124.973 93.6956 125.264 93.278 125.679 92.9922C126.094 92.6987 126.566 92.552 127.094 92.552Z" fill="#787A80"/>
<path d="M142.049 92.552C142.758 92.552 143.332 92.7815 143.77 93.2404C144.215 93.6918 144.437 94.3576 144.437 95.2379V98.8265H143.645V95.2943C143.645 94.6322 143.483 94.1244 143.158 93.7708C142.841 93.4172 142.404 93.2404 141.845 93.2404C141.249 93.2404 140.774 93.436 140.419 93.8272C140.064 94.2185 139.887 94.794 139.887 95.5539V98.8265H139.106V95.2943C139.106 94.6322 138.944 94.1244 138.619 93.7708C138.302 93.4172 137.865 93.2404 137.306 93.2404C136.71 93.2404 136.235 93.436 135.88 93.8272C135.526 94.2185 135.348 94.794 135.348 95.5539V98.8265H134.545V92.6649H135.348V94.1319C135.499 93.6128 135.771 93.2216 136.163 92.9583C136.563 92.6875 137.023 92.552 137.544 92.552C138.087 92.552 138.555 92.695 138.948 92.9809C139.34 93.2668 139.612 93.6881 139.763 94.2448C139.929 93.6956 140.219 93.278 140.634 92.9922C141.049 92.6987 141.521 92.552 142.049 92.552Z" fill="#787A80"/>
<path d="M149.027 98.251C149.586 98.251 150.053 98.1118 150.431 97.8334C150.808 97.5551 151.034 97.1789 151.11 96.7049H151.947C151.834 97.3595 151.521 97.8899 151.008 98.2961C150.495 98.7024 149.846 98.9055 149.061 98.9055C148.472 98.9055 147.948 98.7814 147.488 98.5331C147.035 98.2773 146.68 97.9124 146.424 97.4385C146.167 96.957 146.039 96.3927 146.039 95.7457C146.039 95.0987 146.167 94.5382 146.424 94.0642C146.68 93.5827 147.035 93.2179 147.488 92.9696C147.948 92.7138 148.472 92.5859 149.061 92.5859C149.665 92.5859 150.185 92.7138 150.623 92.9696C151.068 93.2179 151.404 93.5526 151.631 93.9739C151.864 94.3953 151.981 94.8542 151.981 95.3507C151.981 95.5614 151.966 95.7532 151.936 95.9263H146.82C146.827 96.4454 146.933 96.8817 147.137 97.2353C147.348 97.5814 147.62 97.8372 147.952 98.0027C148.284 98.1682 148.642 98.251 149.027 98.251ZM149.061 93.2291C148.661 93.2291 148.295 93.3119 147.963 93.4774C147.631 93.6429 147.359 93.8987 147.148 94.2448C146.944 94.5833 146.835 95.0084 146.82 95.52H151.189C151.219 95.0159 151.136 94.5909 150.94 94.2448C150.744 93.8987 150.48 93.6429 150.148 93.4774C149.816 93.3119 149.453 93.2291 149.061 93.2291Z" fill="#787A80"/>
<path d="M161.139 92.552C161.848 92.552 162.421 92.7815 162.859 93.2404C163.304 93.6918 163.527 94.3576 163.527 95.2379V98.8265H162.735V95.2943C162.735 94.6322 162.572 94.1244 162.248 93.7708C161.931 93.4172 161.493 93.2404 160.935 93.2404C160.339 93.2404 159.863 93.436 159.509 93.8272C159.154 94.2185 158.977 94.794 158.977 95.5539V98.8265H158.196V95.2943C158.196 94.6322 158.033 94.1244 157.709 93.7708C157.392 93.4172 156.954 93.2404 156.396 93.2404C155.8 93.2404 155.324 93.436 154.97 93.8272C154.615 94.2185 154.438 94.794 154.438 95.5539V98.8265H153.634V92.6649H154.438V94.1319C154.589 93.6128 154.86 93.2216 155.253 92.9583C155.653 92.6875 156.113 92.552 156.634 92.552C157.177 92.552 157.645 92.695 158.037 92.9809C158.43 93.2668 158.701 93.6881 158.852 94.2448C159.018 93.6956 159.309 93.278 159.724 92.9922C160.139 92.6987 160.61 92.552 161.139 92.552Z" fill="#787A80"/>
<path d="M168.728 92.5859C169.294 92.5859 169.792 92.7138 170.222 92.9696C170.66 93.2179 170.999 93.5827 171.241 94.0642C171.49 94.5382 171.614 95.0987 171.614 95.7457C171.614 96.3852 171.49 96.9457 171.241 97.4272C170.999 97.9011 170.66 98.266 170.222 98.5218C169.784 98.7776 169.286 98.9055 168.728 98.9055C168.094 98.9055 167.558 98.7438 167.12 98.4203C166.683 98.0968 166.381 97.6679 166.215 97.1338V98.8265H165.423V90.4756H166.215V94.3576C166.381 93.8235 166.683 93.3947 167.12 93.0711C167.558 92.7476 168.094 92.5859 168.728 92.5859ZM168.513 93.2856C168.075 93.2856 167.679 93.3871 167.324 93.5903C166.977 93.7934 166.705 94.083 166.509 94.4592C166.313 94.8279 166.215 95.2567 166.215 95.7457C166.215 96.2347 166.313 96.6673 166.509 97.0435C166.705 97.4121 166.977 97.698 167.324 97.9011C167.679 98.1043 168.075 98.2058 168.513 98.2058C169.215 98.2058 169.773 97.9877 170.188 97.5513C170.603 97.1074 170.811 96.5056 170.811 95.7457C170.811 94.9858 170.603 94.3877 170.188 93.9514C169.773 93.5075 169.215 93.2856 168.513 93.2856Z" fill="#787A80"/>
<path d="M175.959 98.251C176.517 98.251 176.985 98.1118 177.363 97.8334C177.74 97.5551 177.966 97.1789 178.042 96.7049H178.879C178.766 97.3595 178.453 97.8899 177.94 98.2961C177.427 98.7024 176.778 98.9055 175.993 98.9055C175.404 98.9055 174.88 98.7814 174.42 98.5331C173.967 98.2773 173.612 97.9124 173.356 97.4385C173.099 96.957 172.971 96.3927 172.971 95.7457C172.971 95.0987 173.099 94.5382 173.356 94.0642C173.612 93.5827 173.967 93.2179 174.42 92.9696C174.88 92.7138 175.404 92.5859 175.993 92.5859C176.597 92.5859 177.117 92.7138 177.555 92.9696C178 93.2179 178.336 93.5526 178.562 93.9739C178.796 94.3953 178.913 94.8542 178.913 95.3507C178.913 95.5614 178.898 95.7532 178.868 95.9263H173.752C173.759 96.4454 173.865 96.8817 174.069 97.2353C174.28 97.5814 174.552 97.8372 174.884 98.0027C175.216 98.1682 175.574 98.251 175.959 98.251ZM175.993 93.2291C175.593 93.2291 175.227 93.3119 174.895 93.4774C174.563 93.6429 174.291 93.8987 174.08 94.2448C173.876 94.5833 173.767 95.0084 173.752 95.52H178.121C178.151 95.0159 178.068 94.5909 177.872 94.2448C177.676 93.8987 177.412 93.6429 177.08 93.4774C176.748 93.3119 176.385 93.2291 175.993 93.2291Z" fill="#787A80"/>
<path d="M181.37 93.9401C181.551 93.4962 181.841 93.1539 182.241 92.9132C182.641 92.6724 183.128 92.552 183.701 92.552V93.4097H183.441C182.845 93.4097 182.351 93.5714 181.958 93.895C181.566 94.2109 181.37 94.73 181.37 95.4523V98.8265H180.566V92.6649H181.37V93.9401Z" fill="#787A80"/>
<path d="M186.849 92.5859C187.521 92.5859 188.06 92.7627 188.468 93.1163C188.875 93.4699 189.124 93.9476 189.215 94.5495H188.457C188.411 94.1507 188.245 93.8235 187.959 93.5677C187.679 93.3044 187.302 93.1727 186.827 93.1727C186.419 93.1727 186.098 93.2743 185.865 93.4774C185.638 93.673 185.525 93.9363 185.525 94.2674C185.525 94.5156 185.597 94.715 185.74 94.8655C185.891 95.0159 186.076 95.1325 186.295 95.2153C186.513 95.2905 186.808 95.3695 187.178 95.4523C187.63 95.5576 187.993 95.6667 188.264 95.7796C188.543 95.8849 188.781 96.0542 188.977 96.2874C189.173 96.5206 189.272 96.8366 189.272 97.2353C189.272 97.7243 189.087 98.1268 188.717 98.4428C188.355 98.7513 187.872 98.9055 187.268 98.9055C186.559 98.9055 185.978 98.7325 185.525 98.3864C185.072 98.0328 184.804 97.5513 184.721 96.9419H185.491C185.536 97.3482 185.714 97.6792 186.023 97.935C186.332 98.1908 186.751 98.3187 187.279 98.3187C187.672 98.3187 187.977 98.2171 188.196 98.014C188.415 97.8109 188.525 97.5475 188.525 97.224C188.525 96.9607 188.449 96.7501 188.298 96.5921C188.147 96.4341 187.959 96.3175 187.732 96.2422C187.513 96.1595 187.212 96.073 186.827 95.9827C186.381 95.8774 186.023 95.772 185.751 95.6667C185.487 95.5614 185.261 95.3996 185.072 95.1814C184.884 94.9557 184.789 94.6511 184.789 94.2674C184.789 93.7633 184.974 93.357 185.344 93.0486C185.714 92.7401 186.215 92.5859 186.849 92.5859Z" fill="#787A80"/>
</g>
<g opacity="0.9">
<path d="M137.416 118.928V117.479H140.486V127.039H138.856V118.928H137.416Z" fill="#1E212C"/>
<path d="M145.751 117.181C146.385 117.181 146.928 117.294 147.381 117.519C147.834 117.736 148.173 118.038 148.4 118.427C148.635 118.815 148.753 119.248 148.753 119.727C148.753 120.331 148.581 120.837 148.237 121.243C147.902 121.641 147.426 121.88 146.811 121.961V122.029C147.472 122.218 147.988 122.503 148.359 122.882C148.739 123.252 148.929 123.767 148.929 124.426C148.929 125.229 148.662 125.884 148.128 126.389C147.594 126.886 146.829 127.134 145.833 127.134C144.809 127.134 143.985 126.877 143.36 126.362C142.736 125.839 142.378 125.067 142.287 124.046H143.822C143.877 124.588 144.071 125.022 144.406 125.347C144.741 125.663 145.194 125.82 145.765 125.82C146.299 125.82 146.706 125.681 146.987 125.401C147.277 125.121 147.422 124.76 147.422 124.317C147.422 123.785 147.213 123.378 146.797 123.099C146.389 122.819 145.796 122.679 145.018 122.679H144.651V121.406H145.018C146.494 121.424 147.232 120.923 147.232 119.903C147.232 119.46 147.096 119.113 146.824 118.86C146.552 118.607 146.181 118.481 145.71 118.481C145.239 118.481 144.846 118.625 144.529 118.914C144.212 119.194 144.021 119.605 143.958 120.146H142.437C142.5 119.207 142.817 118.481 143.388 117.966C143.958 117.442 144.746 117.181 145.751 117.181Z" fill="#1E212C"/>
</g>
<defs>
<filter id="filter0_dddd_1679_2195" x="0.644531" y="0" width="286.773" height="228.839" filterUnits="userSpaceOnUse" color-interpolation-filters="sRGB">
<feFlood flood-opacity="0" result="BackgroundImageFix"/>
<feColorMatrix in="SourceAlpha" type="matrix" values="0 0 0 0 0 0 0 0 0 0 0 0 0 0 0 0 0 0 127 0" result="hardAlpha"/>
<feOffset dy="1"/>
<feGaussianBlur stdDeviation="10"/>
<feColorMatrix type="matrix" values="0 0 0 0 0.117647 0 0 0 0 0.129412 0 0 0 0 0.172549 0 0 0 0.02 0"/>
<feBlend mode="normal" in2="BackgroundImageFix" result="effect1_dropShadow_1679_2195"/>
<feColorMatrix in="SourceAlpha" type="matrix" values="0 0 0 0 0 0 0 0 0 0 0 0 0 0 0 0 0 0 127 0" result="hardAlpha"/>
<feOffset/>
<feGaussianBlur stdDeviation="22"/>
<feColorMatrix type="matrix" values="0 0 0 0 0.117647 0 0 0 0 0.129412 0 0 0 0 0.172549 0 0 0 0.02 0"/>
<feBlend mode="normal" in2="effect1_dropShadow_1679_2195" result="effect2_dropShadow_1679_2195"/>
<feColorMatrix in="SourceAlpha" type="matrix" values="0 0 0 0 0 0 0 0 0 0 0 0 0 0 0 0 0 0 127 0" result="hardAlpha"/>
<feOffset dy="8"/>
<feGaussianBlur stdDeviation="25"/>
<feColorMatrix type="matrix" values="0 0 0 0 0.117647 0 0 0 0 0.129412 0 0 0 0 0.172549 0 0 0 0.0422367 0"/>
<feBlend mode="normal" in2="effect2_dropShadow_1679_2195" result="effect3_dropShadow_1679_2195"/>
<feColorMatrix in="SourceAlpha" type="matrix" values="0 0 0 0 0 0 0 0 0 0 0 0 0 0 0 0 0 0 127 0" result="hardAlpha"/>
<feOffset dy="6"/>
<feGaussianBlur stdDeviation="40"/>
<feColorMatrix type="matrix" values="0 0 0 0 0.117647 0 0 0 0 0.129412 0 0 0 0 0.172549 0 0 0 0.04 0"/>
<feBlend mode="normal" in2="effect3_dropShadow_1679_2195" result="effect4_dropShadow_1679_2195"/>
<feBlend mode="normal" in="SourceGraphic" in2="effect4_dropShadow_1679_2195" result="shape"/>
</filter>
</defs>
</svg>
