<svg width="474" height="307" viewBox="0 0 474 307" fill="none" xmlns="http://www.w3.org/2000/svg">
<g filter="url(#filter0_dddd_1679_2028)">
<path d="M80.6055 78.1964C80.6055 76.17 82.0861 74.5273 83.9125 74.5273H390.638C392.465 74.5273 393.945 76.17 393.945 78.1964V216.703C393.945 218.73 392.465 220.373 390.638 220.373H83.9125C82.0861 220.373 80.6055 218.73 80.6055 216.703V78.1964Z" fill="white"/>
</g>
<path d="M318.936 156.973C314.275 156.973 309.992 155.095 306.591 149.193C301.3 140.206 295.506 141.145 288.704 142.218C286.058 142.62 283.287 143.157 280.39 143.023L280.516 141.011C283.161 141.145 285.806 140.742 288.452 140.206C295.254 138.999 302.308 137.926 308.229 148.12C313.771 157.51 321.329 155.363 330.273 152.681C339.091 150.132 348.916 147.181 358.49 155.363L357.356 156.973C348.664 149.461 339.594 152.144 330.903 154.693C326.62 155.766 322.715 156.973 318.936 156.973ZM129.481 158.717C136.787 151.742 139.936 153.485 146.738 157.241C147.62 157.778 148.628 158.314 149.636 158.851C150.266 159.253 151.021 159.387 151.777 159.387C156.312 159.387 161.477 152.546 167.019 145.437C171.554 139.535 176.341 133.231 179.49 133.231C180.12 133.231 180.75 133.499 181.253 134.17C183.017 136.316 184.655 139.401 186.292 142.352C189.315 147.986 192.213 153.351 195.992 153.083C198.763 152.815 201.408 149.461 204.054 142.352C206.069 136.987 207.707 131.219 209.092 126.122C211.612 117 214.005 108.415 217.154 108.147C219.799 107.879 223.704 113.379 228.869 124.512C233.026 133.633 236.805 138.194 240.584 138.865C244.489 139.535 247.512 136.316 250.536 133.097C253.181 130.28 255.826 127.597 258.597 127.731C260.613 127.865 262.754 129.609 265.148 132.962C266.911 135.511 268.801 137.523 270.69 138.999L271.824 137.389C270.06 136.048 268.297 134.036 266.659 131.755C264.014 127.865 261.369 125.853 258.723 125.719C255.07 125.451 252.047 128.536 249.15 131.621C246.379 134.572 243.733 137.389 240.836 136.852C237.687 136.316 234.286 131.889 230.381 123.573C223.075 107.745 219.296 105.867 216.902 106.135C212.493 106.538 210.1 114.854 207.203 125.585C205.817 130.682 204.18 136.316 202.164 141.547C199.267 149.193 196.999 150.937 195.74 151.071C193.22 151.339 190.449 146.242 187.804 141.279C186.166 138.194 184.403 134.975 182.513 132.694C181.631 131.621 180.498 131.085 179.364 131.085C175.333 131.219 170.546 137.389 165.508 143.962C160.217 150.937 154.171 158.851 150.517 156.839C149.51 156.302 148.502 155.766 147.62 155.229C140.692 151.339 136.535 149.059 128.221 156.973C119.907 165.021 109.704 162.473 109.578 162.338L109.074 164.216C109.2 164.216 110.964 164.753 113.609 164.753C117.766 165.155 123.938 164.082 129.481 158.717Z" fill="#FB5A5A"/>
<path d="M275.475 144.925C272.2 144.925 269.555 142.28 269.555 139.006C269.555 135.732 272.2 133.087 275.475 133.087C278.75 133.087 281.396 135.732 281.396 139.006C281.396 142.28 278.75 144.925 275.475 144.925ZM275.475 134.976C273.208 134.976 271.444 136.739 271.444 139.006C271.444 141.273 273.208 143.036 275.475 143.036C277.743 143.036 279.506 141.273 279.506 139.006C279.632 136.739 277.743 134.976 275.475 134.976Z" fill="url(#paint0_linear_1679_2028)"/>
<path d="M147.873 108.277C152.534 108.655 156.565 110.796 159.462 116.715C163.871 125.656 169.791 125.278 176.72 124.901C179.365 124.775 182.262 124.523 185.033 124.901L184.781 126.79C182.136 126.412 179.491 126.538 176.846 126.79C169.917 127.167 162.863 127.671 157.824 117.596C153.164 108.277 145.354 109.662 136.284 111.3C127.34 112.937 117.137 114.7 108.445 106.136L109.705 104.751C117.767 112.559 126.963 110.922 135.906 109.411C140.189 108.655 144.22 107.899 147.873 108.277ZM336.824 124.145C328.888 130.064 325.991 128.049 319.566 123.893C318.685 123.389 317.803 122.76 316.795 122.13C316.165 121.752 315.41 121.5 314.78 121.5C310.245 121.123 304.45 126.916 298.404 133.086C293.365 138.25 288.075 143.539 284.925 143.287C284.296 143.287 283.666 142.909 283.288 142.28C281.776 140.139 280.391 137.116 279.005 134.094C276.486 128.553 274.092 123.263 270.313 123.137C267.416 123.012 264.645 126.034 261.37 132.457C258.976 137.242 256.835 142.531 254.945 147.065C251.67 155.377 248.521 163.185 245.372 163.185C242.726 163.185 239.325 157.644 235.168 146.813C231.767 137.872 228.492 133.212 224.713 132.205C220.934 131.197 217.533 133.968 214.384 136.612C211.487 139.005 208.715 141.272 205.818 140.894C203.803 140.516 201.787 138.753 199.772 135.353C198.26 132.834 196.622 130.694 194.733 129.182L193.473 130.568C195.111 132.079 196.622 133.968 198.134 136.361C200.527 140.265 202.921 142.28 205.44 142.783C209.093 143.413 212.368 140.768 215.392 138.124C218.415 135.605 221.312 133.338 224.083 134.094C227.232 134.975 230.13 139.257 233.279 147.569C239.073 163.059 242.726 165.074 245.246 165.2C249.655 165.2 252.804 157.644 256.583 147.947C258.472 143.413 260.488 138.124 262.881 133.464C266.408 126.538 268.802 125.152 270.187 125.152C272.707 125.152 274.974 130.19 277.241 134.975C278.627 137.998 280.013 141.146 281.776 143.413C282.532 144.546 283.54 145.05 284.8 145.176C288.83 145.428 294.121 140.013 299.664 134.346C305.584 128.301 312.26 121.5 315.787 123.641C316.795 124.271 317.677 124.901 318.559 125.404C325.109 129.686 329.014 132.205 337.958 125.53C346.901 118.856 356.853 122.13 356.979 122.13L357.609 120.367C357.483 120.367 355.719 119.737 353.074 119.485C348.917 119.233 342.744 119.611 336.824 124.145Z" fill="#5A87FB"/>
<path d="M190.7 132.582C187.425 132.33 185.032 129.433 185.284 126.159C185.536 122.885 188.433 120.492 191.708 120.744C194.983 120.996 197.377 123.892 197.125 127.166C196.873 130.441 193.976 132.834 190.7 132.582ZM191.582 122.633C189.315 122.381 187.425 124.018 187.173 126.285C186.921 128.552 188.559 130.441 190.826 130.693C193.094 130.944 194.983 129.307 195.235 127.041C195.487 124.774 193.85 122.885 191.582 122.633Z" fill="url(#paint1_linear_1679_2028)"/>
<path d="M111.204 186.468C110.866 186.468 110.563 186.377 110.296 186.195C110.034 186.009 109.829 185.746 109.681 185.408C109.537 185.069 109.465 184.672 109.465 184.215C109.465 183.758 109.537 183.36 109.681 183.022C109.829 182.683 110.034 182.423 110.296 182.241C110.563 182.055 110.866 181.962 111.204 181.962C111.543 181.962 111.843 182.055 112.106 182.241C112.372 182.423 112.577 182.683 112.721 183.022C112.869 183.36 112.943 183.758 112.943 184.215C112.943 184.672 112.869 185.069 112.721 185.408C112.577 185.746 112.372 186.009 112.106 186.195C111.843 186.377 111.543 186.468 111.204 186.468ZM111.204 186.169C111.483 186.169 111.729 186.093 111.94 185.941C112.156 185.784 112.323 185.56 112.442 185.268C112.56 184.972 112.62 184.621 112.62 184.215C112.62 183.809 112.56 183.46 112.442 183.168C112.323 182.872 112.156 182.647 111.94 182.495C111.729 182.338 111.483 182.26 111.204 182.26C110.925 182.26 110.677 182.338 110.461 182.495C110.25 182.647 110.085 182.872 109.966 183.168C109.848 183.46 109.789 183.809 109.789 184.215C109.789 184.621 109.848 184.972 109.966 185.268C110.085 185.56 110.25 185.784 110.461 185.941C110.677 186.093 110.925 186.169 111.204 186.169Z" fill="#1E212C"/>
<path d="M114.754 181.994V186.436H114.43V182.286H113.345V181.994H114.754Z" fill="#1E212C"/>
<path d="M145.79 185.847C145.452 185.847 145.149 185.756 144.882 185.574C144.62 185.388 144.415 185.125 144.267 184.787C144.123 184.448 144.051 184.051 144.051 183.594C144.051 183.137 144.123 182.739 144.267 182.401C144.415 182.062 144.62 181.802 144.882 181.62C145.149 181.434 145.452 181.341 145.79 181.341C146.129 181.341 146.429 181.434 146.691 181.62C146.958 181.802 147.163 182.062 147.307 182.401C147.455 182.739 147.529 183.137 147.529 183.594C147.529 184.051 147.455 184.448 147.307 184.787C147.163 185.125 146.958 185.388 146.691 185.574C146.429 185.756 146.129 185.847 145.79 185.847ZM145.79 185.548C146.069 185.548 146.315 185.472 146.526 185.32C146.742 185.163 146.909 184.939 147.028 184.647C147.146 184.351 147.206 184 147.206 183.594C147.206 183.188 147.146 182.839 147.028 182.547C146.909 182.25 146.742 182.026 146.526 181.874C146.315 181.717 146.069 181.639 145.79 181.639C145.511 181.639 145.263 181.717 145.047 181.874C144.836 182.026 144.671 182.25 144.552 182.547C144.434 182.839 144.375 183.188 144.375 183.594C144.375 184 144.434 184.351 144.552 184.647C144.671 184.939 144.836 185.163 145.047 185.32C145.263 185.472 145.511 185.548 145.79 185.548Z" fill="#1E212C"/>
<path d="M151.187 185.523V185.815H148.134V185.586L150.013 183.721C150.258 183.475 150.423 183.266 150.508 183.092C150.597 182.915 150.641 182.733 150.641 182.547C150.641 182.263 150.544 182.041 150.349 181.88C150.159 181.719 149.882 181.639 149.518 181.639C149.238 181.639 148.993 181.681 148.781 181.766C148.574 181.851 148.394 181.98 148.242 182.153L148.013 181.95C148.183 181.755 148.396 181.605 148.654 181.499C148.917 181.394 149.213 181.341 149.543 181.341C149.979 181.341 150.326 181.447 150.584 181.658C150.842 181.87 150.971 182.155 150.971 182.515C150.971 182.743 150.921 182.961 150.819 183.169C150.717 183.376 150.527 183.617 150.248 183.892L148.61 185.523H151.187Z" fill="#1E212C"/>
<path d="M194.653 185.821C194.315 185.821 194.012 185.73 193.746 185.548C193.483 185.362 193.278 185.1 193.13 184.761C192.986 184.423 192.914 184.025 192.914 183.568C192.914 183.111 192.986 182.714 193.13 182.375C193.278 182.037 193.483 181.777 193.746 181.595C194.012 181.409 194.315 181.315 194.653 181.315C194.992 181.315 195.292 181.409 195.555 181.595C195.821 181.777 196.027 182.037 196.17 182.375C196.319 182.714 196.393 183.111 196.393 183.568C196.393 184.025 196.319 184.423 196.17 184.761C196.027 185.1 195.821 185.362 195.555 185.548C195.292 185.73 194.992 185.821 194.653 185.821ZM194.653 185.523C194.933 185.523 195.178 185.447 195.39 185.294C195.606 185.138 195.773 184.914 195.891 184.622C196.01 184.326 196.069 183.974 196.069 183.568C196.069 183.162 196.01 182.813 195.891 182.521C195.773 182.225 195.606 182.001 195.39 181.849C195.178 181.692 194.933 181.614 194.653 181.614C194.374 181.614 194.126 181.692 193.911 181.849C193.699 182.001 193.534 182.225 193.416 182.521C193.297 182.813 193.238 183.162 193.238 183.568C193.238 183.974 193.297 184.326 193.416 184.622C193.534 184.914 193.699 185.138 193.911 185.294C194.126 185.447 194.374 185.523 194.653 185.523Z" fill="#1E212C"/>
<path d="M198.382 183.283C198.873 183.295 199.246 183.416 199.499 183.644C199.758 183.869 199.887 184.167 199.887 184.539C199.887 184.789 199.827 185.011 199.709 185.206C199.59 185.396 199.413 185.546 199.176 185.656C198.943 185.766 198.662 185.821 198.331 185.821C198.01 185.821 197.707 185.768 197.424 185.663C197.14 185.553 196.92 185.407 196.764 185.225L196.929 184.977C197.073 185.138 197.267 185.269 197.513 185.371C197.762 185.472 198.035 185.523 198.331 185.523C198.725 185.523 199.028 185.436 199.239 185.263C199.451 185.085 199.557 184.844 199.557 184.539C199.557 184.23 199.449 183.989 199.233 183.816C199.017 183.642 198.693 183.556 198.262 183.556H197.982V183.321L199.296 181.639H196.929V181.347H199.715V181.576L198.382 183.283Z" fill="#1E212C"/>
<path d="M234.806 185.821C234.467 185.821 234.165 185.73 233.898 185.548C233.636 185.362 233.43 185.1 233.282 184.761C233.138 184.423 233.066 184.025 233.066 183.568C233.066 183.111 233.138 182.714 233.282 182.375C233.43 182.037 233.636 181.777 233.898 181.595C234.165 181.409 234.467 181.315 234.806 181.315C235.144 181.315 235.445 181.409 235.707 181.595C235.974 181.777 236.179 182.037 236.323 182.375C236.471 182.714 236.545 183.111 236.545 183.568C236.545 184.025 236.471 184.423 236.323 184.761C236.179 185.1 235.974 185.362 235.707 185.548C235.445 185.73 235.144 185.821 234.806 185.821ZM234.806 185.523C235.085 185.523 235.33 185.447 235.542 185.294C235.758 185.138 235.925 184.914 236.044 184.622C236.162 184.326 236.221 183.974 236.221 183.568C236.221 183.162 236.162 182.813 236.044 182.521C235.925 182.225 235.758 182.001 235.542 181.849C235.33 181.692 235.085 181.614 234.806 181.614C234.526 181.614 234.279 181.692 234.063 181.849C233.851 182.001 233.686 182.225 233.568 182.521C233.449 182.813 233.39 183.162 233.39 183.568C233.39 183.974 233.449 184.326 233.568 184.622C233.686 184.914 233.851 185.138 234.063 185.294C234.279 185.447 234.526 185.523 234.806 185.523Z" fill="#1E212C"/>
<path d="M240.952 184.558H240.019V185.789H239.701V184.558H237.168V184.323L239.581 181.347H239.942L237.575 184.273H239.707V183.188H240.019V184.273H240.952V184.558Z" fill="#1E212C"/>
<path d="M274.958 185.821C274.62 185.821 274.317 185.73 274.05 185.548C273.788 185.362 273.583 185.1 273.435 184.761C273.291 184.423 273.219 184.025 273.219 183.568C273.219 183.111 273.291 182.714 273.435 182.375C273.583 182.037 273.788 181.777 274.05 181.595C274.317 181.409 274.62 181.315 274.958 181.315C275.297 181.315 275.597 181.409 275.859 181.595C276.126 181.777 276.331 182.037 276.475 182.375C276.623 182.714 276.697 183.111 276.697 183.568C276.697 184.025 276.623 184.423 276.475 184.761C276.331 185.1 276.126 185.362 275.859 185.548C275.597 185.73 275.297 185.821 274.958 185.821ZM274.958 185.523C275.237 185.523 275.483 185.447 275.694 185.294C275.91 185.138 276.077 184.914 276.196 184.622C276.314 184.326 276.374 183.974 276.374 183.568C276.374 183.162 276.314 182.813 276.196 182.521C276.077 182.225 275.91 182.001 275.694 181.849C275.483 181.692 275.237 181.614 274.958 181.614C274.679 181.614 274.431 181.692 274.215 181.849C274.004 182.001 273.839 182.225 273.72 182.521C273.602 182.813 273.542 183.162 273.542 183.568C273.542 183.974 273.602 184.326 273.72 184.622C273.839 184.914 274.004 185.138 274.215 185.294C274.431 185.447 274.679 185.523 274.958 185.523Z" fill="#1E212C"/>
<path d="M278.482 183.207C279.13 183.207 279.6 183.321 279.892 183.549C280.184 183.773 280.33 184.093 280.33 184.508C280.33 184.761 280.27 184.988 280.152 185.187C280.038 185.381 279.864 185.536 279.631 185.65C279.399 185.764 279.113 185.821 278.774 185.821C278.453 185.821 278.15 185.766 277.867 185.656C277.587 185.546 277.369 185.402 277.213 185.225L277.378 184.977C277.518 185.138 277.71 185.269 277.956 185.371C278.205 185.472 278.476 185.523 278.768 185.523C279.166 185.523 279.471 185.432 279.682 185.25C279.898 185.068 280.006 184.825 280.006 184.52C280.006 184.186 279.883 183.932 279.638 183.759C279.396 183.585 278.988 183.498 278.413 183.498H277.511L277.746 181.347H280.101V181.639H278.019L277.848 183.207H278.482Z" fill="#1E212C"/>
<path d="M315.11 185.821C314.772 185.821 314.469 185.73 314.203 185.548C313.94 185.362 313.735 185.1 313.587 184.761C313.443 184.423 313.371 184.025 313.371 183.568C313.371 183.111 313.443 182.714 313.587 182.375C313.735 182.037 313.94 181.777 314.203 181.595C314.469 181.409 314.772 181.315 315.11 181.315C315.449 181.315 315.749 181.409 316.012 181.595C316.278 181.777 316.484 182.037 316.628 182.375C316.776 182.714 316.85 183.111 316.85 183.568C316.85 184.025 316.776 184.423 316.628 184.761C316.484 185.1 316.278 185.362 316.012 185.548C315.749 185.73 315.449 185.821 315.11 185.821ZM315.11 185.523C315.39 185.523 315.635 185.447 315.847 185.294C316.063 185.138 316.23 184.914 316.348 184.622C316.467 184.326 316.526 183.974 316.526 183.568C316.526 183.162 316.467 182.813 316.348 182.521C316.23 182.225 316.063 182.001 315.847 181.849C315.635 181.692 315.39 181.614 315.11 181.614C314.831 181.614 314.584 181.692 314.368 181.849C314.156 182.001 313.991 182.225 313.873 182.521C313.754 182.813 313.695 183.162 313.695 183.568C313.695 183.974 313.754 184.326 313.873 184.622C313.991 184.914 314.156 185.138 314.368 185.294C314.584 185.447 314.831 185.523 315.11 185.523Z" fill="#1E212C"/>
<path d="M319.327 183.162C319.619 183.162 319.877 183.217 320.101 183.327C320.33 183.433 320.505 183.587 320.628 183.79C320.751 183.989 320.812 184.22 320.812 184.482C320.812 184.749 320.749 184.983 320.622 185.187C320.495 185.39 320.319 185.546 320.095 185.656C319.87 185.766 319.617 185.821 319.333 185.821C318.757 185.821 318.315 185.627 318.006 185.237C317.702 184.844 317.549 184.296 317.549 183.594C317.549 183.103 317.63 182.688 317.79 182.35C317.955 182.007 318.186 181.749 318.482 181.576C318.779 181.402 319.126 181.315 319.523 181.315C319.942 181.315 320.279 181.392 320.533 181.544L320.399 181.804C320.188 181.669 319.896 181.601 319.523 181.601C319.011 181.601 318.607 181.768 318.311 182.102C318.019 182.432 317.873 182.913 317.873 183.543C317.873 183.738 317.886 183.915 317.911 184.076C318 183.788 318.171 183.564 318.425 183.403C318.683 183.243 318.984 183.162 319.327 183.162ZM319.32 185.542C319.667 185.542 319.949 185.447 320.165 185.256C320.38 185.062 320.488 184.806 320.488 184.488C320.488 184.171 320.38 183.917 320.165 183.727C319.949 183.537 319.655 183.441 319.282 183.441C319.045 183.441 318.831 183.488 318.641 183.581C318.455 183.674 318.309 183.801 318.203 183.962C318.101 184.123 318.051 184.302 318.051 184.501C318.051 184.679 318.099 184.848 318.197 185.009C318.298 185.17 318.444 185.299 318.635 185.396C318.825 185.493 319.054 185.542 319.32 185.542Z" fill="#1E212C"/>
<path d="M355.263 185.821C354.924 185.821 354.622 185.73 354.355 185.548C354.093 185.362 353.887 185.1 353.739 184.761C353.595 184.423 353.523 184.025 353.523 183.568C353.523 183.111 353.595 182.714 353.739 182.375C353.887 182.037 354.093 181.777 354.355 181.595C354.622 181.409 354.924 181.315 355.263 181.315C355.601 181.315 355.902 181.409 356.164 181.595C356.431 181.777 356.636 182.037 356.78 182.375C356.928 182.714 357.002 183.111 357.002 183.568C357.002 184.025 356.928 184.423 356.78 184.761C356.636 185.1 356.431 185.362 356.164 185.548C355.902 185.73 355.601 185.821 355.263 185.821ZM355.263 185.523C355.542 185.523 355.787 185.447 355.999 185.294C356.215 185.138 356.382 184.914 356.501 184.622C356.619 184.326 356.678 183.974 356.678 183.568C356.678 183.162 356.619 182.813 356.501 182.521C356.382 182.225 356.215 182.001 355.999 181.849C355.787 181.692 355.542 181.614 355.263 181.614C354.983 181.614 354.736 181.692 354.52 181.849C354.308 182.001 354.143 182.225 354.025 182.521C353.906 182.813 353.847 183.162 353.847 183.568C353.847 183.974 353.906 184.326 354.025 184.622C354.143 184.914 354.308 185.138 354.52 185.294C354.736 185.447 354.983 185.523 355.263 185.523Z" fill="#1E212C"/>
<path d="M360.699 181.347V181.576L358.788 185.789H358.433L360.325 181.639H357.83V182.489H357.512V181.347H360.699Z" fill="#1E212C"/>
<path opacity="0.3" d="M358.616 161.546H104.414V161.735H358.616V161.546Z" fill="#1E212C"/>
<path opacity="0.3" d="M358.616 151.723H104.414V151.912H358.616V151.723Z" fill="#1E212C"/>
<path opacity="0.3" d="M358.616 141.9H104.414V142.09H358.616V141.9Z" fill="#1E212C"/>
<path opacity="0.3" d="M358.616 132.077H104.414V132.267H358.616V132.077Z" fill="#1E212C"/>
<path opacity="0.3" d="M358.616 122.253H104.414V122.442H358.616V122.253Z" fill="#1E212C"/>
<path opacity="0.3" d="M358.616 112.308H104.414V112.497H358.616V112.308Z" fill="#1E212C"/>
<path opacity="0.3" d="M358.616 102.483H104.414V102.673H358.616V102.483Z" fill="#1E212C"/>
<defs>
<filter id="filter0_dddd_1679_2028" x="0.605469" y="0.527344" width="473.34" height="305.846" filterUnits="userSpaceOnUse" color-interpolation-filters="sRGB">
<feFlood flood-opacity="0" result="BackgroundImageFix"/>
<feColorMatrix in="SourceAlpha" type="matrix" values="0 0 0 0 0 0 0 0 0 0 0 0 0 0 0 0 0 0 127 0" result="hardAlpha"/>
<feOffset dy="1"/>
<feGaussianBlur stdDeviation="10"/>
<feColorMatrix type="matrix" values="0 0 0 0 0.117647 0 0 0 0 0.129412 0 0 0 0 0.172549 0 0 0 0.02 0"/>
<feBlend mode="normal" in2="BackgroundImageFix" result="effect1_dropShadow_1679_2028"/>
<feColorMatrix in="SourceAlpha" type="matrix" values="0 0 0 0 0 0 0 0 0 0 0 0 0 0 0 0 0 0 127 0" result="hardAlpha"/>
<feOffset/>
<feGaussianBlur stdDeviation="22"/>
<feColorMatrix type="matrix" values="0 0 0 0 0.117647 0 0 0 0 0.129412 0 0 0 0 0.172549 0 0 0 0.02 0"/>
<feBlend mode="normal" in2="effect1_dropShadow_1679_2028" result="effect2_dropShadow_1679_2028"/>
<feColorMatrix in="SourceAlpha" type="matrix" values="0 0 0 0 0 0 0 0 0 0 0 0 0 0 0 0 0 0 127 0" result="hardAlpha"/>
<feOffset dy="8"/>
<feGaussianBlur stdDeviation="25"/>
<feColorMatrix type="matrix" values="0 0 0 0 0.117647 0 0 0 0 0.129412 0 0 0 0 0.172549 0 0 0 0.0422367 0"/>
<feBlend mode="normal" in2="effect2_dropShadow_1679_2028" result="effect3_dropShadow_1679_2028"/>
<feColorMatrix in="SourceAlpha" type="matrix" values="0 0 0 0 0 0 0 0 0 0 0 0 0 0 0 0 0 0 127 0" result="hardAlpha"/>
<feOffset dy="6"/>
<feGaussianBlur stdDeviation="40"/>
<feColorMatrix type="matrix" values="0 0 0 0 0.117647 0 0 0 0 0.129412 0 0 0 0 0.172549 0 0 0 0.04 0"/>
<feBlend mode="normal" in2="effect3_dropShadow_1679_2028" result="effect4_dropShadow_1679_2028"/>
<feBlend mode="normal" in="SourceGraphic" in2="effect4_dropShadow_1679_2028" result="shape"/>
</filter>
<linearGradient id="paint0_linear_1679_2028" x1="271.328" y1="143.215" x2="279.729" y2="134.812" gradientUnits="userSpaceOnUse">
<stop offset="0.00212215" stop-color="#FC5A5A"/>
<stop offset="0.9977" stop-color="#FF8C4B"/>
</linearGradient>
<linearGradient id="paint1_linear_1679_2028" x1="186.669" y1="130.459" x2="195.812" y2="122.869" gradientUnits="userSpaceOnUse">
<stop stop-color="#5A87FC"/>
<stop offset="0.9981" stop-color="#693FFB"/>
</linearGradient>
</defs>
</svg>
