<svg width="468" height="322" viewBox="0 0 468 322" fill="none" xmlns="http://www.w3.org/2000/svg">
<g filter="url(#filter0_dddd_1679_1863)">
<path d="M80.1426 78.0682C80.1426 75.8182 81.5929 73.9941 83.3819 73.9941H383.826C385.615 73.9941 387.065 75.8182 387.065 78.0682V231.865C387.065 234.115 385.615 235.939 383.826 235.939H83.3819C81.5929 235.939 80.1426 234.115 80.1426 231.865V78.0682Z" fill="white"/>
</g>
<path d="M161.517 127.014C176.76 127.014 189.095 139.345 189.095 154.585C189.095 158.294 188.393 161.803 186.989 165.112L206.645 178.948C210.556 171.729 212.762 163.408 212.762 154.585C212.762 126.312 189.797 103.353 161.517 103.353C161.216 103.353 160.915 103.353 160.514 103.353V127.014C160.815 127.014 161.216 127.014 161.517 127.014Z" fill="#5A87FC"/>
<path d="M158.91 103.454C131.833 104.757 110.172 127.115 110.172 154.586C110.172 164.411 112.98 173.635 117.693 181.355L136.547 166.416C134.842 162.807 133.839 158.797 133.839 154.486C133.839 140.85 143.767 129.521 156.804 127.315C158.008 127.115 159.211 127.015 160.515 126.914V103.354C160.013 103.354 159.412 103.354 158.91 103.454Z" fill="#E2EBF5"/>
<path d="M161.517 205.918C180.972 205.918 198.021 194.99 206.645 179.049L186.989 165.213C182.878 175.239 172.95 182.257 161.517 182.257C150.586 182.257 141.059 175.84 136.646 166.617L117.793 181.555C126.819 196.093 142.964 205.918 161.517 205.918Z" fill="#FC5A5A"/>
<path d="M150.607 146.916C151.243 146.916 151.815 147.009 152.323 147.194C152.838 147.374 153.277 147.626 153.639 147.953C154.001 148.273 154.278 148.65 154.469 149.085C154.666 149.52 154.764 149.991 154.764 150.496C154.764 150.938 154.713 151.328 154.612 151.667C154.516 152 154.373 152.291 154.183 152.541C153.998 152.79 153.769 153.001 153.496 153.174C153.229 153.347 152.924 153.491 152.581 153.606C153.407 153.868 154.024 154.268 154.43 154.806C154.837 155.343 155.041 156.019 155.041 156.831C155.041 157.522 154.914 158.133 154.659 158.665C154.405 159.196 154.062 159.644 153.63 160.008C153.197 160.367 152.695 160.639 152.123 160.824C151.557 161.01 150.957 161.103 150.321 161.103C149.628 161.103 149.024 161.023 148.509 160.863C147.994 160.703 147.546 160.466 147.165 160.152C146.784 159.839 146.459 159.455 146.192 159C145.925 158.546 145.697 158.021 145.506 157.426L146.545 156.994C146.723 156.918 146.904 156.879 147.089 156.879C147.254 156.879 147.4 156.914 147.527 156.985C147.661 157.055 147.762 157.158 147.832 157.292C147.947 157.516 148.071 157.737 148.204 157.954C148.344 158.172 148.509 158.367 148.7 158.54C148.891 158.706 149.113 158.844 149.367 158.952C149.628 159.055 149.936 159.106 150.292 159.106C150.693 159.106 151.042 159.042 151.341 158.914C151.64 158.78 151.888 158.607 152.085 158.396C152.288 158.185 152.438 157.951 152.533 157.695C152.635 157.433 152.686 157.17 152.686 156.908C152.686 156.575 152.651 156.275 152.581 156.006C152.511 155.731 152.365 155.497 152.142 155.305C151.92 155.113 151.599 154.963 151.179 154.854C150.766 154.745 150.21 154.691 149.51 154.691V153.001C150.089 152.995 150.569 152.941 150.95 152.838C151.332 152.736 151.634 152.595 151.856 152.416C152.085 152.23 152.244 152.01 152.333 151.754C152.422 151.498 152.466 151.216 152.466 150.909C152.466 150.25 152.288 149.754 151.932 149.421C151.576 149.082 151.09 148.912 150.474 148.912C149.914 148.912 149.45 149.063 149.081 149.364C148.713 149.658 148.455 150.039 148.309 150.506C148.233 150.749 148.128 150.925 147.994 151.034C147.861 151.136 147.686 151.187 147.47 151.187C147.368 151.187 147.26 151.178 147.146 151.159L145.906 150.938C146.002 150.272 146.186 149.69 146.459 149.191C146.733 148.685 147.073 148.266 147.48 147.933C147.893 147.594 148.363 147.342 148.891 147.175C149.425 147.002 149.997 146.916 150.607 146.916Z" fill="#787A80"/>
<path d="M161.669 146.916C162.305 146.916 162.877 147.009 163.385 147.194C163.9 147.374 164.339 147.626 164.701 147.953C165.063 148.273 165.34 148.65 165.531 149.085C165.728 149.52 165.826 149.991 165.826 150.496C165.826 150.938 165.775 151.328 165.674 151.667C165.578 152 165.435 152.291 165.244 152.541C165.06 152.79 164.831 153.001 164.558 153.174C164.291 153.347 163.986 153.491 163.643 153.606C164.469 153.868 165.086 154.268 165.492 154.806C165.899 155.343 166.103 156.019 166.103 156.831C166.103 157.522 165.975 158.133 165.721 158.665C165.467 159.196 165.124 159.644 164.691 160.008C164.259 160.367 163.757 160.639 163.185 160.824C162.619 161.01 162.019 161.103 161.383 161.103C160.69 161.103 160.086 161.023 159.571 160.863C159.056 160.703 158.608 160.466 158.227 160.152C157.845 159.839 157.521 159.455 157.254 159C156.987 158.546 156.758 158.021 156.568 157.426L157.607 156.994C157.785 156.918 157.966 156.879 158.151 156.879C158.316 156.879 158.462 156.914 158.589 156.985C158.723 157.055 158.824 157.158 158.894 157.292C159.009 157.516 159.133 157.737 159.266 157.954C159.406 158.172 159.571 158.367 159.762 158.54C159.953 158.706 160.175 158.844 160.429 158.952C160.69 159.055 160.998 159.106 161.354 159.106C161.755 159.106 162.104 159.042 162.403 158.914C162.702 158.78 162.95 158.607 163.147 158.396C163.35 158.185 163.5 157.951 163.595 157.695C163.697 157.433 163.748 157.17 163.748 156.908C163.748 156.575 163.713 156.275 163.643 156.006C163.573 155.731 163.427 155.497 163.204 155.305C162.982 155.113 162.661 154.963 162.241 154.854C161.828 154.745 161.272 154.691 160.572 154.691V153.001C161.151 152.995 161.631 152.941 162.012 152.838C162.394 152.736 162.696 152.595 162.918 152.416C163.147 152.23 163.306 152.01 163.395 151.754C163.484 151.498 163.528 151.216 163.528 150.909C163.528 150.25 163.35 149.754 162.994 149.421C162.638 149.082 162.152 148.912 161.535 148.912C160.976 148.912 160.512 149.063 160.143 149.364C159.775 149.658 159.517 150.039 159.371 150.506C159.295 150.749 159.19 150.925 159.056 151.034C158.923 151.136 158.748 151.187 158.532 151.187C158.43 151.187 158.322 151.178 158.208 151.159L156.968 150.938C157.064 150.272 157.248 149.69 157.521 149.191C157.795 148.685 158.135 148.266 158.541 147.933C158.955 147.594 159.425 147.342 159.953 147.175C160.487 147.002 161.059 146.916 161.669 146.916Z" fill="#787A80"/>
<path d="M173.722 150.429C173.722 150.954 173.633 151.427 173.455 151.85C173.284 152.272 173.052 152.633 172.759 152.934C172.467 153.229 172.127 153.456 171.739 153.616C171.351 153.776 170.948 153.856 170.528 153.856C170.071 153.856 169.648 153.776 169.26 153.616C168.872 153.456 168.536 153.229 168.249 152.934C167.97 152.633 167.75 152.272 167.592 151.85C167.433 151.427 167.353 150.954 167.353 150.429C167.353 149.892 167.433 149.405 167.592 148.97C167.75 148.535 167.97 148.167 168.249 147.866C168.536 147.566 168.872 147.335 169.26 147.175C169.648 147.009 170.071 146.926 170.528 146.926C170.986 146.926 171.409 147.009 171.796 147.175C172.191 147.335 172.531 147.566 172.817 147.866C173.103 148.167 173.325 148.535 173.484 148.97C173.643 149.405 173.722 149.892 173.722 150.429ZM171.901 150.429C171.901 150.058 171.866 149.748 171.796 149.498C171.726 149.248 171.628 149.047 171.501 148.893C171.38 148.74 171.234 148.631 171.062 148.567C170.897 148.497 170.719 148.461 170.528 148.461C170.338 148.461 170.16 148.497 169.994 148.567C169.829 148.631 169.686 148.74 169.565 148.893C169.444 149.047 169.349 149.248 169.279 149.498C169.216 149.748 169.184 150.058 169.184 150.429C169.184 150.787 169.216 151.088 169.279 151.331C169.349 151.568 169.444 151.76 169.565 151.907C169.686 152.054 169.829 152.16 169.994 152.224C170.16 152.288 170.338 152.32 170.528 152.32C170.719 152.32 170.897 152.288 171.062 152.224C171.234 152.16 171.38 152.054 171.501 151.907C171.628 151.76 171.726 151.568 171.796 151.331C171.866 151.088 171.901 150.787 171.901 150.429ZM178.309 147.444C178.385 147.348 178.48 147.262 178.595 147.185C178.709 147.108 178.868 147.07 179.072 147.07H180.778L170.538 160.594C170.462 160.696 170.363 160.783 170.242 160.853C170.128 160.917 169.988 160.949 169.823 160.949H168.068L178.309 147.444ZM181.503 157.685C181.503 158.21 181.414 158.684 181.236 159.106C181.064 159.528 180.832 159.89 180.54 160.191C180.247 160.485 179.907 160.715 179.52 160.882C179.132 161.042 178.728 161.122 178.309 161.122C177.851 161.122 177.428 161.042 177.041 160.882C176.653 160.715 176.316 160.485 176.03 160.191C175.75 159.89 175.531 159.528 175.372 159.106C175.213 158.684 175.134 158.21 175.134 157.685C175.134 157.148 175.213 156.662 175.372 156.227C175.531 155.791 175.75 155.423 176.03 155.123C176.316 154.822 176.653 154.592 177.041 154.432C177.428 154.265 177.851 154.182 178.309 154.182C178.766 154.182 179.189 154.265 179.577 154.432C179.971 154.592 180.311 154.822 180.597 155.123C180.883 155.423 181.106 155.791 181.265 156.227C181.423 156.662 181.503 157.148 181.503 157.685ZM179.691 157.685C179.691 157.314 179.653 157.004 179.577 156.754C179.507 156.505 179.408 156.303 179.281 156.15C179.161 155.996 179.014 155.887 178.843 155.823C178.677 155.753 178.499 155.718 178.309 155.718C178.118 155.718 177.94 155.753 177.775 155.823C177.61 155.887 177.466 155.996 177.346 156.15C177.231 156.303 177.139 156.505 177.069 156.754C176.999 157.004 176.964 157.314 176.964 157.685C176.964 158.044 176.999 158.345 177.069 158.588C177.139 158.831 177.231 159.026 177.346 159.173C177.466 159.32 177.61 159.426 177.775 159.49C177.94 159.554 178.118 159.586 178.309 159.586C178.499 159.586 178.677 159.554 178.843 159.49C179.014 159.426 179.161 159.32 179.281 159.173C179.408 159.026 179.507 158.831 179.577 158.588C179.653 158.345 179.691 158.044 179.691 157.685Z" fill="#787A80"/>
<defs>
<filter id="filter0_dddd_1679_1863" x="0.142578" y="-0.00585938" width="466.922" height="321.945" filterUnits="userSpaceOnUse" color-interpolation-filters="sRGB">
<feFlood flood-opacity="0" result="BackgroundImageFix"/>
<feColorMatrix in="SourceAlpha" type="matrix" values="0 0 0 0 0 0 0 0 0 0 0 0 0 0 0 0 0 0 127 0" result="hardAlpha"/>
<feOffset dy="1"/>
<feGaussianBlur stdDeviation="10"/>
<feColorMatrix type="matrix" values="0 0 0 0 0.117647 0 0 0 0 0.129412 0 0 0 0 0.172549 0 0 0 0.02 0"/>
<feBlend mode="normal" in2="BackgroundImageFix" result="effect1_dropShadow_1679_1863"/>
<feColorMatrix in="SourceAlpha" type="matrix" values="0 0 0 0 0 0 0 0 0 0 0 0 0 0 0 0 0 0 127 0" result="hardAlpha"/>
<feOffset/>
<feGaussianBlur stdDeviation="22"/>
<feColorMatrix type="matrix" values="0 0 0 0 0.117647 0 0 0 0 0.129412 0 0 0 0 0.172549 0 0 0 0.02 0"/>
<feBlend mode="normal" in2="effect1_dropShadow_1679_1863" result="effect2_dropShadow_1679_1863"/>
<feColorMatrix in="SourceAlpha" type="matrix" values="0 0 0 0 0 0 0 0 0 0 0 0 0 0 0 0 0 0 127 0" result="hardAlpha"/>
<feOffset dy="8"/>
<feGaussianBlur stdDeviation="25"/>
<feColorMatrix type="matrix" values="0 0 0 0 0.117647 0 0 0 0 0.129412 0 0 0 0 0.172549 0 0 0 0.0422367 0"/>
<feBlend mode="normal" in2="effect2_dropShadow_1679_1863" result="effect3_dropShadow_1679_1863"/>
<feColorMatrix in="SourceAlpha" type="matrix" values="0 0 0 0 0 0 0 0 0 0 0 0 0 0 0 0 0 0 127 0" result="hardAlpha"/>
<feOffset dy="6"/>
<feGaussianBlur stdDeviation="40"/>
<feColorMatrix type="matrix" values="0 0 0 0 0.117647 0 0 0 0 0.129412 0 0 0 0 0.172549 0 0 0 0.04 0"/>
<feBlend mode="normal" in2="effect3_dropShadow_1679_1863" result="effect4_dropShadow_1679_1863"/>
<feBlend mode="normal" in="SourceGraphic" in2="effect4_dropShadow_1679_1863" result="shape"/>
</filter>
</defs>
</svg>
