<svg width="504" height="248" viewBox="0 0 504 248" fill="none" xmlns="http://www.w3.org/2000/svg">
<g opacity="0.4">
<path d="M327.743 114.719C331.103 111.629 334.614 108.51 338.178 105.346C349.673 95.1365 361.714 84.4437 370.992 72.6367C383.128 57.1919 390.46 39.9302 385.608 19.4896C380.904 -0.330889 365.484 -10.507 347.125 -18.9976C342.539 -21.1189 337.779 -23.1308 332.963 -25.1619L332.619 -25.3068C327.918 -27.2894 323.167 -29.2929 318.492 -31.4313C308.915 -35.8118 299.627 -40.7703 291.668 -47.3159C282.943 -54.491 275.488 -63.8577 268.57 -73.8303C265.109 -78.818 261.778 -83.9639 258.489 -89.0679C258.273 -89.4032 258.057 -89.7382 257.841 -90.073C254.771 -94.8381 251.732 -99.555 248.645 -104.072C235.403 -123.448 221.428 -138.91 200.858 -138.529C178.84 -138.122 158.684 -125.563 143.375 -107.276C128.068 -88.9919 117.656 -65.037 115.112 -41.9676C112.924 -22.134 122.971 -5.68981 136.299 10.4157C140.323 15.2773 144.624 20.0849 148.97 24.9414C151.83 28.1378 154.708 31.3553 157.539 34.6233C164.656 42.8382 171.434 51.3344 176.704 60.4793C181.76 69.2505 185.506 79.1315 188.842 89.1974C190.167 93.1948 191.426 97.2138 192.676 101.206C194.581 107.29 196.466 113.311 198.538 119.097C205.396 138.251 214.182 154.46 231.963 160.827C250.492 167.461 267.472 162.356 283.329 152.355C296.262 144.199 308.385 132.828 319.939 121.991C322.569 119.525 325.169 117.086 327.743 114.719Z" stroke="#00F0B5"/>
<path d="M311.553 90.1769C314.202 87.7407 316.969 85.2836 319.776 82.7907C328.825 74.7539 338.295 66.3439 345.593 57.0558C355.138 44.9092 360.892 31.3504 357.082 15.2995C353.39 -0.254787 341.292 -8.248 326.843 -14.9306C323.233 -16.5999 319.487 -18.1833 315.695 -19.7825L315.426 -19.8961C311.724 -21.4571 307.982 -23.0354 304.299 -24.72C296.755 -28.1704 289.433 -32.0791 283.155 -37.2415C276.274 -42.9002 270.398 -50.2845 264.949 -58.1391C262.223 -62.0678 259.6 -66.1208 257.01 -70.1394C256.84 -70.4034 256.67 -70.6673 256.5 -70.931C254.082 -74.6829 251.69 -78.3953 249.261 -81.9501C238.833 -97.2084 227.86 -109.331 211.727 -109.033C194.433 -108.713 178.59 -98.847 166.549 -84.4635C154.51 -70.083 146.321 -51.2415 144.319 -33.0991C142.602 -17.5285 150.487 -4.6111 160.978 8.06555C164.145 11.8924 167.528 15.6742 170.948 19.4962C173.2 22.013 175.468 24.5473 177.699 27.1233C183.303 33.5929 188.645 40.2884 192.8 47.4975C196.786 54.4129 199.738 62.2008 202.366 70.1281C203.41 73.2792 204.402 76.4448 205.386 79.5881C206.885 84.3764 208.368 89.1128 209.999 93.6672C215.397 108.745 222.301 121.462 236.251 126.457C250.796 131.666 264.129 127.662 276.599 119.798C286.773 113.382 296.309 104.438 305.405 95.9061C307.476 93.9634 309.525 92.0421 311.553 90.1769Z" stroke="#00F0B5"/>
<path d="M299.857 72.4444C301.991 70.481 304.22 68.5018 306.481 66.4942C313.763 60.027 321.375 53.2663 327.243 45.7983C334.915 36.0346 339.529 25.1513 336.472 12.272C333.512 -0.199842 323.813 -6.61586 312.189 -11.9922C309.286 -13.3348 306.272 -14.6086 303.22 -15.8959L303.001 -15.9881C300.023 -17.2441 297.01 -18.5147 294.045 -19.871C287.97 -22.6494 282.068 -25.7995 277.006 -29.9625C271.457 -34.5255 266.722 -40.4776 262.334 -46.8019C260.139 -49.9655 258.027 -53.2289 255.942 -56.4631C255.805 -56.6757 255.668 -56.8883 255.531 -57.1006C253.586 -60.1204 251.661 -63.107 249.707 -65.9667C241.313 -78.2498 232.508 -87.9603 219.582 -87.7212C205.701 -87.4643 192.974 -79.5444 183.293 -67.9812C173.615 -56.421 167.032 -41.2739 165.423 -26.6915C164.046 -14.201 170.369 -3.83174 178.809 6.36746C181.357 9.44665 184.078 12.4873 186.829 15.5618C188.642 17.5877 190.467 19.6283 192.266 21.7044C196.778 26.9129 201.082 32.3074 204.431 38.1178C207.644 43.6924 210.022 49.9679 212.138 56.35C212.98 58.8897 213.778 61.4388 214.57 63.9689C215.776 67.8207 216.968 71.6287 218.28 75.2933C222.625 87.4256 228.168 97.6211 239.349 101.625C251.016 105.802 261.715 102.595 271.738 96.274C279.917 91.1156 287.584 83.9251 294.905 77.0588C296.573 75.4945 298.223 73.9471 299.857 72.4444Z" stroke="#00F0B5"/>
</g>
</svg>
