<svg width="304" height="231" viewBox="0 0 304 231" fill="none" xmlns="http://www.w3.org/2000/svg">
<g filter="url(#filter0_dddd_1679_2227)">
<path d="M80 78.1394C80 75.8533 81.8537 74 84.1403 74H219.737C222.023 74 223.877 75.8533 223.877 78.1394V140.23C223.877 142.516 222.023 144.369 219.737 144.369H84.1403C81.8537 144.369 80 142.516 80 140.23V78.1394Z" fill="white"/>
</g>
<g opacity="0.9">
<path d="M101.804 89.8289C102.533 89.8289 103.137 90.0165 103.618 90.3918C104.098 90.7671 104.415 91.2776 104.57 91.9234H103.344C103.217 91.6088 103.019 91.3604 102.748 91.1783C102.483 90.9962 102.163 90.9051 101.788 90.9051C101.478 90.9051 101.2 90.9824 100.951 91.1369C100.703 91.2914 100.51 91.5122 100.372 91.7992C100.234 92.0862 100.165 92.4229 100.165 92.8092C100.165 93.19 100.234 93.5239 100.372 93.8109C100.51 94.0979 100.703 94.3187 100.951 94.4732C101.2 94.6278 101.478 94.705 101.788 94.705C102.163 94.705 102.483 94.614 102.748 94.4318C103.019 94.2497 103.217 94.0013 103.344 93.6867H104.57C104.415 94.3325 104.098 94.843 103.618 95.2183C103.137 95.5936 102.533 95.7813 101.804 95.7813C101.247 95.7813 100.753 95.6571 100.322 95.4087C99.8969 95.1548 99.5656 94.8016 99.3283 94.349C99.0964 93.8965 98.9805 93.3832 98.9805 92.8092C98.9805 92.2297 99.0964 91.7137 99.3283 91.2611C99.5656 90.8085 99.8969 90.458 100.322 90.2097C100.747 89.9558 101.241 89.8289 101.804 89.8289Z" fill="#1E212C"/>
<path d="M107.731 91.0872C108.179 91.0872 108.579 91.1811 108.932 91.3687C109.291 91.5564 109.572 91.8296 109.777 92.1883C109.981 92.5415 110.083 92.9582 110.083 93.4384C110.083 93.9185 109.981 94.3352 109.777 94.6885C109.572 95.0417 109.291 95.3149 108.932 95.5081C108.579 95.6957 108.179 95.7895 107.731 95.7895C107.284 95.7895 106.881 95.6957 106.522 95.5081C106.169 95.3149 105.89 95.0417 105.686 94.6885C105.482 94.3352 105.38 93.9185 105.38 93.4384C105.38 92.9582 105.482 92.5415 105.686 92.1883C105.89 91.8296 106.169 91.5564 106.522 91.3687C106.881 91.1811 107.284 91.0872 107.731 91.0872ZM107.731 92.0972C107.406 92.0972 107.13 92.2131 106.903 92.4449C106.677 92.6712 106.564 93.0024 106.564 93.4384C106.564 93.8744 106.677 94.2083 106.903 94.4401C107.13 94.6664 107.406 94.7795 107.731 94.7795C108.057 94.7795 108.333 94.6664 108.559 94.4401C108.786 94.2083 108.899 93.8744 108.899 93.4384C108.899 93.0024 108.786 92.6712 108.559 92.4449C108.333 92.2131 108.057 92.0972 107.731 92.0972Z" fill="#1E212C"/>
<path d="M113.807 91.079C114.336 91.079 114.759 91.2528 115.073 91.6005C115.388 91.9482 115.545 92.4367 115.545 93.0658V95.7316H114.386V93.1983C114.386 92.834 114.292 92.5526 114.105 92.3539C113.917 92.1497 113.66 92.0476 113.335 92.0476C113.003 92.0476 112.738 92.1552 112.54 92.3704C112.341 92.5857 112.241 92.8947 112.241 93.2976V95.7316H111.074V91.1452H112.241V92.0641C112.363 91.755 112.562 91.515 112.838 91.3439C113.119 91.1673 113.442 91.079 113.807 91.079Z" fill="#1E212C"/>
<path d="M118.734 94.5643L119.893 91.1452H121.135L119.438 95.7316H118.014L116.316 91.1452H117.566L118.734 94.5643Z" fill="#1E212C"/>
<path d="M126.264 93.2645C126.264 93.3804 126.25 93.5129 126.223 93.6619H122.861C122.877 94.0703 122.988 94.3711 123.192 94.5643C123.396 94.7575 123.65 94.854 123.954 94.854C124.224 94.854 124.448 94.7878 124.625 94.6554C124.807 94.5229 124.923 94.3435 124.972 94.1172H126.206C126.146 94.4373 126.016 94.7243 125.817 94.9782C125.618 95.2321 125.362 95.4308 125.047 95.5743C124.738 95.7178 124.393 95.7895 124.012 95.7895C123.565 95.7895 123.167 95.6957 122.82 95.5081C122.472 95.3149 122.201 95.0417 122.008 94.6885C121.815 94.3352 121.718 93.9185 121.718 93.4384C121.718 92.9582 121.815 92.5415 122.008 92.1883C122.201 91.8296 122.472 91.5564 122.82 91.3687C123.167 91.1811 123.565 91.0872 124.012 91.0872C124.465 91.0872 124.859 91.1811 125.196 91.3687C125.538 91.5564 125.801 91.8158 125.983 92.1469C126.17 92.4725 126.264 92.8451 126.264 93.2645ZM125.088 93.1486C125.105 92.7733 125.006 92.4891 124.79 92.2959C124.581 92.1028 124.321 92.0062 124.012 92.0062C123.697 92.0062 123.432 92.1028 123.217 92.2959C123.002 92.4891 122.883 92.7733 122.861 93.1486H125.088Z" fill="#1E212C"/>
<path d="M128.426 92.0227C128.597 91.7302 128.824 91.5012 129.105 91.3356C129.387 91.1645 129.702 91.079 130.049 91.079V92.329H129.71C128.854 92.329 128.426 92.7264 128.426 93.5212V95.7316H127.259V91.1452H128.426V92.0227Z" fill="#1E212C"/>
<path d="M132.443 91.0872C133 91.0872 133.447 91.228 133.784 91.5094C134.121 91.7909 134.331 92.1662 134.414 92.6353H133.321C133.276 92.4146 133.177 92.238 133.022 92.1055C132.868 91.9731 132.666 91.9068 132.418 91.9068C132.219 91.9068 132.065 91.9537 131.954 92.0476C131.844 92.1414 131.789 92.2683 131.789 92.4284C131.789 92.5553 131.833 92.6574 131.921 92.7347C132.009 92.812 132.12 92.8727 132.252 92.9168C132.385 92.961 132.575 93.0134 132.824 93.0741C133.171 93.1514 133.453 93.2342 133.668 93.3225C133.889 93.4053 134.077 93.5405 134.231 93.7281C134.391 93.9103 134.472 94.1586 134.472 94.4732C134.472 94.8651 134.317 95.1824 134.008 95.4253C133.704 95.6681 133.293 95.7895 132.774 95.7895C132.178 95.7895 131.7 95.6571 131.341 95.3922C130.983 95.1217 130.765 94.7381 130.687 94.2414H131.805C131.833 94.4677 131.932 94.6471 132.103 94.7795C132.274 94.9065 132.498 94.9699 132.774 94.9699C132.973 94.9699 133.125 94.923 133.229 94.8292C133.334 94.7299 133.387 94.6029 133.387 94.4484C133.387 94.3159 133.34 94.2083 133.246 94.1255C133.158 94.0427 133.045 93.9793 132.906 93.9351C132.774 93.891 132.584 93.8385 132.335 93.7778C131.993 93.7005 131.714 93.6233 131.499 93.546C131.289 93.4632 131.107 93.3335 130.952 93.1569C130.803 92.9803 130.729 92.7375 130.729 92.4284C130.729 92.031 130.88 91.7081 131.184 91.4598C131.488 91.2114 131.907 91.0872 132.443 91.0872Z" fill="#1E212C"/>
<path d="M135.374 89.8289C135.374 89.6412 135.441 89.4894 135.573 89.3735C135.705 89.2521 135.879 89.1914 136.095 89.1914C136.31 89.1914 136.484 89.2521 136.616 89.3735C136.749 89.4894 136.815 89.6412 136.815 89.8289C136.815 90.011 136.749 90.1628 136.616 90.2842C136.484 90.4001 136.31 90.458 136.095 90.458C135.879 90.458 135.705 90.4001 135.573 90.2842C135.441 90.1628 135.374 90.011 135.374 89.8289ZM136.674 91.1452V95.7316H135.507V91.1452H136.674Z" fill="#1E212C"/>
<path d="M140.016 91.0872C140.463 91.0872 140.863 91.1811 141.217 91.3687C141.576 91.5564 141.857 91.8296 142.061 92.1883C142.266 92.5415 142.368 92.9582 142.368 93.4384C142.368 93.9185 142.266 94.3352 142.061 94.6885C141.857 95.0417 141.576 95.3149 141.217 95.5081C140.863 95.6957 140.463 95.7895 140.016 95.7895C139.569 95.7895 139.166 95.6957 138.807 95.5081C138.454 95.3149 138.175 95.0417 137.971 94.6885C137.766 94.3352 137.664 93.9185 137.664 93.4384C137.664 92.9582 137.766 92.5415 137.971 92.1883C138.175 91.8296 138.454 91.5564 138.807 91.3687C139.166 91.1811 139.569 91.0872 140.016 91.0872ZM140.016 92.0972C139.69 92.0972 139.414 92.2131 139.188 92.4449C138.962 92.6712 138.848 93.0024 138.848 93.4384C138.848 93.8744 138.962 94.2083 139.188 94.4401C139.414 94.6664 139.69 94.7795 140.016 94.7795C140.342 94.7795 140.618 94.6664 140.844 94.4401C141.07 94.2083 141.184 93.8744 141.184 93.4384C141.184 93.0024 141.07 92.6712 140.844 92.4449C140.618 92.2131 140.342 92.0972 140.016 92.0972Z" fill="#1E212C"/>
<path d="M146.091 91.079C146.621 91.079 147.043 91.2528 147.358 91.6005C147.673 91.9482 147.83 92.4367 147.83 93.0658V95.7316H146.671V93.1983C146.671 92.834 146.577 92.5526 146.389 92.3539C146.202 92.1497 145.945 92.0476 145.619 92.0476C145.288 92.0476 145.023 92.1552 144.824 92.3704C144.625 92.5857 144.526 92.8947 144.526 93.2976V95.7316H143.359V91.1452H144.526V92.0641C144.648 91.755 144.846 91.515 145.122 91.3439C145.404 91.1673 145.727 91.079 146.091 91.079Z" fill="#1E212C"/>
<path d="M153.054 91.0872C153.645 91.0872 154.136 91.2473 154.528 91.5674C154.925 91.8875 155.174 92.3235 155.273 92.8754H154.039C153.99 92.6326 153.876 92.4422 153.7 92.3042C153.523 92.1607 153.3 92.089 153.029 92.089C152.72 92.089 152.46 92.2049 152.251 92.4367C152.046 92.6629 151.944 92.9969 151.944 93.4384C151.944 93.8799 152.046 94.2166 152.251 94.4484C152.46 94.6747 152.72 94.7878 153.029 94.7878C153.3 94.7878 153.523 94.7188 153.7 94.5808C153.876 94.4373 153.99 94.2442 154.039 94.0013H155.273C155.174 94.5532 154.925 94.9893 154.528 95.3094C154.136 95.6295 153.645 95.7895 153.054 95.7895C152.607 95.7895 152.209 95.6957 151.861 95.5081C151.514 95.3149 151.243 95.0417 151.05 94.6885C150.857 94.3352 150.76 93.9185 150.76 93.4384C150.76 92.9582 150.857 92.5415 151.05 92.1883C151.243 91.8296 151.514 91.5564 151.861 91.3687C152.209 91.1811 152.607 91.0872 153.054 91.0872Z" fill="#1E212C"/>
<path d="M158.065 91.0872C158.452 91.0872 158.783 91.1783 159.059 91.3604C159.335 91.5426 159.531 91.7882 159.647 92.0972V91.1452H160.806V95.7316H159.647V94.7713C159.531 95.0803 159.335 95.3287 159.059 95.5163C158.783 95.6985 158.452 95.7895 158.065 95.7895C157.679 95.7895 157.331 95.6957 157.022 95.5081C156.713 95.3204 156.47 95.05 156.293 94.6967C156.122 94.338 156.036 93.9185 156.036 93.4384C156.036 92.9582 156.122 92.5415 156.293 92.1883C156.47 91.8296 156.713 91.5564 157.022 91.3687C157.331 91.1811 157.679 91.0872 158.065 91.0872ZM158.43 92.1055C158.065 92.1055 157.773 92.2242 157.552 92.4615C157.331 92.6988 157.221 93.0244 157.221 93.4384C157.221 93.8523 157.331 94.1779 157.552 94.4153C157.773 94.6471 158.065 94.763 158.43 94.763C158.783 94.763 159.073 94.6443 159.299 94.407C159.531 94.1641 159.647 93.8413 159.647 93.4384C159.647 93.03 159.531 92.7071 159.299 92.4698C159.073 92.2269 158.783 92.1055 158.43 92.1055Z" fill="#1E212C"/>
<path d="M167.868 91.079C168.425 91.079 168.864 91.2528 169.184 91.6005C169.51 91.9427 169.673 92.4311 169.673 93.0658V95.7316H168.514V93.1983C168.514 92.8451 168.423 92.5746 168.24 92.387C168.064 92.1938 167.818 92.0972 167.503 92.0972C167.178 92.0972 166.918 92.1993 166.725 92.4035C166.532 92.6078 166.435 92.9058 166.435 93.2976V95.7316H165.276V93.1983C165.276 92.8451 165.185 92.5746 165.003 92.387C164.826 92.1938 164.58 92.0972 164.266 92.0972C163.94 92.0972 163.68 92.1993 163.487 92.4035C163.294 92.6078 163.197 92.9058 163.197 93.2976V95.7316H162.03V91.1452H163.197V92.0144C163.319 91.7164 163.509 91.4874 163.769 91.3273C164.034 91.1617 164.34 91.079 164.688 91.079C165.058 91.079 165.378 91.1673 165.649 91.3439C165.925 91.5205 166.132 91.7744 166.27 92.1055C166.413 91.7909 166.626 91.5426 166.907 91.3604C167.194 91.1728 167.514 91.079 167.868 91.079Z" fill="#1E212C"/>
<path d="M175.179 93.2645C175.179 93.3804 175.165 93.5129 175.137 93.6619H171.775C171.792 94.0703 171.902 94.3711 172.106 94.5643C172.311 94.7575 172.565 94.854 172.868 94.854C173.139 94.854 173.362 94.7878 173.539 94.6554C173.721 94.5229 173.837 94.3435 173.887 94.1172H175.121C175.06 94.4373 174.93 94.7243 174.731 94.9782C174.533 95.2321 174.276 95.4308 173.961 95.5743C173.652 95.7178 173.307 95.7895 172.926 95.7895C172.479 95.7895 172.082 95.6957 171.734 95.5081C171.386 95.3149 171.115 95.0417 170.922 94.6885C170.729 94.3352 170.632 93.9185 170.632 93.4384C170.632 92.9582 170.729 92.5415 170.922 92.1883C171.115 91.8296 171.386 91.5564 171.734 91.3687C172.082 91.1811 172.479 91.0872 172.926 91.0872C173.379 91.0872 173.774 91.1811 174.11 91.3687C174.453 91.5564 174.715 91.8158 174.897 92.1469C175.085 92.4725 175.179 92.8451 175.179 93.2645ZM174.003 93.1486C174.019 92.7733 173.92 92.4891 173.705 92.2959C173.495 92.1028 173.235 92.0062 172.926 92.0062C172.612 92.0062 172.347 92.1028 172.131 92.2959C171.916 92.4891 171.797 92.7733 171.775 93.1486H174.003Z" fill="#1E212C"/>
<path d="M180.411 90.3504C180.069 90.3283 179.828 90.378 179.69 90.4994C179.552 90.6209 179.483 90.8333 179.483 91.1369V91.1452H180.411V92.1303H179.483V95.7316H178.316V92.1303H177.728V91.1452H178.316V91.0376C178.316 90.4912 178.47 90.0717 178.78 89.7792C179.094 89.4812 179.558 89.3321 180.171 89.3321C180.276 89.3321 180.356 89.3349 180.411 89.3404V90.3504Z" fill="#1E212C"/>
<path d="M182.443 92.0227C182.614 91.7302 182.84 91.5012 183.122 91.3356C183.403 91.1645 183.718 91.079 184.066 91.079V92.329H183.726C182.871 92.329 182.443 92.7264 182.443 93.5212V95.7316H181.275V91.1452H182.443V92.0227Z" fill="#1E212C"/>
<path d="M186.998 91.0872C187.445 91.0872 187.845 91.1811 188.198 91.3687C188.557 91.5564 188.839 91.8296 189.043 92.1883C189.247 92.5415 189.349 92.9582 189.349 93.4384C189.349 93.9185 189.247 94.3352 189.043 94.6885C188.839 95.0417 188.557 95.3149 188.198 95.5081C187.845 95.6957 187.445 95.7895 186.998 95.7895C186.55 95.7895 186.147 95.6957 185.789 95.5081C185.435 95.3149 185.157 95.0417 184.952 94.6885C184.748 94.3352 184.646 93.9185 184.646 93.4384C184.646 92.9582 184.748 92.5415 184.952 92.1883C185.157 91.8296 185.435 91.5564 185.789 91.3687C186.147 91.1811 186.55 91.0872 186.998 91.0872ZM186.998 92.0972C186.672 92.0972 186.396 92.2131 186.17 92.4449C185.943 92.6712 185.83 93.0024 185.83 93.4384C185.83 93.8744 185.943 94.2083 186.17 94.4401C186.396 94.6664 186.672 94.7795 186.998 94.7795C187.323 94.7795 187.599 94.6664 187.826 94.4401C188.052 94.2083 188.165 93.8744 188.165 93.4384C188.165 93.0024 188.052 92.6712 187.826 92.4449C187.599 92.2131 187.323 92.0972 186.998 92.0972Z" fill="#1E212C"/>
<path d="M196.178 91.079C196.736 91.079 197.174 91.2528 197.495 91.6005C197.82 91.9427 197.983 92.4311 197.983 93.0658V95.7316H196.824V93.1983C196.824 92.8451 196.733 92.5746 196.551 92.387C196.374 92.1938 196.128 92.0972 195.814 92.0972C195.488 92.0972 195.228 92.1993 195.035 92.4035C194.842 92.6078 194.745 92.9058 194.745 93.2976V95.7316H193.586V93.1983C193.586 92.8451 193.495 92.5746 193.313 92.387C193.136 92.1938 192.891 92.0972 192.576 92.0972C192.25 92.0972 191.991 92.1993 191.797 92.4035C191.604 92.6078 191.508 92.9058 191.508 93.2976V95.7316H190.34V91.1452H191.508V92.0144C191.629 91.7164 191.82 91.4874 192.079 91.3273C192.344 91.1617 192.65 91.079 192.998 91.079C193.368 91.079 193.688 91.1673 193.959 91.3439C194.235 91.5205 194.442 91.7744 194.58 92.1055C194.723 91.7909 194.936 91.5426 195.217 91.3604C195.504 91.1728 195.825 91.079 196.178 91.079Z" fill="#1E212C"/>
<path d="M200.143 94.5146V95.7316H198.885V94.5146H200.143Z" fill="#1E212C"/>
<path d="M202.056 94.5146V95.7316H200.797V94.5146H202.056Z" fill="#1E212C"/>
<path d="M203.968 94.5146V95.7316H202.709V94.5146H203.968Z" fill="#1E212C"/>
</g>
<g opacity="0.9">
<path d="M101.888 110.535C102.567 110.535 103.135 110.703 103.593 111.04C104.057 111.376 104.369 111.834 104.529 112.414H103.734C103.596 112.061 103.364 111.776 103.039 111.561C102.718 111.346 102.338 111.238 101.896 111.238C101.498 111.238 101.142 111.332 100.828 111.52C100.513 111.702 100.265 111.964 100.082 112.306C99.9058 112.648 99.8174 113.051 99.8174 113.515C99.8174 113.99 99.9085 114.401 100.091 114.748C100.273 115.091 100.524 115.356 100.844 115.543C101.17 115.725 101.543 115.816 101.962 115.816C102.321 115.816 102.649 115.739 102.948 115.585C103.246 115.43 103.489 115.206 103.676 114.914C103.869 114.616 103.985 114.268 104.024 113.871H101.73V113.308H104.662V114.003C104.612 114.467 104.468 114.886 104.231 115.262C103.994 115.637 103.673 115.935 103.27 116.156C102.867 116.377 102.409 116.487 101.896 116.487C101.333 116.487 100.836 116.363 100.405 116.114C99.9748 115.861 99.638 115.51 99.3951 115.063C99.1578 114.61 99.0391 114.094 99.0391 113.515C99.0391 112.935 99.1578 112.422 99.3951 111.975C99.638 111.522 99.9748 111.169 100.405 110.915C100.836 110.661 101.33 110.535 101.888 110.535Z" fill="#787A80"/>
<path d="M107.91 111.826C108.346 111.826 108.736 111.92 109.078 112.107C109.426 112.295 109.696 112.566 109.889 112.919C110.088 113.272 110.188 113.686 110.188 114.161C110.188 114.635 110.088 115.049 109.889 115.402C109.696 115.75 109.426 116.018 109.078 116.205C108.736 116.393 108.346 116.487 107.91 116.487C107.474 116.487 107.082 116.393 106.734 116.205C106.392 116.018 106.122 115.75 105.923 115.402C105.724 115.049 105.625 114.635 105.625 114.161C105.625 113.686 105.724 113.272 105.923 112.919C106.122 112.566 106.392 112.295 106.734 112.107C107.082 111.92 107.474 111.826 107.91 111.826ZM107.91 112.488C107.64 112.488 107.389 112.549 107.157 112.67C106.93 112.792 106.746 112.98 106.602 113.233C106.464 113.482 106.395 113.791 106.395 114.161C106.395 114.525 106.464 114.834 106.602 115.088C106.746 115.336 106.93 115.521 107.157 115.642C107.389 115.764 107.64 115.825 107.91 115.825C108.181 115.825 108.429 115.764 108.656 115.642C108.887 115.521 109.072 115.336 109.21 115.088C109.354 114.834 109.426 114.525 109.426 114.161C109.426 113.791 109.354 113.482 109.21 113.233C109.072 112.98 108.887 112.792 108.656 112.67C108.429 112.549 108.181 112.488 107.91 112.488Z" fill="#787A80"/>
<path d="M113.397 111.826C113.833 111.826 114.222 111.92 114.565 112.107C114.912 112.295 115.183 112.566 115.376 112.919C115.575 113.272 115.674 113.686 115.674 114.161C115.674 114.635 115.575 115.049 115.376 115.402C115.183 115.75 114.912 116.018 114.565 116.205C114.222 116.393 113.833 116.487 113.397 116.487C112.961 116.487 112.569 116.393 112.221 116.205C111.879 116.018 111.608 115.75 111.41 115.402C111.211 115.049 111.111 114.635 111.111 114.161C111.111 113.686 111.211 113.272 111.41 112.919C111.608 112.566 111.879 112.295 112.221 112.107C112.569 111.92 112.961 111.826 113.397 111.826ZM113.397 112.488C113.126 112.488 112.875 112.549 112.643 112.67C112.417 112.792 112.232 112.98 112.089 113.233C111.951 113.482 111.882 113.791 111.882 114.161C111.882 114.525 111.951 114.834 112.089 115.088C112.232 115.336 112.417 115.521 112.643 115.642C112.875 115.764 113.126 115.825 113.397 115.825C113.667 115.825 113.916 115.764 114.142 115.642C114.374 115.521 114.559 115.336 114.697 115.088C114.841 114.834 114.912 114.525 114.912 114.161C114.912 113.791 114.841 113.482 114.697 113.233C114.559 112.98 114.374 112.792 114.142 112.67C113.916 112.549 113.667 112.488 113.397 112.488Z" fill="#787A80"/>
<path d="M118.685 111.826C119.126 111.826 119.499 111.936 119.803 112.157C120.112 112.378 120.327 112.673 120.449 113.043V111.884H121.202V116.503C121.202 116.923 121.114 117.295 120.937 117.621C120.76 117.947 120.512 118.201 120.192 118.383C119.872 118.565 119.499 118.656 119.074 118.656C118.461 118.656 117.962 118.507 117.575 118.209C117.189 117.916 116.943 117.519 116.838 117.017H117.583C117.672 117.32 117.837 117.558 118.08 117.729C118.329 117.905 118.646 117.994 119.033 117.994C119.441 117.994 119.778 117.861 120.043 117.596C120.313 117.337 120.449 116.973 120.449 116.503V115.27C120.327 115.64 120.112 115.935 119.803 116.156C119.499 116.377 119.126 116.487 118.685 116.487C118.282 116.487 117.923 116.393 117.608 116.205C117.294 116.018 117.045 115.75 116.863 115.402C116.686 115.049 116.598 114.635 116.598 114.161C116.598 113.686 116.686 113.272 116.863 112.919C117.045 112.566 117.294 112.295 117.608 112.107C117.923 111.92 118.282 111.826 118.685 111.826ZM118.9 112.497C118.436 112.497 118.064 112.646 117.782 112.944C117.506 113.236 117.368 113.642 117.368 114.161C117.368 114.679 117.506 115.088 117.782 115.386C118.064 115.678 118.436 115.825 118.9 115.825C119.198 115.825 119.463 115.756 119.695 115.618C119.932 115.48 120.117 115.287 120.25 115.038C120.382 114.784 120.449 114.492 120.449 114.161C120.449 113.829 120.382 113.537 120.25 113.283C120.117 113.029 119.932 112.836 119.695 112.704C119.463 112.566 119.198 112.497 118.9 112.497Z" fill="#787A80"/>
<path d="M123.321 110.303V116.429H122.567V110.303H123.321Z" fill="#787A80"/>
<path d="M128.879 113.904C128.879 114.064 128.868 114.202 128.846 114.318H125.211C125.228 114.837 125.374 115.226 125.65 115.485C125.931 115.745 126.274 115.874 126.677 115.874C127.041 115.874 127.345 115.783 127.588 115.601C127.836 115.413 127.988 115.165 128.043 114.856H128.846C128.791 115.171 128.667 115.452 128.474 115.7C128.286 115.949 128.04 116.142 127.737 116.28C127.433 116.418 127.091 116.487 126.71 116.487C126.274 116.487 125.887 116.393 125.551 116.205C125.214 116.018 124.949 115.75 124.756 115.402C124.568 115.049 124.474 114.635 124.474 114.161C124.474 113.686 124.568 113.272 124.756 112.919C124.949 112.566 125.214 112.295 125.551 112.107C125.887 111.92 126.274 111.826 126.71 111.826C127.152 111.826 127.535 111.92 127.861 112.107C128.192 112.295 128.443 112.546 128.614 112.861C128.791 113.175 128.879 113.523 128.879 113.904ZM128.118 113.954C128.134 113.617 128.079 113.335 127.952 113.109C127.825 112.883 127.651 112.715 127.43 112.604C127.209 112.494 126.969 112.439 126.71 112.439C126.296 112.439 125.948 112.568 125.667 112.828C125.385 113.082 125.233 113.457 125.211 113.954H128.118Z" fill="#787A80"/>
<path d="M135.662 115.08H133.095L132.607 116.429H131.795L133.956 110.7H134.809L136.962 116.429H136.151L135.662 115.08ZM135.447 114.492L134.379 111.545L133.31 114.492H135.447Z" fill="#787A80"/>
<path d="M139.754 111.826C140.195 111.826 140.568 111.936 140.872 112.157C141.181 112.378 141.396 112.673 141.517 113.043V110.303H142.271V116.429H141.517V115.27C141.396 115.64 141.181 115.935 140.872 116.156C140.568 116.377 140.195 116.487 139.754 116.487C139.351 116.487 138.992 116.393 138.677 116.205C138.362 116.018 138.114 115.75 137.932 115.402C137.755 115.049 137.667 114.635 137.667 114.161C137.667 113.686 137.755 113.272 137.932 112.919C138.114 112.566 138.362 112.295 138.677 112.107C138.992 111.92 139.351 111.826 139.754 111.826ZM139.969 112.497C139.505 112.497 139.133 112.646 138.851 112.944C138.575 113.236 138.437 113.642 138.437 114.161C138.437 114.679 138.575 115.088 138.851 115.386C139.133 115.678 139.505 115.825 139.969 115.825C140.267 115.825 140.532 115.756 140.764 115.618C141.001 115.48 141.186 115.287 141.319 115.038C141.451 114.784 141.517 114.492 141.517 114.161C141.517 113.829 141.451 113.537 141.319 113.283C141.186 113.029 141.001 112.836 140.764 112.704C140.532 112.566 140.267 112.497 139.969 112.497Z" fill="#787A80"/>
<path d="M145.06 111.826C145.574 111.826 145.985 111.961 146.294 112.232C146.609 112.497 146.799 112.855 146.865 113.308H146.145C146.112 113.037 145.999 112.817 145.805 112.646C145.618 112.469 145.364 112.381 145.044 112.381C144.773 112.381 144.561 112.447 144.406 112.579C144.257 112.706 144.182 112.88 144.182 113.101C144.182 113.267 144.232 113.402 144.331 113.507C144.436 113.606 144.563 113.683 144.712 113.738C144.867 113.788 145.077 113.843 145.342 113.904C145.678 113.981 145.949 114.061 146.153 114.144C146.363 114.221 146.54 114.348 146.683 114.525C146.832 114.701 146.907 114.939 146.907 115.237C146.907 115.607 146.766 115.907 146.484 116.139C146.208 116.371 145.839 116.487 145.375 116.487C144.834 116.487 144.392 116.357 144.05 116.098C143.708 115.838 143.506 115.477 143.445 115.013H144.174C144.202 115.289 144.32 115.513 144.53 115.684C144.745 115.855 145.027 115.941 145.375 115.941C145.634 115.941 145.836 115.874 145.979 115.742C146.128 115.609 146.203 115.436 146.203 115.22C146.203 115.044 146.15 114.903 146.046 114.798C145.941 114.693 145.811 114.613 145.656 114.558C145.502 114.503 145.289 114.445 145.019 114.384C144.682 114.307 144.411 114.23 144.207 114.152C144.008 114.075 143.837 113.954 143.694 113.788C143.556 113.617 143.487 113.388 143.487 113.101C143.487 112.72 143.628 112.414 143.909 112.182C144.191 111.945 144.574 111.826 145.06 111.826Z" fill="#787A80"/>
<path d="M99.1053 125.892C99.1053 126.83 99.2599 127.561 99.569 128.085C99.8782 128.61 100.414 128.872 101.175 128.872C101.937 128.872 102.473 128.61 102.782 128.085C103.097 127.561 103.254 126.83 103.254 125.892C103.254 124.964 103.097 124.239 102.782 123.714C102.473 123.19 101.937 122.928 101.175 122.928C100.414 122.928 99.8782 123.19 99.569 123.714C99.2599 124.233 99.1053 124.959 99.1053 125.892ZM102.509 125.892C102.509 126.372 102.473 126.775 102.401 127.1C102.335 127.42 102.205 127.677 102.012 127.87C101.819 128.063 101.54 128.16 101.175 128.16C100.817 128.16 100.541 128.063 100.347 127.87C100.154 127.677 100.022 127.42 99.9499 127.1C99.8837 126.775 99.8506 126.372 99.8506 125.892C99.8506 125.417 99.8837 125.02 99.9499 124.699C100.022 124.379 100.154 124.125 100.347 123.938C100.541 123.745 100.817 123.648 101.175 123.648C101.54 123.648 101.819 123.745 102.012 123.938C102.205 124.125 102.335 124.379 102.401 124.699C102.473 125.02 102.509 125.417 102.509 125.892Z" fill="#787A80"/>
<path d="M104.233 128.268C105.172 127.638 105.922 127.015 106.486 126.397C107.049 125.773 107.33 125.193 107.33 124.658C107.33 124.327 107.245 124.062 107.073 123.863C106.908 123.659 106.637 123.557 106.262 123.557C105.876 123.557 105.583 123.681 105.384 123.929C105.185 124.172 105.075 124.509 105.053 124.939H104.308C104.346 124.288 104.548 123.789 104.912 123.441C105.277 123.088 105.746 122.911 106.32 122.911C106.866 122.911 107.3 123.057 107.62 123.35C107.94 123.642 108.1 124.056 108.1 124.592C108.1 125.033 107.957 125.483 107.67 125.941C107.388 126.394 107.032 126.816 106.601 127.208C106.176 127.594 105.738 127.923 105.285 128.193H108.249V128.814H104.233V128.268Z" fill="#787A80"/>
<path d="M109.909 127.961V128.847H108.998V127.961H109.909Z" fill="#787A80"/>
<path d="M110.678 128.268C111.616 127.638 112.367 127.015 112.93 126.397C113.493 125.773 113.775 125.193 113.775 124.658C113.775 124.327 113.689 124.062 113.518 123.863C113.353 123.659 113.082 123.557 112.707 123.557C112.32 123.557 112.028 123.681 111.829 123.929C111.63 124.172 111.52 124.509 111.498 124.939H110.752C110.791 124.288 110.993 123.789 111.357 123.441C111.721 123.088 112.19 122.911 112.765 122.911C113.311 122.911 113.745 123.057 114.065 123.35C114.385 123.642 114.545 124.056 114.545 124.592C114.545 125.033 114.401 125.483 114.114 125.941C113.833 126.394 113.477 126.816 113.046 127.208C112.621 127.594 112.182 127.923 111.73 128.193H114.694V128.814H110.678V128.268Z" fill="#787A80"/>
<path d="M116.519 127.208C116.569 127.556 116.69 127.823 116.883 128.011C117.077 128.199 117.341 128.292 117.678 128.292C118.142 128.292 118.493 128.113 118.73 127.754C118.967 127.395 119.086 126.827 119.086 126.049C119.086 125.9 119.083 125.787 119.078 125.709C119 126.041 118.813 126.305 118.515 126.504C118.216 126.703 117.866 126.802 117.463 126.802C116.883 126.802 116.428 126.628 116.097 126.281C115.765 125.933 115.6 125.447 115.6 124.824C115.6 124.459 115.672 124.128 115.815 123.83C115.959 123.532 116.177 123.298 116.469 123.126C116.767 122.95 117.134 122.862 117.571 122.862C118.41 122.862 118.984 123.121 119.293 123.64C119.608 124.153 119.765 124.859 119.765 125.759C119.765 126.786 119.605 127.569 119.285 128.11C118.965 128.646 118.429 128.913 117.678 128.913C117.121 128.913 116.682 128.756 116.362 128.441C116.047 128.121 115.862 127.71 115.807 127.208H116.519ZM119.003 124.939C119.003 124.542 118.884 124.205 118.647 123.929C118.415 123.654 118.065 123.516 117.595 123.516C117.209 123.516 116.9 123.631 116.668 123.863C116.436 124.095 116.32 124.418 116.32 124.832C116.32 125.273 116.436 125.613 116.668 125.85C116.9 126.087 117.217 126.206 117.62 126.206C117.852 126.206 118.073 126.159 118.283 126.065C118.498 125.972 118.672 125.828 118.804 125.635C118.937 125.442 119.003 125.21 119.003 124.939Z" fill="#787A80"/>
<path d="M121.557 127.961V128.847H120.646V127.961H121.557Z" fill="#787A80"/>
<path d="M122.326 128.268C123.265 127.638 124.015 127.015 124.579 126.397C125.142 125.773 125.423 125.193 125.423 124.658C125.423 124.327 125.338 124.062 125.166 123.863C125.001 123.659 124.73 123.557 124.355 123.557C123.968 123.557 123.676 123.681 123.477 123.929C123.278 124.172 123.168 124.509 123.146 124.939H122.401C122.439 124.288 122.641 123.789 123.005 123.441C123.37 123.088 123.839 122.911 124.413 122.911C124.959 122.911 125.393 123.057 125.713 123.35C126.033 123.642 126.193 124.056 126.193 124.592C126.193 125.033 126.05 125.483 125.763 125.941C125.481 126.394 125.125 126.816 124.694 127.208C124.269 127.594 123.83 127.923 123.378 128.193H126.342V128.814H122.326V128.268Z" fill="#787A80"/>
<path d="M127.314 125.892C127.314 126.83 127.469 127.561 127.778 128.085C128.087 128.61 128.623 128.872 129.384 128.872C130.146 128.872 130.682 128.61 130.991 128.085C131.306 127.561 131.463 126.83 131.463 125.892C131.463 124.964 131.306 124.239 130.991 123.714C130.682 123.19 130.146 122.928 129.384 122.928C128.623 122.928 128.087 123.19 127.778 123.714C127.469 124.233 127.314 124.959 127.314 125.892ZM130.718 125.892C130.718 126.372 130.682 126.775 130.61 127.1C130.544 127.42 130.414 127.677 130.221 127.87C130.028 128.063 129.749 128.16 129.384 128.16C129.026 128.16 128.75 128.063 128.556 127.87C128.363 127.677 128.231 127.42 128.159 127.1C128.093 126.775 128.06 126.372 128.06 125.892C128.06 125.417 128.093 125.02 128.159 124.699C128.231 124.379 128.363 124.125 128.556 123.938C128.75 123.745 129.026 123.648 129.384 123.648C129.749 123.648 130.028 123.745 130.221 123.938C130.414 124.125 130.544 124.379 130.61 124.699C130.682 125.02 130.718 125.417 130.718 125.892Z" fill="#787A80"/>
<path d="M132.442 128.268C133.381 127.638 134.131 127.015 134.695 126.397C135.258 125.773 135.539 125.193 135.539 124.658C135.539 124.327 135.454 124.062 135.282 123.863C135.117 123.659 134.846 123.557 134.471 123.557C134.085 123.557 133.792 123.681 133.593 123.929C133.394 124.172 133.284 124.509 133.262 124.939H132.517C132.555 124.288 132.757 123.789 133.121 123.441C133.486 123.088 133.955 122.911 134.529 122.911C135.075 122.911 135.509 123.057 135.829 123.35C136.149 123.642 136.309 124.056 136.309 124.592C136.309 125.033 136.166 125.483 135.879 125.941C135.597 126.394 135.241 126.816 134.81 127.208C134.385 127.594 133.947 127.923 133.494 128.193H136.458V128.814H132.442V128.268Z" fill="#787A80"/>
<path d="M137.43 125.892C137.43 126.83 137.585 127.561 137.894 128.085C138.203 128.61 138.739 128.872 139.5 128.872C140.262 128.872 140.798 128.61 141.107 128.085C141.422 127.561 141.579 126.83 141.579 125.892C141.579 124.964 141.422 124.239 141.107 123.714C140.798 123.19 140.262 122.928 139.5 122.928C138.739 122.928 138.203 123.19 137.894 123.714C137.585 124.233 137.43 124.959 137.43 125.892ZM140.834 125.892C140.834 126.372 140.798 126.775 140.726 127.1C140.66 127.42 140.53 127.677 140.337 127.87C140.144 128.063 139.865 128.16 139.5 128.16C139.142 128.16 138.866 128.063 138.672 127.87C138.479 127.677 138.347 127.42 138.275 127.1C138.209 126.775 138.176 126.372 138.176 125.892C138.176 125.417 138.209 125.02 138.275 124.699C138.347 124.379 138.479 124.125 138.672 123.938C138.866 123.745 139.142 123.648 139.5 123.648C139.865 123.648 140.144 123.745 140.337 123.938C140.53 124.125 140.66 124.379 140.726 124.699C140.798 125.02 140.834 125.417 140.834 125.892Z" fill="#787A80"/>
<path d="M143.254 128.292C143.331 128.535 143.37 128.761 143.37 128.971C143.37 129.258 143.298 129.487 143.154 129.658C143.011 129.835 142.796 129.923 142.509 129.923V129.6C142.647 129.6 142.746 129.562 142.807 129.484C142.873 129.413 142.906 129.297 142.906 129.137V129.062H142.484V128.292H143.254Z" fill="#787A80"/>
<path d="M146.507 125.892C146.507 126.83 146.662 127.561 146.971 128.085C147.28 128.61 147.815 128.872 148.577 128.872C149.339 128.872 149.875 128.61 150.184 128.085C150.498 127.561 150.656 126.83 150.656 125.892C150.656 124.964 150.498 124.239 150.184 123.714C149.875 123.19 149.339 122.928 148.577 122.928C147.815 122.928 147.28 123.19 146.971 123.714C146.662 124.233 146.507 124.959 146.507 125.892ZM149.91 125.892C149.91 126.372 149.875 126.775 149.803 127.1C149.737 127.42 149.607 127.677 149.414 127.87C149.22 128.063 148.942 128.16 148.577 128.16C148.218 128.16 147.942 128.063 147.749 127.87C147.556 127.677 147.423 127.42 147.352 127.1C147.285 126.775 147.252 126.372 147.252 125.892C147.252 125.417 147.285 125.02 147.352 124.699C147.423 124.379 147.556 124.125 147.749 123.938C147.942 123.745 148.218 123.648 148.577 123.648C148.942 123.648 149.22 123.745 149.414 123.938C149.607 124.125 149.737 124.379 149.803 124.699C149.875 125.02 149.91 125.417 149.91 125.892Z" fill="#787A80"/>
<path d="M155.229 123.557L153.018 128.847H152.223L154.467 123.631H151.403V122.977H155.229V123.557Z" fill="#787A80"/>
<path d="M156.9 124.385V125.271H155.989V124.385H156.9ZM156.9 127.961V128.847H155.989V127.961H156.9Z" fill="#787A80"/>
<path d="M157.864 125.892C157.864 126.83 158.019 127.561 158.328 128.085C158.637 128.61 159.173 128.872 159.934 128.872C160.696 128.872 161.232 128.61 161.541 128.085C161.856 127.561 162.013 126.83 162.013 125.892C162.013 124.964 161.856 124.239 161.541 123.714C161.232 123.19 160.696 122.928 159.934 122.928C159.173 122.928 158.637 123.19 158.328 123.714C158.019 124.233 157.864 124.959 157.864 125.892ZM161.268 125.892C161.268 126.372 161.232 126.775 161.16 127.1C161.094 127.42 160.964 127.677 160.771 127.87C160.578 128.063 160.299 128.16 159.934 128.16C159.576 128.16 159.3 128.063 159.106 127.87C158.913 127.677 158.781 127.42 158.709 127.1C158.643 126.775 158.609 126.372 158.609 125.892C158.609 125.417 158.643 125.02 158.709 124.699C158.781 124.379 158.913 124.125 159.106 123.938C159.3 123.745 159.576 123.648 159.934 123.648C160.299 123.648 160.578 123.745 160.771 123.938C160.964 124.125 161.094 124.379 161.16 124.699C161.232 125.02 161.268 125.417 161.268 125.892Z" fill="#787A80"/>
<path d="M163.969 127.208C164.019 127.556 164.14 127.823 164.334 128.011C164.527 128.199 164.792 128.292 165.129 128.292C165.592 128.292 165.943 128.113 166.18 127.754C166.418 127.395 166.536 126.827 166.536 126.049C166.536 125.9 166.533 125.787 166.528 125.709C166.451 126.041 166.263 126.305 165.965 126.504C165.667 126.703 165.316 126.802 164.913 126.802C164.334 126.802 163.878 126.628 163.547 126.281C163.216 125.933 163.05 125.447 163.05 124.824C163.05 124.459 163.122 124.128 163.265 123.83C163.409 123.532 163.627 123.298 163.92 123.126C164.218 122.95 164.585 122.862 165.021 122.862C165.86 122.862 166.434 123.121 166.743 123.64C167.058 124.153 167.215 124.859 167.215 125.759C167.215 126.786 167.055 127.569 166.735 128.11C166.415 128.646 165.879 128.913 165.129 128.913C164.571 128.913 164.132 128.756 163.812 128.441C163.497 128.121 163.312 127.71 163.257 127.208H163.969ZM166.453 124.939C166.453 124.542 166.335 124.205 166.097 123.929C165.865 123.654 165.515 123.516 165.046 123.516C164.659 123.516 164.35 123.631 164.118 123.863C163.886 124.095 163.77 124.418 163.77 124.832C163.77 125.273 163.886 125.613 164.118 125.85C164.35 126.087 164.668 126.206 165.071 126.206C165.302 126.206 165.523 126.159 165.733 126.065C165.948 125.972 166.122 125.828 166.255 125.635C166.387 125.442 166.453 125.21 166.453 124.939Z" fill="#787A80"/>
<path d="M172.527 124.244C172.969 124.244 173.341 124.354 173.645 124.575C173.954 124.796 174.169 125.091 174.291 125.461V124.302H175.044V128.847H174.291V127.688C174.169 128.058 173.954 128.353 173.645 128.574C173.341 128.795 172.969 128.905 172.527 128.905C172.124 128.905 171.765 128.811 171.451 128.624C171.136 128.436 170.887 128.168 170.705 127.82C170.529 127.467 170.44 127.053 170.44 126.579C170.44 126.104 170.529 125.69 170.705 125.337C170.887 124.984 171.136 124.713 171.451 124.526C171.765 124.338 172.124 124.244 172.527 124.244ZM172.742 124.915C172.279 124.915 171.906 125.064 171.624 125.362C171.348 125.654 171.21 126.06 171.21 126.579C171.21 127.097 171.348 127.506 171.624 127.804C171.906 128.096 172.279 128.243 172.742 128.243C173.04 128.243 173.305 128.174 173.537 128.036C173.775 127.898 173.96 127.705 174.092 127.456C174.225 127.202 174.291 126.91 174.291 126.579C174.291 126.248 174.225 125.955 174.092 125.701C173.96 125.447 173.775 125.254 173.537 125.122C173.305 124.984 173.04 124.915 172.742 124.915Z" fill="#787A80"/>
<path d="M181.999 124.228C182.529 124.228 182.954 124.399 183.274 124.741C183.6 125.077 183.763 125.566 183.763 126.206V128.847H183.009V126.272C183.009 125.825 182.899 125.483 182.678 125.246C182.462 125.008 182.164 124.89 181.783 124.89C181.386 124.89 181.066 125.022 180.823 125.287C180.585 125.547 180.467 125.93 180.467 126.438V128.847H179.713V126.272C179.713 125.825 179.603 125.483 179.382 125.246C179.161 125.008 178.863 124.89 178.488 124.89C178.085 124.89 177.762 125.022 177.519 125.287C177.281 125.547 177.163 125.93 177.163 126.438V128.847H176.409V124.302H177.163V125.337C177.273 124.978 177.469 124.705 177.751 124.517C178.038 124.324 178.366 124.228 178.736 124.228C179.123 124.228 179.457 124.327 179.738 124.526C180.025 124.719 180.229 125.006 180.351 125.387C180.478 125.017 180.69 124.733 180.988 124.534C181.287 124.33 181.623 124.228 181.999 124.228Z" fill="#787A80"/>
</g>
<defs>
<filter id="filter0_dddd_1679_2227" x="0" y="0" width="303.877" height="230.369" filterUnits="userSpaceOnUse" color-interpolation-filters="sRGB">
<feFlood flood-opacity="0" result="BackgroundImageFix"/>
<feColorMatrix in="SourceAlpha" type="matrix" values="0 0 0 0 0 0 0 0 0 0 0 0 0 0 0 0 0 0 127 0" result="hardAlpha"/>
<feOffset dy="1"/>
<feGaussianBlur stdDeviation="10"/>
<feColorMatrix type="matrix" values="0 0 0 0 0.117647 0 0 0 0 0.129412 0 0 0 0 0.172549 0 0 0 0.02 0"/>
<feBlend mode="normal" in2="BackgroundImageFix" result="effect1_dropShadow_1679_2227"/>
<feColorMatrix in="SourceAlpha" type="matrix" values="0 0 0 0 0 0 0 0 0 0 0 0 0 0 0 0 0 0 127 0" result="hardAlpha"/>
<feOffset/>
<feGaussianBlur stdDeviation="22"/>
<feColorMatrix type="matrix" values="0 0 0 0 0.117647 0 0 0 0 0.129412 0 0 0 0 0.172549 0 0 0 0.02 0"/>
<feBlend mode="normal" in2="effect1_dropShadow_1679_2227" result="effect2_dropShadow_1679_2227"/>
<feColorMatrix in="SourceAlpha" type="matrix" values="0 0 0 0 0 0 0 0 0 0 0 0 0 0 0 0 0 0 127 0" result="hardAlpha"/>
<feOffset dy="8"/>
<feGaussianBlur stdDeviation="25"/>
<feColorMatrix type="matrix" values="0 0 0 0 0.117647 0 0 0 0 0.129412 0 0 0 0 0.172549 0 0 0 0.0422367 0"/>
<feBlend mode="normal" in2="effect2_dropShadow_1679_2227" result="effect3_dropShadow_1679_2227"/>
<feColorMatrix in="SourceAlpha" type="matrix" values="0 0 0 0 0 0 0 0 0 0 0 0 0 0 0 0 0 0 127 0" result="hardAlpha"/>
<feOffset dy="6"/>
<feGaussianBlur stdDeviation="40"/>
<feColorMatrix type="matrix" values="0 0 0 0 0.117647 0 0 0 0 0.129412 0 0 0 0 0.172549 0 0 0 0.04 0"/>
<feBlend mode="normal" in2="effect3_dropShadow_1679_2227" result="effect4_dropShadow_1679_2227"/>
<feBlend mode="normal" in="SourceGraphic" in2="effect4_dropShadow_1679_2227" result="shape"/>
</filter>
</defs>
</svg>
