<svg width="313" height="309" viewBox="0 0 313 309" fill="none" xmlns="http://www.w3.org/2000/svg">
<g filter="url(#filter0_dddd_1679_2296)">
<rect x="80" y="74" width="153" height="149" fill="white"/>
</g>
<rect x="90.7402" y="101.818" width="14.3183" height="0.894896" fill="#424551"/>
<path d="M92.1143 96.8962C92.0786 96.8962 92.0481 96.8837 92.0231 96.8587C91.998 96.8336 91.9855 96.8032 91.9855 96.7674V93.7981H90.9921C90.9564 93.7981 90.9259 93.7856 90.9009 93.7605C90.8758 93.7355 90.8633 93.705 90.8633 93.6692V93.2719C90.8633 93.2325 90.874 93.2003 90.8955 93.1753C90.9206 93.1502 90.9528 93.1377 90.9921 93.1377H93.7305C93.7699 93.1377 93.8021 93.1502 93.8272 93.1753C93.8522 93.2003 93.8648 93.2325 93.8648 93.2719V93.6692C93.8648 93.705 93.8522 93.7355 93.8272 93.7605C93.8021 93.7856 93.7699 93.7981 93.7305 93.7981H92.7426V96.7674C92.7426 96.8032 92.73 96.8336 92.705 96.8587C92.6799 96.8837 92.6477 96.8962 92.6083 96.8962H92.1143Z" fill="#424551"/>
<path d="M95.0754 96.8962C95.0396 96.8962 95.0092 96.8837 94.9841 96.8587C94.9591 96.8336 94.9465 96.8032 94.9465 96.7674V93.2719C94.9465 93.2325 94.9573 93.2003 94.9787 93.1753C95.0038 93.1502 95.036 93.1377 95.0754 93.1377H96.4661C96.9028 93.1377 97.2446 93.2397 97.4916 93.4437C97.7422 93.6478 97.8675 93.9377 97.8675 94.3136C97.8675 94.5749 97.803 94.795 97.6742 94.974C97.5489 95.1494 97.3735 95.2765 97.148 95.3552L97.9319 96.7244C97.9426 96.7459 97.948 96.7656 97.948 96.7835C97.948 96.8157 97.9355 96.8425 97.9104 96.864C97.8889 96.8855 97.8639 96.8962 97.8352 96.8962H97.3466C97.2894 96.8962 97.2446 96.8837 97.2124 96.8587C97.1838 96.8336 97.1569 96.7978 97.1319 96.7513L96.4392 95.4787H95.6929V96.7674C95.6929 96.8032 95.6803 96.8336 95.6553 96.8587C95.6338 96.8837 95.6034 96.8962 95.564 96.8962H95.0754ZM96.4499 94.872C96.6647 94.872 96.8258 94.8237 96.9332 94.727C97.0442 94.6304 97.0996 94.4908 97.0996 94.3082C97.0996 94.1256 97.0442 93.9842 96.9332 93.884C96.8258 93.7838 96.6647 93.7337 96.4499 93.7337H95.6929V94.872H96.4499Z" fill="#424551"/>
<path d="M99.2251 96.8962C99.1893 96.8962 99.1589 96.8837 99.1338 96.8587C99.1088 96.8336 99.0963 96.8032 99.0963 96.7674V93.2719C99.0963 93.2325 99.107 93.2003 99.1285 93.1753C99.1535 93.1502 99.1857 93.1377 99.2251 93.1377H101.588C101.627 93.1377 101.659 93.1502 101.684 93.1753C101.709 93.2003 101.722 93.2325 101.722 93.2719V93.6263C101.722 93.6657 101.709 93.6979 101.684 93.7229C101.659 93.7444 101.627 93.7552 101.588 93.7552H99.8211V94.7055H101.47C101.509 94.7055 101.541 94.7181 101.566 94.7431C101.591 94.7646 101.604 94.795 101.604 94.8344V95.1673C101.604 95.2067 101.591 95.2389 101.566 95.264C101.541 95.2854 101.509 95.2962 101.47 95.2962H99.8211V96.2788H101.631C101.67 96.2788 101.702 96.2913 101.727 96.3163C101.752 96.3414 101.765 96.3736 101.765 96.413V96.7674C101.765 96.8068 101.752 96.839 101.727 96.864C101.702 96.8855 101.67 96.8962 101.631 96.8962H99.2251Z" fill="#424551"/>
<path d="M103.102 96.8962C103.066 96.8962 103.036 96.8837 103.011 96.8587C102.986 96.8336 102.973 96.8032 102.973 96.7674V93.2719C102.973 93.2325 102.984 93.2003 103.006 93.1753C103.031 93.1502 103.063 93.1377 103.102 93.1377H103.516C103.559 93.1377 103.591 93.1466 103.612 93.1645C103.634 93.1788 103.653 93.1985 103.671 93.2236L105.218 95.6291V93.2719C105.218 93.2325 105.228 93.2003 105.25 93.1753C105.275 93.1502 105.307 93.1377 105.347 93.1377H105.798C105.837 93.1377 105.869 93.1502 105.894 93.1753C105.919 93.2003 105.932 93.2325 105.932 93.2719V96.762C105.932 96.8014 105.919 96.8336 105.894 96.8587C105.869 96.8837 105.839 96.8962 105.803 96.8962H105.384C105.323 96.8962 105.271 96.8676 105.228 96.8103L103.687 94.4585V96.7674C103.687 96.8068 103.675 96.839 103.65 96.864C103.625 96.8855 103.593 96.8962 103.553 96.8962H103.102Z" fill="#424551"/>
<path d="M107.435 96.8962C107.4 96.8962 107.369 96.8837 107.344 96.8587C107.319 96.8336 107.307 96.8032 107.307 96.7674V93.2719C107.307 93.2325 107.317 93.2003 107.339 93.1753C107.364 93.1502 107.396 93.1377 107.435 93.1377H108.746C109.798 93.1377 110.335 93.6245 110.356 94.5981C110.364 94.8058 110.367 94.9454 110.367 95.017C110.367 95.085 110.364 95.2228 110.356 95.4304C110.342 95.9315 110.208 96.302 109.954 96.5419C109.7 96.7781 109.306 96.8962 108.772 96.8962H107.435ZM108.746 96.2788C109.046 96.2788 109.263 96.2125 109.395 96.0801C109.528 95.9441 109.598 95.7221 109.605 95.4143C109.612 95.1995 109.615 95.0653 109.615 95.0116C109.615 94.9543 109.612 94.8219 109.605 94.6143C109.598 94.3207 109.522 94.1042 109.379 93.9646C109.24 93.825 109.019 93.7552 108.719 93.7552H108.053V96.2788H108.746Z" fill="#424551"/>
<path d="M112.924 96.9499C112.605 96.9499 112.331 96.9016 112.102 96.805C111.873 96.7083 111.699 96.5812 111.581 96.4237C111.463 96.2662 111.401 96.0962 111.393 95.9136C111.393 95.8814 111.404 95.8546 111.426 95.8331C111.447 95.8116 111.474 95.8009 111.506 95.8009H111.984C112.027 95.8009 112.059 95.8098 112.081 95.8277C112.106 95.8421 112.129 95.8671 112.15 95.9029C112.186 96.0246 112.269 96.1266 112.397 96.209C112.526 96.2913 112.702 96.3325 112.924 96.3325C113.178 96.3325 113.369 96.2913 113.498 96.209C113.627 96.1231 113.691 96.0049 113.691 95.8546C113.691 95.7544 113.657 95.672 113.589 95.6076C113.525 95.5432 113.427 95.4877 113.294 95.4411C113.165 95.3946 112.972 95.3373 112.714 95.2693C112.292 95.1691 111.982 95.0366 111.785 94.872C111.592 94.7037 111.495 94.4657 111.495 94.1579C111.495 93.9502 111.551 93.7659 111.662 93.6048C111.776 93.4437 111.939 93.3167 112.15 93.2236C112.365 93.1305 112.614 93.084 112.897 93.084C113.19 93.084 113.444 93.1359 113.659 93.2397C113.874 93.3435 114.037 93.4742 114.148 93.6317C114.262 93.7856 114.323 93.9395 114.33 94.0934C114.33 94.1256 114.32 94.1525 114.298 94.174C114.277 94.1954 114.25 94.2062 114.218 94.2062H113.718C113.643 94.2062 113.591 94.1722 113.563 94.1042C113.541 93.9896 113.47 93.8948 113.348 93.8196C113.226 93.7408 113.076 93.7015 112.897 93.7015C112.696 93.7015 112.539 93.739 112.424 93.8142C112.31 93.8894 112.252 93.9986 112.252 94.1418C112.252 94.242 112.281 94.3243 112.338 94.3887C112.396 94.4532 112.485 94.5104 112.607 94.5606C112.732 94.6107 112.911 94.6662 113.144 94.727C113.459 94.7986 113.709 94.8791 113.895 94.9686C114.085 95.0581 114.225 95.1709 114.314 95.3069C114.404 95.4429 114.449 95.6165 114.449 95.8277C114.449 96.0568 114.384 96.2573 114.255 96.4291C114.13 96.5973 113.951 96.7262 113.718 96.8157C113.489 96.9052 113.224 96.9499 112.924 96.9499Z" fill="#424551"/>
<rect x="200.363" y="179.256" width="21.925" height="17.8979" fill="white"/>
<rect x="200.363" y="96.9258" width="21.925" height="100.228" fill="white"/>
<rect x="203.943" y="104.086" width="14.7658" height="68.0121" rx="2" fill="#FC5A5A"/>
<rect x="200.363" y="179.256" width="21.925" height="0.447448" fill="#7772F1"/>
<path d="M208.432 194.47C208.385 194.47 208.344 194.456 208.311 194.427C208.282 194.394 208.268 194.353 208.268 194.305V194.076C208.268 193.967 208.327 193.862 208.447 193.761L209.964 192.244C210.332 191.938 210.585 191.69 210.723 191.499C210.862 191.303 210.931 191.098 210.931 190.883C210.931 190.606 210.852 190.389 210.695 190.232C210.542 190.074 210.317 189.996 210.022 189.996C209.745 189.996 209.523 190.079 209.356 190.246C209.189 190.408 209.086 190.626 209.048 190.898C209.038 190.955 209.015 190.998 208.976 191.026C208.943 191.05 208.905 191.062 208.862 191.062H208.49C208.447 191.062 208.411 191.05 208.382 191.026C208.353 190.998 208.339 190.964 208.339 190.926C208.349 190.669 208.418 190.423 208.547 190.189C208.676 189.95 208.864 189.757 209.112 189.609C209.365 189.456 209.668 189.38 210.022 189.38C210.561 189.38 210.967 189.521 211.239 189.802C211.515 190.079 211.654 190.432 211.654 190.862C211.654 191.163 211.578 191.435 211.425 191.678C211.277 191.917 211.045 192.174 210.73 192.451L209.356 193.847H211.589C211.642 193.847 211.683 193.864 211.711 193.897C211.745 193.926 211.761 193.964 211.761 194.012V194.305C211.761 194.353 211.745 194.394 211.711 194.427C211.678 194.456 211.637 194.47 211.589 194.47H208.432Z" fill="#FC5A5A"/>
<path d="M214.095 194.47C214.047 194.47 214.006 194.456 213.973 194.427C213.944 194.394 213.93 194.353 213.93 194.305V190.296L212.741 191.213C212.708 191.241 212.672 191.256 212.634 191.256C212.591 191.256 212.551 191.232 212.512 191.184L212.326 190.948C212.302 190.914 212.29 190.881 212.29 190.848C212.29 190.79 212.314 190.745 212.362 190.711L213.923 189.509C213.975 189.475 214.037 189.459 214.109 189.459H214.474C214.522 189.459 214.56 189.475 214.589 189.509C214.622 189.537 214.639 189.576 214.639 189.623V194.305C214.639 194.353 214.622 194.394 214.589 194.427C214.56 194.456 214.522 194.47 214.474 194.47H214.095Z" fill="#FC5A5A"/>
<rect x="178.439" y="179.256" width="21.925" height="17.8979" fill="white"/>
<rect x="178.439" y="96.9258" width="21.925" height="100.228" fill="white"/>
<rect x="182.02" y="130.933" width="14.7658" height="41.1652" rx="2" fill="#E1EAF5"/>
<rect x="178.439" y="179.256" width="21.925" height="0.447448" fill="#E1EAF5"/>
<path d="M185.768 194.47C185.72 194.47 185.68 194.456 185.646 194.427C185.618 194.394 185.604 194.353 185.604 194.305V194.076C185.604 193.967 185.663 193.862 185.782 193.761L187.3 192.244C187.668 191.938 187.921 191.69 188.059 191.499C188.198 191.303 188.267 191.098 188.267 190.883C188.267 190.606 188.188 190.389 188.03 190.232C187.878 190.074 187.653 189.996 187.358 189.996C187.081 189.996 186.859 190.079 186.692 190.246C186.525 190.408 186.422 190.626 186.384 190.898C186.374 190.955 186.35 190.998 186.312 191.026C186.279 191.05 186.241 191.062 186.198 191.062H185.825C185.782 191.062 185.747 191.05 185.718 191.026C185.689 190.998 185.675 190.964 185.675 190.926C185.685 190.669 185.754 190.423 185.883 190.189C186.012 189.95 186.2 189.757 186.448 189.609C186.701 189.456 187.004 189.38 187.358 189.38C187.897 189.38 188.303 189.521 188.575 189.802C188.851 190.079 188.99 190.432 188.99 190.862C188.99 191.163 188.913 191.435 188.761 191.678C188.613 191.917 188.381 192.174 188.066 192.451L186.692 193.847H188.925C188.978 193.847 189.018 193.864 189.047 193.897C189.08 193.926 189.097 193.964 189.097 194.012V194.305C189.097 194.353 189.08 194.394 189.047 194.427C189.014 194.456 188.973 194.47 188.925 194.47H185.768Z" fill="#595F66"/>
<path d="M191.724 194.542C191.108 194.542 190.657 194.363 190.371 194.005C190.085 193.647 189.932 193.177 189.913 192.594C189.908 192.465 189.906 192.258 189.906 191.972C189.906 191.676 189.908 191.461 189.913 191.327C189.927 190.754 190.08 190.289 190.371 189.931C190.662 189.568 191.113 189.387 191.724 189.387C192.34 189.387 192.793 189.568 193.084 189.931C193.375 190.289 193.528 190.754 193.542 191.327C193.552 191.594 193.557 191.809 193.557 191.972C193.557 192.129 193.552 192.337 193.542 192.594C193.523 193.177 193.371 193.647 193.084 194.005C192.798 194.363 192.344 194.542 191.724 194.542ZM191.724 193.926C192.082 193.926 192.352 193.807 192.533 193.568C192.719 193.329 192.817 192.993 192.827 192.559C192.836 192.282 192.841 192.081 192.841 191.957C192.841 191.824 192.836 191.628 192.827 191.37C192.817 190.941 192.722 190.604 192.54 190.361C192.359 190.117 192.087 189.996 191.724 189.996C191.366 189.996 191.094 190.117 190.908 190.361C190.726 190.604 190.631 190.941 190.621 191.37L190.614 191.957L190.621 192.559C190.631 192.993 190.726 193.329 190.908 193.568C191.094 193.807 191.366 193.926 191.724 193.926Z" fill="#595F66"/>
<rect x="156.514" y="179.256" width="21.925" height="17.8979" fill="white"/>
<rect x="156.514" y="96.9258" width="21.925" height="100.228" fill="white"/>
<rect x="160.094" y="136.302" width="14.7658" height="35.7958" rx="2" fill="#E1EAF5"/>
<rect x="156.514" y="179.256" width="21.925" height="0.447448" fill="#E1EAF5"/>
<path d="M166.247 194.47C166.2 194.47 166.159 194.455 166.126 194.427C166.097 194.393 166.083 194.353 166.083 194.305V190.296L164.894 191.212C164.861 191.241 164.825 191.255 164.787 191.255C164.744 191.255 164.703 191.231 164.665 191.184L164.479 190.947C164.455 190.914 164.443 190.881 164.443 190.847C164.443 190.79 164.467 190.745 164.515 190.711L166.076 189.508C166.128 189.475 166.19 189.458 166.262 189.458H166.627C166.675 189.458 166.713 189.475 166.741 189.508C166.775 189.537 166.792 189.575 166.792 189.623V194.305C166.792 194.353 166.775 194.393 166.741 194.427C166.713 194.455 166.675 194.47 166.627 194.47H166.247Z" fill="#595F66"/>
<path d="M168.715 194.47C168.673 194.47 168.637 194.455 168.608 194.427C168.584 194.393 168.572 194.355 168.572 194.312C168.572 194.279 168.582 194.248 168.601 194.219L169.696 192.694C169.582 192.723 169.453 192.737 169.31 192.737C168.971 192.732 168.67 192.654 168.408 192.501C168.15 192.348 167.952 192.145 167.813 191.892C167.675 191.639 167.606 191.37 167.606 191.083C167.606 190.797 167.673 190.525 167.806 190.267C167.945 190.005 168.15 189.792 168.422 189.63C168.694 189.468 169.023 189.387 169.41 189.387C169.797 189.387 170.126 189.465 170.398 189.623C170.675 189.78 170.882 189.988 171.021 190.246C171.159 190.504 171.228 190.778 171.228 191.069C171.228 191.327 171.183 191.556 171.092 191.756C171.002 191.952 170.875 192.167 170.713 192.401L169.331 194.327C169.298 194.37 169.264 194.405 169.231 194.434C169.202 194.458 169.159 194.47 169.102 194.47H168.715ZM169.41 192.157C169.61 192.157 169.794 192.114 169.961 192.028C170.133 191.938 170.269 191.811 170.369 191.649C170.469 191.482 170.52 191.291 170.52 191.076C170.52 190.862 170.469 190.673 170.369 190.511C170.269 190.344 170.133 190.217 169.961 190.131C169.794 190.041 169.61 189.995 169.41 189.995C169.209 189.995 169.026 190.041 168.859 190.131C168.692 190.217 168.558 190.344 168.458 190.511C168.362 190.673 168.315 190.862 168.315 191.076C168.315 191.291 168.362 191.482 168.458 191.649C168.558 191.811 168.692 191.938 168.859 192.028C169.026 192.114 169.209 192.157 169.41 192.157Z" fill="#595F66"/>
<rect x="134.588" y="179.256" width="21.925" height="17.8979" fill="white"/>
<rect x="134.588" y="96.9258" width="21.925" height="100.228" fill="white"/>
<rect x="138.168" y="143.908" width="14.7658" height="28.1892" rx="2" fill="#E1EAF5"/>
<rect x="134.588" y="179.256" width="21.925" height="0.447448" fill="#E1EAF5"/>
<path d="M143.496 194.47C143.448 194.47 143.407 194.455 143.374 194.427C143.345 194.393 143.331 194.353 143.331 194.305V190.296L142.142 191.212C142.109 191.241 142.073 191.255 142.035 191.255C141.992 191.255 141.952 191.231 141.913 191.184L141.727 190.947C141.703 190.914 141.691 190.881 141.691 190.847C141.691 190.79 141.715 190.745 141.763 190.711L143.324 189.508C143.376 189.475 143.438 189.458 143.51 189.458H143.875C143.923 189.458 143.961 189.475 143.989 189.508C144.023 189.537 144.04 189.575 144.04 189.623V194.305C144.04 194.353 144.023 194.393 143.989 194.427C143.961 194.455 143.923 194.47 143.875 194.47H143.496Z" fill="#595F66"/>
<path d="M146.858 194.541C146.486 194.541 146.159 194.482 145.878 194.362C145.596 194.238 145.376 194.062 145.219 193.833C145.061 193.603 144.983 193.336 144.983 193.031C144.983 192.749 145.052 192.503 145.19 192.293C145.329 192.079 145.517 191.914 145.756 191.799C145.565 191.69 145.417 191.546 145.312 191.37C145.212 191.188 145.162 190.978 145.162 190.74C145.162 190.32 145.314 189.99 145.62 189.752C145.93 189.508 146.343 189.387 146.858 189.387C147.369 189.387 147.777 189.508 148.083 189.752C148.393 189.99 148.548 190.317 148.548 190.733C148.548 190.971 148.495 191.181 148.39 191.363C148.29 191.539 148.147 191.685 147.961 191.799C148.2 191.914 148.388 192.079 148.527 192.293C148.665 192.503 148.734 192.749 148.734 193.031C148.734 193.336 148.655 193.603 148.498 193.833C148.34 194.062 148.118 194.238 147.832 194.362C147.55 194.482 147.226 194.541 146.858 194.541ZM146.858 191.542C147.145 191.537 147.386 191.463 147.582 191.32C147.777 191.177 147.875 190.988 147.875 190.754C147.875 190.515 147.777 190.325 147.582 190.181C147.391 190.033 147.15 189.959 146.858 189.959C146.563 189.959 146.317 190.031 146.121 190.174C145.93 190.317 145.835 190.511 145.835 190.754C145.835 190.993 145.93 191.184 146.121 191.327C146.317 191.47 146.563 191.542 146.858 191.542ZM146.858 193.969C147.193 193.969 147.472 193.883 147.696 193.711C147.92 193.539 148.033 193.312 148.033 193.031C148.033 192.749 147.92 192.525 147.696 192.358C147.472 192.191 147.193 192.107 146.858 192.107C146.52 192.107 146.238 192.191 146.014 192.358C145.789 192.525 145.677 192.749 145.677 193.031C145.677 193.312 145.789 193.539 146.014 193.711C146.238 193.883 146.52 193.969 146.858 193.969Z" fill="#595F66"/>
<rect x="112.662" y="179.256" width="21.925" height="17.8979" fill="white"/>
<rect x="112.662" y="96.9258" width="21.925" height="100.228" fill="white"/>
<rect x="116.244" y="130.933" width="14.7658" height="41.1652" rx="2" fill="#E1EAF5"/>
<rect x="112.662" y="179.256" width="21.925" height="0.447448" fill="#E1EAF5"/>
<path d="M122.236 194.47C122.188 194.47 122.147 194.456 122.114 194.427C122.085 194.394 122.071 194.353 122.071 194.306V190.297L120.883 191.213C120.849 191.242 120.813 191.256 120.775 191.256C120.732 191.256 120.692 191.232 120.654 191.184L120.467 190.948C120.444 190.915 120.432 190.881 120.432 190.848C120.432 190.791 120.456 190.745 120.503 190.712L122.064 189.509C122.116 189.476 122.178 189.459 122.25 189.459H122.615C122.663 189.459 122.701 189.476 122.73 189.509C122.763 189.538 122.78 189.576 122.78 189.624V194.306C122.78 194.353 122.763 194.394 122.73 194.427C122.701 194.456 122.663 194.47 122.615 194.47H122.236Z" fill="#595F66"/>
<path d="M124.389 194.47C124.346 194.47 124.31 194.456 124.281 194.427C124.258 194.394 124.246 194.356 124.246 194.313L124.26 194.248L126.043 190.082H123.694C123.647 190.082 123.606 190.068 123.573 190.039C123.544 190.005 123.53 189.965 123.53 189.917V189.631C123.53 189.578 123.544 189.538 123.573 189.509C123.606 189.476 123.647 189.459 123.694 189.459H126.63C126.682 189.459 126.723 189.476 126.751 189.509C126.785 189.538 126.801 189.578 126.801 189.631V189.896C126.801 189.982 126.782 190.075 126.744 190.175L124.983 194.291C124.959 194.344 124.93 194.387 124.897 194.42C124.868 194.454 124.828 194.47 124.775 194.47H124.389Z" fill="#595F66"/>
<rect x="90.7402" y="179.256" width="21.925" height="17.8979" fill="white"/>
<rect x="94.3203" y="154.198" width="14.7658" height="17.8979" rx="2" fill="#E1EAF5"/>
<rect x="90.7402" y="179.256" width="21.925" height="0.447448" fill="#E1EAF5"/>
<path d="M100.214 194.468C100.167 194.468 100.126 194.454 100.093 194.425C100.064 194.392 100.05 194.352 100.05 194.304V190.295L98.8612 191.211C98.8278 191.24 98.792 191.254 98.7538 191.254C98.7108 191.254 98.6703 191.23 98.6321 191.182L98.446 190.946C98.4221 190.913 98.4102 190.879 98.4102 190.846C98.4102 190.789 98.434 190.743 98.4817 190.71L100.042 189.507C100.095 189.474 100.157 189.457 100.229 189.457H100.594C100.641 189.457 100.68 189.474 100.708 189.507C100.742 189.536 100.758 189.574 100.758 189.622V194.304C100.758 194.352 100.742 194.392 100.708 194.425C100.68 194.454 100.641 194.468 100.594 194.468H100.214Z" fill="#595F66"/>
<path d="M103.506 194.54C103.124 194.54 102.792 194.464 102.51 194.311C102.229 194.153 102.014 193.943 101.866 193.681C101.718 193.418 101.644 193.132 101.644 192.822C101.644 192.569 101.694 192.33 101.795 192.106C101.9 191.877 102.016 191.674 102.145 191.497L103.506 189.6C103.51 189.595 103.525 189.579 103.549 189.55C103.568 189.521 103.594 189.5 103.627 189.486C103.661 189.467 103.699 189.457 103.742 189.457H104.121C104.164 189.457 104.198 189.474 104.221 189.507C104.25 189.536 104.264 189.572 104.264 189.615C104.264 189.648 104.255 189.679 104.236 189.708L103.191 191.168C103.296 191.135 103.432 191.118 103.599 191.118C103.942 191.123 104.245 191.201 104.508 191.354C104.775 191.507 104.98 191.712 105.124 191.97C105.272 192.228 105.345 192.509 105.345 192.815C105.345 193.12 105.272 193.407 105.124 193.674C104.98 193.936 104.768 194.146 104.486 194.304C104.21 194.461 103.883 194.54 103.506 194.54ZM103.498 193.932C103.704 193.932 103.892 193.889 104.064 193.803C104.241 193.717 104.379 193.59 104.479 193.423C104.584 193.251 104.637 193.049 104.637 192.815C104.637 192.586 104.584 192.388 104.479 192.22C104.379 192.053 104.241 191.927 104.064 191.841C103.892 191.755 103.704 191.712 103.498 191.712C103.298 191.712 103.109 191.755 102.933 191.841C102.761 191.927 102.623 192.053 102.518 192.22C102.413 192.388 102.36 192.586 102.36 192.815C102.36 193.049 102.413 193.251 102.518 193.423C102.623 193.59 102.761 193.717 102.933 193.803C103.105 193.889 103.293 193.932 103.498 193.932Z" fill="#595F66"/>
<defs>
<filter id="filter0_dddd_1679_2296" x="0" y="0" width="313" height="309" filterUnits="userSpaceOnUse" color-interpolation-filters="sRGB">
<feFlood flood-opacity="0" result="BackgroundImageFix"/>
<feColorMatrix in="SourceAlpha" type="matrix" values="0 0 0 0 0 0 0 0 0 0 0 0 0 0 0 0 0 0 127 0" result="hardAlpha"/>
<feOffset dy="1"/>
<feGaussianBlur stdDeviation="10"/>
<feColorMatrix type="matrix" values="0 0 0 0 0.117647 0 0 0 0 0.129412 0 0 0 0 0.172549 0 0 0 0.02 0"/>
<feBlend mode="normal" in2="BackgroundImageFix" result="effect1_dropShadow_1679_2296"/>
<feColorMatrix in="SourceAlpha" type="matrix" values="0 0 0 0 0 0 0 0 0 0 0 0 0 0 0 0 0 0 127 0" result="hardAlpha"/>
<feOffset/>
<feGaussianBlur stdDeviation="22"/>
<feColorMatrix type="matrix" values="0 0 0 0 0.117647 0 0 0 0 0.129412 0 0 0 0 0.172549 0 0 0 0.02 0"/>
<feBlend mode="normal" in2="effect1_dropShadow_1679_2296" result="effect2_dropShadow_1679_2296"/>
<feColorMatrix in="SourceAlpha" type="matrix" values="0 0 0 0 0 0 0 0 0 0 0 0 0 0 0 0 0 0 127 0" result="hardAlpha"/>
<feOffset dy="8"/>
<feGaussianBlur stdDeviation="25"/>
<feColorMatrix type="matrix" values="0 0 0 0 0.117647 0 0 0 0 0.129412 0 0 0 0 0.172549 0 0 0 0.0422367 0"/>
<feBlend mode="normal" in2="effect2_dropShadow_1679_2296" result="effect3_dropShadow_1679_2296"/>
<feColorMatrix in="SourceAlpha" type="matrix" values="0 0 0 0 0 0 0 0 0 0 0 0 0 0 0 0 0 0 127 0" result="hardAlpha"/>
<feOffset dy="6"/>
<feGaussianBlur stdDeviation="40"/>
<feColorMatrix type="matrix" values="0 0 0 0 0.117647 0 0 0 0 0.129412 0 0 0 0 0.172549 0 0 0 0.04 0"/>
<feBlend mode="normal" in2="effect3_dropShadow_1679_2296" result="effect4_dropShadow_1679_2296"/>
<feBlend mode="normal" in="SourceGraphic" in2="effect4_dropShadow_1679_2296" result="shape"/>
</filter>
</defs>
</svg>
