<svg width="303" height="701" viewBox="0 0 303 701" fill="none" xmlns="http://www.w3.org/2000/svg">
<g opacity="0.4">
<path d="M-353.158 305.049C-372.918 262.785 -378.728 227.597 -370.718 199.433C-362.716 171.295 -340.884 150.05 -305.082 135.738C-233.306 107.044 -166.851 85.3953 -105.717 70.7881C-44.6962 56.2079 21.5351 66.4894 93.0004 101.697C164.385 136.865 210.661 199.422 231.806 289.447C242.38 334.462 243.081 374.109 233.943 408.403C224.806 442.692 205.827 471.659 176.988 495.314C119.162 542.744 68.0573 581.864 23.6723 612.678C-20.6151 643.424 -74.0076 655.97 -136.54 650.285C-167.76 647.446 -193.796 636.597 -214.675 617.75C-235.559 598.899 -251.314 572.02 -261.918 537.074C-283.17 467.031 -313.585 389.689 -353.158 305.049Z" stroke="#00F0B5"/>
<path d="M-295.693 313.4C-311.733 279.079 -316.445 250.522 -309.959 227.679C-303.48 204.863 -285.794 187.631 -256.76 176.02C-198.518 152.73 -144.595 135.161 -94.99 123.309C-45.4977 111.485 8.23163 119.842 66.2219 148.445C124.131 177.008 161.684 227.8 178.856 300.9C187.443 337.453 188.018 369.639 180.613 397.473C173.21 425.3 157.824 448.808 134.439 468.003C87.5205 506.514 46.0558 538.277 10.0436 563.294C-25.8709 588.243 -69.1763 598.419 -119.908 593.792C-145.227 591.482 -166.338 582.672 -183.27 567.376C-200.206 552.075 -212.99 530.257 -221.598 501.883C-238.861 444.984 -263.56 382.156 -295.693 313.4Z" stroke="#00F0B5"/>
<path d="M-260.406 318.591C-274.156 289.17 -278.189 264.704 -272.634 245.142C-267.087 225.607 -251.943 210.845 -227.062 200.895C-177.127 180.927 -130.896 165.863 -88.3678 155.703C-45.9522 145.569 0.0992576 152.73 49.8104 177.249C99.441 201.728 131.627 245.259 146.347 307.92C153.708 339.253 154.199 366.837 147.854 390.689C141.511 414.533 128.328 434.676 108.287 451.126C68.0595 484.145 32.5085 511.378 1.63292 532.826C-29.1449 554.207 -66.2585 562.93 -109.743 558.963C-131.438 556.984 -149.525 549.436 -164.029 536.332C-178.539 523.224 -189.494 504.529 -196.872 480.209C-211.675 431.419 -232.854 377.546 -260.406 318.591Z" stroke="#00F0B5"/>
</g>
</svg>
