<svg width="710" height="1367" viewBox="0 0 710 1367" fill="none" xmlns="http://www.w3.org/2000/svg">
<g opacity="0.4">
<path d="M389.48 1050.24C402.813 1056.98 416.418 1064.16 430.237 1071.45C474.882 1095.01 521.753 1119.74 568.839 1134.66C630.471 1154.19 692.361 1156.88 749.964 1118.13C805.908 1080.5 819.42 1020.89 824.338 954.623C825.568 938.061 826.26 921.093 826.945 903.956L826.994 902.742C827.664 886.005 828.339 869.111 829.516 852.296C831.927 817.855 836.441 783.714 847.325 751.848C859.257 716.914 879.368 683.307 902.009 650.575C913.331 634.208 925.289 618.052 937.179 602.057C937.961 601.004 938.743 599.952 939.525 598.901C950.622 583.975 961.618 569.185 971.944 554.479C1016.19 491.47 1047.98 430.204 1022.83 366.804C996.019 299.212 933.853 251.586 859.814 225.571C785.778 199.558 699.939 195.181 625.898 214.027C561.959 230.301 522.818 280.51 488.677 340.088C478.374 358.068 468.54 376.875 458.618 395.849C452.097 408.321 445.538 420.865 438.782 433.295C421.76 464.616 403.513 495.166 381.564 521.824C360.518 547.384 334.55 570.233 307.487 592.082C296.766 600.737 285.881 609.23 275.06 617.673C258.542 630.56 242.175 643.33 226.777 656.379C175.811 699.565 135.75 745.566 136.705 808.114C137.698 873.195 173.269 919.774 222.436 957.076C262.511 987.479 311.557 1011.68 358.185 1034.68C368.787 1039.91 379.263 1045.08 389.48 1050.24Z" stroke="#00F0B5"/>
<path d="M446.217 972.188C456.718 977.497 467.432 983.15 478.313 988.892C513.463 1007.44 550.354 1026.9 587.417 1038.65C635.926 1054.02 684.618 1056.13 729.935 1025.65C773.938 996.046 784.574 949.157 788.446 896.991C789.414 883.953 789.959 870.596 790.499 857.103L790.537 856.145C791.064 842.968 791.596 829.666 792.523 816.425C794.421 789.304 797.976 762.413 806.55 737.311C815.949 709.792 831.79 683.322 849.618 657.548C858.533 644.66 867.95 631.939 877.311 619.344C877.927 618.516 878.542 617.688 879.157 616.861C887.895 605.108 896.552 593.465 904.682 581.887C939.517 532.275 964.51 484.083 944.734 434.225C923.64 381.045 874.725 343.564 816.448 323.087C758.176 302.613 690.612 299.168 632.336 314.001C582.039 326.803 551.241 366.3 524.363 413.204C516.251 427.359 508.511 442.162 500.7 457.1C495.565 466.92 490.4 476.797 485.079 486.588C471.676 511.25 457.306 535.311 440.017 556.308C423.441 576.44 402.988 594.435 381.678 611.64C373.235 618.457 364.663 625.144 356.142 631.792C343.14 641.937 330.257 651.989 318.134 662.261C278.008 696.262 246.504 732.451 247.254 781.645C248.036 832.84 276.014 869.486 314.712 898.845C346.255 922.776 384.86 941.821 421.572 959.932C429.92 964.05 438.17 968.12 446.217 972.188Z" stroke="#00F0B5"/>
<path d="M487.21 915.793C495.666 920.068 504.291 924.619 513.051 929.241C541.339 944.167 571.02 959.827 600.841 969.277C639.869 981.645 679.025 983.337 715.464 958.825C750.84 935.029 759.398 897.332 762.514 855.352C763.293 844.86 763.731 834.111 764.166 823.251L764.196 822.484C764.621 811.877 765.049 801.168 765.795 790.509C767.323 768.677 770.185 747.024 777.09 726.808C784.659 704.647 797.415 683.334 811.766 662.587C818.942 652.212 826.522 641.972 834.056 631.836C834.552 631.169 835.048 630.502 835.544 629.835C842.576 620.377 849.542 611.007 856.084 601.69C884.123 561.758 904.204 523.013 888.309 482.939C871.345 440.172 832.004 410.021 785.116 393.546C738.233 377.073 683.873 374.302 636.989 386.235C596.548 396.529 571.777 428.286 550.147 466.033C543.619 477.425 537.391 489.335 531.105 501.356C526.973 509.26 522.815 517.211 518.531 525.094C507.742 544.945 496.173 564.317 482.252 581.223C468.904 597.435 452.437 611.923 435.284 625.771C428.485 631.26 421.585 636.644 414.727 641.994C404.264 650.158 393.899 658.245 384.142 666.512C351.849 693.876 326.526 722.977 327.13 762.522C327.758 803.683 350.251 833.153 381.384 856.772C406.763 876.027 437.824 891.35 467.371 905.927C474.091 909.242 480.732 912.518 487.21 915.793Z" stroke="#00F0B5"/>
</g>
</svg>
