<svg width="40" height="40" viewBox="0 0 40 40" fill="none" xmlns="http://www.w3.org/2000/svg">
<g clip-path="url(#clip0_14779_1805)">
<circle opacity="0.3" cx="20" cy="20" r="18" stroke="#F52F6E" stroke-width="4"/>
<path d="M20 36C28.8366 36 36 28.8366 36 20C36 11.1634 28.8366 4 20 4V0C31.0457 0 40 8.9543 40 20C40 31.0457 31.0457 40 20 40C8.9543 40 0 31.0457 0 20C0 14.2928 2.39055 9.14386 6.22496 5.5L8.72317 8.64953C5.80608 11.5478 4 15.563 4 20C4 28.8366 11.1634 36 20 36Z" fill="#F52F6E"/>
</g>
<defs>
<clipPath id="clip0_14779_1805">
<rect width="40" height="40" fill="white"/>
</clipPath>
</defs>
</svg>
