<svg width="186" height="427" viewBox="0 0 186 427" fill="none" xmlns="http://www.w3.org/2000/svg">
<g opacity="0.4">
<path d="M83.5033 337.457C57.8819 327.044 41.2159 314.101 33.375 298.68C25.5466 283.282 26.4619 265.303 36.2502 244.675C55.9063 203.252 76.0864 167.042 96.7892 136.042C117.428 105.139 150.347 82.9264 195.608 69.4356C240.782 55.9704 286.083 64.5092 331.546 95.1248C354.281 110.434 370.547 127.379 380.382 145.949C390.213 164.513 393.631 184.728 390.627 206.611C384.594 250.564 378.135 288.189 371.25 319.489C364.391 350.673 346.25 377.625 316.78 400.345C302.082 411.676 286.42 417.437 269.784 417.656C253.141 417.875 235.482 412.548 216.799 401.632C179.295 379.72 134.862 358.329 83.5033 337.457Z" stroke="#00F0B5"/>
<path d="M111.875 317.917C91.0753 309.46 77.5614 298.96 71.2038 286.468C64.8586 274.001 65.5881 259.439 73.5212 242.716C89.4672 209.102 105.84 179.721 122.638 154.57C139.371 129.515 166.074 111.506 202.808 100.576C239.456 89.6708 276.216 96.6087 313.126 121.463C331.584 133.891 344.787 147.641 352.77 162.701C360.75 177.754 363.529 194.144 361.1 211.887C356.216 247.561 350.985 278.097 345.405 303.499C339.852 328.783 325.144 350.636 301.235 369.057C289.318 378.239 276.621 382.901 263.134 383.073C249.641 383.245 235.316 378.922 220.151 370.061C189.684 352.259 153.591 334.878 111.875 317.917Z" stroke="#00F0B5"/>
<path d="M129.323 305.946C111.496 298.698 99.9268 289.704 94.4869 279.015C89.0594 268.351 89.679 255.89 96.4747 241.564C110.146 212.745 124.182 187.556 138.583 165.995C152.919 144.529 175.799 129.097 207.284 119.728C238.683 110.385 270.18 116.327 301.813 137.628C317.632 148.279 328.943 160.06 335.781 172.96C342.616 185.854 344.996 199.891 342.916 215.091C338.728 245.677 334.243 271.857 329.46 293.634C324.702 315.295 312.102 334.018 291.613 349.804C281.406 357.668 270.534 361.66 258.988 361.807C247.435 361.954 235.165 358.253 222.17 350.66C196.043 335.394 165.093 320.49 129.323 305.946Z" stroke="#00F0B5"/>
</g>
</svg>
