<svg width="120" height="40" viewBox="0 0 120 40" fill="none" xmlns="http://www.w3.org/2000/svg">
<g clip-path="url(#clip0_15051_2768)">
<rect width="120" height="40" rx="2" fill="white"/>
<path d="M0 0H95.4386V40H0V0Z" fill="white"/>
<path d="M0 0H10.6117V40H0V0Z" fill="#EF4536"/>
<path d="M21.0885 34.6685H19.0195V18.5352H24.559C25.9605 18.5352 27.0951 19.0018 28.0962 19.8685C29.0973 20.8018 29.5645 21.9352 29.5645 23.3352C29.5645 24.7352 29.0306 25.8685 28.0962 26.8018C27.0951 27.7352 25.8938 28.1352 24.559 28.1352H21.1552V34.6685H21.0885ZM21.0885 26.2018H24.559C25.4266 26.2018 26.1607 25.9352 26.6279 25.3352C27.1618 24.7352 27.4288 24.1352 27.4288 23.4018C27.4288 22.6685 27.1618 22.0685 26.6279 21.4685C26.094 20.8685 25.4266 20.6018 24.559 20.6018H21.0885V26.2018ZM34.4365 35.0685C33.2352 35.0685 32.3008 34.7352 31.5 34.0685C30.6991 33.4018 30.2986 32.4685 30.2986 31.4018C30.2986 30.2018 30.7658 29.2685 31.7002 28.6018C32.6345 27.9352 33.7691 27.6018 35.1707 27.6018C36.372 27.6018 37.3731 27.8018 38.174 28.2685V27.9352C38.174 27.1352 37.907 26.4685 37.3064 26.0018C36.7724 25.5352 36.0383 25.2685 35.2374 25.2685C34.6368 25.2685 34.1028 25.4018 33.5689 25.6685C33.1017 25.9352 32.768 26.3352 32.5678 26.8685L30.7658 26.0018C31.0328 25.3352 31.5 24.7352 32.3008 24.1352C33.035 23.6018 34.0361 23.2685 35.3042 23.2685C36.7057 23.2685 37.907 23.6685 38.8414 24.5352C39.7758 25.3352 40.2429 26.5352 40.2429 28.0018V34.6685H38.2407V33.1352H38.174C37.2396 34.4018 36.0383 35.0685 34.4365 35.0685ZM34.7702 33.1352C35.6379 33.1352 36.4387 32.8018 37.1061 32.2018C37.7735 31.5352 38.174 30.8018 38.174 29.9352C37.5733 29.4685 36.7057 29.2018 35.5044 29.2018C34.5033 29.2018 33.7691 29.4018 33.2352 29.8685C32.7013 30.3352 32.4343 30.8018 32.4343 31.4018C32.4343 31.9352 32.6345 32.4018 33.1017 32.6685C33.6357 33.0018 34.1696 33.1352 34.7702 33.1352ZM44.5143 23.6685V25.4685H44.5811C44.848 24.8018 45.2485 24.3352 45.9159 23.9352C46.5833 23.5352 47.3174 23.4018 48.0515 23.4018C48.2518 23.4018 48.5187 23.4018 48.7857 23.4685V25.4685C48.5187 25.4685 48.2518 25.4018 47.9181 25.4018C46.917 25.4018 46.1161 25.6685 45.4487 26.2685C44.7813 26.8685 44.5143 27.6685 44.5143 28.6685V34.6685H42.4454V23.6685H44.5143ZM55.8602 34.8685C54.7256 34.8685 53.7912 34.5352 53.1905 33.9352C52.5899 33.3352 52.2562 32.4685 52.2562 31.3352V25.5352H50.3207V23.6685H52.2562V20.2685H54.3251V23.6685H57.0615V25.5352H54.3251V31.2018C54.3251 32.4018 54.7923 33.0018 55.7934 33.0018C56.1939 33.0018 56.4608 32.9352 56.7278 32.8018L57.4619 34.6018C57.1282 34.8018 56.5276 34.8685 55.8602 34.8685ZM61.1994 23.6685V25.2018H61.2661C61.5998 24.6685 62.067 24.2018 62.6677 23.8685C63.3351 23.4685 64.0025 23.3352 64.7366 23.3352C66.1382 23.3352 67.1393 23.7352 67.8734 24.6018C68.6076 25.4685 68.9413 26.6018 68.9413 28.0018V34.6685H66.8723V28.2018C66.8723 26.1352 65.9379 25.1352 64.136 25.1352C63.2683 25.1352 62.6009 25.4685 62.067 26.1352C61.5331 26.8018 61.2661 27.6018 61.2661 28.5352V34.6685H59.1972V23.6685H61.1994ZM76.4162 35.0685C74.7477 35.0685 73.4129 34.5352 72.345 33.4018C71.2772 32.2685 70.7432 30.8685 70.7432 29.2018C70.7432 27.6018 71.2772 26.2018 72.2783 25.0685C73.2794 23.9352 74.6142 23.3352 76.1492 23.3352C77.8177 23.3352 79.0858 23.8685 80.0869 24.9352C81.088 26.0018 81.5552 27.4018 81.5552 29.2018V29.6018H72.8122C72.8789 30.7352 73.2126 31.6018 73.9468 32.2685C74.6142 32.9352 75.4151 33.2685 76.3494 33.2685C77.8177 33.2685 78.8188 32.6685 79.3527 31.4018L81.2215 32.2018C80.8878 33.0685 80.2871 33.8018 79.4195 34.3352C78.6853 34.7352 77.6175 35.0685 76.4162 35.0685ZM79.4195 27.8685C79.3527 27.2685 79.0858 26.6685 78.5519 26.0685C78.0179 25.4685 77.217 25.2018 76.1492 25.2018C75.3483 25.2018 74.7477 25.4685 74.147 25.9352C73.5463 26.4018 73.2126 27.0685 73.0124 27.8685H79.4195ZM85.6263 34.6685H83.5574V23.6685H85.5596V25.4685H85.6263C85.8265 24.8685 86.2937 24.4018 86.8944 24.0018C87.5618 23.6018 88.1625 23.4018 88.8299 23.4018C89.4305 23.4018 89.9644 23.4685 90.3649 23.6685L89.564 25.6018C89.297 25.4685 88.8966 25.4685 88.4294 25.4685C87.6953 25.4685 87.0279 25.7352 86.4272 26.3352C85.8265 26.9352 85.5596 27.7352 85.5596 28.6685V34.6685H85.6263Z" fill="#727473"/>
<path d="M23.7594 14.8667C21.0231 14.8667 18.7539 12.6667 18.7539 9.93333C18.7539 7.2 21.0231 5 23.7594 5C25.2945 5 26.3623 5.6 27.1632 6.33333L26.2288 7.26667C25.6282 6.73333 24.894 6.33333 23.7594 6.33333C21.7572 6.33333 20.2222 7.93333 20.2222 9.93333C20.2222 11.9333 21.7572 13.5333 23.7594 13.5333C25.0275 13.5333 25.7616 13 26.2956 12.5333C26.696 12.1333 26.963 11.6 27.0297 10.8H23.7594V9.4H28.2978C28.3645 9.66667 28.3645 10 28.3645 10.2667C28.3645 11.2667 28.0975 12.5333 27.1632 13.4C26.3623 14.4 25.2277 14.8667 23.7594 14.8667Z" fill="#587FC0"/>
<path d="M35.6375 11.6648C35.6375 13.5315 34.1692 14.8648 32.434 14.8648C30.6988 14.8648 29.2305 13.5315 29.2305 11.6648C29.2305 9.79818 30.6988 8.46484 32.434 8.46484C34.1692 8.46484 35.6375 9.79818 35.6375 11.6648ZM34.236 11.6648C34.236 10.5315 33.3684 9.73151 32.434 9.73151C31.4996 9.73151 30.632 10.5315 30.632 11.6648C30.632 12.7982 31.4996 13.5982 32.434 13.5982C33.3684 13.5982 34.236 12.7982 34.236 11.6648Z" fill="#DB3336"/>
<path d="M42.9149 11.6648C42.9149 13.5315 41.4466 14.8648 39.7113 14.8648C37.9761 14.8648 36.5078 13.5315 36.5078 11.6648C36.5078 9.79818 37.9761 8.46484 39.7113 8.46484C41.4466 8.46484 42.9149 9.79818 42.9149 11.6648ZM41.5133 11.6648C41.5133 10.5315 40.6457 9.73151 39.7113 9.73151C38.777 9.73151 37.9094 10.5315 37.9094 11.6648C37.9094 12.7982 38.777 13.5982 39.7113 13.5982C40.6457 13.5982 41.5133 12.7982 41.5133 11.6648Z" fill="#FFC114"/>
<path d="M49.8546 8.66875V14.4021C49.8546 16.7354 48.4531 17.7354 46.8513 17.7354C45.3163 17.7354 44.3819 16.6687 44.0482 15.8687L45.2495 15.3354C45.4498 15.8687 45.9837 16.4688 46.8513 16.4688C47.9191 16.4688 48.5866 15.8021 48.5866 14.6021V14.1354H48.5198C48.1861 14.5354 47.5854 14.8687 46.8513 14.8687C45.2495 14.8687 43.7812 13.4688 43.7812 11.6688C43.7812 9.86875 45.2495 8.46875 46.8513 8.46875C47.5854 8.46875 48.1861 8.80208 48.5198 9.20208H48.5866V8.66875H49.8546ZM48.5866 11.6688C48.5866 10.5354 47.8524 9.73542 46.8513 9.73542C45.9169 9.73542 45.0493 10.5354 45.0493 11.6688C45.0493 12.8021 45.8502 13.6021 46.8513 13.6021C47.8524 13.6021 48.5866 12.8021 48.5866 11.6688Z" fill="#587FC0"/>
<path d="M52.593 5.26562V14.6656H51.1914V5.26562H52.593Z" fill="#32B355"/>
<path d="M58.3313 12.7354L59.3992 13.4688C59.0655 14.0021 58.1979 14.8687 56.7296 14.8687C54.9276 14.8687 53.5928 13.4688 53.5928 11.6688C53.5928 9.80208 54.9276 8.46875 56.5961 8.46875C58.2646 8.46875 59.0655 9.80208 59.3324 10.4688L59.4659 10.8021L55.1945 12.5354C55.5282 13.2021 56.0622 13.5354 56.7296 13.5354C57.4637 13.6021 57.9309 13.2688 58.3313 12.7354ZM54.9276 11.5354L57.7974 10.3354C57.6639 9.93542 57.1968 9.66875 56.5961 9.66875C55.9287 9.73542 54.9276 10.3354 54.9276 11.5354Z" fill="#DB3336"/>
<path d="M7.34166 33.5336V34.0669H3.27051V32.6669C3.27051 32.3336 3.40399 32.0003 3.60421 31.8003C3.80443 31.5336 4.13813 31.4003 4.47183 31.4003C4.80553 31.4003 5.0725 31.5336 5.33946 31.8003C5.53968 32.0669 5.67316 32.3336 5.67316 32.6669V33.5336H7.34166ZM5.20598 33.5336V32.6669C5.20598 32.4669 5.13924 32.2669 5.00575 32.1336C4.80553 32.0003 4.67205 31.9336 4.47183 31.9336C4.27161 31.9336 4.13813 32.0003 4.00465 32.1336C3.87117 32.2669 3.80443 32.4669 3.80443 32.6669V33.5336H5.20598ZM7.34166 29.7336H3.27051V28.3336C3.27051 28.0003 3.40399 27.6669 3.60421 27.4669C3.80443 27.2003 4.13813 27.0669 4.47183 27.0669C4.73879 27.0669 5.00575 27.1336 5.20598 27.3336C5.4062 27.5336 5.53968 27.7336 5.60642 28.0003L7.27492 26.8669V27.4669L5.67316 28.6669V29.2669H7.34166V29.7336ZM5.20598 29.2669V28.4003C5.20598 28.2003 5.13924 28.0003 5.00575 27.8669C4.87227 27.7336 4.67205 27.6669 4.47183 27.6669C4.27161 27.6669 4.13813 27.7336 4.00465 27.8669C3.87117 28.0003 3.80443 28.2003 3.80443 28.4003V29.2669H5.20598ZM3.80443 23.0003V24.8669H5.0725V23.2003H5.53968V24.8669H6.80774V23.0003H7.34166V25.3336H3.27051V23.0003H3.80443ZM7.34166 21.2003H3.27051V20.6669L5.7399 19.2669L3.27051 17.8669V17.3336H7.34166V17.8669H4.27161L6.47404 19.1336V19.4669L4.27161 20.6669H7.34166V21.2003ZM7.34166 15.4003H3.27051V14.8669H7.34166V15.4003ZM3.80443 10.5336V12.4003H5.0725V10.7336H5.53968V12.4003H6.80774V10.5336H7.34166V12.8669H3.27051V10.5336H3.80443ZM7.34166 8.73359H3.27051V7.33359C3.27051 7.00026 3.40399 6.66693 3.60421 6.46693C3.80443 6.20026 4.13813 6.06693 4.47183 6.06693C4.73879 6.06693 5.00575 6.13359 5.20598 6.33359C5.4062 6.53359 5.53968 6.73359 5.60642 7.00026L7.34166 5.93359V6.53359L5.67316 7.60026V8.20026H7.34166V8.73359ZM5.20598 8.20026V7.33359C5.20598 7.13359 5.13924 6.93359 5.00575 6.80026C4.87227 6.73359 4.67205 6.60026 4.47183 6.60026C4.33835 6.60026 4.13813 6.66693 4.00465 6.80026C3.87117 6.93359 3.80443 7.13359 3.80443 7.33359V8.20026H5.20598Z" fill="white"/>
</g>
<defs>
<clipPath id="clip0_15051_2768">
<rect width="120" height="40" rx="2" fill="white"/>
</clipPath>
</defs>
</svg>
