<svg width="148" height="148" viewBox="0 0 148 148" fill="none" xmlns="http://www.w3.org/2000/svg">
<g clip-path="url(#clip0_1473_4678)">
<circle opacity="0.3" cx="74" cy="74" r="71" stroke="#F52F6E" stroke-width="6"/>
<path d="M74 142C111.555 142 142 111.555 142 74C142 36.4446 111.555 6 74 6V0C114.869 0 148 33.1309 148 74C148 114.869 114.869 148 74 148C33.1309 148 0 114.869 0 74H6C6 111.555 36.4446 142 74 142Z" fill="#F52F6E"/>
<path d="M70.0535 76.944H72.4535V79.728C72.4535 79.9733 72.3682 80.1867 72.1975 80.368C72.0375 80.5493 71.8028 80.64 71.4935 80.64H70.0535V86H65.7335V80.64H56.3575C56.0482 80.64 55.7655 80.544 55.5095 80.352C55.2642 80.16 55.1095 79.92 55.0455 79.632L54.5335 77.184L65.3175 62.688H70.0535V76.944ZM65.7335 70.864C65.7335 70.4907 65.7442 70.0907 65.7655 69.664C65.7975 69.2267 65.8402 68.7787 65.8935 68.32L59.7335 76.944H65.7335V70.864ZM88.968 64.736C88.968 65.0773 88.9147 65.3867 88.808 65.664C88.7013 65.9413 88.5307 66.1867 88.296 66.4C88.072 66.6027 87.7733 66.7627 87.4 66.88C87.0267 66.9867 86.5787 67.04 86.056 67.04H80.488L79.832 70.896C80.2693 70.8213 80.6907 70.768 81.096 70.736C81.5013 70.6933 81.896 70.672 82.28 70.672C83.5067 70.672 84.5893 70.8587 85.528 71.232C86.4667 71.6053 87.256 72.1173 87.896 72.768C88.536 73.408 89.016 74.1653 89.336 75.04C89.6667 75.904 89.832 76.832 89.832 77.824C89.832 79.072 89.608 80.2133 89.16 81.248C88.7227 82.272 88.1093 83.1573 87.32 83.904C86.5307 84.6507 85.5867 85.232 84.488 85.648C83.4 86.0533 82.2053 86.256 80.904 86.256C80.1467 86.256 79.4213 86.176 78.728 86.016C78.0453 85.856 77.4 85.6427 76.792 85.376C76.1947 85.0987 75.64 84.784 75.128 84.432C74.616 84.0693 74.152 83.6853 73.736 83.28L75.272 81.232C75.432 81.0187 75.6187 80.8587 75.832 80.752C76.0453 80.6347 76.2747 80.576 76.52 80.576C76.84 80.576 77.1387 80.6667 77.416 80.848C77.704 81.0187 78.0133 81.2107 78.344 81.424C78.6853 81.6267 79.08 81.8133 79.528 81.984C79.976 82.1547 80.5307 82.24 81.192 82.24C81.8533 82.24 82.4187 82.1333 82.888 81.92C83.3573 81.696 83.736 81.3973 84.024 81.024C84.3227 80.64 84.536 80.1973 84.664 79.696C84.8027 79.184 84.872 78.64 84.872 78.064C84.872 76.9333 84.552 76.0747 83.912 75.488C83.272 74.8907 82.3653 74.592 81.192 74.592C80.1467 74.592 79.1227 74.7893 78.12 75.184L75.048 74.352L77.032 62.688H88.968V64.736Z" fill="#1E212C"/>
</g>
<defs>
<clipPath id="clip0_1473_4678">
<rect width="148" height="148" fill="white"/>
</clipPath>
</defs>
</svg>
