<svg width="148" height="148" viewBox="0 0 148 148" fill="none" xmlns="http://www.w3.org/2000/svg">
<g clip-path="url(#clip0_1473_4672)">
<circle opacity="0.3" cx="74" cy="74" r="71" stroke="#5A87FC" stroke-width="6"/>
<path d="M74 142C111.555 142 142 111.555 142 74C142 36.4446 111.555 6 74 6V0C114.869 0 148 33.1309 148 74C148 114.869 114.869 148 74 148C33.1309 148 0 114.869 0 74C0 62.1418 2.78922 50.935 7.74738 41L13.2072 43.5C8.59608 52.673 6 63.0333 6 74C6 111.555 36.4446 142 74 142Z" fill="#5A87FC"/>
<path d="M52.343 64.736C52.343 65.0773 52.2897 65.3867 52.183 65.664C52.0763 65.9413 51.9057 66.1867 51.671 66.4C51.447 66.6027 51.1483 66.7627 50.775 66.88C50.4017 66.9867 49.9537 67.04 49.431 67.04H43.863L43.207 70.896C43.6443 70.8213 44.0657 70.768 44.471 70.736C44.8763 70.6933 45.271 70.672 45.655 70.672C46.8817 70.672 47.9643 70.8587 48.903 71.232C49.8417 71.6053 50.631 72.1173 51.271 72.768C51.911 73.408 52.391 74.1653 52.711 75.04C53.0417 75.904 53.207 76.832 53.207 77.824C53.207 79.072 52.983 80.2133 52.535 81.248C52.0977 82.272 51.4843 83.1573 50.695 83.904C49.9057 84.6507 48.9617 85.232 47.863 85.648C46.775 86.0533 45.5803 86.256 44.279 86.256C43.5217 86.256 42.7963 86.176 42.103 86.016C41.4203 85.856 40.775 85.6427 40.167 85.376C39.5697 85.0987 39.015 84.784 38.503 84.432C37.991 84.0693 37.527 83.6853 37.111 83.28L38.647 81.232C38.807 81.0187 38.9937 80.8587 39.207 80.752C39.4203 80.6347 39.6497 80.576 39.895 80.576C40.215 80.576 40.5137 80.6667 40.791 80.848C41.079 81.0187 41.3883 81.2107 41.719 81.424C42.0603 81.6267 42.455 81.8133 42.903 81.984C43.351 82.1547 43.9057 82.24 44.567 82.24C45.2283 82.24 45.7937 82.1333 46.263 81.92C46.7323 81.696 47.111 81.3973 47.399 81.024C47.6977 80.64 47.911 80.1973 48.039 79.696C48.1777 79.184 48.247 78.64 48.247 78.064C48.247 76.9333 47.927 76.0747 47.287 75.488C46.647 74.8907 45.7403 74.592 44.567 74.592C43.5217 74.592 42.4977 74.7893 41.495 75.184L38.423 74.352L40.407 62.688H52.343V64.736ZM70.5535 76.944H72.9535V79.728C72.9535 79.9733 72.8682 80.1867 72.6975 80.368C72.5375 80.5493 72.3028 80.64 71.9935 80.64H70.5535V86H66.2335V80.64H56.8575C56.5482 80.64 56.2655 80.544 56.0095 80.352C55.7642 80.16 55.6095 79.92 55.5455 79.632L55.0335 77.184L65.8175 62.688H70.5535V76.944ZM66.2335 70.864C66.2335 70.4907 66.2442 70.0907 66.2655 69.664C66.2975 69.2267 66.3402 68.7787 66.3935 68.32L60.2335 76.944H66.2335V70.864ZM91.42 74.336C91.42 76.3733 91.2013 78.1387 90.764 79.632C90.3267 81.1253 89.7187 82.3627 88.94 83.344C88.172 84.3253 87.2547 85.056 86.188 85.536C85.132 86.016 83.9853 86.256 82.748 86.256C81.5107 86.256 80.364 86.016 79.308 85.536C78.2627 85.056 77.356 84.3253 76.588 83.344C75.82 82.3627 75.2173 81.1253 74.78 79.632C74.3533 78.1387 74.14 76.3733 74.14 74.336C74.14 72.2987 74.3533 70.5333 74.78 69.04C75.2173 67.5467 75.82 66.3093 76.588 65.328C77.356 64.3467 78.2627 63.6213 79.308 63.152C80.364 62.672 81.5107 62.432 82.748 62.432C83.9853 62.432 85.132 62.672 86.188 63.152C87.2547 63.6213 88.172 64.3467 88.94 65.328C89.7187 66.3093 90.3267 67.5467 90.764 69.04C91.2013 70.5333 91.42 72.2987 91.42 74.336ZM86.3 74.336C86.3 72.7253 86.1987 71.408 85.996 70.384C85.7933 69.3493 85.5213 68.5387 85.18 67.952C84.8493 67.3653 84.4707 66.9653 84.044 66.752C83.6173 66.528 83.1853 66.416 82.748 66.416C82.3107 66.416 81.8787 66.528 81.452 66.752C81.036 66.9653 80.6627 67.3653 80.332 67.952C80.012 68.5387 79.7507 69.3493 79.548 70.384C79.356 71.408 79.26 72.7253 79.26 74.336C79.26 75.9573 79.356 77.28 79.548 78.304C79.7507 79.328 80.012 80.1387 80.332 80.736C80.6627 81.3227 81.036 81.728 81.452 81.952C81.8787 82.1653 82.3107 82.272 82.748 82.272C83.1853 82.272 83.6173 82.1653 84.044 81.952C84.4707 81.728 84.8493 81.3227 85.18 80.736C85.5213 80.1387 85.7933 79.328 85.996 78.304C86.1987 77.28 86.3 75.9573 86.3 74.336ZM103.327 67.136V73.472H109.247V77.024H103.327V83.392H99.2945V77.024H93.4065V73.472H99.2945V67.136H103.327Z" fill="#1E212C"/>
</g>
<defs>
<clipPath id="clip0_1473_4672">
<rect width="148" height="148" fill="white"/>
</clipPath>
</defs>
</svg>
