<svg width="148" height="148" viewBox="0 0 148 148" fill="none" xmlns="http://www.w3.org/2000/svg">
<g clip-path="url(#clip0_1473_4666)">
<circle opacity="0.3" cx="74" cy="74" r="71" stroke="#F89828" stroke-width="6"/>
<path d="M74 142C111.555 142 142 111.555 142 74C142 36.4446 111.555 6 74 6V0C114.869 0 148 33.1309 148 74C148 114.869 114.869 148 74 148C33.1309 148 0 114.869 0 74C0 51.3485 10.1774 31.0741 26.209 17.5L30 22.1523C15.3167 34.6254 6 53.2247 6 74C6 111.555 36.4446 142 74 142Z" fill="#F89828"/>
<path d="M58.4695 82.416H62.9495V70.656C62.9495 70.08 62.9655 69.4773 62.9975 68.848L60.3575 71.04C60.1868 71.1787 60.0162 71.28 59.8455 71.344C59.6748 71.3973 59.5095 71.424 59.3495 71.424C59.0722 71.424 58.8215 71.3653 58.5975 71.248C58.3842 71.12 58.2242 70.9867 58.1175 70.848L56.5495 68.768L63.8135 62.672H67.9095V82.416H71.7495V86H58.4695V82.416ZM90.92 74.336C90.92 76.3733 90.7013 78.1387 90.264 79.632C89.8267 81.1253 89.2187 82.3627 88.44 83.344C87.672 84.3253 86.7547 85.056 85.688 85.536C84.632 86.016 83.4853 86.256 82.248 86.256C81.0107 86.256 79.864 86.016 78.808 85.536C77.7627 85.056 76.856 84.3253 76.088 83.344C75.32 82.3627 74.7173 81.1253 74.28 79.632C73.8533 78.1387 73.64 76.3733 73.64 74.336C73.64 72.2987 73.8533 70.5333 74.28 69.04C74.7173 67.5467 75.32 66.3093 76.088 65.328C76.856 64.3467 77.7627 63.6213 78.808 63.152C79.864 62.672 81.0107 62.432 82.248 62.432C83.4853 62.432 84.632 62.672 85.688 63.152C86.7547 63.6213 87.672 64.3467 88.44 65.328C89.2187 66.3093 89.8267 67.5467 90.264 69.04C90.7013 70.5333 90.92 72.2987 90.92 74.336ZM85.8 74.336C85.8 72.7253 85.6987 71.408 85.496 70.384C85.2933 69.3493 85.0213 68.5387 84.68 67.952C84.3493 67.3653 83.9707 66.9653 83.544 66.752C83.1173 66.528 82.6853 66.416 82.248 66.416C81.8107 66.416 81.3787 66.528 80.952 66.752C80.536 66.9653 80.1627 67.3653 79.832 67.952C79.512 68.5387 79.2507 69.3493 79.048 70.384C78.856 71.408 78.76 72.7253 78.76 74.336C78.76 75.9573 78.856 77.28 79.048 78.304C79.2507 79.328 79.512 80.1387 79.832 80.736C80.1627 81.3227 80.536 81.728 80.952 81.952C81.3787 82.1653 81.8107 82.272 82.248 82.272C82.6853 82.272 83.1173 82.1653 83.544 81.952C83.9707 81.728 84.3493 81.3227 84.68 80.736C85.0213 80.1387 85.2933 79.328 85.496 78.304C85.6987 77.28 85.8 75.9573 85.8 74.336Z" fill="#1E212C"/>
</g>
<defs>
<clipPath id="clip0_1473_4666">
<rect width="148" height="148" fill="white"/>
</clipPath>
</defs>
</svg>
