<svg width="148" height="148" viewBox="0 0 148 148" fill="none" xmlns="http://www.w3.org/2000/svg">
<g clip-path="url(#clip0_1473_4684)">
<circle cx="74" cy="74" r="71" stroke="#03CEA4" stroke-width="6"/>
<path d="M36.0945 82.416H40.5745V70.656C40.5745 70.08 40.5905 69.4773 40.6225 68.848L37.9825 71.04C37.8118 71.1787 37.6412 71.28 37.4705 71.344C37.2998 71.3973 37.1345 71.424 36.9745 71.424C36.6972 71.424 36.4465 71.3653 36.2225 71.248C36.0092 71.12 35.8492 70.9867 35.7425 70.848L34.1745 68.768L41.4385 62.672H45.5345V82.416H49.3745V86H36.0945V82.416ZM68.545 74.336C68.545 76.3733 68.3263 78.1387 67.889 79.632C67.4517 81.1253 66.8437 82.3627 66.065 83.344C65.297 84.3253 64.3797 85.056 63.313 85.536C62.257 86.016 61.1103 86.256 59.873 86.256C58.6357 86.256 57.489 86.016 56.433 85.536C55.3877 85.056 54.481 84.3253 53.713 83.344C52.945 82.3627 52.3423 81.1253 51.905 79.632C51.4783 78.1387 51.265 76.3733 51.265 74.336C51.265 72.2987 51.4783 70.5333 51.905 69.04C52.3423 67.5467 52.945 66.3093 53.713 65.328C54.481 64.3467 55.3877 63.6213 56.433 63.152C57.489 62.672 58.6357 62.432 59.873 62.432C61.1103 62.432 62.257 62.672 63.313 63.152C64.3797 63.6213 65.297 64.3467 66.065 65.328C66.8437 66.3093 67.4517 67.5467 67.889 69.04C68.3263 70.5333 68.545 72.2987 68.545 74.336ZM63.425 74.336C63.425 72.7253 63.3237 71.408 63.121 70.384C62.9183 69.3493 62.6463 68.5387 62.305 67.952C61.9743 67.3653 61.5957 66.9653 61.169 66.752C60.7423 66.528 60.3103 66.416 59.873 66.416C59.4357 66.416 59.0037 66.528 58.577 66.752C58.161 66.9653 57.7877 67.3653 57.457 67.952C57.137 68.5387 56.8757 69.3493 56.673 70.384C56.481 71.408 56.385 72.7253 56.385 74.336C56.385 75.9573 56.481 77.28 56.673 78.304C56.8757 79.328 57.137 80.1387 57.457 80.736C57.7877 81.3227 58.161 81.728 58.577 81.952C59.0037 82.1653 59.4357 82.272 59.873 82.272C60.3103 82.272 60.7423 82.1653 61.169 81.952C61.5957 81.728 61.9743 81.3227 62.305 80.736C62.6463 80.1387 62.9183 79.328 63.121 78.304C63.3237 77.28 63.425 75.9573 63.425 74.336ZM87.1075 74.336C87.1075 76.3733 86.8888 78.1387 86.4515 79.632C86.0142 81.1253 85.4062 82.3627 84.6275 83.344C83.8595 84.3253 82.9422 85.056 81.8755 85.536C80.8195 86.016 79.6728 86.256 78.4355 86.256C77.1982 86.256 76.0515 86.016 74.9955 85.536C73.9502 85.056 73.0435 84.3253 72.2755 83.344C71.5075 82.3627 70.9048 81.1253 70.4675 79.632C70.0408 78.1387 69.8275 76.3733 69.8275 74.336C69.8275 72.2987 70.0408 70.5333 70.4675 69.04C70.9048 67.5467 71.5075 66.3093 72.2755 65.328C73.0435 64.3467 73.9502 63.6213 74.9955 63.152C76.0515 62.672 77.1982 62.432 78.4355 62.432C79.6728 62.432 80.8195 62.672 81.8755 63.152C82.9422 63.6213 83.8595 64.3467 84.6275 65.328C85.4062 66.3093 86.0142 67.5467 86.4515 69.04C86.8888 70.5333 87.1075 72.2987 87.1075 74.336ZM81.9875 74.336C81.9875 72.7253 81.8862 71.408 81.6835 70.384C81.4808 69.3493 81.2088 68.5387 80.8675 67.952C80.5368 67.3653 80.1582 66.9653 79.7315 66.752C79.3048 66.528 78.8728 66.416 78.4355 66.416C77.9982 66.416 77.5662 66.528 77.1395 66.752C76.7235 66.9653 76.3502 67.3653 76.0195 67.952C75.6995 68.5387 75.4382 69.3493 75.2355 70.384C75.0435 71.408 74.9475 72.7253 74.9475 74.336C74.9475 75.9573 75.0435 77.28 75.2355 78.304C75.4382 79.328 75.6995 80.1387 76.0195 80.736C76.3502 81.3227 76.7235 81.728 77.1395 81.952C77.5662 82.1653 77.9982 82.272 78.4355 82.272C78.8728 82.272 79.3048 82.1653 79.7315 81.952C80.1582 81.728 80.5368 81.3227 80.8675 80.736C81.2088 80.1387 81.4808 79.328 81.6835 78.304C81.8862 77.28 81.9875 75.9573 81.9875 74.336ZM99.718 68.336C99.718 69.1893 99.5633 69.968 99.254 70.672C98.9447 71.376 98.534 71.984 98.022 72.496C97.51 72.9973 96.9127 73.3867 96.23 73.664C95.558 73.9413 94.854 74.08 94.118 74.08C93.3073 74.08 92.5607 73.9413 91.878 73.664C91.206 73.3867 90.6193 72.9973 90.118 72.496C89.6273 71.984 89.2433 71.376 88.966 70.672C88.6887 69.968 88.55 69.1893 88.55 68.336C88.55 67.4507 88.6887 66.6507 88.966 65.936C89.2433 65.2107 89.6273 64.592 90.118 64.08C90.6193 63.568 91.206 63.1733 91.878 62.896C92.5607 62.608 93.3073 62.464 94.118 62.464C94.9287 62.464 95.6753 62.608 96.358 62.896C97.0513 63.1733 97.6433 63.568 98.134 64.08C98.6353 64.592 99.0247 65.2107 99.302 65.936C99.5793 66.6507 99.718 67.4507 99.718 68.336ZM95.91 68.336C95.91 67.792 95.862 67.344 95.766 66.992C95.6807 66.6293 95.558 66.3413 95.398 66.128C95.238 65.9147 95.046 65.7653 94.822 65.68C94.6087 65.5947 94.374 65.552 94.118 65.552C93.862 65.552 93.6273 65.5947 93.414 65.68C93.2007 65.7653 93.0193 65.9147 92.87 66.128C92.7207 66.3413 92.6033 66.6293 92.518 66.992C92.4327 67.344 92.39 67.792 92.39 68.336C92.39 68.848 92.4327 69.2747 92.518 69.616C92.6033 69.9573 92.7207 70.2293 92.87 70.432C93.0193 70.6347 93.2007 70.7787 93.414 70.864C93.6273 70.9493 93.862 70.992 94.118 70.992C94.374 70.992 94.6087 70.9493 94.822 70.864C95.046 70.7787 95.238 70.6347 95.398 70.432C95.558 70.2293 95.6807 69.9573 95.766 69.616C95.862 69.2747 95.91 68.848 95.91 68.336ZM107.046 63.424C107.206 63.2427 107.403 63.0773 107.638 62.928C107.873 62.768 108.198 62.688 108.614 62.688H112.23L94.662 85.296C94.502 85.4987 94.2993 85.6693 94.054 85.808C93.8193 85.936 93.5313 86 93.19 86H89.478L107.046 63.424ZM113.126 80.528C113.126 81.3813 112.971 82.1653 112.662 82.88C112.353 83.584 111.942 84.192 111.43 84.704C110.918 85.2053 110.321 85.5947 109.638 85.872C108.966 86.1493 108.262 86.288 107.526 86.288C106.715 86.288 105.969 86.1493 105.286 85.872C104.614 85.5947 104.027 85.2053 103.526 84.704C103.035 84.192 102.651 83.584 102.374 82.88C102.097 82.1653 101.958 81.3813 101.958 80.528C101.958 79.6427 102.097 78.8427 102.374 78.128C102.651 77.4027 103.035 76.784 103.526 76.272C104.027 75.76 104.614 75.3653 105.286 75.088C105.969 74.8 106.715 74.656 107.526 74.656C108.337 74.656 109.083 74.8 109.766 75.088C110.459 75.3653 111.051 75.76 111.542 76.272C112.043 76.784 112.433 77.4027 112.71 78.128C112.987 78.8427 113.126 79.6427 113.126 80.528ZM109.318 80.528C109.318 79.9947 109.27 79.552 109.174 79.2C109.089 78.8373 108.966 78.5493 108.806 78.336C108.646 78.1227 108.454 77.9733 108.23 77.888C108.017 77.8027 107.782 77.76 107.526 77.76C107.27 77.76 107.035 77.8027 106.822 77.888C106.609 77.9733 106.427 78.1227 106.278 78.336C106.129 78.5493 106.011 78.8373 105.926 79.2C105.841 79.552 105.798 79.9947 105.798 80.528C105.798 81.04 105.841 81.4667 105.926 81.808C106.011 82.1493 106.129 82.4213 106.278 82.624C106.427 82.8267 106.609 82.9707 106.822 83.056C107.035 83.1413 107.27 83.184 107.526 83.184C107.782 83.184 108.017 83.1413 108.23 83.056C108.454 82.9707 108.646 82.8267 108.806 82.624C108.966 82.4213 109.089 82.1493 109.174 81.808C109.27 81.4667 109.318 81.04 109.318 80.528Z" fill="#1E212C"/>
</g>
<defs>
<clipPath id="clip0_1473_4684">
<rect width="148" height="148" fill="white"/>
</clipPath>
</defs>
</svg>
