<svg width="556" height="996" viewBox="0 0 556 996" fill="none" xmlns="http://www.w3.org/2000/svg">
<g opacity="0.4">
<path d="M155.604 824.046C163.216 817.045 171.176 809.976 179.26 802.797C205.37 779.609 232.769 755.277 253.873 728.42C281.493 693.27 298.253 653.884 287.176 607.216C276.422 561.906 241.158 538.688 199.443 519.395C189.018 514.573 178.199 510.001 167.265 505.39L166.494 505.064C155.815 500.561 145.035 496.015 134.427 491.162C112.7 481.225 91.6709 469.994 73.6623 455.184C53.9205 438.949 37.0338 417.738 21.3355 395.111C13.4855 383.796 5.9281 372.12 -1.54148 360.531C-2.03314 359.768 -2.52442 359.005 -3.01538 358.243C-9.98482 347.427 -16.8892 336.711 -23.9023 326.449C-53.9581 282.47 -85.8675 247.058 -132.953 247.929C-183.191 248.858 -229.114 277.511 -263.948 319.119C-298.779 360.725 -322.472 415.23 -328.264 467.738C-333.262 513.042 -310.296 550.557 -280.013 587.149C-270.873 598.193 -261.088 609.13 -251.213 620.167C-244.72 627.424 -238.189 634.723 -231.777 642.126C-215.627 660.768 -200.269 680.023 -188.332 700.734C-176.886 720.593 -168.397 742.98 -160.824 765.824C-157.823 774.877 -154.968 783.995 -152.131 793.057C-147.801 806.885 -143.512 820.584 -138.805 833.729C-123.227 877.235 -103.193 914.302 -62.5211 928.865C-20.1905 944.023 18.576 932.333 54.6689 909.57C84.0907 891.015 111.674 865.144 137.909 840.537C143.875 834.941 149.771 829.41 155.604 824.046Z" stroke="#00F0B5"/>
<path d="M118.841 768.321C124.837 762.806 131.107 757.238 137.473 751.585C158.029 733.33 179.591 714.181 196.201 693.043C217.936 665.382 231.114 634.403 222.403 597.703C213.948 562.08 186.225 543.818 153.387 528.63C145.18 524.835 136.663 521.235 128.055 517.604L127.444 517.347C119.038 513.802 110.549 510.222 102.196 506.401C85.0873 498.576 68.5201 489.728 54.3305 478.059C38.7754 465.267 25.4732 448.557 13.1113 430.739C6.92946 421.829 0.978325 412.635 -4.90275 403.51C-5.28972 402.91 -5.67637 402.309 -6.06276 401.71C-11.5504 393.193 -16.9858 384.757 -22.5068 376.678C-46.1728 342.049 -71.2667 314.219 -108.276 314.903C-147.789 315.634 -183.92 338.171 -211.334 370.917C-238.745 403.659 -257.391 446.554 -261.949 487.875C-265.879 523.499 -247.822 553.007 -223.983 581.814C-216.787 590.508 -209.086 599.116 -201.312 607.804C-196.2 613.517 -191.057 619.266 -186.006 625.097C-173.289 639.777 -161.191 654.943 -151.788 671.259C-142.771 686.904 -136.084 704.538 -130.121 722.526C-127.757 729.658 -125.509 736.838 -123.275 743.973C-119.866 754.858 -116.49 765.64 -112.785 775.988C-100.521 810.239 -84.7614 839.379 -52.7888 850.828C-19.5036 862.747 10.9834 853.559 39.386 835.646C62.5416 821.043 84.2495 800.682 104.905 781.308C109.604 776.902 114.247 772.546 118.841 768.321Z" stroke="#00F0B5"/>
<path d="M92.2842 728.058C97.113 723.617 102.161 719.134 107.286 714.583C123.829 699.891 141.174 684.488 154.536 667.482C172.02 645.232 182.609 620.328 175.607 590.829C168.813 562.205 146.54 547.524 120.114 535.302C113.511 532.249 106.658 529.352 99.7291 526.43L99.2408 526.224C92.474 523.37 85.6396 520.488 78.9142 517.412C65.1409 511.112 51.7978 503.987 40.3675 494.587C27.8375 484.283 17.1251 470.825 7.17392 456.482C2.19735 449.309 -2.59323 441.908 -7.32656 434.564C-7.63782 434.081 -7.94882 433.598 -8.25962 433.116C-12.6766 426.26 -17.0508 419.471 -21.4937 412.97C-40.5429 385.097 -60.7124 362.744 -90.4408 363.294C-122.205 363.882 -151.261 381.999 -173.314 408.341C-195.364 434.68 -210.363 469.187 -214.03 502.424C-217.188 531.055 -202.679 554.777 -183.494 577.959C-177.704 584.955 -171.508 591.88 -165.253 598.871C-161.138 603.47 -156.998 608.097 -152.93 612.793C-142.694 624.61 -132.952 636.822 -125.379 649.962C-118.117 662.563 -112.732 676.763 -107.933 691.242C-106.029 696.986 -104.219 702.766 -102.421 708.509C-99.6781 717.268 -96.9624 725.941 -93.9805 734.269C-84.1105 761.833 -71.4395 785.246 -45.7524 794.444C-19.0027 804.023 5.50223 796.643 28.3485 782.235C46.9766 770.487 64.4397 754.107 81.0643 738.515C84.8463 734.967 88.585 731.461 92.2842 728.058Z" stroke="#00F0B5"/>
</g>
</svg>
