<svg width="16" height="16" viewBox="0 0 16 16" fill="none" xmlns="http://www.w3.org/2000/svg">
<path fill-rule="evenodd" clip-rule="evenodd" d="M2.86225 2.86128C3.1226 2.60093 3.54471 2.60093 3.80506 2.86128L8.00032 7.05654L12.1956 2.86128C12.4559 2.60093 12.878 2.60093 13.1384 2.86128C13.3987 3.12163 13.3987 3.54374 13.1384 3.80409L8.94313 7.99934L13.1384 12.1946C13.3987 12.455 13.3987 12.8771 13.1384 13.1374C12.878 13.3978 12.4559 13.3978 12.1956 13.1374L8.00032 8.94215L3.80506 13.1374C3.54471 13.3978 3.1226 13.3978 2.86225 13.1374C2.60191 12.8771 2.6019 12.455 2.86225 12.1946L7.05751 7.99934L2.86225 3.80409C2.6019 3.54374 2.6019 3.12163 2.86225 2.86128Z" fill="#9A9CA5"/>
</svg>
