<svg width="488" height="404" viewBox="0 0 488 404" fill="none" xmlns="http://www.w3.org/2000/svg">
<path d="M291.271 47.2587L281.365 104.027L348.737 133.571L365.454 37.772L298.082 8.22754L291.271 47.2587Z" fill="#E5E8ED"/>
<path d="M291.277 47.2589C291.277 47.2589 310.57 42.7609 317.665 28.9703C317.665 28.9703 325.287 59.168 348.897 67.5147" stroke="#1E212C" stroke-width="1.5" stroke-linecap="round" stroke-linejoin="round"/>
<path d="M327.609 73.8248C328.648 74.0058 329.638 73.3107 329.819 72.2723C330 71.2338 329.304 70.2452 328.265 70.0641C327.225 69.8831 326.236 70.5782 326.055 71.6166C325.873 72.6551 326.569 73.6437 327.609 73.8248Z" fill="#1E212C"/>
<path d="M298.702 68.7896C299.742 68.9707 300.731 68.2756 300.912 67.2371C301.094 66.1987 300.398 65.21 299.359 65.029C298.319 64.8479 297.33 65.543 297.148 66.5815C296.967 67.62 297.663 68.6086 298.702 68.7896Z" fill="#1E212C"/>
<path d="M305.555 79.6024L310.612 50.6257L296.082 48.0947" stroke="#1E212C" stroke-width="1.5" stroke-linecap="round" stroke-linejoin="round"/>
<path d="M334.582 54.8012L320.052 52.2703" stroke="#1E212C" stroke-width="1.5" stroke-linecap="round" stroke-linejoin="round"/>
<path d="M354.433 73.5585L352.677 83.6213C358.11 84.5677 363.282 80.9345 364.229 75.5064C364.282 75.2049 364.32 74.9043 364.345 74.6048C364.859 68.4057 355.502 67.4306 354.433 73.5585Z" fill="#EDEEEF"/>
<path d="M352.679 83.6214C358.112 84.5678 363.285 80.9346 364.232 75.5065" stroke="#1E212C" stroke-width="1.5" stroke-linecap="round" stroke-linejoin="round"/>
<path d="M310.663 87.8529C313.303 88.3128 316.019 87.7059 318.211 86.1656C320.404 84.6253 321.895 82.2778 322.355 79.6396" stroke="#1E212C" stroke-width="1.5" stroke-linecap="round" stroke-linejoin="round"/>
<path d="M281.367 104.026L348.738 133.571" stroke="#1E212C" stroke-width="1.5" stroke-linecap="round" stroke-linejoin="round"/>
<path d="M305.551 79.627L311.633 82.2944" stroke="#1E212C" stroke-width="1.5" stroke-linecap="round" stroke-linejoin="round"/>
<path d="M289.272 58.7459C289.272 58.7459 270.155 -9.4708 327.996 6.7516C327.996 6.7516 415.119 35.1284 355.36 95.6412" stroke="#1E212C" stroke-width="1.5" stroke-linecap="round" stroke-linejoin="round"/>
<path d="M487.166 343.248H21.747C21.5258 343.248 21.3137 343.161 21.1573 343.004C21.0009 342.848 20.9131 342.636 20.9131 342.415C20.9131 342.194 21.0009 341.982 21.1573 341.826C21.3137 341.67 21.5258 341.582 21.747 341.582H487.166C487.387 341.582 487.599 341.67 487.755 341.826C487.912 341.982 487.999 342.194 487.999 342.415C487.999 342.636 487.912 342.848 487.755 343.004C487.599 343.161 487.387 343.248 487.166 343.248Z" fill="#D7DADD"/>
<path d="M120.51 189.486C186.643 189.486 240.254 148.508 240.254 97.9589C240.254 47.4098 186.643 6.43164 120.51 6.43164C54.377 6.43164 0.765625 47.4098 0.765625 97.9589C0.765625 148.508 54.377 189.486 120.51 189.486Z" fill="white"/>
<path d="M120.562 190.319C54.0851 190.319 0 148.896 0 97.959C0 47.0216 54.0351 5.61523 120.562 5.61523C187.088 5.61523 241.14 47.0383 241.14 97.959C241.14 148.88 187.005 190.319 120.562 190.319ZM120.562 7.28149C55.0024 7.28149 1.66775 47.9547 1.66775 97.959C1.66775 147.963 55.0357 188.653 120.562 188.653C186.087 188.653 239.472 147.98 239.472 97.959C239.472 47.9381 186.087 7.28149 120.562 7.28149Z" fill="#D7DADD"/>
<path d="M253.581 58.5854C253.018 58.6022 252.459 58.6804 251.913 58.8187C245.659 60.4849 243.908 69.0495 250.929 71.3489C251.899 71.6115 252.913 71.6667 253.906 71.5107C254.898 71.3548 255.847 70.9912 256.689 70.4439C257.531 69.8966 258.248 69.1777 258.793 68.3345C259.338 67.4912 259.699 66.5425 259.852 65.5503C259.965 64.6682 259.886 63.7722 259.62 62.9233C259.355 62.0744 258.91 61.2927 258.314 60.6316C257.719 59.9704 256.988 59.4454 256.171 59.0922C255.354 58.7391 254.471 58.5662 253.581 58.5854Z" fill="white"/>
<path d="M252.781 72.482C252.056 72.4811 251.336 72.3687 250.646 72.1488C249.15 71.7706 247.828 70.8943 246.897 69.6646C245.966 68.4348 245.483 66.9249 245.526 65.3838C245.624 63.6567 246.275 62.0068 247.383 60.6776C248.491 59.3485 249.998 58.4105 251.68 58.0022C252.301 57.8428 252.94 57.7643 253.581 57.769C254.585 57.7489 255.582 57.9453 256.503 58.3447C257.424 58.7441 258.248 59.3372 258.92 60.0836C259.591 60.83 260.093 61.7121 260.392 62.6698C260.691 63.6276 260.78 64.6385 260.653 65.6337C260.515 66.7589 260.125 67.8388 259.513 68.7935C258.901 69.7481 258.082 70.5531 257.117 71.149C255.831 72.0018 254.325 72.4647 252.781 72.482ZM253.581 59.4352C253.081 59.4304 252.582 59.492 252.097 59.6185C250.764 59.9341 249.567 60.6697 248.684 61.7169C247.801 62.7641 247.279 64.0672 247.194 65.4337C247.166 66.6142 247.545 67.7683 248.268 68.7027C248.991 69.637 250.013 70.2948 251.163 70.5658C252.014 70.7884 252.902 70.8306 253.771 70.6897C254.639 70.5488 255.468 70.2279 256.205 69.7477C256.941 69.2675 257.569 68.6385 258.048 67.9013C258.527 67.1641 258.846 66.3349 258.985 65.4671C259.086 64.7062 259.021 63.9326 258.795 63.199C258.57 62.4654 258.188 61.7892 257.676 61.2165C257.165 60.6438 256.536 60.1882 255.832 59.8808C255.128 59.5734 254.366 59.4214 253.598 59.4352H253.581Z" fill="#B3B7BC"/>
<path d="M399.276 229.26L433.748 220.529C432.447 218.063 411.5 155.262 392.288 143.049C375.794 129.352 342.672 128.052 305.165 126.553C293.159 125.851 281.118 127.026 269.475 130.035C225.73 142.115 194.993 204.1 194.993 204.1L238.088 212.615C238.088 212.615 231.233 276.632 225.229 354.679C225.229 354.679 293.907 370.126 401.21 364.11C401.21 364.11 398.258 240.358 399.276 229.26Z" fill="#00F0B5"/>
<path d="M294.375 148.33L258.719 362.26L331.182 367.492L346.893 136.083L294.375 148.33Z" fill="#1E212C"/>
<path d="M331.183 368.324L258.736 363.092C258.62 363.083 258.506 363.05 258.403 362.995C258.3 362.941 258.209 362.866 258.135 362.776C257.998 362.589 257.938 362.356 257.969 362.126L293.625 148.196C293.648 148.035 293.72 147.886 293.83 147.767C293.94 147.647 294.084 147.565 294.242 147.529L346.776 135.266C346.902 135.233 347.033 135.233 347.158 135.265C347.284 135.297 347.399 135.36 347.493 135.449C347.594 135.531 347.674 135.635 347.726 135.754C347.778 135.873 347.802 136.003 347.794 136.132L332.083 367.541C332.076 367.65 332.048 367.756 331.999 367.853C331.95 367.95 331.883 368.037 331.8 368.108C331.716 368.183 331.619 368.241 331.513 368.278C331.407 368.315 331.295 368.331 331.183 368.324ZM259.703 361.576L330.416 366.691L345.992 137.215L295.093 149.096L259.703 361.576Z" fill="#1E212C"/>
<path d="M432.097 288.612C431.917 288.613 431.741 288.555 431.597 288.445L406.998 269.583C406.823 269.445 406.708 269.245 406.677 269.025C406.646 268.805 406.701 268.581 406.831 268.4C406.968 268.23 407.167 268.119 407.384 268.091C407.602 268.063 407.822 268.12 407.998 268.25L432.614 287.129C432.749 287.237 432.846 287.383 432.894 287.549C432.941 287.714 432.937 287.89 432.88 288.053C432.823 288.215 432.718 288.356 432.577 288.456C432.437 288.557 432.269 288.611 432.097 288.612Z" fill="#1E212C"/>
<path d="M336.885 150.813C336.885 150.813 327.463 141.782 324.961 130.735C322.459 119.688 323.427 117.305 321.709 116.922C319.991 116.539 317.089 117.705 314.938 121.471C312.787 125.236 313.37 138.483 316.873 143.815C320.375 149.147 336.885 150.813 336.885 150.813Z" fill="white"/>
<path d="M336.883 151.628H336.8C336.116 151.545 319.855 149.846 316.17 144.247C312.484 138.648 311.85 125.135 314.218 121.036C316.587 116.937 319.722 115.621 321.873 116.037C323.424 116.37 323.541 117.703 323.991 120.519C324.275 122.586 324.692 125.718 325.776 130.517C328.194 141.181 337.367 150.095 337.45 150.179C337.57 150.302 337.651 150.458 337.684 150.626C337.716 150.795 337.699 150.97 337.634 151.129C337.568 151.274 337.463 151.398 337.33 151.486C337.197 151.574 337.043 151.624 336.883 151.628ZM321.073 117.687C319.722 117.687 317.454 118.72 315.653 121.852C313.852 124.985 314.152 138.148 317.571 143.33C319.872 146.846 329.245 148.879 334.665 149.679C331.796 146.513 326.059 139.331 324.158 130.9C323.057 126.068 322.624 122.886 322.34 120.786C322.007 118.37 321.89 117.803 321.523 117.72C321.374 117.697 321.223 117.691 321.073 117.703V117.687Z" fill="#1E212C"/>
<path d="M197.611 205.266C197.611 205.266 155.717 308.257 171.427 339.582C187.138 370.908 341.654 384.904 341.654 384.904C341.654 384.904 361.301 393.236 367.404 394.502C373.508 395.768 396.657 397.118 396.657 397.118C396.657 397.118 387.918 398.784 390.97 401.467C394.022 404.15 410.983 404.083 412.801 397.984C414.618 391.886 409.749 367.459 404.462 363.526C399.175 359.594 339.853 345.198 335.5 344.781C331.148 344.364 233.368 310.473 233.368 310.473L246.026 214.83" fill="white"/>
<path d="M399.324 404C395.438 404 391.853 403.35 390.435 402.133C390.085 401.897 389.814 401.561 389.656 401.169C389.499 400.777 389.462 400.347 389.551 399.934C389.793 399.411 390.14 398.943 390.571 398.559C391.001 398.175 391.505 397.883 392.053 397.701C384.965 397.251 371.723 396.302 367.237 395.335C361.3 394.069 343.255 386.504 341.453 385.754C333.482 385.021 186.353 371.224 170.676 339.949C164.005 326.736 166.473 299.959 177.831 260.419C186.169 231.059 196.743 205.216 196.843 204.949C196.927 204.744 197.089 204.58 197.294 204.494C197.499 204.408 197.73 204.407 197.935 204.491C198.141 204.575 198.305 204.737 198.391 204.942C198.477 205.146 198.478 205.377 198.394 205.582C197.977 206.615 156.817 308.507 172.177 339.216C187.537 369.925 340.186 383.971 341.737 384.105C341.814 384.088 341.894 384.088 341.97 384.105C342.171 384.188 361.617 392.436 367.587 393.652C373.558 394.869 396.472 396.235 396.706 396.252C396.907 396.263 397.098 396.347 397.242 396.488C397.386 396.629 397.474 396.817 397.49 397.018C397.499 397.22 397.438 397.419 397.316 397.58C397.194 397.741 397.02 397.855 396.823 397.901C394.304 398.401 391.369 399.567 391.169 400.301C391.169 400.417 391.319 400.634 391.519 400.8C393.187 402.233 401.192 403.033 407.163 401.25C409.064 400.667 411.466 399.584 411.999 397.718C413.767 391.553 408.664 367.725 404.011 364.16C399.358 360.594 340.753 346.097 335.466 345.581C331.047 345.131 237.069 312.606 233.133 311.223C232.953 311.162 232.799 311.041 232.699 310.88C232.599 310.719 232.557 310.528 232.583 310.34L245.241 214.68C245.255 214.571 245.291 214.465 245.346 214.369C245.401 214.274 245.474 214.19 245.562 214.123C245.649 214.055 245.749 214.006 245.856 213.977C245.963 213.948 246.074 213.941 246.183 213.955C246.293 213.969 246.398 214.005 246.494 214.06C246.59 214.115 246.674 214.188 246.741 214.276C246.809 214.363 246.858 214.463 246.887 214.57C246.916 214.676 246.923 214.787 246.909 214.897L234.334 309.873C268.306 321.637 332.298 343.581 335.65 343.915C339.002 344.248 399.308 358.544 405.028 362.827C410.748 367.109 415.401 391.936 413.617 398.184C413.033 400.234 410.965 401.85 407.663 402.85C404.951 403.62 402.144 404.007 399.324 404Z" fill="#1E212C"/>
<path d="M374.826 235.359C374.826 235.359 346.691 163.377 338.786 151.53C330.881 139.683 296.192 110.757 291.873 113.639C287.553 116.522 288.821 119.738 290.622 121.97C292.423 124.203 302.479 131.118 302.479 131.118C302.479 131.118 291.155 125.92 290.805 132.784C290.455 139.649 299.144 143.748 299.144 143.748C299.144 143.748 289.621 136.733 289.254 144.282C289.207 146.483 289.816 148.648 291.004 150.503C292.191 152.357 293.905 153.817 295.925 154.696C295.925 154.696 285.785 146.098 286.753 155.062C288.42 169.792 318.04 187.388 318.04 187.388L330.614 309.807C330.614 309.807 335.117 380.806 380.463 378.657C438.651 375.891 455.512 292.012 426.427 221.079" fill="white"/>
<path d="M378.362 379.422C334.6 379.422 329.73 310.439 329.68 309.74L317.156 187.77C313.587 185.604 287.403 169.275 285.835 155.028C285.568 152.595 286.069 151.029 287.32 150.363C288.079 150 288.946 149.929 289.755 150.163C288.704 148.333 288.211 146.236 288.337 144.131C288.278 143.343 288.442 142.555 288.81 141.857C289.179 141.158 289.738 140.578 290.422 140.182C291.161 139.862 291.977 139.758 292.773 139.882C290.912 137.933 289.899 135.327 289.955 132.634C289.95 131.922 290.124 131.221 290.463 130.595C290.801 129.969 291.291 129.438 291.889 129.051C293.678 128.234 295.698 128.075 297.593 128.601C294.898 126.745 292.349 124.684 289.971 122.436C289.277 121.792 288.751 120.988 288.439 120.095C288.127 119.201 288.037 118.245 288.178 117.309C288.32 116.373 288.688 115.486 289.25 114.724C289.812 113.963 290.552 113.35 291.406 112.939C294.574 110.822 307.249 120.47 314.504 126.419C323.86 134.067 335.201 144.664 339.52 151.062C347.375 162.859 374.543 232.109 375.644 235.058C375.72 235.264 375.711 235.491 375.621 235.691C375.53 235.89 375.365 236.046 375.16 236.125C375.06 236.167 374.952 236.189 374.842 236.189C374.733 236.188 374.625 236.165 374.525 236.121C374.426 236.078 374.336 236.014 374.261 235.934C374.187 235.855 374.129 235.761 374.093 235.658C373.809 234.942 345.891 163.643 338.119 151.995C334.5 146.564 324.61 136.799 313.487 127.702C300.028 116.688 293.474 113.638 292.373 114.371C291.747 114.704 291.198 115.165 290.764 115.726C290.33 116.286 290.02 116.932 289.855 117.621C289.826 118.315 289.938 119.008 290.184 119.658C290.431 120.309 290.807 120.902 291.289 121.403C292.706 123.069 300.211 128.468 302.963 130.401C303.132 130.522 303.25 130.702 303.293 130.905C303.337 131.109 303.302 131.321 303.197 131.501C303.097 131.684 302.931 131.823 302.733 131.888C302.534 131.953 302.318 131.94 302.129 131.85C300.295 131.001 295.041 129.134 292.756 130.517C292.391 130.761 292.095 131.094 291.896 131.485C291.698 131.876 291.603 132.312 291.622 132.75C291.422 136.616 294.458 139.582 296.809 141.298C297.767 141.783 298.687 142.34 299.561 142.964C299.719 143.09 299.826 143.269 299.862 143.468C299.898 143.667 299.86 143.871 299.756 144.045C299.652 144.218 299.489 144.347 299.297 144.409C299.104 144.471 298.896 144.461 298.71 144.381C297.728 143.901 296.785 143.344 295.892 142.714C294.224 141.831 292.239 141.231 291.139 141.748C290.455 142.065 290.071 142.914 290.005 144.264C289.926 145.577 290.124 146.892 290.586 148.123C291.049 149.355 291.766 150.475 292.69 151.412C293.988 152.169 295.221 153.033 296.375 153.995C296.525 154.124 296.625 154.302 296.655 154.498C296.686 154.693 296.646 154.893 296.542 155.061C296.438 155.231 296.277 155.358 296.087 155.419C295.897 155.48 295.692 155.472 295.508 155.395C294.133 154.771 292.879 153.908 291.806 152.845C290.288 151.995 288.854 151.479 288.103 151.879C287.353 152.279 287.303 153.262 287.486 154.895C289.037 169.041 318.073 186.42 318.356 186.554C318.47 186.62 318.567 186.711 318.639 186.821C318.712 186.931 318.758 187.056 318.773 187.187L331.348 309.606C331.348 310.34 336.251 379.839 380.313 377.706C398.575 376.84 413.752 367.709 424.242 351.246C444.121 320.07 444.655 267.833 425.559 221.278C425.481 221.075 425.484 220.848 425.567 220.647C425.651 220.445 425.81 220.283 426.01 220.195C426.216 220.116 426.445 220.118 426.649 220.202C426.854 220.286 427.019 220.444 427.11 220.645C446.39 267.683 445.806 320.52 425.643 352.146C414.869 369.058 399.209 378.473 380.397 379.372L378.362 379.422Z" fill="#1E212C"/>
<path d="M373.376 232.592C373.376 232.592 396.074 294.243 401.894 314.571L373.376 232.592Z" fill="white"/>
<path d="M401.896 315.405C401.714 315.408 401.538 315.351 401.393 315.242C401.248 315.134 401.143 314.98 401.095 314.806C395.341 294.727 372.827 233.492 372.593 232.876C372.552 232.772 372.533 232.661 372.535 232.55C372.538 232.439 372.563 232.329 372.609 232.228C372.655 232.126 372.721 232.035 372.803 231.959C372.884 231.883 372.981 231.825 373.085 231.787C373.19 231.749 373.302 231.733 373.413 231.738C373.524 231.744 373.633 231.772 373.734 231.821C373.834 231.87 373.923 231.938 373.997 232.022C374.07 232.106 374.126 232.204 374.161 232.309C374.378 232.926 396.926 294.211 402.696 314.356C402.754 314.568 402.727 314.794 402.621 314.986C402.515 315.179 402.339 315.323 402.129 315.389L401.896 315.405Z" fill="#1E212C"/>
<path d="M249.713 173.29C249.713 175.04 246.211 207.598 246.211 207.598L249.713 173.29Z" fill="#1E212C"/>
<path d="M246.209 208.415H246.125C245.907 208.39 245.707 208.279 245.569 208.108C245.432 207.936 245.368 207.717 245.391 207.498C246.359 198.467 248.877 174.69 248.877 173.29C248.877 173.069 248.965 172.857 249.121 172.701C249.278 172.545 249.49 172.457 249.711 172.457C249.932 172.457 250.144 172.545 250.301 172.701C250.457 172.857 250.545 173.069 250.545 173.29C250.545 175.056 247.209 206.349 247.059 207.682C247.034 207.888 246.933 208.077 246.776 208.213C246.619 208.348 246.416 208.42 246.209 208.415Z" fill="#1E212C"/>
<path d="M99.6821 111.539C98.7149 99.0923 103.618 90.911 117.444 81.0135C129.902 72.249 133.454 67.6834 132.92 60.7351C132.27 52.4039 124.732 47.8217 113.491 48.6881C99.5988 49.7712 91.727 59.4022 91.9438 75.3482L61.5407 75.4482C60.2065 44.9724 80.1028 23.5111 111.573 21.0783C139.558 18.9122 161.289 34.2584 163.073 57.3193C164.174 71.3992 158.07 81.9299 142.443 93.1938C129.818 102.591 127.033 106.291 127.584 113.439L128.134 120.587L100.549 122.77L99.6821 111.539ZM99.6821 137L132.237 134.467L134.688 166.126L102.05 168.625L99.6821 137Z" fill="#1E212C"/>
<path d="M270.407 79.0977C275.193 80.0642 275.71 71.8829 270.657 72.7993C269.909 72.8991 269.221 73.2591 268.714 73.816C268.206 74.3728 267.911 75.0908 267.881 75.8434C267.852 76.5961 268.088 77.3351 268.55 77.9304C269.012 78.5257 269.67 78.9391 270.407 79.0977Z" fill="white"/>
<path d="M271.177 79.9801C270.863 79.9789 270.55 79.9454 270.243 79.8801C269.332 79.7354 268.503 79.2658 267.912 78.5582C267.32 77.8506 267.005 76.9529 267.024 76.031C267.031 75.0493 267.384 74.1014 268.022 73.3545C268.659 72.6076 269.541 72.1097 270.51 71.9487C271.232 71.7637 271.994 71.8051 272.692 72.0674C273.391 72.3297 273.991 72.8002 274.412 73.415C274.879 74.1709 275.115 75.0464 275.092 75.9343C275.068 76.8222 274.786 77.6839 274.279 78.4138C273.934 78.9129 273.469 79.3177 272.927 79.5913C272.386 79.8649 271.784 79.9985 271.177 79.9801ZM270.66 78.3138C271.089 78.4386 271.547 78.4235 271.967 78.2707C272.386 78.1179 272.747 77.8353 272.995 77.464C273.291 77.0081 273.457 76.48 273.475 75.9367C273.492 75.3934 273.361 74.8556 273.095 74.3815C272.85 74.0459 272.506 73.795 272.111 73.6636C271.717 73.5322 271.291 73.5268 270.893 73.6483C270.308 73.749 269.777 74.0504 269.39 74.5005C269.004 74.9506 268.786 75.5213 268.775 76.1144C268.759 76.6496 268.943 77.1718 269.291 77.5787C269.64 77.9855 270.128 78.2477 270.66 78.3138Z" fill="#B3B7BC"/>
<path d="M107.086 291.594C107.298 288.78 106.622 285.971 105.152 283.562C103.709 281.933 102.351 280.231 101.082 278.463C99.4146 275.131 100.565 271.349 100.165 267.766C99.7638 264.678 98.2523 261.842 95.9123 259.785C93.7942 257.885 91.0758 256.586 89.0412 254.603C85.7057 251.37 84.7717 246.805 82.8872 242.756C80.0228 236.847 75.3497 232.003 69.5452 228.926C73.1642 235.374 64.9255 243.572 68.6613 249.971C69.8454 251.987 72.0968 253.47 72.9641 255.619C75.0654 260.801 68.0942 266.416 70.3123 271.565C71.4297 274.131 74.5484 275.614 75.9827 278.047C77.9339 281.379 76.3996 285.312 76.5664 289.028C76.7832 294.143 80.3022 298.708 84.4715 302.258C87.0732 304.457 89.9584 306.373 92.8103 308.356C96.1458 310.739 97.5967 313.255 100.549 309.422C104.576 304.328 106.866 298.081 107.086 291.594Z" fill="#D7DADD"/>
<path d="M114.591 294.01C113.507 290.044 112.739 285.762 114.591 282.03C116.659 277.797 121.779 274.815 122.379 270.249C122.779 267.25 121.061 264.217 121.729 261.268C122.396 258.319 125.064 256.269 127.382 254.12C132.456 249.296 135.563 242.767 136.105 235.791C139.532 239.362 142.349 243.471 144.443 247.955C145.437 250.155 145.847 252.574 145.634 254.979C145.42 257.384 144.591 259.693 143.226 261.685C142.379 262.592 141.671 263.62 141.124 264.734C140.107 267.65 142.926 270.366 144.46 273.065C145.321 274.625 145.684 276.41 145.503 278.181C145.321 279.953 144.602 281.627 143.443 282.979C140.491 286.312 134.804 287.512 133.436 291.477C133.072 292.954 132.898 294.472 132.919 295.993C132.487 298.749 131.23 301.31 129.312 303.338C127.395 305.367 124.908 306.768 122.179 307.357C118.677 308.09 118.843 306.873 118.126 304.274C117.059 300.875 115.558 297.492 114.591 294.01Z" fill="#D7DADD"/>
<path d="M103.484 265.551C100.999 257.953 99.998 250.005 97.3964 242.44C95.1498 236.491 92.434 230.73 89.2744 225.211L99.9147 229.177C103.25 230.46 107.019 231.959 108.637 234.909C111.439 240.057 106.402 246.656 109.337 251.738C110.622 253.404 112.033 254.969 113.557 256.42C116.692 260.319 116.209 265.684 114.491 270.216C113.757 272.166 110.522 282.263 107.636 279.464C106.486 278.331 106.386 274.149 105.969 272.616C105.168 270.25 104.251 267.917 103.484 265.551Z" fill="#D7DADD"/>
<path d="M101.947 335.866C100.079 322.12 98.4618 310.189 98.4451 309.989L96.7773 310.206C96.7773 310.406 98.4451 322.203 100.246 335.866H101.947Z" fill="#D7DADD"/>
<path d="M116.324 335.867C118.609 318.105 120.977 304.924 122.311 303.458L121.077 302.342C119.226 304.375 116.724 319.787 114.656 335.867H116.324Z" fill="#D7DADD"/>
<path d="M114.292 335.866C112.474 303.758 109.289 271.899 109.289 271.482L107.621 271.649C107.621 272.066 110.957 303.841 112.624 335.866H114.292Z" fill="#D7DADD"/>
<path d="M85.4053 316.788H132.569L129.234 352.213C128.667 358.344 121.796 363.11 113.524 363.11H104.401C96.0622 363.11 89.2578 358.344 88.6741 352.213L85.4053 316.788Z" fill="#D7DADD"/>
</svg>
