<svg width="61" height="47" viewBox="0 0 61 47" fill="none" xmlns="http://www.w3.org/2000/svg">
<path fill-rule="evenodd" clip-rule="evenodd" d="M0 9.85153C0 7.44496 0.959581 5.13241 2.67177 3.42149C4.38397 1.72937 6.69825 0.770508 9.12543 0.770508C20.5463 0.770508 39.9637 0.770508 51.3658 0.770508C53.793 0.770508 56.1073 1.72937 57.8195 3.42149C59.5316 5.13241 60.4912 7.42616 60.4912 9.85153C60.4912 15.5295 60.4912 22.8432 60.4912 28.5212C60.4912 30.9278 59.5316 33.2403 57.8195 34.9324C56.1073 36.6434 53.793 37.5834 51.3658 37.5834C39.9637 37.5834 20.5463 37.5834 9.12543 37.5834C6.69825 37.5834 4.38397 36.6246 2.67177 34.9324C0.959581 33.2403 0 30.9278 0 28.5212C0 22.8432 0 15.5295 0 9.85153Z" fill="#FC5A5A"/>
<path fill-rule="evenodd" clip-rule="evenodd" d="M55.3359 31.1895C55.3359 31.1895 50.6132 40.7593 48.2613 45.516C48.0167 46.0237 47.4899 46.3621 46.9254 46.3809C46.3422 46.3997 45.8153 46.0989 45.5331 45.5912C42.899 40.9097 37.5742 31.4339 37.5742 31.4339L55.3359 31.1895Z" fill="#FC5A5A"/>
<path fill-rule="evenodd" clip-rule="evenodd" d="M18.3443 11.7295C20.6585 11.7295 22.5401 13.666 22.5401 16.0538C22.5401 18.4416 20.6585 20.3781 18.3443 20.3781C16.03 20.3781 14.1484 18.4416 14.1484 16.0538C14.1484 13.666 16.03 11.7295 18.3443 11.7295Z" fill="white"/>
<path fill-rule="evenodd" clip-rule="evenodd" d="M9.08691 27.1849C10.0465 15.4716 27.2061 16.8441 27.0744 27.3541C20.9782 27.2789 9.08691 27.1849 9.08691 27.1849Z" fill="white"/>
<path d="M41.789 25.4194V23.9529H36.182V23.9153L37.1792 22.9565C39.8133 20.3243 41.4879 18.3878 41.4879 15.9812C41.4879 14.1199 40.359 12.2021 37.6684 12.2021C36.2196 12.2021 34.9966 12.7662 34.1311 13.5182L34.6768 14.7591C35.26 14.2515 36.2008 13.6686 37.3297 13.6686C39.1924 13.6686 39.8133 14.8907 39.8133 16.2068C39.7945 18.1622 38.3457 19.8355 35.166 22.9941L33.8301 24.329V25.4006H41.789V25.4194Z" fill="white"/>
<path d="M43.6133 24.7614C44.2342 25.175 45.4572 25.6451 46.8683 25.6451C49.86 25.6451 51.4216 23.8213 51.4216 21.7532C51.4216 19.9295 50.1798 18.7262 48.637 18.4066V18.369C50.1798 17.7861 50.9513 16.6581 50.9513 15.3044C50.9513 13.7251 49.8412 12.2021 47.3763 12.2021C46.0216 12.2021 44.761 12.7098 44.1025 13.1986L44.554 14.4771C45.0997 14.0823 46.0593 13.6122 47.0565 13.6122C48.6182 13.6122 49.2391 14.5335 49.2391 15.5676C49.2391 17.1093 47.6774 17.7673 46.4544 17.7673H45.5136V19.0834H46.4544C48.0913 19.0834 49.6718 19.8543 49.6906 21.678C49.7094 22.7497 49.0321 24.1974 46.8683 24.1974C45.7018 24.1974 44.5729 23.6897 44.1025 23.3701L43.6133 24.7614Z" fill="white"/>
</svg>
