<svg width="57" height="43" viewBox="0 0 57 43" fill="none" xmlns="http://www.w3.org/2000/svg">
<path fill-rule="evenodd" clip-rule="evenodd" d="M57 7.96943C57 3.56397 53.4169 0 48.9916 0C38.1431 0 18.8734 0 8.0084 0C3.58314 0 0 3.56397 0 7.96943C0 13.4804 0 20.7898 0 26.3008C0 30.7062 3.58314 34.2702 8.0084 34.2702C18.8569 34.2702 38.1431 34.2702 48.9916 34.2702C53.4169 34.2702 57 30.7062 57 26.3008C57 20.7898 57 13.4804 57 7.96943Z" fill="#FC5A5A"/>
<path fill-rule="evenodd" clip-rule="evenodd" d="M4.85449 28.3125C4.85449 28.3125 9.41185 37.4534 11.608 41.8259C11.8391 42.2714 12.285 42.5519 12.7803 42.5684C13.2757 42.5849 13.7546 42.3209 14.0022 41.8919C16.446 37.6019 21.5978 28.5435 21.5978 28.5435L4.85449 28.3125Z" fill="#FC5A5A"/>
<path d="M31.6053 22.5556H32.8933V12.2432H31.7539L29.5908 13.4477L29.855 14.5036L31.5723 13.5467H31.6053V22.5556Z" fill="white"/>
<path d="M42.7998 22.5564V21.4014H38.3581V21.3684L39.1506 20.6094C41.2312 18.5139 42.5521 16.9795 42.5521 15.0655C42.5521 13.597 41.6605 12.0625 39.5304 12.0625C38.3911 12.0625 37.4169 12.508 36.7399 13.1185L37.1692 14.1085C37.6315 13.7125 38.3746 13.234 39.2662 13.234C40.7358 13.234 41.2312 14.2075 41.2312 15.247C41.2147 16.798 40.0753 18.1344 37.549 20.6424L36.4922 21.6984V22.5564H42.7998Z" fill="white"/>
<path d="M44.252 22.0283C44.7308 22.3583 45.705 22.7213 46.8278 22.7213C49.2056 22.7213 50.4275 21.2693 50.4275 19.6193C50.4275 18.1673 49.4367 17.2268 48.2148 16.9629V16.9299C49.4367 16.4679 50.0312 15.5604 50.0312 14.5044C50.0312 13.2504 49.156 12.0459 47.2076 12.0459C46.1508 12.0459 45.1436 12.4419 44.6152 12.8379L44.962 13.8609C45.3913 13.5474 46.1508 13.1844 46.9434 13.1844C48.1818 13.1844 48.6772 13.9104 48.6772 14.7354C48.6772 15.9564 47.4388 16.4844 46.4646 16.4844H45.738V17.5238H46.4811C47.769 17.5238 49.0239 18.1508 49.0405 19.5863C49.057 20.4443 48.5286 21.5828 46.8113 21.5828C45.8866 21.5828 44.995 21.1868 44.6152 20.9393L44.252 22.0283Z" fill="white"/>
<path fill-rule="evenodd" clip-rule="evenodd" d="M16.3142 13.5649C18.081 10.6279 21.5981 10.6279 23.3649 12.0964C25.1317 13.5649 25.1317 16.5019 23.3649 19.4223C22.4072 21.1383 20.2606 22.8543 18.0975 24.2238C17.0077 24.9168 15.6042 24.9168 14.5144 24.2238C12.3678 22.8543 10.2047 21.1383 9.24698 19.4223C7.48017 16.4854 7.48017 13.5484 9.24698 12.0964C11.0303 10.6444 14.5639 10.6444 16.3142 13.5649Z" fill="white"/>
</svg>
