<svg width="43" height="38" viewBox="0 0 43 38" fill="none" xmlns="http://www.w3.org/2000/svg">
<path fill-rule="evenodd" clip-rule="evenodd" d="M28.7136 12.5154C26.8204 11.3462 24.7827 9.67783 23.3628 7.33946C19.8921 1.65118 18.6432 -0.476996 15.2644 0.0878906C11.8857 0.652777 14.9621 9.16549 16.119 11.9505C16.1716 12.0819 16.2505 12.2264 16.3556 12.384L5.65417 12.6336C2.81448 12.6993 0.526943 14.7224 0.382329 17.2578C0.303448 18.7686 0.868758 19.8852 1.88106 20.6997C0.842465 21.2646 0.132541 22.2498 0.0668069 23.4059C0.0536602 23.6424 0.0405134 23.8131 0.0405134 23.892C-0.0778073 25.7048 0.816171 27.0185 2.35434 27.925C0.803025 28.7657 -0.104101 29.9875 0.01422 31.7084C0.171981 34.257 2.48581 36.2538 5.3255 36.3195C10.7945 36.4246 21.9298 36.4246 28.7004 36.4114V12.5154H28.7136Z" fill="#D7DADD"/>
<path fill-rule="evenodd" clip-rule="evenodd" d="M30.5547 11.0693H42.9388V37.7635H30.5547V11.0693Z" fill="#D7DADD"/>
</svg>
