<svg width="176" height="44" viewBox="0 0 176 44" fill="none" xmlns="http://www.w3.org/2000/svg">
<path d="M167.609 43.4326H7.87588C3.54414 43.4326 0 39.8911 0 35.5626V7.87C0 3.5415 3.54414 0 7.87588 0H167.609C171.94 0 175.484 3.5415 175.484 7.87V35.5626C175.484 39.8911 171.94 43.4326 167.609 43.4326Z" fill="#FC5A5A"/>
<path d="M49.3214 17.1149C49.3214 16.623 49.2722 16.1311 49.223 15.6392C49.0753 13.5242 48.8292 11.114 47.4509 9.44162C46.2696 8.01519 44.399 7.67087 42.6762 7.47412C40.4611 7.22819 38.246 7.08063 36.0309 6.98225C31.5023 6.7855 27.0229 6.88388 22.4943 7.03144C20.1807 7.08063 17.8672 7.12981 15.5537 7.32656C12.6987 7.5725 9.79445 7.966 8.4654 10.8189C7.28402 13.3766 7.43169 16.5738 7.43169 19.3283C7.43169 21.7877 7.43169 24.247 7.53014 26.7064C7.67781 29.9036 7.82548 34.0354 11.2712 35.4126C13.0925 36.1504 15.3076 36.3472 17.2765 36.4455C19.3439 36.5931 21.4113 36.5439 23.528 36.5931C27.9089 36.6423 32.2407 36.4947 36.6216 36.4455C39.6735 36.3964 42.7746 36.3472 45.6789 35.3634C48.1893 34.5272 48.8292 31.8219 49.1738 29.4609C49.5183 27.1491 49.4199 24.7389 49.4199 22.4271C49.3707 20.558 49.3707 18.8364 49.3214 17.1149Z" fill="white"/>
<path d="M34.9978 21.6903C31.3551 19.526 27.7618 17.4602 24.1191 15.2959C24.1191 19.5752 24.1191 23.8053 24.1191 28.0355C27.7618 25.9204 31.3551 23.8053 34.9978 21.6903Z" fill="#FC5A5A"/>
<path d="M65.1591 23.2562C65.1591 22.624 64.935 22.1367 64.4868 21.7942C64.0453 21.4517 63.2445 21.106 62.0845 20.757C60.9246 20.4079 60.0019 20.0193 59.3165 19.5913C58.0049 18.7681 57.3492 17.6946 57.3492 16.3708C57.3492 15.2118 57.8204 14.2568 58.7629 13.506C59.7119 12.7553 60.9411 12.3799 62.4503 12.3799C63.4521 12.3799 64.3451 12.5643 65.1294 12.9331C65.9137 13.3019 66.5299 13.8287 66.9781 14.5137C67.4263 15.192 67.6503 15.9461 67.6503 16.7759H65.1591C65.1591 16.0251 64.9218 15.439 64.4473 15.0175C63.9794 14.5894 63.3071 14.3754 62.4306 14.3754C61.6133 14.3754 60.9773 14.5499 60.5226 14.8989C60.0744 15.248 59.8503 15.7353 59.8503 16.361C59.8503 16.8878 60.0942 17.3291 60.5819 17.6847C61.0696 18.0337 61.8736 18.3762 62.9941 18.7121C64.1145 19.0414 65.0141 19.42 65.6929 19.8481C66.3718 20.2696 66.8694 20.757 67.1857 21.3102C67.5021 21.8568 67.6602 22.4989 67.6602 23.2365C67.6602 24.4351 67.1989 25.39 66.2762 26.1013C65.3601 26.806 64.1145 27.1583 62.5393 27.1583C61.498 27.1583 60.539 26.9673 59.6625 26.5853C58.7925 26.1968 58.1137 25.6633 57.626 24.985C57.1449 24.3067 56.9043 23.5164 56.9043 22.6141H59.4054C59.4054 23.4308 59.6757 24.063 60.2161 24.5108C60.7565 24.9587 61.5309 25.1826 62.5393 25.1826C63.4093 25.1826 64.0617 25.008 64.4967 24.659C64.9383 24.3034 65.1591 23.8358 65.1591 23.2562Z" fill="white"/>
<path d="M80.3835 12.5775V22.1894C80.3835 23.7172 79.8925 24.929 78.9105 25.8247C77.9351 26.7138 76.6334 27.1583 75.0055 27.1583C73.3578 27.1583 72.0496 26.7203 71.0808 25.8444C70.112 24.962 69.6275 23.7403 69.6275 22.1795V12.5775H72.1188V22.1992C72.1188 23.1607 72.3627 23.8951 72.8504 24.4022C73.3381 24.9093 74.0565 25.1628 75.0055 25.1628C76.93 25.1628 77.8922 24.1486 77.8922 22.1202V12.5775H80.3835Z" fill="white"/>
<path d="M83.0626 26.9607V12.5775H87.9957C89.6236 12.5775 90.8626 12.9034 91.7128 13.5554C92.563 14.2074 92.9881 15.1788 92.9881 16.4696C92.9881 17.1282 92.8101 17.7209 92.4542 18.2478C92.0984 18.7746 91.5777 19.183 90.8923 19.4727C91.67 19.6835 92.2697 20.0819 92.6915 20.668C93.1199 21.2476 93.3341 21.9457 93.3341 22.7623C93.3341 24.1124 92.8991 25.1496 92.0291 25.8741C91.1658 26.5985 89.9267 26.9607 88.312 26.9607H83.0626ZM85.5637 20.4705V24.9652H88.3417C89.126 24.9652 89.7389 24.771 90.1805 24.3824C90.622 23.9938 90.8428 23.4538 90.8428 22.7623C90.8428 21.2673 90.0783 20.5034 88.5493 20.4705H85.5637ZM85.5637 18.633H88.0154C88.7931 18.633 89.3995 18.4585 89.8345 18.1095C90.276 17.7539 90.4968 17.2533 90.4968 16.6079C90.4968 15.8967 90.2925 15.383 89.8839 15.0669C89.4819 14.7508 88.8525 14.5927 87.9957 14.5927H85.5637V18.633Z" fill="white"/>
<path d="M103.358 23.2562C103.358 22.624 103.134 22.1367 102.686 21.7942C102.245 21.4517 101.444 21.106 100.284 20.757C99.124 20.4079 98.2013 20.0193 97.5159 19.5913C96.2043 18.7681 95.5485 17.6946 95.5485 16.3708C95.5485 15.2118 96.0198 14.2568 96.9622 13.506C97.9113 12.7553 99.1405 12.3799 100.65 12.3799C101.651 12.3799 102.545 12.5643 103.329 12.9331C104.113 13.3019 104.729 13.8287 105.177 14.5137C105.626 15.192 105.85 15.9461 105.85 16.7759H103.358C103.358 16.0251 103.121 15.439 102.647 15.0175C102.179 14.5894 101.506 14.3754 100.63 14.3754C99.8127 14.3754 99.1767 14.5499 98.722 14.8989C98.2738 15.248 98.0497 15.7353 98.0497 16.361C98.0497 16.8878 98.2936 17.3291 98.7813 17.6847C99.269 18.0337 100.073 18.3762 101.193 18.7121C102.314 19.0414 103.213 19.42 103.892 19.8481C104.571 20.2696 105.069 20.757 105.385 21.3102C105.701 21.8568 105.86 22.4989 105.86 23.2365C105.86 24.4351 105.398 25.39 104.476 26.1013C103.559 26.806 102.314 27.1583 100.739 27.1583C99.6974 27.1583 98.7384 26.9673 97.8619 26.5853C96.9919 26.1968 96.3131 25.6633 95.8254 24.985C95.3442 24.3067 95.1037 23.5164 95.1037 22.6141H97.6048C97.6048 23.4308 97.8751 24.063 98.4155 24.5108C98.9559 24.9587 99.7303 25.1826 100.739 25.1826C101.609 25.1826 102.261 25.008 102.696 24.659C103.138 24.3034 103.358 23.8358 103.358 23.2562Z" fill="white"/>
<path d="M119.038 22.2783C118.893 23.8127 118.326 25.0113 117.337 25.8741C116.349 26.7302 115.034 27.1583 113.393 27.1583C112.246 27.1583 111.234 26.8883 110.358 26.3483C109.488 25.8016 108.816 25.0278 108.341 24.0268C107.866 23.0257 107.619 21.8634 107.6 20.5396V19.1961C107.6 17.8395 107.84 16.6442 108.321 15.6102C108.802 14.5762 109.491 13.7794 110.387 13.2196C111.29 12.6598 112.332 12.3799 113.511 12.3799C115.1 12.3799 116.378 12.8112 117.347 13.674C118.316 14.5367 118.879 15.7551 119.038 17.3291H116.546C116.428 16.2951 116.125 15.5509 115.637 15.0965C115.156 14.6355 114.447 14.405 113.511 14.405C112.424 14.405 111.587 14.8034 111 15.6003C110.42 16.3906 110.124 17.553 110.111 19.0875V20.3618C110.111 21.916 110.387 23.1015 110.941 23.9181C111.501 24.7347 112.318 25.1431 113.393 25.1431C114.375 25.1431 115.113 24.9224 115.607 24.4812C116.101 24.0399 116.415 23.3056 116.546 22.2783H119.038Z" fill="white"/>
<path d="M126.571 21.4188H123.783V26.9607H121.282V12.5775H126.343C128.004 12.5775 129.286 12.9496 130.189 13.6937C131.092 14.4379 131.543 15.5147 131.543 16.924C131.543 17.8856 131.309 18.6923 130.841 19.3443C130.38 19.9897 129.734 20.4869 128.904 20.836L132.137 26.8323V26.9607H129.457L126.571 21.4188ZM123.783 19.4135H126.353C127.197 19.4135 127.856 19.2027 128.33 18.7812C128.805 18.3532 129.042 17.7703 129.042 17.0327C129.042 16.2622 128.821 15.6662 128.38 15.2447C127.945 14.8232 127.292 14.6059 126.422 14.5927H123.783V19.4135Z" fill="white"/>
<path d="M136.556 26.9607H134.064V12.5775H136.556V26.9607Z" fill="white"/>
<path d="M139.63 26.9607V12.5775H144.563C146.191 12.5775 147.43 12.9034 148.28 13.5554C149.131 14.2074 149.556 15.1788 149.556 16.4696C149.556 17.1282 149.378 17.7209 149.022 18.2478C148.666 18.7746 148.145 19.183 147.46 19.4727C148.237 19.6835 148.837 20.0819 149.259 20.668C149.687 21.2476 149.902 21.9457 149.902 22.7623C149.902 24.1124 149.467 25.1496 148.597 25.8741C147.733 26.5985 146.494 26.9607 144.88 26.9607H139.63ZM142.131 20.4705V24.9652H144.909C145.693 24.9652 146.306 24.771 146.748 24.3824C147.19 23.9938 147.41 23.4538 147.41 22.7623C147.41 21.2673 146.646 20.5034 145.117 20.4705H142.131ZM142.131 18.633H144.583C145.361 18.633 145.967 18.4585 146.402 18.1095C146.844 17.7539 147.064 17.2533 147.064 16.6079C147.064 15.8967 146.86 15.383 146.451 15.0669C146.049 14.7508 145.42 14.5927 144.563 14.5927H142.131V18.633Z" fill="white"/>
<path d="M160.816 20.5396H154.904V24.9652H161.814V26.9607H152.403V12.5775H161.745V14.5927H154.904V18.5639H160.816V20.5396Z" fill="white"/>
</svg>
